<!--
Copyright (c) 2016-present Sven Greb <development@svengreb.de>
This source code is licensed under the MIT license found in the license file.
-->
<svg viewBox="0 0 512 512" xmlns="http://www.w3.org/2000/svg">
  <path
    d="M504.5 376.758h-8.743c-3.77-68.899-59.149-124.278-128.048-128.048v-68.237l35.935-17.968a7.499 7.499 0 0 0 0-13.416l-35.935-17.967v-3.382a7.5 7.5 0 0 0-15 0v120.975c-33.558 1.871-65.227 16.229-88.774 39.864H207.7c-20.86-15.728-45.668-24.048-71.942-24.048-63.498 0-115.599 49.69-119.484 112.226H7.5a7.5 7.5 0 0 0 0 15h497a7.5 7.5 0 0 0 0-14.999zm-30.197-32.065h-34.448v-17.064h26.983a120.038 120.038 0 0 1 7.465 17.064zM383.52 155.798l-15.811 7.905v-15.811l15.811 7.906zM360.209 263.5c39.791 0 75.144 19.349 97.157 49.129h-25.012a7.5 7.5 0 0 0-7.5 7.5v32.064a7.5 7.5 0 0 0 7.5 7.5h46.099a120.37 120.37 0 0 1 2.274 17.065H239.688c.793-13.027 3.651-25.707 8.54-37.785a7.5 7.5 0 1 0-13.904-5.628c-5.616 13.874-8.851 28.445-9.661 43.413H183.34v-40.597a7.5 7.5 0 0 0-7.5-7.5h-32.064a7.5 7.5 0 0 0-7.5 7.5v40.597H95.522c3.797-40.981 38.361-73.178 80.316-73.178h75.195c-.375.507-.758 1.006-1.126 1.518a7.501 7.501 0 0 0 12.18 8.756c22.665-31.53 59.347-50.354 98.122-50.354zm-191.87 113.258h-17.064v-33.097h17.064v33.097zM39.23 343.644c.112.005.222.017.335.017h16.032a7.5 7.5 0 0 0 0-15h-8.548c18.548-29.488 51.375-49.129 88.709-49.129 14.983 0 29.422 3.091 42.714 9.048h-2.634c-32.175 0-60.691 15.965-78.044 40.389a7.473 7.473 0 0 0-2.117-.308h-8.016a7.5 7.5 0 0 0 0 15h1.553a94.93 94.93 0 0 0-8.76 33.097h-49.15a103.928 103.928 0 0 1 7.926-33.114z"
  />
  <path
    d="M288.064 359.693h80.161a7.5 7.5 0 0 0 7.5-7.5v-32.064a7.5 7.5 0 0 0-7.5-7.5h-80.161a7.5 7.5 0 0 0-7.5 7.5v32.064a7.5 7.5 0 0 0 7.5 7.5zm72.662-15h-25.081v-17.064h25.081v17.064zm-65.162-17.064h25.081v17.064h-25.081v-17.064z"
  />
</svg>
