<!--
Copyright (c) 2016-present Sven Greb <development@svengreb.de>
This source code is licensed under the MIT license found in the license file.
-->
<svg viewBox="0 0 185.999 120.001" xmlns="http://www.w3.org/2000/svg">
  <path
    d="M173.999 48h-45.336c-6.625 0-12-5.373-12-12s5.375-12 12-12h25.336c6.625 0 12-5.373 12-12s-5.375-12-12-12H58.002c-6.629 0-12 5.373-12 12s5.371 12 12 12H89.5c6.625 0 12 5.373 12 12s-5.375 12-12 12H38.002c-6.629 0-12 5.373-12 12 0 6.626 5.371 12 12 12h14c6.625 0 12 5.373 12 12.002 0 6.625-5.375 12-12 12H12c-6.625 0-12 5.371-12 12 0 6.625 5.375 12 12 12h96c6.624 0 11.999-5.375 11.999-12 0-6.629-5.375-12-11.999-12H93.996c-6.625 0-12-5.375-12-12 0-6.629 5.375-12.002 12-12.002h80.003c6.625 0 12-5.373 12-12s-5.375-12-12-12z"
  />
</svg>
