<svg xmlns="http://www.w3.org/2000/svg" viewBox="0 0 512 512">
  <path d="M494.468 115.226L470.42 83.162a7.48 7.48 0 0 0-1.396-1.42C404.969 31.92 317.976 19.23 294.529 16.629 291.572 7.012 282.606 0 272.032 0h-32.064c-10.574 0-19.54 7.012-22.497 16.629-23.447 2.601-110.44 15.291-174.495 65.112a7.51 7.51 0 0 0-1.396 1.42l-24.048 32.064a7.5 7.5 0 0 0 8.692 11.501c1.029-.396 103.664-39.581 165.647-39.581 3.198 0 6.058-2.068 7.103-5.091.227-.656 4.933-13.831 17.462-17.819v15.41c0 11.758 6.47 22.027 16.032 27.453v60.728a7.5 7.5 0 0 0 15 0v-8.535h17.064v329.177c0 4.705-3.828 8.532-8.532 8.532s-8.532-3.828-8.532-8.532V199.89a7.5 7.5 0 0 0-15 0v288.578C232.468 501.443 243.024 512 256 512s23.532-10.557 23.532-23.532v-381.37c9.562-5.426 16.032-15.695 16.032-27.453v-15.41c12.529 3.988 17.233 17.157 17.449 17.782a7.5 7.5 0 0 0 7.115 5.128c4.743 0 9.923.234 15.395.697A7.502 7.502 0 0 0 343.628 81a7.5 7.5 0 0 0-6.842-8.105c-4.064-.344-7.993-.57-11.734-.677-3.731-7.352-12.59-20.39-29.488-23.458V31.89c25.389 3.176 105.386 16.355 163.463 61.083l8.481 11.309c-23.716-8.074-61.799-19.991-97.901-26.764a7.5 7.5 0 1 0-2.765 14.742c56.545 10.609 118.317 34.23 118.934 34.467a7.501 7.501 0 0 0 8.692-11.501zm-307.52-43.009C140.729 73.534 78.21 92.707 44.54 104.215l8.433-11.243c57.997-44.665 138.058-57.887 163.463-61.078v16.865c-16.896 3.068-25.757 16.105-29.488 23.458zm77.584 72.073h-17.064v-33.11c.172.003.343.013.516.013h16.032c.173 0 .344-.01.516-.013v33.11zm16.032-64.645c0 9.125-7.423 16.548-16.548 16.548h-16.032c-9.125 0-16.548-7.424-16.548-16.548V23.532c0-4.705 3.828-8.532 8.532-8.532h32.064c4.705 0 8.532 3.828 8.532 8.532v56.113z"/>
</svg>
