<svg xmlns="http://www.w3.org/2000/svg" viewBox="0 0 512 512">
  <path d="M424.331 128.293c-11.909 0-18.188 2.39-23.728 4.499-3.835 1.459-7.276 2.762-12.869 3.278L287.549 7.26a18.86 18.86 0 0 0-15.5-7.249 18.852 18.852 0 0 0-14.957 8.311l-33.614 50.063-.752-1.204a15.545 15.545 0 0 0-12.21-7.264 15.534 15.534 0 0 0-13.004 5.723l-65.285 80.62c-.793.029-1.613.048-2.49.048-9.136 0-13.411-1.629-18.362-3.516-5.534-2.109-11.807-4.5-23.704-4.5a7.5 7.5 0 0 0 0 15c9.136 0 13.411 1.629 18.362 3.516 5.534 2.109 11.807 4.5 23.704 4.5.512 0 1-.01 1.492-.019l79.722 151.416 12.606 151.276a87.619 87.619 0 0 0 5.278 23.5l8.956 23.882c2.438 6.503 8.467 10.637 15.288 10.637.488 0 .981-.021 1.476-.064 7.415-.644 13.318-5.991 14.69-13.307l14.697-78.384a7.5 7.5 0 0 0-14.743-2.765l-14.697 78.384c-.058.31-.194 1.036-1.245 1.128-1.049.094-1.31-.601-1.42-.896l-8.956-23.882a72.649 72.649 0 0 1-4.375-19.478L215.38 175.249a7.494 7.494 0 0 0-8.097-6.851 7.5 7.5 0 0 0-6.851 8.097l7.335 88.015L147 149.053c2.387-.703 4.463-1.491 6.439-2.244 4.951-1.887 9.227-3.516 18.362-3.516s13.412 1.629 18.362 3.516c5.534 2.109 11.807 4.5 23.704 4.5 11.899 0 18.173-2.39 23.709-4.5 4.952-1.887 9.229-3.516 18.368-3.516 9.133 0 13.407 1.629 18.356 3.516 5.533 2.109 11.804 4.5 23.699 4.5 11.903 0 18.178-2.39 23.715-4.499 4.955-1.887 9.233-3.517 18.376-3.517 9.151 0 13.434 1.63 18.392 3.517 4.178 1.59 8.78 3.339 15.897 4.104l-65.692 226.272c-.031.105-.082.282-.367.355s-.415-.057-.493-.135l-13.351-13.352 35.695-190.37a7.5 7.5 0 0 0-5.989-8.753 7.5 7.5 0 0 0-8.754 5.989L275.11 385.946a7.5 7.5 0 0 0 14.743 2.765l1.273-6.792 6.094 6.094c2.966 2.967 6.863 4.557 10.91 4.556 1.3 0 2.616-.164 3.921-.5 5.368-1.379 9.495-5.38 11.04-10.702l66.905-230.45c7.142-.762 11.755-2.514 15.941-4.108 4.958-1.887 9.241-3.517 18.392-3.517a7.5 7.5 0 0 0 .002-14.999zm-144.687 4.5c-5.533-2.109-11.804-4.5-23.699-4.5-11.899 0-18.173 2.39-23.709 4.5-4.952 1.887-9.229 3.516-18.368 3.516-9.136 0-13.412-1.629-18.362-3.516-5.534-2.109-11.807-4.5-23.704-4.5-6.467 0-11.264.708-15.192 1.692l52.559-64.905a.464.464 0 0 1 .432-.19c.265.016.36.168.406.241l29.874 47.797a7.5 7.5 0 0 0 12.72-7.95l-1.233-1.973 17.261-16.941a.5.5 0 0 1 .385-.147c.224.011.33.135.37.182l41.267 48.675c-3.235.916-7.019 1.535-12.649 1.535-9.135 0-13.409-1.629-18.358-3.516zm60.447-4.5c-5.86 0-10.351.581-14.066 1.42L280.823 76.4a15.566 15.566 0 0 0-11.125-5.466 15.583 15.583 0 0 0-11.578 4.427l-14.896 14.62-11.037-17.659 37.356-55.637c.943-1.404 2.301-1.657 3.027-1.682.726-.025 2.098.131 3.137 1.467l91.42 117.541a110.024 110.024 0 0 1-3.31-1.218c-5.538-2.109-11.817-4.5-23.726-4.5z"/>
</svg>
