<!--
Copyright (c) 2016-present Sven Greb <development@svengreb.de>
This source code is licensed under the MIT license found in the license file.
-->
<svg viewBox="0 0 512 512" xmlns="http://www.w3.org/2000/svg">
  <path
    d="M512 55.597c0-12.976-10.557-23.532-23.532-23.532H23.532C10.557 32.064 0 42.621 0 55.597c0 7.384 3.421 13.981 8.759 18.299C3.34 79.563 0 87.235 0 95.677c0 17.396 14.152 31.548 31.548 31.548h30.869a11.254 11.254 0 0 1 11.271 10.321l21.125 239.417c1.148 13.004 11.858 22.811 24.912 22.811 13.055 0 23.765-9.807 24.913-22.811l16.981-192.448a7.5 7.5 0 0 0-6.812-8.13c-4.117-.357-7.766 2.686-8.13 6.812l-16.981 192.448a9.954 9.954 0 0 1-9.97 9.129 9.955 9.955 0 0 1-9.97-9.129L88.63 136.228c-1.208-13.684-12.477-24.002-26.213-24.002H31.548c-9.125 0-16.548-7.423-16.548-16.548S22.424 79.13 31.548 79.13H408.31a7.5 7.5 0 0 0 0-15H23.533c-4.705 0-8.532-3.828-8.532-8.532s3.828-8.532 8.532-8.532h464.936c4.705 0 8.532 3.828 8.532 8.532s-3.828 8.532-8.532 8.532h-48.1a7.5 7.5 0 0 0 0 15h40.084c9.125 0 16.548 7.424 16.548 16.548 0 9.125-7.424 16.548-16.548 16.548h-24.814c-12.372 0-23.201 8.787-25.75 20.894L404.27 254.799c-1.187 5.64-6.232 9.733-11.996 9.733s-10.809-4.094-11.996-9.733L354.662 133.12c-2.548-12.107-13.378-20.894-25.75-20.894-13.394 0-24.634 10.036-26.147 23.344L266.39 455.659c-.601 5.288-5.068 9.276-10.39 9.276s-9.789-3.988-10.39-9.276l-36.037-317.12c-1.705-15.001-14.375-26.314-29.473-26.314-15.484 0-28.188 11.632-29.548 27.056l-1.046 11.853a7.5 7.5 0 0 0 6.812 8.13c4.118.36 7.766-2.686 8.13-6.812l1.046-11.853c.672-7.625 6.952-13.375 14.606-13.375a14.654 14.654 0 0 1 14.569 13.007l36.037 317.12c1.463 12.875 12.337 22.583 25.294 22.583s23.831-9.708 25.294-22.583l36.374-320.089a11.309 11.309 0 0 1 11.243-10.038c5.32 0 9.976 3.778 11.072 8.984l25.617 121.68c2.641 12.541 13.859 21.643 26.674 21.643 12.816 0 24.034-9.103 26.674-21.644l25.617-121.679c1.096-5.206 5.752-8.984 11.072-8.984h24.814c17.396 0 31.548-14.152 31.548-31.548 0-8.442-3.34-16.114-8.759-21.782 5.339-4.316 8.76-10.913 8.76-18.297z"
  />
</svg>
