<svg viewBox="0 0 511.999 511.999" xmlns="http://www.w3.org/2000/svg">
  <path d="M125.768 153.902C56.548 153.902.233 210.217.233 279.437c0 42.977 20.444 89.185 60.765 137.341a435.236 435.236 0 0 0 17.69 19.834c-26.034 7.106-41.665 19.873-41.665 34.774 0 26.379 45.722 40.613 88.741 40.613 43.02 0 88.741-14.235 88.741-40.613 0-14.889-15.626-27.659-41.643-34.768 10.394-10.973 21.578-23.883 32.19-38.283a7.508 7.508 0 1 0-12.088-8.907c-12.812 17.387-26.68 32.667-38.781 44.804a7.506 7.506 0 0 0-3.274 3.249c-10.84 10.653-19.962 18.556-25.138 22.874-5.119-4.276-14.102-12.072-24.803-22.586a7.51 7.51 0 0 0-3.763-3.739c-34.007-34.205-81.957-93.301-81.957-154.591 0-60.94 49.579-110.519 110.519-110.519s110.519 49.579 110.519 110.519c0 26.613-9.068 55.353-26.952 85.422a7.508 7.508 0 0 0 12.906 7.676c19.284-32.424 29.062-63.746 29.062-93.098.001-69.222-56.314-125.537-125.534-125.537zm-4.595 322.069a7.494 7.494 0 0 0 4.595 1.57 7.496 7.496 0 0 0 4.595-1.57c.921-.713 13.467-10.497 30.19-26.848 25.322 5.164 38.938 15.107 38.938 22.264 0 5.345-7.326 11.651-19.119 16.456-14.464 5.895-33.857 9.142-54.607 9.142-45.006 0-73.726-15.162-73.726-25.598 0-7.167 13.62-17.105 38.956-22.269 16.816 16.448 29.38 26.235 30.178 26.853z"/>
  <path d="M125.768 224.854c-11.875 0-23.167 3.749-32.655 10.842a7.51 7.51 0 0 0-1.518 10.509 7.511 7.511 0 0 0 10.509 1.518c6.871-5.137 15.054-7.853 23.663-7.853 21.817 0 39.566 17.749 39.566 39.567 0 21.817-17.749 39.566-39.566 39.566s-39.566-17.75-39.566-39.566c0-3.723.515-7.404 1.53-10.938a7.508 7.508 0 0 0-5.144-9.288 7.513 7.513 0 0 0-9.288 5.145 54.663 54.663 0 0 0-2.112 15.081c0 30.096 24.485 54.582 54.582 54.582 30.096 0 54.582-24.485 54.582-54.582-.001-30.097-24.487-54.583-54.583-54.583zm327.19-6.733a331.987 331.987 0 0 0 11.701-13.229c31.258-37.333 47.107-73.222 47.107-106.673C511.766 44.062 467.705 0 413.547 0c-39.563 0-75.086 23.546-90.497 59.986a7.507 7.507 0 0 0 3.989 9.839 7.509 7.509 0 0 0 9.839-3.989c13.058-30.872 43.152-50.821 76.669-50.821 45.879 0 83.204 37.326 83.204 83.205 0 62.043-65.138 121.484-83.207 136.775-3.982-3.365-10.25-8.873-17.599-16.077a7.498 7.498 0 0 0-3.339-3.318c-25.923-26.101-62.263-70.968-62.263-117.38a7.508 7.508 0 0 0-15.016 0c0 33.45 15.849 69.339 47.108 106.673a333.897 333.897 0 0 0 11.695 13.223c-19.354 5.815-30.527 15.713-30.527 27.632 0 10.052 8.154 18.911 22.962 24.944 12.67 5.163 29.355 8.007 46.981 8.007 17.625 0 34.31-2.844 46.981-8.007 14.805-6.034 22.959-14.893 22.959-24.945-.001-11.897-11.182-21.804-30.528-27.626zm-39.413 45.561c-35.539 0-54.926-11.848-54.926-17.936 0-3.966 8.819-11.224 27.651-15.228 12.671 12.329 22.076 19.655 22.683 20.126a7.496 7.496 0 0 0 4.595 1.57 7.498 7.498 0 0 0 4.595-1.57c.607-.469 10.01-7.796 22.681-20.124 8.39 1.789 15.658 4.41 20.744 7.506 4.323 2.634 6.904 5.52 6.904 7.72-.002 6.088-19.389 17.936-54.927 17.936z"/>
  <path d="M413.547 54.532c-24.089 0-43.688 19.598-43.688 43.689 0 24.089 19.598 43.687 43.688 43.687s43.688-19.597 43.688-43.687c0-24.09-19.598-43.689-43.688-43.689zm.001 72.36c-15.812 0-28.673-12.862-28.673-28.672s12.862-28.673 28.673-28.673c15.81 0 28.673 12.862 28.673 28.673-.001 15.81-12.863 28.672-28.673 28.672zm-97.391 111.347h-3.428c-2.496 0-5.004.165-7.458.492a7.509 7.509 0 0 0 1.981 14.886 41.745 41.745 0 0 1 5.478-.36h3.427v-.001c4.147 0 7.508-3.36 7.508-7.508s-3.361-7.509-7.508-7.509zm-24.821 225.257h-.035l-9.916.045a7.508 7.508 0 1 0 .033 15.016h.035l9.916-.045a7.51 7.51 0 0 0 7.474-7.542 7.506 7.506 0 0 0-7.507-7.474zm33.73-128.007h-9.916a7.508 7.508 0 0 0 0 15.016h9.916a7.507 7.507 0 0 0 7.508-7.508 7.507 7.507 0 0 0-7.508-7.508zm-39.782-81.953a7.51 7.51 0 0 0-10.609-.428 56.442 56.442 0 0 0-7.567 8.552 7.51 7.51 0 0 0 12.197 8.76 41.494 41.494 0 0 1 5.551-6.275 7.508 7.508 0 0 0 .428-10.609zm45.718 209.778h-.035l-9.915.045a7.509 7.509 0 0 0 .033 15.016h.035l9.915-.045a7.509 7.509 0 0 0-.033-15.016zm-79.331.361h-.035l-9.916.045a7.51 7.51 0 0 0-7.474 7.542 7.507 7.507 0 0 0 7.507 7.474h.035l9.916-.045a7.51 7.51 0 0 0 7.474-7.542 7.506 7.506 0 0 0-7.507-7.474zm39.158-134.497a41.434 41.434 0 0 1-6.593-5.163 7.51 7.51 0 0 0-10.616.206 7.507 7.507 0 0 0 .206 10.615 56.431 56.431 0 0 0 8.991 7.042 7.502 7.502 0 0 0 10.357-2.345 7.507 7.507 0 0 0-2.345-10.355zm-18.456-26.891a41.493 41.493 0 0 1-.76-7.914l.002-.417a7.506 7.506 0 0 0-7.42-7.594l-.089-.001a7.508 7.508 0 0 0-7.506 7.421l-.003.592c0 3.626.349 7.255 1.037 10.786a7.508 7.508 0 1 0 14.739-2.873zm92.36 33.202h-9.916a7.508 7.508 0 0 0 0 15.016h9.916a7.508 7.508 0 0 0 0-15.016zm120.541 15.286a71.487 71.487 0 0 0-9.192-6.162c-3.609-2.036-8.19-.757-10.226 2.856a7.507 7.507 0 0 0 2.856 10.226 56.631 56.631 0 0 1 7.255 4.866 7.473 7.473 0 0 0 4.648 1.616 7.508 7.508 0 0 0 4.659-13.402zm-27.869 117.919c-.57-4.107-4.366-6.982-8.465-6.41-2.459.34-4.977.519-7.488.529l-1.405.007a7.51 7.51 0 0 0 .035 15.016h.037l1.402-.007a71.685 71.685 0 0 0 9.474-.67 7.508 7.508 0 0 0 6.41-8.465zm33.135-21.113a7.505 7.505 0 0 0-10.614-.258 56.716 56.716 0 0 1-6.778 5.523 7.511 7.511 0 0 0-1.893 10.449 7.501 7.501 0 0 0 6.177 3.231 7.476 7.476 0 0 0 4.271-1.338 71.82 71.82 0 0 0 8.58-6.992 7.508 7.508 0 0 0 .257-10.615zm14.612-36.463a7.51 7.51 0 0 0-8.767 5.988 56.243 56.243 0 0 1-2.28 8.428 7.509 7.509 0 0 0 14.145 5.043 71.2 71.2 0 0 0 2.893-10.692 7.51 7.51 0 0 0-5.991-8.767zm4.46-24.134a70.893 70.893 0 0 0-3.886-10.384 7.509 7.509 0 0 0-13.608 6.349 55.798 55.798 0 0 1 3.061 8.177 7.512 7.512 0 0 0 7.213 5.439 7.51 7.51 0 0 0 7.22-9.581zm-105.213-51.495h-9.916a7.508 7.508 0 0 0 0 15.016h9.916a7.508 7.508 0 0 0 0-15.016zm-33.731 127.645h-.035l-9.916.045a7.509 7.509 0 0 0 .033 15.016h.035l9.916-.045a7.508 7.508 0 1 0-.033-15.016zm73.727-127.573a71.127 71.127 0 0 0-3.196-.071h-7.051a7.508 7.508 0 0 0 0 15.016h7.051v-.001c.849 0 1.693.019 2.532.056a7.506 7.506 0 0 0 7.832-7.167 7.507 7.507 0 0 0-7.168-7.833zm-34.062 127.394h-.035l-9.916.045a7.509 7.509 0 0 0 .033 15.016h.035l9.916-.045a7.51 7.51 0 0 0 7.474-7.542 7.506 7.506 0 0 0-7.507-7.474z"/>
</svg>
