<svg xmlns="http://www.w3.org/2000/svg" viewBox="0 0 512 512">
  <path d="M178.54 173.114a7.502 7.502 0 0 0 8.361 1.563L256 143.966l69.099 30.71a7.497 7.497 0 0 0 8.361-1.563 7.5 7.5 0 0 0 1.524-8.369L262.839 4.422a7.5 7.5 0 0 0-13.678 0l-72.145 160.323a7.498 7.498 0 0 0 1.524 8.369zm84.96-42.23V42.443l49.748 110.552-49.748-22.111zm-15-88.441v88.441l-49.748 22.11L248.5 42.443z"/>
  <path d="M272.548 183.855v41.629l-34.597-46.129a7.5 7.5 0 0 0-13.5 4.5v64.129a7.5 7.5 0 0 0 15 0v-41.629l34.597 46.129a7.5 7.5 0 0 0 13.5-4.5v-64.129a7.5 7.5 0 0 0-15 0zm40.035-129.04c79.108 22.202 138.016 89.018 150.075 170.222a7.5 7.5 0 1 0 14.837-2.204C464.569 135.79 401.428 64.17 316.636 40.373a7.5 7.5 0 0 0-4.053 14.442zM55.597 263.5a7.5 7.5 0 0 0 0-15h-8.389c3.266-91.318 65.918-170.602 154.619-194.346a7.502 7.502 0 0 0-3.879-14.491C102.699 65.162 35.475 150.402 32.201 248.5H7.5a7.5 7.5 0 0 0 0 15h48.097zm448.903-15h-48.097a7.5 7.5 0 0 0 0 15h8.383C460.91 372.755 372.755 460.911 263.5 464.786v-8.383a7.5 7.5 0 0 0-15 0v8.385c-47.708-1.711-93.456-19.686-129.546-51.074-37.609-32.709-62.331-77.724-69.612-126.751-.608-4.097-4.426-6.93-8.52-6.317a7.5 7.5 0 0 0-6.317 8.52c7.806 52.561 34.301 100.813 74.605 135.866 38.82 33.763 88.063 53.047 139.39 54.764V504.5a7.5 7.5 0 0 0 15 0v-24.702c57.003-1.864 110.324-24.929 150.846-65.452 40.523-40.522 63.588-93.843 65.452-150.846H504.5a7.5 7.5 0 0 0 0-15z"/>
</svg>
