<svg viewBox="0 0 512.092 512.092" xmlns="http://www.w3.org/2000/svg">
  <path d="M290.179 105.391v-2.899a33.73 33.73 0 0 0-2.091-11.358c16.949-13.6 23.467-36.416 16.259-56.917S277.776 0 256.046 0s-41.094 13.717-48.301 34.217c-7.208 20.5-.69 43.317 16.259 56.917a33.73 33.73 0 0 0-2.091 11.358v2.899C116.935 123.127 43.059 218.345 51.963 324.437s97.617 187.665 204.083 187.655c106.465.01 195.179-81.563 204.083-187.655 8.904-106.092-64.972-201.31-169.95-219.046zm-68.267-54.099c0-18.851 15.282-34.133 34.133-34.133s34.133 15.282 34.133 34.133a33.71 33.71 0 0 1-11.723 25.659c-12.744-11.456-32.077-11.456-44.821 0a33.715 33.715 0 0 1-11.722-25.659zm51.2 51.2h-34.133c0-9.426 7.641-17.067 17.067-17.067s17.066 7.641 17.066 17.067zm-17.066 392.533c-103.682 0-187.733-84.051-187.733-187.733.117-103.634 84.1-187.616 187.733-187.733 103.682 0 187.733 84.051 187.733 187.733s-84.051 187.733-187.733 187.733z"/>
  <path d="M366.5 188.938l.304-.363a8.537 8.537 0 0 0-5.064-13.89 8.536 8.536 0 0 0-8.02 2.924l-.3.357a161.895 161.895 0 0 0-33.992-19.884l.083-.227a8.529 8.529 0 0 0-9.499-11.323 8.53 8.53 0 0 0-6.534 5.49l-.083.23a161.406 161.406 0 0 0-38.817-6.66v-.432c0-4.713-3.82-8.533-8.533-8.533s-8.533 3.82-8.533 8.533v.432a161.463 161.463 0 0 0-38.817 6.66l-.083-.23a8.532 8.532 0 0 0-14.554-2.572 8.53 8.53 0 0 0-1.479 8.405l.083.227a161.988 161.988 0 0 0-33.992 19.884l-.3-.357a8.535 8.535 0 0 0-12.025-1.058 8.535 8.535 0 0 0-1.058 12.025l.304.363a163.086 163.086 0 0 0-25.362 30.087l-.325-.188a8.532 8.532 0 1 0-8.533 14.775l.337.195a160.75 160.75 0 0 0-13.5 36.987l-.346-.061a8.535 8.535 0 0 0-2.967 16.809l.335.06a147.688 147.688 0 0 0 0 39.381l-.335.06a8.534 8.534 0 0 0 2.968 16.809l.346-.061a160.704 160.704 0 0 0 13.5 36.987l-.337.195a8.532 8.532 0 1 0 8.533 14.775l.325-.188a163.125 163.125 0 0 0 25.362 30.087l-.304.363a8.536 8.536 0 0 0 13.083 10.967l.3-.357a161.895 161.895 0 0 0 33.992 19.884l-.083.227a8.529 8.529 0 0 0 9.499 11.323 8.53 8.53 0 0 0 6.534-5.49l.083-.23a161.456 161.456 0 0 0 38.817 6.661v.432c0 4.713 3.82 8.533 8.533 8.533s8.533-3.82 8.533-8.533v-.432a161.463 161.463 0 0 0 38.817-6.66l.083.23a8.532 8.532 0 0 0 14.554 2.572 8.53 8.53 0 0 0 1.479-8.405l-.083-.227a161.988 161.988 0 0 0 33.992-19.884l.3.357a8.537 8.537 0 0 0 13.084-10.966l-.304-.363a163.086 163.086 0 0 0 25.362-30.087l.325.188a8.447 8.447 0 0 0 4.258 1.146 8.53 8.53 0 0 0 4.275-15.92l-.337-.195a160.75 160.75 0 0 0 13.5-36.987l.346.061a8.533 8.533 0 0 0 9.981-7.665 8.534 8.534 0 0 0-7.014-9.144l-.335-.06a147.688 147.688 0 0 0 0-39.381l.335-.06a8.535 8.535 0 0 0-2.967-16.809l-.346.061a160.704 160.704 0 0 0-13.5-36.987l.337-.195a8.532 8.532 0 1 0-8.533-14.775l-.325.188a162.991 162.991 0 0 0-25.363-30.091zm34.612 118.354c0 80.118-64.949 145.067-145.067 145.067-80.081-.089-144.977-64.986-145.067-145.067 0-80.118 64.949-145.067 145.067-145.067s145.067 64.949 145.067 145.067z"/>
  <path d="M287.614 294.274a34.35 34.35 0 0 0-18.528-18.542l-92.881-60.082a8.535 8.535 0 0 0-11.8 11.8l60.074 92.859a34.35 34.35 0 0 0 18.528 18.542l92.881 60.082a8.535 8.535 0 0 0 11.8-11.8l-60.074-92.859zm-61.564-2.959L200.354 251.6l39.722 25.693a31.09 31.09 0 0 0-14.026 14.022zm17.929 28.043a17.066 17.066 0 1 1 24.134.001c-6.752 6.449-17.382 6.449-24.134-.001zm28.037 17.932a31.085 31.085 0 0 0 14.026-14.022l25.696 39.715-39.722-25.693zm-33.037-106.798a8.53 8.53 0 0 0 8.534-8.534v-13.533l19.567 19.567a8.531 8.531 0 0 0 14.566-6.034v-34.133c0-4.713-3.82-8.533-8.533-8.533s-8.533 3.82-8.533 8.533v13.533l-19.567-19.567a8.531 8.531 0 0 0-14.566 6.034v34.133a8.53 8.53 0 0 0 8.532 8.534z"/>
</svg>
