<svg xmlns="http://www.w3.org/2000/svg" viewBox="0 0 512 512">
  <path d="M424.339 88.178c-39.496 0-71.629 32.132-71.629 71.629 0 39.496 32.133 71.629 71.629 71.629 30.656 0 55.597-24.94 55.597-55.597s-24.94-55.597-55.597-55.597c-21.816 0-39.564 17.748-39.564 39.564 0 21.815 17.749 39.564 39.564 39.564 12.976 0 23.532-10.557 23.532-23.532 0-12.976-10.557-23.532-23.532-23.532a7.5 7.5 0 0 0 0 15c4.705 0 8.532 3.827 8.532 8.532 0 4.704-3.828 8.532-8.532 8.532-13.545 0-24.564-11.02-24.564-24.564s11.02-24.564 24.564-24.564c22.385 0 40.597 18.211 40.597 40.597 0 22.385-18.211 40.597-40.597 40.597-31.225 0-56.629-25.404-56.629-56.629 0-31.226 25.404-56.629 56.629-56.629 40.065 0 72.661 32.596 72.661 72.661S464.404 248.5 424.339 248.5h-32.066a7.5 7.5 0 0 0 0 15h32.066c48.336 0 87.661-39.325 87.661-87.661 0-48.337-39.325-87.661-87.661-87.661zM7.5 263.5h352.707a7.5 7.5 0 0 0 0-15H7.5a7.5 7.5 0 0 0 0 15zm352.71 17.064H7.5a7.5 7.5 0 0 0 0 15h352.71c31.225 0 56.629 25.404 56.629 56.629 0 31.226-25.404 56.629-56.629 56.629-22.385 0-40.596-18.211-40.596-40.597 0-22.385 18.211-40.597 40.597-40.597 13.545 0 24.564 11.02 24.564 24.564s-11.02 24.564-24.564 24.564c-4.705 0-8.532-3.827-8.532-8.532 0-4.704 3.828-8.532 8.532-8.532a7.5 7.5 0 0 0 0-15c-12.976 0-23.532 10.557-23.532 23.532 0 12.976 10.557 23.532 23.532 23.532 21.816 0 39.564-17.748 39.564-39.564 0-21.815-17.749-39.564-39.565-39.564-30.656 0-55.596 24.941-55.596 55.597 0 30.656 24.94 55.596 55.597 55.596 39.496 0 71.629-32.132 71.629-71.629-.001-39.495-32.134-71.628-71.63-71.628zm-216.436-49.128h200.403a7.5 7.5 0 0 0 0-15H143.774a7.5 7.5 0 0 0 0 15zM248.5 191.871a7.5 7.5 0 0 0 7.5 7.5h72.145a7.5 7.5 0 0 0 0-15H256a7.5 7.5 0 0 0-7.5 7.5z"/>
  <path d="M288.064 312.629h-80.161a7.5 7.5 0 0 0 0 15h80.161a7.5 7.5 0 0 0 7.5-7.5 7.5 7.5 0 0 0-7.5-7.5zm-8.016 32.064H256a7.5 7.5 0 0 0 0 15h24.048a7.5 7.5 0 1 0 0-15zm-45.383-203.631c1.464 1.464 3.384 2.196 5.303 2.196s3.839-.732 5.303-2.196l6.721-6.721 6.721 6.721c1.464 1.464 3.384 2.196 5.303 2.196s3.839-.732 5.303-2.196a7.5 7.5 0 0 0 0-10.606l-6.721-6.721 6.721-6.721a7.5 7.5 0 0 0 0-10.606 7.5 7.5 0 0 0-10.606 0l-6.721 6.721-6.721-6.721a7.5 7.5 0 0 0-10.606 0 7.5 7.5 0 0 0 0 10.606l6.721 6.721-6.721 6.721a7.497 7.497 0 0 0 0 10.606zm-66.842 203.631h-8.532v-8.532a7.5 7.5 0 0 0-15 0v8.532h-8.532a7.5 7.5 0 0 0 0 15h8.532v8.532c0 4.143 3.358 7.5 7.5 7.5s7.5-3.357 7.5-7.5v-8.532h8.532a7.5 7.5 0 1 0 0-15zm8.016-161.354h.516v.516c0 4.143 3.358 7.5 7.5 7.5s7.5-3.357 7.5-7.5v-.516h.516a7.5 7.5 0 0 0 0-15h-.516v-.517a7.5 7.5 0 0 0-15 0v.517h-.516a7.5 7.5 0 1 0 0 15z"/>
</svg>
