<svg xmlns="http://www.w3.org/2000/svg" viewBox="0 0 512 512">
  <path d="M390.968 257.024c-4.271-69.268-60.98-124.467-130.336-126.916-77.078-2.722-140.623 59.327-140.357 135.87.255 73.363 59.639 133.654 132.99 134.976 27.749.5 53.657-7.393 75.361-21.301 3.951-2.532 4.508-8.096 1.207-11.431-.039-.036-.076-.074-.114-.112-2.453-2.478-6.304-2.922-9.241-1.044-18.707 11.966-40.92 18.911-64.728 18.911-60.395 0-110.548-44.672-119.165-102.708.01-.056.026-.109.035-.165 9.773-62.074 59.738-107.128 118.805-107.128 59.423 0 110.403 46.959 119.144 109.462-3.089 18.471-10.397 35.531-20.893 50.155-2.093 2.916-1.724 6.93.801 9.48l.106.107c3.253 3.286 8.655 2.805 11.348-.954 11.7-16.328 19.869-35.351 23.372-55.944.26-.767.4-1.583.397-2.426a136.408 136.408 0 0 0 1.268-28.832zm-45.978-60.196c-24.737-23.12-56.545-35.853-89.564-35.853-32.327 0-63.627 12.264-88.134 34.534-9.916 9.01-18.481 19.434-25.497 30.879 16.275-47.291 61.208-81.366 113.955-81.366 53.627 0 99.176 35.223 114.745 83.746-6.932-11.807-15.499-22.587-25.505-31.94z"/>
  <path d="M318.818 207.469a7.46 7.46 0 0 0-4.731-.834l.001-.001-.026.005a7.836 7.836 0 0 0-1.13.265c-.083.026-.165.056-.247.085a7.607 7.607 0 0 0-.365.138c-.103.042-.204.091-.305.139-.106.05-.212.098-.316.153-.02.01-.04.018-.059.029l-54.458 29.458a7.486 7.486 0 0 0-1.522 1.099c-20.084.049-36.409 16.402-36.409 36.498 0 1.326.075 2.635.214 3.925-.048.073-.1.142-.146.217L187.86 331.1c-.027.045-.046.092-.072.138a7.704 7.704 0 0 0-.386.776 7.974 7.974 0 0 0-.277.755 7.578 7.578 0 0 0-.123.465c-.022.093-.047.186-.065.279a7.439 7.439 0 0 0-.094.631c-.004.037-.011.074-.015.11a7.497 7.497 0 0 0 11.125 7.25l54.458-30.458c.101-.057.194-.122.292-.183 1.006.084 2.02.137 3.047.137 20.126 0 36.5-16.374 36.5-36.5 0-.961-.049-1.91-.122-2.853l29.654-53.994a7.5 7.5 0 0 0-2.964-10.184zM215.204 314.668l11.14-18.577a36.798 36.798 0 0 0 7.942 7.905l-19.082 10.672zM255.75 296c-11.855 0-21.5-9.645-21.5-21.5s9.645-21.5 21.5-21.5 21.5 9.645 21.5 21.5-9.645 21.5-21.5 21.5zm29.49-42.972a36.786 36.786 0 0 0-9.555-9.079l20.687-11.19-11.132 20.269z"/>
  <path d="M430.75 265.5c0-87.314-64.279-159.895-148-172.916v-11.9c6.56-1.386 11.5-7.217 11.5-14.184v-7c0-2.708-.76-5.236-2.058-7.408A39.35 39.35 0 0 0 294.25 39.5c0-21.78-17.72-39.5-39.5-39.5s-39.5 17.72-39.5 39.5c0 5.174.995 10.188 2.934 14.927a14.39 14.39 0 0 0-.934 5.073v7c0 6.236 3.965 11.549 9.5 13.593v12.823c-82.741 13.859-146 85.967-146 172.584 0 4.341.495 189.154.5 191 0 15.164 12.337 27.5 27.5 27.5s27.5-12.336 27.5-27.5v-25.15c16.231 15.285 35.297 27.409 56 35.552V477.5c0 15.164 12.337 27.5 27.5 27.5 14.739 0 26.804-11.656 27.468-26.234 3.009.153 6.027.234 9.032.234 10.421 0 20.81-.928 31-2.749v8.249c0 15.164 12.337 27.5 27.5 27.5s27.5-12.336 27.5-27.5v-28.061a174.56 174.56 0 0 0 34-25.065V443.5c0 15.164 12.337 27.5 27.5 27.5s27.5-12.336 27.5-27.521c-.005-1.737-.5-173.665-.5-177.979zM254.75 15c13.51 0 24.5 10.991 24.5 24.5 0 1.871-.232 3.707-.643 5.5H231.75c-.292 0-.578.027-.866.044a24.548 24.548 0 0 1-.634-5.544c0-13.509 10.99-24.5 24.5-24.5zm-22.5 51v-6h47v6h-47zm35.5 15v9.919c-3.967-.27-7.966-.419-12-.419-4.712 0-9.38.193-14 .561V81h26zm-75.5 369.668c-21.31-9.323-40.522-23.32-56-40.856v-16.477c16.251 15.187 35.282 27.193 56 35.269v22.064zm95 10.318a161.209 161.209 0 0 1-31 3.014c-2.995 0-6.003-.093-9-.259v-23.453c2.86.141 5.701.212 8.5.212 10.567 0 21.126-.955 31.5-2.844v23.33zm89-51.167c-9.984 11.316-21.381 21.073-34 29.122v-21.299a174.648 174.648 0 0 0 34-25.242v17.419zM403.75 456c-6.893 0-12.5-5.607-12.5-12.5v-69.975a7.501 7.501 0 0 0-13.23-4.84c-13.144 15.558-28.895 28.317-46.813 37.924a7.499 7.499 0 0 0-3.957 6.61V484.5c0 6.893-5.607 12.5-12.5 12.5s-12.5-5.607-12.5-12.5v-56.081a7.501 7.501 0 0 0-9.24-7.295 160.745 160.745 0 0 1-37.26 4.376c-4.993 0-10.138-.248-15.292-.736a7.498 7.498 0 0 0-8.208 7.466v45.271c0 6.893-5.607 12.5-12.5 12.5s-12.5-5.607-12.5-12.5v-54.107a7.5 7.5 0 0 0-4.992-7.068c-26.175-9.286-49.628-25.368-67.823-46.509a7.502 7.502 0 0 0-13.185 4.893v81.79c0 6.893-5.607 12.5-12.5 12.5s-12.5-5.607-12.5-12.52c-.005-1.866-.5-186.659-.5-190.98 0-88.224 71.775-160 160-160s160 71.776 160 160c0 4.335.479 170.932.5 178 0 6.893-5.607 12.5-12.5 12.5z"/>
</svg>
