<!--
Copyright (c) 2016-present Sven Greb <development@svengreb.de>
This source code is licensed under the MIT license found in the license file.
-->
<svg viewBox="0 0 511.998 590.77" xmlns="http://www.w3.org/2000/svg">
  <path
    d="M393.818 364.301H118.173c-10.871 0-19.713 8.843-19.713 19.713v49.752c0 12.736 8.256 23.572 19.692 27.457v50.771c0 10.871 8.843 19.713 19.712 19.713h236.27c10.871 0 19.713-8.842 19.713-19.713v-50.771c11.439-3.887 19.691-14.721 19.691-27.457v-49.752c.001-10.87-8.841-19.713-19.72-19.713zM137.847 511.995v-49.229h88.613v11.164c0 10.132 8.242 18.373 18.373 18.373h22.332c5.078 0 9.996-2.155 13.453-5.869a18.464 18.464 0 0 0 4.922-12.504v-11.164h88.613l-.021 49.25-236.285-.021zm127.998-59.075v19.69h-19.689v-49.229h19.689v29.539zm118.697-9.847H285.54v-19.692h9.844c5.016 0 9.346-3.938 9.807-8.935.461-5-3.061-9.683-8.004-10.597a10.262 10.262 0 0 0-1.803-.161h-78.77c-5.014 0-9.346 3.938-9.805 8.934-.461 5 3.061 9.679 8.004 10.595.594.108 1.195.164 1.801.164h9.848v19.69h-99.004c-5.129 0-9.305-4.174-9.305-9.308l.02-49.77h275.654l.02 49.77c0 5.134-4.174 9.308-9.305 9.308v.002zm-167.925-256h78.768c5.439-.004 9.846-4.41 9.85-9.849v-39.383c0-5.436-4.41-9.848-9.85-9.848h-78.768c-5.439.002-9.846 4.41-9.848 9.846v39.385c.002 5.439 4.408 9.847 9.848 9.849zm9.843-39.386h59.078v19.692H226.46v-19.692z"
  />
  <path
    d="M493.496 347.836a32.604 32.604 0 0 0-14.146-3.224h-26.426v-70.248c6.295-12.438 9.848-26.492 9.848-41.358V103.412c-.002-19.014-15.479-34.492-34.488-34.492h-34.438v-9.846c.002-5.436-4.41-9.846-9.846-9.846h-39.385c-5.438.001-9.846 4.408-9.848 9.846v9.846h-39.385V39.381c0-9.849-3.771-19.468-10.455-26.701C278.302 5.506 269.095.965 259.363.139c-9.887-.84-19.863 2.135-27.66 8.265-7.631 5.997-12.895 14.757-14.525 24.331a39.253 39.253 0 0 0-.561 6.646V68.92H177.23v-9.846a9.847 9.847 0 0 0-9.848-9.845H128c-5.438.001-9.844 4.409-9.846 9.845v9.848H83.731c-19.021 0-34.5 15.478-34.5 34.49v129.594c0 14.864 3.552 28.916 9.845 41.354v70.255H32.65C14.642 344.612 0 359.256 0 377.254v138.063c0 9.029 7.347 16.373 16.375 16.373h42.701v9.85c0 27.146 22.086 49.229 49.231 49.229h295.386c27.145 0 49.229-22.087 49.229-49.229v-9.85h42.701c9.029 0 16.375-7.344 16.375-16.385V377.254c.003-12.941-7.559-24.14-18.502-29.418-1.426-.69 10.943 5.278 0 0zM236.308 39.381c0-4.924 1.891-9.733 5.23-13.352 3.313-3.586 7.916-5.857 12.785-6.271a19.787 19.787 0 0 1 13.83 4.133c3.813 2.998 6.443 7.379 7.262 12.166.188 1.098.281 2.209.281 3.324V68.92h-39.389V39.381h.001zm243.043 324.92c7.148 0 12.959 5.813 12.959 12.949v36.283h-39.387v-49.232h26.428zm-112.256-98.459h-5.57a7.076 7.076 0 0 1-7.061-7.06v-12.633h19.689v12.633c-.007 3.847-3.214 7.054-7.058 7.06zm16.906-39.384h-49.228v-19.692h59.074v19.693l-9.846-.001zm-9.847-157.54v118.155h-19.689V78.764l-.002-.053v-9.793h19.691zM118.158 206.764h59.072v19.693h-59.072v-19.693zm19.689 39.385h19.691v12.633a7.07 7.07 0 0 1-7.061 7.06h-5.57a7.074 7.074 0 0 1-7.063-7.06l.003-12.633zm19.694-177.231v118.155H137.85V68.917l19.691.001zm-88.618 34.493c0-8.162 6.646-14.799 14.81-14.799h34.423v98.46h-5.171c-8.006 0-14.521 6.518-14.521 14.521v30.03c0 8.007 6.519 14.522 14.521 14.522h5.171v12.634c0 14.748 12.004 26.752 26.752 26.752h5.57c14.75 0 26.754-12.004 26.754-26.752v-12.633h5.168c8.008 0 14.521-6.521 14.521-14.523v-30.03c0-8.004-6.518-14.521-14.521-14.521h-5.168V88.608h157.539v98.463h-5.17c-8.006 0-14.521 6.519-14.521 14.521v30.031c0 8.006 6.518 14.522 14.521 14.522h5.17v12.634c0 14.748 12.002 26.752 26.752 26.752h5.57c14.75 0 26.752-12.004 26.752-26.752v-12.633h5.17c8.006 0 14.523-6.52 14.523-14.523v-30.029c0-8.006-6.52-14.521-14.523-14.521h-5.17V88.607h34.434c8.164 0 14.801 6.637 14.801 14.801v129.594h-.002c0 10.53-2.316 21.021-6.789 30.557a72.787 72.787 0 0 1-18.313 24.123c-8.148 7.033-17.861 12.229-28.258 15.037a72.376 72.376 0 0 1-18.863 2.506H141.146c-12.32 0-24.563-3.193-35.303-9.236A72.95 72.95 0 0 1 83.156 276c-6.143-8.258-10.488-17.813-12.641-27.879a72.272 72.272 0 0 1-1.594-15.117l.002-129.593zm-49.23 273.843c0-7.14 5.811-12.949 12.957-12.949h26.43v49.229H19.693v-36.28zm0 134.741v-78.768h39.385v78.768H19.693zm413.539 29.539c0 16.285-13.256 29.539-29.539 29.539H108.309c-16.285 0-29.539-13.254-29.539-29.539V300.519a92.017 92.017 0 0 0 31.672 19.129 92.117 92.117 0 0 0 30.704 5.272h229.711a92.25 92.25 0 0 0 37.932-8.184 91.966 91.966 0 0 0 24.443-16.219v53.914l-.002.021v167.386l.002.021v19.675zm19.691-29.539v-78.772h39.387v78.771l-39.387.001z"
  />
</svg>
