<!--
Copyright (c) 2016-present Sven Greb <development@svengreb.de>
This source code is licensed under the MIT license found in the license file.
-->
<svg viewBox="0 0 512 512" xmlns="http://www.w3.org/2000/svg">
  <path
    d="M431.636 225.857V122.355a7.5 7.5 0 0 0-15 0v82.337a30.976 30.976 0 0 0-4.377-1.939l-20.704-7.333v-88.388a7.5 7.5 0 0 0-15 0v83.075l-25.08-8.883V93.005a7.5 7.5 0 0 0-15 0v82.908l-25.081-8.883V78.309a7.5 7.5 0 0 0-15 0v83.409l-25.081-8.883V64.113a7.5 7.5 0 0 0-15 0v83.409l-25.081-8.883V50.085a7.5 7.5 0 0 0-15 0v83.242l-25.08-8.883V35.556a7.5 7.5 0 0 0-15 0v83.576l-25.081-8.883V21.528a7.5 7.5 0 0 0-15 0v83.409l-25.08-8.883V7.5a7.5 7.5 0 0 0-15 0v83.242l-6.028-2.135a7.501 7.501 0 0 0-5.008 14.14L407.25 216.893c7.351 2.603 9.875 8.993 9.787 14.105-.088 5.112-2.832 11.411-10.268 13.759l-15.215 4.805v-10.598a7.5 7.5 0 0 0-15 0v15.335l-25.08 7.92v-36.907a7.5 7.5 0 0 0-15 0v41.644l-25.081 7.92v-63.968a7.5 7.5 0 0 0-15 0v68.705l-25.081 7.92v-91.154a7.5 7.5 0 0 0-15 0v95.891l-25.081 7.92V182.518a7.5 7.5 0 0 0-15 0V305.28c-9.961 4.792-16.546 14.239-17.542 25.59-1.136 12.943 5.315 24.717 16.834 30.727l102.449 53.452c4.863 2.537 8.055 7.112 8.757 12.552s-1.222 10.675-5.28 14.365l-10.057 9.143v-14.746a7.5 7.5 0 0 0-15 0v28.382l-25.081 22.8v-70.723a7.5 7.5 0 0 0-15 0V504.5c0 .061.008.112.009.171.003.141.011.282.022.423.006.068.011.138.02.204a7.48 7.48 0 0 0 7.452 6.699 7.47 7.47 0 0 0 5.042-1.95l62.682-56.984a31.567 31.567 0 0 0 10.066-27.385 31.565 31.565 0 0 0-16.695-23.929l-13.519-7.053v-70.895a7.5 7.5 0 0 0-15 0v63.068l-25.081-13.086v-37.291a7.5 7.5 0 0 0-15 0v29.464l-33.85-17.661c-7.223-3.768-9.297-10.796-8.831-16.118.467-5.321 3.733-11.88 11.501-14.333l186.152-58.785c12.38-3.909 20.525-14.823 20.749-27.804a30.25 30.25 0 0 0-.394-5.398z"
  />
</svg>
