<!--
Copyright (c) 2016-present Sven Greb <development@svengreb.de>
This source code is licensed under the MIT license found in the license file.
-->
<svg viewBox="0 0 512 512" xmlns="http://www.w3.org/2000/svg">
  <path
    d="M506.6 248.8l-134.537-39.24 66.921-126.406a7.5 7.5 0 0 0-10.138-10.138L302.44 139.937 263.2 5.4a7.5 7.5 0 0 0-14.4 0l-39.24 134.537-126.406-66.92a7.502 7.502 0 0 0-10.138 10.138l66.921 126.406L5.4 248.8a7.5 7.5 0 0 0 0 14.4l134.537 39.24-66.92 126.406a7.5 7.5 0 0 0 10.138 10.138l126.406-66.921L248.8 506.6a7.5 7.5 0 0 0 14.4 0l39.24-134.537 126.406 66.921a7.497 7.497 0 0 0 8.813-1.325 7.5 7.5 0 0 0 1.325-8.813L372.063 302.44 506.6 263.2a7.5 7.5 0 0 0 0-14.4zm-192.324 54.869l-40.17-40.169H452l-137.724 40.169zM263.5 451.999V274.106l40.169 40.169L263.5 451.999zm-55.169-137.723l40.169-40.169V452l-40.169-137.724zM60 263.5h43.695a7.5 7.5 0 0 0 0-15H60l137.724-40.169 40.169 40.169H135.759a7.5 7.5 0 0 0 0 15h102.135l-40.169 40.169L60 263.5zM248.5 60v177.893l-40.169-40.169L248.5 60zm55.169 137.724l-40.169 40.17V60l40.169 137.724zM452 248.5H274.106l40.169-40.169L452 248.5zm-60.217-138.889l-58.253 58.253a7.5 7.5 0 0 0 5.303 12.803 7.474 7.474 0 0 0 5.303-2.197l58.253-58.253-45.029 85.055-39.199-11.433-11.433-39.199 85.055-45.029zm-195.549 76.016l-76.017-76.017 85.055 45.029-9.038 30.988zm-86.623-65.41l76.017 76.017-30.988 9.038-45.029-85.055zm10.606 282.172l56.75-56.75a7.5 7.5 0 0 0 0-10.606 7.5 7.5 0 0 0-10.606 0l-56.75 56.75 45.029-85.055 39.199 11.433 11.433 39.199-85.055 45.029zm195.549-76.016l76.017 76.017-85.055-45.029 9.038-30.988zm86.623 65.41l-76.017-76.017 30.988-9.038 45.029 85.055z"
  />
</svg>
