<svg xmlns="http://www.w3.org/2000/svg" viewBox="0 0 512 512">
  <path d="M220.788 397.97l-9.559-5.519v-56.133l9.559-5.519a7.5 7.5 0 0 0-7.5-12.99l-9.559 5.519-48.613-28.067v-11.038a7.5 7.5 0 0 0-15 0v11.038l-48.613 28.067-9.559-5.519a7.5 7.5 0 0 0-7.5 12.99l9.559 5.519v56.133l-9.559 5.519a7.5 7.5 0 0 0 7.5 12.99l9.559-5.519 48.613 28.067v11.038a7.5 7.5 0 0 0 15 0v-11.038l48.613-28.067 9.559 5.519a7.499 7.499 0 0 0 10.245-2.745 7.498 7.498 0 0 0-2.745-10.245zm-32.059-65.982l-.61.352a7.5 7.5 0 0 0 7.5 12.99l.61-.352v38.813l-33.613-19.406 6.542-3.777a7.5 7.5 0 0 0-7.5-12.99l-6.542 3.777v-38.813l33.613 19.406zm-48.613-19.407v38.813l-33.613-19.406 33.613-19.407zm-41.112 32.397l33.613 19.406-33.613 19.406v-38.812zm7.499 51.803l33.613-19.406v38.813l-33.613-19.407zm48.613 19.407v-38.813l33.613 19.406-33.613 19.407zm353.134-294.94l-9.559-5.519V59.595l9.559-5.519a7.5 7.5 0 0 0-7.5-12.99l-9.559 5.519-48.613-28.067V7.501a7.5 7.5 0 0 0-15 0v11.038l-48.613 28.067-9.559-5.519a7.5 7.5 0 0 0-7.5 12.99l9.559 5.519v56.133l-9.559 5.519a7.5 7.5 0 0 0 7.5 12.99l9.559-5.519 48.613 28.066v11.038c0 4.143 3.358 7.5 7.5 7.5s7.5-3.357 7.5-7.5v-11.038l48.613-28.066 9.559 5.519a7.497 7.497 0 0 0 10.245-2.745 7.498 7.498 0 0 0-2.745-10.245zm-24.558-14.179l-33.613-19.407 33.613-19.406v38.813zm-7.5-51.804l-33.613 19.407V35.859l33.613 19.406zm-48.614-19.406v38.813l-33.613-19.406 33.613-19.407zm-41.113 32.397l33.613 19.406-33.613 19.407V68.256zm7.501 51.803l33.613-19.406v38.813l-33.613-19.407zm48.612 19.406v-38.813l33.613 19.407-33.613 19.406zm-196.485.426l-14.654-8.46v-16.37l14.654-8.46a7.5 7.5 0 0 0-7.5-12.991l-14.654 8.46-14.176-8.185v-16.92a7.5 7.5 0 0 0-15 0v16.921l-14.177 8.185-14.654-8.46a7.5 7.5 0 0 0-7.5 12.99l14.654 8.46v16.37l-14.654 8.46a7.5 7.5 0 0 0 7.5 12.99l14.654-8.46 14.177 8.185v16.921a7.5 7.5 0 0 0 15 0v-16.921l14.177-8.185 14.654 8.46a7.497 7.497 0 0 0 10.245-2.745 7.5 7.5 0 0 0-2.746-10.245zm-58.007-24.83l14.177-8.186 14.177 8.186v16.37l-14.177 8.185-14.177-8.185v-16.37zM454.882 339.52a7.5 7.5 0 0 0-10.245-2.745l-28.831 16.646V320.13a7.5 7.5 0 0 0-15 0v33.291l-28.831-16.646a7.5 7.5 0 0 0-7.5 12.99l28.831 16.646-28.831 16.646a7.5 7.5 0 0 0 7.5 12.99l28.831-16.646v33.291a7.5 7.5 0 0 0 15 0v-33.291l28.831 16.646a7.497 7.497 0 0 0 10.245-2.745 7.5 7.5 0 0 0-2.745-10.245l-28.831-16.646 28.831-16.646a7.498 7.498 0 0 0 2.745-10.245zm-118.721-99.035h-16.548v-16.548a7.5 7.5 0 0 0-15 0v16.548h-16.548a7.5 7.5 0 0 0 0 15h16.548v16.548a7.5 7.5 0 0 0 15 0v-16.548h16.548a7.5 7.5 0 0 0 0-15zM44.868 467.133a7.5 7.5 0 0 0-10.606 0l-10.729 10.729-10.729-10.729a7.5 7.5 0 0 0-10.606 0 7.5 7.5 0 0 0 0 10.606l10.729 10.729-10.73 10.73a7.5 7.5 0 0 0 0 10.606c1.464 1.465 3.384 2.197 5.303 2.197s3.839-.732 5.303-2.197l10.729-10.729 10.729 10.729c1.464 1.465 3.384 2.197 5.303 2.197s3.839-.732 5.303-2.197a7.5 7.5 0 0 0 0-10.606l-10.729-10.729 10.729-10.729a7.5 7.5 0 0 0 .001-10.607zM98.39 229.24c1.464 1.464 3.384 2.197 5.303 2.197s3.839-.732 5.303-2.197l2.713-2.713 2.713 2.713c1.464 1.464 3.384 2.197 5.303 2.197s3.839-.732 5.303-2.197a7.5 7.5 0 0 0 0-10.606l-2.713-2.713 2.713-2.713a7.5 7.5 0 0 0 0-10.606 7.5 7.5 0 0 0-10.606 0l-2.713 2.713-2.713-2.713a7.5 7.5 0 0 0-10.606 0 7.5 7.5 0 0 0 0 10.606l2.713 2.713-2.713 2.713a7.5 7.5 0 0 0 0 10.606zm189.675 211.648h-8.532v-8.533a7.5 7.5 0 0 0-15 0v8.533H256a7.5 7.5 0 0 0 0 15h8.532v8.532a7.5 7.5 0 0 0 15 0v-8.532h8.532a7.5 7.5 0 0 0 .001-15z"/>
</svg>
