<svg viewBox="0 0 254.083 206.218" xmlns="http://www.w3.org/2000/svg">
  <path d="M44.872 27.675L40 32.547l-4.872-4.872L40 22.805z" fill="none"/>
  <path d="M12.326 53.435c0 1.055.857 1.912 1.911 1.912a1.914 1.914 0 0 0 1.846-2.404l-.058-.215.158-.158 12.261-12.262 1.651-1.651-1.033 2.095c-3.653 7.402-5.505 15.363-5.505 23.662v.029a.767.767 0 0 0 .775.75.765.765 0 0 0 .751-.779c0-11.209 3.506-21.885 10.138-30.875l.017-.023.021-.021 1.223-1.224.272-.271.273.271 2.436 2.437a.757.757 0 0 0 .54.223.758.758 0 0 0 .539-.223l6.495-6.495a.763.763 0 0 0 0-1.078l-2.435-2.437-.272-.272.272-.272 1.616-1.616.021-.02.023-.018c8.991-6.632 19.668-10.138 30.877-10.138h.022c.374 0 .559-.186.649-.341a.878.878 0 0 0 0-.844c-.09-.156-.275-.342-.649-.342h-.021c-8.3 0-16.261 1.852-23.664 5.506l-2.094 1.033 1.652-1.652L64.896 3.854l.158-.158.215.06c.163.044.328.067.491.067a1.914 1.914 0 0 0 1.912-1.912c0-1.053-.858-1.91-1.912-1.91a1.913 1.913 0 0 0-1.845 2.404l.058.217-.161.158-20.5 20.095-.272.267-.27-.271-2.232-2.232a.758.758 0 0 0-.539-.223.759.759 0 0 0-.54.223l-6.496 6.496a.763.763 0 0 0 0 1.078l2.274 2.273.27.271-.268.272-20.135 20.46-.159.162-.218-.061a1.809 1.809 0 0 0-.49-.066 1.913 1.913 0 0 0-1.911 1.911zm22.529-25.49l-.272-.272.272-.272 4.872-4.872.273-.272.272.271 4.872 4.872.272.272-.272.272-4.872 4.871-.272.274-.272-.272-4.873-4.872z"/>
  <path d="M108.018 66.559h4.501a4.502 4.502 0 0 0 4.5-4.5 4.521 4.521 0 0 0-4.5-4.499h-9.357c1.323-9.747-.952-18.324-5.093-23.256-6.169-7.355-15.125-11.244-25.9-11.244h-.151c-.095 0-.188.007-.283.01-10.582.104-19.382 3.979-25.466 11.234-6.598 7.853-8.474 24.259-.297 38.258h-8.455a4.502 4.502 0 0 0-4.5 4.497 4.522 4.522 0 0 0 4.5 4.5h2.999a1.5 1.5 0 1 1 0 3H31.52a4.504 4.504 0 0 0-4.5 4.5 4.373 4.373 0 0 0 1.31 3.161 4.4 4.4 0 0 0 3.19 1.341h28.85l1.301 2.167 2.85 7.12v5.713a4.504 4.504 0 0 0 4.5 4.5h5.998a4.507 4.507 0 0 0 4.501-4.5v-5.709l2.848-7.124 4.439-7.397c.043-.08.08-.161.108-.249l.432-.454a58.345 58.345 0 0 0 7.55-9.066h14.624a4.506 4.506 0 0 0 4.499-4.501 4.526 4.526 0 0 0-4.499-4.502h-1.502a1.5 1.5 0 1 1-.001-3zm-22.16-31.068c3.606 6.696 3.555 20.377-.135 34.063a62.15 62.15 0 0 1-7.356 16.505h-2.132a149.15 149.15 0 0 0 2.331-16.003c1.271-14.128 1.261-28.411-.017-35.542a32.517 32.517 0 0 0-2.188-7.76 17.142 17.142 0 0 1 9.497 8.737zm-13.894-9.423c.029 0 .058-.005.088-.005.258.054 2.059.713 3.544 8.981 1.237 6.892 1.23 20.854-.019 34.748a148.34 148.34 0 0 1-2.397 16.267h-2.322a148.646 148.646 0 0 1-2.398-16.274c-1.249-13.887-1.256-27.847-.019-34.739 1.286-7.159 2.93-8.885 3.523-8.978zm-4.286.687a32.365 32.365 0 0 0-2.188 7.76c-1.281 7.131-1.287 21.414-.018 35.531a149.314 149.314 0 0 0 2.331 16.014h-2.131a62.064 62.064 0 0 1-7.363-16.53c-3.685-13.661-3.735-27.342-.13-34.038a17.142 17.142 0 0 1 9.499-8.737zM31.52 90.56c-.407 0-.791-.164-1.07-.457a1.448 1.448 0 0 1-.432-1.044 1.5 1.5 0 0 1 1.502-1.498h8.997a4.5 4.5 0 1 0 0-9h-2.999c-.403 0-.791-.166-1.067-.458a1.44 1.44 0 0 1-.431-1.044c0-.827.67-1.499 1.498-1.499h10.235c4.245 7.065 5.402 8.54 9.563 12.913l1.252 2.087H31.52zm27.644-4.5c-4.188-4.416-5.047-5.661-10.456-14.747-7.687-12.912-6.106-27.975-.141-35.08a27.357 27.357 0 0 1 11.146-7.931 25.052 25.052 0 0 0-4.173 5.766c-4.007 7.443-4.059 21.666-.134 36.22a62.279 62.279 0 0 0 6.778 15.772h-3.02zm6.069 10.499h5.285v4.502h-3.483l-1.802-4.502zm11.286 12.002c0 .828-.672 1.498-1.501 1.501H69.02a1.504 1.504 0 0 1-1.502-1.501v-4.501h9.001v4.501zm.485-7.5h-3.485v-4.502h5.285l-1.8 4.502zm3.165-7.5h-16.3l-2.701-4.502h21.704l-2.703 4.502zm5.009-8.006l-.482.505h-2.843a62.17 62.17 0 0 0 6.773-15.747c3.929-14.579 3.88-28.802-.129-36.245a24.87 24.87 0 0 0-4.358-5.942 27.368 27.368 0 0 1 11.632 8.109c5.438 6.473 7.224 20.993-.182 35.147a51.2 51.2 0 0 1-10.411 14.173zm22.84-12.993h1.502a1.46 1.46 0 0 1 1.068.457c.278.274.435.648.432 1.041a1.504 1.504 0 0 1-1.5 1.5H96.725a79.133 79.133 0 0 0 1.522-2.786 46.992 46.992 0 0 0 4.399-12.213h9.872c.404-.003.791.164 1.068.458.28.274.435.647.432 1.04a1.5 1.5 0 0 1-1.5 1.501h-4.501a4.501 4.501 0 0 0 .001 9.002z"/>
  <path d="M153.998 185.202a4.39 4.39 0 0 1-6.084-.111l-7.445-7.387a2.633 2.633 0 0 1 3.709-3.737l6.859 6.806 7.498-6.91-31.058-58.789-24.067 44.925 7.886 6.605 8.864-9.936a4.424 4.424 0 0 1 3.151-1.469l.122-.002c1.163 0 2.282.457 3.112 1.276l6.325 6.275a2.632 2.632 0 0 1 .013 3.662 2.624 2.624 0 0 1-1.899.81 2.627 2.627 0 0 1-1.823-.733l-5.679-5.634-8.815 9.88a4.382 4.382 0 0 1-6.111.446l-7.687-6.438-19.935 37.211h92.441l-12.297-23.275-7.08 6.525zm18.778-60.478a4.405 4.405 0 0 1 3.282-1.467l.059.001a4.393 4.393 0 0 1 3.301 1.555l22.182 26.186 12.783-15.033-30.611-57.946-27.143 50.663-.798 1.489 5.562 7.293 11.383-12.741z" fill="none"/>
  <path d="M253.685 201.226l-20.669-39.127a1.634 1.634 0 0 0-2.889 1.524l20.003 37.863.775 1.467h-72.601l-.14-.693c-1.035-2.146-20.3-38.753-30.48-58.07l-.248-.47.251-.469 4.529-8.453.734-1.37.943 1.236 4.741 6.218a3.371 3.371 0 0 0 2.713 1.34c.965 0 1.886-.414 2.527-1.135l11.42-12.779.766-.857.743.877L199 154.532a3.39 3.39 0 0 0 2.566 1.202 3.407 3.407 0 0 0 2.607-1.182l12.097-14.223.956-1.125.689 1.306 4.918 9.31a1.634 1.634 0 0 0 2.167.702l.041-.022c.386-.203.669-.545.797-.962a1.613 1.613 0 0 0-.117-1.24l-38.937-73.709a3.387 3.387 0 0 0-2.998-1.813h-.013c-1.26 0-2.406.688-2.997 1.794l-27.646 51.604-1.862 3.476-4.785 8.933-.888 1.656-.878-1.662-14.229-26.933a3.387 3.387 0 0 0-2.998-1.812c-.047 0-.081.002-.115.004l-.027.002h-.084l-.031.005-.089.009a2.727 2.727 0 0 0-.13.012l-.125.022-.08.013a3.39 3.39 0 0 0-2.328 1.729l-9.637 17.989-16.208 30.255-22.143 41.338a3.378 3.378 0 0 0 .081 3.354 3.373 3.373 0 0 0 2.919 1.654h171.185a3.376 3.376 0 0 0 2.915-1.646 3.383 3.383 0 0 0 .092-3.346zm-98.736-71.528l.798-1.489 27.143-50.663.888-1.656.878 1.662 30.611 57.946.316.599-.438.516-12.783 15.033-.763.897-.762-.898-22.182-26.186a3.387 3.387 0 0 0-2.55-1.201l-.063-.001c-.951 0-1.875.413-2.521 1.134l-11.383 12.739-.807.903-.734-.963-5.562-7.293-.39-.512.304-.567zm18.427 73.253H79.265l.789-1.473 19.935-37.211.581-1.084.943.79 7.687 6.438c.612.517 1.387.8 2.186.8.97 0 1.893-.416 2.533-1.141l8.818-9.884.702-.786.749.742 5.679 5.634c.294.282.695.443 1.119.443.449 0 .867-.179 1.178-.502a1.625 1.625 0 0 0-.007-2.271l-6.313-6.264a3.41 3.41 0 0 0-2.408-.986l-.095.002a3.428 3.428 0 0 0-2.434 1.136l-8.862 9.935-.645.723-.743-.622-7.886-6.605-.624-.522.384-.717 24.067-44.925.888-1.656.878 1.662 31.058 58.789.359.681-.566.521-7.498 6.91-.703.648-.679-.674-6.859-6.806a1.613 1.613 0 0 0-1.114-.438c-.451 0-.87.18-1.181.505a1.63 1.63 0 0 0 .008 2.266l7.431 7.373c.641.64 1.491.99 2.396.99a3.39 3.39 0 0 0 2.305-.904l7.083-6.526.955-.88.607 1.148 12.297 23.275.775 1.467h-1.662zM0 71.617l.96 14.94 4.27-5.15 6.66-.699L0 71.617zm4.72 8.841l-2.93 3.52-.65-10.23 8.14 6.229-4.56.481z"/>
  <path d="M9.28 79.978l-4.56.48-2.93 3.52-.65-10.23z"/>
</svg>
