<svg viewBox="0 43.159 512.001 425.681" xmlns="http://www.w3.org/2000/svg">
  <path d="M355.818 421.959l-79.734-79.734a8.617 8.617 0 0 0-14.712 6.094v79.733a8.616 8.616 0 0 0 8.616 8.618h79.734a8.614 8.614 0 0 0 7.961-5.32 8.613 8.613 0 0 0-1.865-9.391zm-77.211-2.525v-50.311l50.311 50.311h-50.311z"/>
  <path d="M503.749 166.189a8.618 8.618 0 0 0-7.725-4.797h-46.949V133.03a8.616 8.616 0 0 0-8.617-8.617H208.16V51.776a8.616 8.616 0 0 0-8.617-8.617h-53.425a8.616 8.616 0 0 0-8.617 8.617v72.637H85.428V64.827a8.616 8.616 0 0 0-8.617-8.617H42.72c-11.416 0-22.145 4.442-30.216 12.515C4.439 76.802 0 87.53.002 98.928v287.121l-.002.44c0 11.415 4.442 22.144 12.509 30.209 8.066 8.066 18.794 12.509 30.211 12.509H229.2v31.016a8.616 8.616 0 0 0 8.617 8.617h189.576a8.613 8.613 0 0 0 7.961-5.32 8.615 8.615 0 0 0-1.866-9.391l-24.923-24.923h31.893a8.616 8.616 0 0 0 8.617-8.617V242.033h46.949a8.62 8.62 0 0 0 7.725-4.797c11.002-22.244 11.002-48.803 0-71.047zM154.735 301.671h12.063a8.616 8.616 0 0 0 8.617-8.616 8.616 8.616 0 0 0-8.617-8.617h-12.063v-23.783h12.063a8.616 8.616 0 0 0 8.617-8.617 8.616 8.616 0 0 0-8.617-8.617h-12.063v-23.782h12.063a8.616 8.616 0 0 0 8.617-8.617 8.616 8.616 0 0 0-8.617-8.617h-12.063V178.62h12.063a8.616 8.616 0 0 0 8.617-8.617 8.616 8.616 0 0 0-8.617-8.617h-12.063v-23.782h12.063a8.616 8.616 0 0 0 8.617-8.617 8.616 8.616 0 0 0-8.617-8.617h-12.063V96.585h12.063a8.616 8.616 0 0 0 8.617-8.617 8.616 8.616 0 0 0-8.617-8.617h-12.063V60.394h36.19v260.235h-36.19v-18.958zM24.697 80.904c4.811-4.811 11.211-7.46 18.023-7.46h25.473V343.77H42.72a42.505 42.505 0 0 0-25.482 8.451l-.003-253.293c0-6.802 2.652-13.206 7.462-18.024zm221.738 370.702V291.453L406.59 451.606H246.435zm185.405-39.633h-40.51L243.911 264.557a8.617 8.617 0 0 0-14.712 6.092v141.326H42.72c-6.812 0-13.212-2.65-18.023-7.461-4.811-4.812-7.462-11.213-7.462-18.023v-.001l.002-.339c.182-13.896 11.543-25.146 25.482-25.146H76.81a8.616 8.616 0 0 0 8.617-8.616v-210.74H137.5v187.597a8.616 8.616 0 0 0 8.617 8.617h53.425a8.616 8.616 0 0 0 8.617-8.617V141.649h223.68v19.744H331.791a8.617 8.617 0 0 0-4.799 1.46l-47.285 31.702a8.618 8.618 0 0 0 0 14.314l47.285 31.703a8.622 8.622 0 0 0 4.799 1.46H431.84v169.941zm-111.07-224.2l6.55-4.392a71.634 71.634 0 0 1 0 36.661l-6.55-4.391a38.702 38.702 0 0 0 2.583-13.941 38.704 38.704 0 0 0-2.583-13.937zm-14.651 13.937c0 1.312-.131 2.606-.361 3.876l-5.777-3.874 5.777-3.873c.23 1.269.361 2.562.361 3.871zm147.82 23.089h-110.06a88.676 88.676 0 0 0 2.64-14.468H457.71a62.804 62.804 0 0 1-3.771 14.468zm-107.42-31.704a88.41 88.41 0 0 0-2.639-14.467h110.06a62.818 62.818 0 0 1 3.77 14.467H346.519zm143.905 31.704h-18.256a80.88 80.88 0 0 0 0-46.17h18.256c5.804 14.767 5.804 31.4 0 46.17z"/>
</svg>
