<svg xmlns="http://www.w3.org/2000/svg" viewBox="0 0 888 600">
  <path fill="none" d="M203.86 349.818h480.281v33.703H203.86z" />
  <path
    fill="#88C0D0"
    d="M206.344 349.814h1.38l22.451 31.697h.092v-31.697h.92v32.848h-1.38l-22.45-31.697h-.092v31.697h-.92v-32.848zm39.284 8.649c6.901 0 10.627 5.936 10.627 12.376 0 6.486-3.726 12.375-10.673 12.375-6.901 0-10.627-5.889-10.627-12.375 0-6.441 3.727-12.376 10.673-12.376zm0 23.831c6.303 0 9.707-5.475 9.707-11.455 0-5.889-3.404-11.455-9.707-11.455-6.395 0-9.753 5.566-9.753 11.455 0 5.98 3.358 11.455 9.753 11.455zm15.363.368h-.92v-23.646h.92v5.843h.092c.874-3.497 3.634-6.579 9.293-6.396v.921c-6.487-.322-9.385 4.738-9.385 9.891v13.387zm29.396-32.848h.92v32.848h-.92v-6.625h-.092c-1.196 4.141-4.646 7.177-9.477 7.177-6.257 0-10.075-5.198-10.075-12.329 0-6.625 3.542-12.422 10.075-12.422 5.015 0 8.373 2.898 9.477 7.178h.092v-15.827zm-9.569 9.57c-6.487 0-9.155 6.026-9.155 11.501 0 6.072 3.037 11.409 9.155 11.409 6.073 0 9.569-5.29 9.569-11.409 0-7.315-3.819-11.501-9.569-11.501z"
  />
  <path
    fill="#2E3440"
    d="M306.622 349.814h3.358l10.673 29.397h.092l10.581-29.397h3.313l-12.191 32.848h-3.635l-12.191-32.848zm30.681 0h2.898v4.646h-2.898v-4.646zm0 9.11h2.898v23.738h-2.898v-23.738zm22.68 6.946c-.138-3.588-2.898-5.198-6.211-5.198-2.576 0-5.612 1.012-5.612 4.094 0 2.577 2.944 3.497 4.922 4.003l3.864.874c3.313.506 6.763 2.438 6.763 6.579 0 5.152-5.106 7.131-9.523 7.131-5.521 0-9.293-2.576-9.753-8.373h2.898c.23 3.91 3.128 5.935 6.993 5.935 2.714 0 6.487-1.196 6.487-4.509 0-2.76-2.577-3.681-5.199-4.324l-3.727-.828c-3.772-1.013-6.625-2.301-6.625-6.349 0-4.831 4.738-6.671 8.925-6.671 4.739 0 8.511 2.484 8.695 7.637h-2.897zm27.14 16.792h-2.668v-4.278h-.092c-1.518 3.174-4.646 4.969-8.189 4.969-5.98 0-8.327-3.497-8.327-9.018v-15.411h2.898v15.457c.138 4.278 1.748 6.533 6.349 6.533 4.968 0 7.131-4.692 7.131-9.523v-12.467h2.898v23.738zm5.195-16.47c.276-5.566 4.187-7.959 9.615-7.959 4.187 0 8.741 1.288 8.741 7.637v12.605c0 1.104.552 1.748 1.702 1.748.321 0 .689-.092.92-.184v2.438c-.645.138-1.104.184-1.887.184-2.944 0-3.404-1.656-3.404-4.141h-.092c-2.024 3.082-4.095 4.831-8.649 4.831-4.37 0-7.958-2.163-7.958-6.947 0-6.671 6.486-6.9 12.743-7.637 2.392-.276 3.727-.598 3.727-3.221 0-3.91-2.807-4.876-6.211-4.876-3.589 0-6.257 1.656-6.349 5.521h-2.898zm15.458 3.496h-.093c-.367.69-1.656.92-2.438 1.059-4.923.874-11.042.828-11.042 5.475 0 2.898 2.577 4.692 5.291 4.692 4.416 0 8.327-2.807 8.281-7.453v-3.773zm8.738-19.874h2.898v32.848h-2.898v-32.848zm23.276 22.037c-.138 6.763 4.739 8.833 10.72 8.833 3.449 0 8.695-1.886 8.695-6.671 0-3.726-3.727-5.198-6.764-5.935l-7.314-1.794c-3.865-.966-7.408-2.807-7.408-7.913 0-3.22 2.07-9.247 11.318-9.247 6.486 0 12.191 3.497 12.145 10.214h-3.127c-.186-5.015-4.324-7.545-8.973-7.545-4.278 0-8.234 1.656-8.234 6.532 0 3.082 2.3 4.371 4.968 5.015l8.006 1.979c4.646 1.242 8.51 3.267 8.51 8.648 0 2.255-.92 9.386-12.559 9.386-7.775 0-13.48-3.497-13.112-11.502h3.129zm31.556-12.927h4.83v2.438h-4.83v16.01c0 1.887.275 2.991 2.346 3.129.828 0 1.656-.046 2.484-.138v2.483c-.873 0-1.701.093-2.576.093-3.863 0-5.197-1.288-5.152-5.337v-16.24h-4.141v-2.438h4.141v-7.131h2.898v7.131zm28.244 23.738h-2.668v-4.278h-.092c-1.518 3.174-4.646 4.969-8.189 4.969-5.98 0-8.326-3.497-8.326-9.018v-15.411h2.898v15.457c.139 4.278 1.748 6.533 6.348 6.533 4.969 0 7.131-4.692 7.131-9.523v-12.467h2.898v23.738zm26.357 0h-2.668v-4.509h-.092c-1.242 3.083-5.014 5.199-8.465 5.199-7.223 0-10.674-5.843-10.674-12.56s3.451-12.56 10.674-12.56c3.543 0 6.992 1.794 8.234 5.198h.092v-13.617h2.898v32.849zm-11.224-1.748c6.164 0 8.326-5.199 8.326-10.121 0-4.923-2.162-10.121-8.326-10.121-5.521 0-7.775 5.198-7.775 10.121-.001 4.922 2.253 10.121 7.775 10.121zm16.789-31.1h2.898v4.646h-2.898v-4.646zm0 9.11h2.898v23.738h-2.898v-23.738zm29.717 11.869c0 6.809-3.955 12.56-11.225 12.56s-11.225-5.751-11.225-12.56 3.955-12.56 11.225-12.56 11.225 5.751 11.225 12.56zm-19.551 0c0 5.061 2.76 10.121 8.326 10.121s8.326-5.061 8.326-10.121-2.76-10.121-8.326-10.121-8.326 5.06-8.326 10.121zm61.228-11.041c-1.105-5.061-5.291-7.959-10.076-7.959-8.695 0-12.375 7.269-12.375 14.445s3.68 14.445 12.375 14.445c6.072 0 9.938-4.692 10.535-10.535h3.129c-.875 8.051-5.98 13.204-13.664 13.204-10.352 0-15.504-8.144-15.504-17.114s5.152-17.114 15.504-17.114c6.211 0 12.375 3.727 13.203 10.628h-3.127zm29.071 11.041c0 6.809-3.955 12.56-11.225 12.56s-11.225-5.751-11.225-12.56 3.955-12.56 11.225-12.56 11.225 5.751 11.225 12.56zm-19.551 0c0 5.061 2.76 10.121 8.326 10.121s8.326-5.061 8.326-10.121-2.76-10.121-8.326-10.121-8.326 5.06-8.326 10.121zm44.76 11.869h-2.668v-4.509h-.092c-1.242 3.083-5.016 5.199-8.465 5.199-7.225 0-10.674-5.843-10.674-12.56s3.449-12.56 10.674-12.56c3.541 0 6.992 1.794 8.234 5.198h.092v-13.617h2.898v32.849zm-11.225-1.748c6.164 0 8.326-5.199 8.326-10.121 0-4.923-2.162-10.121-8.326-10.121-5.521 0-7.775 5.198-7.775 10.121 0 4.922 2.253 10.121 7.775 10.121zm18.443-9.339c.047 4.232 2.254 9.339 7.82 9.339 4.232 0 6.533-2.484 7.453-6.073h2.898c-1.242 5.383-4.371 8.512-10.352 8.512-7.545 0-10.719-5.797-10.719-12.56 0-6.257 3.174-12.56 10.719-12.56 7.637 0 10.674 6.671 10.443 13.342h-18.262zm15.366-2.438c-.137-4.371-2.852-8.465-7.545-8.465-4.738 0-7.359 4.141-7.82 8.465h15.365z"
  />
  <g fill="#2E3440">
    <path d="M466.561 322.207l-43.392-55.545v-15.41l48.091 62.17h25.844v-87.545h-43.465l-9.397-9.398H506.5v105.728z" />
    <path d="M421.44 216.479l43.394 55.541v15.41l-48.093-62.168h-25.842v87.545h43.463l9.4 9.4H381.5V216.479z" />
  </g>
</svg>
