<svg xmlns="http://www.w3.org/2000/svg" viewBox="0 0 888 600">
  <g fill="#2E3440">
    <path d="M466.561 323.346l-43.393-55.545v-15.41l48.092 62.17h25.844v-87.545h-43.465l-9.396-9.399H506.5v105.729z"/>
    <path d="M421.44 217.617l43.394 55.541v15.41L416.742 226.4h-25.843v87.545h43.463l9.4 9.401H381.5V217.617z"/>
  </g>
  <path fill="none" d="M314.483 341.346h259.033v41.037H314.483z"/>
  <path fill="#88C0D0" d="M316.913 341.346h1.35l21.959 31.004h.09v-31.004h.9v32.129h-1.35l-21.959-31.004h-.09v31.004h-.9v-32.129zm38.43 8.461c6.75 0 10.395 5.805 10.395 12.104 0 6.346-3.645 12.105-10.44 12.105-6.75 0-10.395-5.76-10.395-12.105 0-6.3 3.645-12.104 10.44-12.104zm0 23.308c6.165 0 9.495-5.355 9.495-11.205 0-5.76-3.33-11.205-9.495-11.205-6.255 0-9.54 5.445-9.54 11.205 0 5.85 3.285 11.205 9.54 11.205zm15.03.36h-.9v-23.129h.9v5.715h.09c.855-3.42 3.555-6.434 9.09-6.254v.898c-6.345-.314-9.18 4.637-9.18 9.676v13.094zm28.753-32.129h.9v32.129h-.9v-6.479h-.09c-1.17 4.049-4.545 7.02-9.27 7.02-6.12 0-9.855-5.086-9.855-12.061 0-6.479 3.465-12.148 9.855-12.148 4.905 0 8.189 2.834 9.27 7.02h.09v-15.481zm-9.359 9.359c-6.345 0-8.955 5.896-8.955 11.25 0 5.939 2.97 11.16 8.955 11.16 5.939 0 9.359-5.176 9.359-11.16 0-7.154-3.734-11.25-9.359-11.25z"/>
  <path fill="#2E3440" d="M427.971 341.346h3.42l12.6 32.129h-3.285l-3.915-9.988h-14.625l-3.87 9.988h-3.285l12.96-32.129zm-4.86 19.529h12.645l-6.21-16.469-6.435 16.469zm27.766-10.619h4.725v2.385h-4.725v15.66c0 1.844.27 2.924 2.293 3.059.811 0 1.621-.045 2.432-.135v2.43c-.855 0-1.666.09-2.521.09-3.779 0-5.084-1.26-5.039-5.219v-15.885h-4.05v-2.385h4.05v-6.975h2.836v6.975zm29.607 11.609c0 6.66-3.869 12.285-10.979 12.285-7.111 0-10.98-5.625-10.98-12.285s3.869-12.283 10.98-12.283c7.11 0 10.979 5.623 10.979 12.283zm-19.123 0c0 4.949 2.699 9.9 8.145 9.9 5.443 0 8.145-4.951 8.145-9.9s-2.701-9.898-8.145-9.898c-5.445 0-8.145 4.949-8.145 9.898zm23.354-11.609h2.609v3.914h.135c1.486-2.789 3.916-4.588 7.605-4.588 3.061 0 5.805 1.484 6.66 4.543 1.395-3.059 4.32-4.543 7.379-4.543 5.086 0 7.695 2.654 7.695 8.145v15.748h-2.836v-15.613c0-3.826-1.439-5.895-5.488-5.895-4.906 0-6.301 4.049-6.301 8.369v13.139h-2.834v-15.748c.045-3.15-1.26-5.76-4.859-5.76-4.906 0-6.885 3.689-6.93 8.549v12.959h-2.836v-23.219zm50.219-8.91h3.061v19.891c-.045 7.469 3.51 10.305 9.404 10.305 5.939 0 9.494-2.836 9.449-10.305v-19.891h3.061v20.564c0 6.615-3.555 12.24-12.51 12.24-8.91 0-12.465-5.625-12.465-12.24v-20.564zm31.365 0h3.061v32.129h-3.061v-32.129z"/>
</svg>
