<svg xmlns="http://www.w3.org/2000/svg" viewBox="0 0 1000 600">
  <path fill="none" d="M333.299 365.207h333.402v48.869H333.299z"/>
  <path fill="#88C0D0" d="M336.9 365.209h2.001l32.548 45.954h.133v-45.954h1.334v47.621h-2.001l-32.548-45.953h-.133v45.953H336.9v-47.621zm56.96 12.539c10.004 0 15.407 8.604 15.407 17.941 0 9.404-5.403 17.941-15.474 17.941-10.004 0-15.407-8.537-15.407-17.941.001-9.337 5.404-17.941 15.474-17.941zm0 34.549c9.138 0 14.073-7.938 14.073-16.607 0-8.537-4.936-16.607-14.073-16.607-9.271 0-14.14 8.07-14.14 16.607.001 8.669 4.87 16.607 14.14 16.607zm22.279.533h-1.334v-34.282h1.334v8.471h.133c1.267-5.068 5.269-9.537 13.473-9.271v1.334c-9.404-.467-13.606 6.869-13.606 14.34v19.408zm42.619-47.621h1.334v47.621h-1.334v-9.604h-.133c-1.734 6.003-6.736 10.405-13.739 10.405-9.071 0-14.606-7.537-14.606-17.875 0-9.604 5.135-18.008 14.606-18.008 7.27 0 12.139 4.202 13.739 10.404h.133v-22.943zm-13.873 13.873c-9.404 0-13.273 8.737-13.273 16.674 0 8.804 4.402 16.541 13.273 16.541 8.804 0 13.873-7.671 13.873-16.541 0-10.605-5.536-16.674-13.873-16.674z"/>
  <path fill="#2E3440" d="M482.971 365.209h5.335l13.473 19.942 13.939-19.942h5.068l-16.273 23.21 17.207 24.411h-5.469l-14.473-21.01-14.673 21.01h-5.136l17.141-24.544-16.139-23.077zm66.364 24.011c-1.134-5.136-4.269-8.271-9.737-8.271-8.07 0-12.072 7.337-12.072 14.673 0 7.337 4.002 14.674 12.072 14.674 5.201 0 9.471-4.068 10.004-9.805h4.202c-1.134 8.271-6.536 13.339-14.206 13.339-10.539 0-16.274-8.337-16.274-18.208s5.735-18.208 16.274-18.208c7.336 0 13.006 3.936 13.939 11.806h-4.202zm41.153 6.402c0 9.871-5.736 18.208-16.273 18.208-10.539 0-16.274-8.337-16.274-18.208s5.735-18.208 16.274-18.208c10.537 0 16.273 8.337 16.273 18.208zm-28.345 0c0 7.337 4.002 14.674 12.072 14.674 8.069 0 12.071-7.337 12.071-14.674 0-7.336-4.002-14.673-12.071-14.673-8.07 0-12.072 7.337-12.072 14.673zm64.897 17.208h-3.869v-6.536h-.133c-1.801 4.469-7.271 7.536-12.272 7.536-10.471 0-15.474-8.47-15.474-18.208 0-9.737 5.003-18.208 15.474-18.208 5.136 0 10.138 2.602 11.938 7.537h.134v-19.742h4.202v47.621zm-16.274-2.534c8.938 0 12.072-7.537 12.072-14.674 0-7.136-3.135-14.673-12.072-14.673-8.003 0-11.271 7.537-11.271 14.673-.001 7.137 3.268 14.674 11.271 14.674zm26.747-13.54c.066 6.137 3.268 13.54 11.338 13.54 6.137 0 9.471-3.602 10.805-8.804h4.202c-1.801 7.803-6.336 12.338-15.007 12.338-10.938 0-15.54-8.403-15.54-18.208 0-9.07 4.603-18.208 15.54-18.208 11.072 0 15.474 9.671 15.141 19.342h-26.479zm22.276-3.534c-.2-6.336-4.135-12.272-10.938-12.272-6.869 0-10.671 6.003-11.338 12.272h22.276z"/>
  <g fill="#2E3440">
    <path d="M532.712 339.23l-62.918-80.539v-22.345l69.732 90.146H577V199.553h-63.024l-13.625-13.629h90.274V339.23z"/>
    <path d="M467.287 185.924l62.922 80.535v22.346l-69.734-90.145h-37.472V325.6h63.021l13.63 13.63h-90.279V185.924z"/>
  </g>
</svg>
