<svg xmlns="http://www.w3.org/2000/svg" viewBox="0 0 888 600">
  <path fill="none" d="M300.568 365.629h286.863v47.422H300.568z" />
  <path
    fill="#88C0D0"
    d="M304.091 365.631h1.958l31.84 44.955h.131v-44.955h1.305v46.586h-1.957l-31.841-44.955h-.13v44.955h-1.305v-46.586zm55.722 12.267c9.787 0 15.072 8.416 15.072 17.551 0 9.199-5.285 17.551-15.137 17.551-9.787 0-15.072-8.352-15.072-17.551.001-9.135 5.285-17.551 15.137-17.551zm0 33.797c8.939 0 13.767-7.764 13.767-16.246 0-8.352-4.828-16.246-13.767-16.246-9.069 0-13.832 7.895-13.832 16.246 0 8.483 4.764 16.246 13.832 16.246zm21.795.522h-1.305V378.68h1.305v8.287h.13c1.24-4.959 5.154-9.33 13.18-9.068v1.305c-9.2-.457-13.31 6.721-13.31 14.027v18.986zm41.692-46.586h1.305v46.586H423.3v-9.395h-.13c-1.696 5.871-6.59 10.178-13.441 10.178-8.874 0-14.289-7.373-14.289-17.486 0-9.395 5.024-17.615 14.289-17.615 7.112 0 11.875 4.109 13.441 10.178h.13v-22.446zm-13.571 13.572c-9.2 0-12.984 8.547-12.984 16.311 0 8.613 4.306 16.182 12.984 16.182 8.613 0 13.571-7.504 13.571-16.182 0-10.373-5.415-16.311-13.571-16.311z"
  />
  <path
    fill="#2E3440"
    d="M457.23 378.551h6.851v3.457h-6.851v22.707c0 2.674.392 4.24 3.327 4.436 1.175 0 2.35-.064 3.523-.195v3.523c-1.239 0-2.414.131-3.653.131-5.48 0-7.373-1.828-7.308-7.568v-23.033h-5.872v-3.457h5.872v-10.113h4.11v10.112zm12.79 0h3.784v5.676h.195c2.153-4.045 5.677-6.654 11.027-6.654 4.437 0 8.416 2.152 9.656 6.59 2.022-4.438 6.264-6.59 10.7-6.59 7.373 0 11.157 3.848 11.157 11.809v22.836h-4.11v-22.641c0-5.545-2.088-8.547-7.96-8.547-7.112 0-9.135 5.873-9.135 12.137v19.051h-4.11v-22.836c.065-4.566-1.827-8.352-7.047-8.352-7.111 0-9.982 5.35-10.048 12.396v18.791h-4.11v-33.666zm81.625 33.666h-3.784v-6.068h-.13c-2.153 4.502-6.59 7.047-11.614 7.047-8.482 0-11.81-4.959-11.81-12.787v-21.857h4.11v21.922c.196 6.068 2.479 9.266 9.004 9.266 7.047 0 10.113-6.656 10.113-13.506v-17.682h4.11v33.665zm16.964-17.487l-12.07-16.18h5.154l9.592 12.787 9.396-12.787h5.154l-12.136 16.115 13.114 17.551h-5.22l-10.57-14.158-10.374 14.158h-5.089l13.049-17.486z"
  />
  <g fill="#2E3440">
    <path d="M476.712 340.256l-62.918-80.54v-22.348l69.731 90.15h37.474V200.577h-63.024l-13.623-13.628h90.272v153.307z" />
    <path d="M411.287 186.949l62.921 80.534v22.345l-69.733-90.143h-37.472v126.94h63.022l13.629 13.631h-90.279V186.949z" />
  </g>
</svg>
