<svg xmlns="http://www.w3.org/2000/svg" viewBox="0 0 1000 600">
  <path fill="none" d="M302.598 365.207h394.805v48.869H302.598z"/>
  <path fill="#88C0D0" d="M306.199 365.209h2.001l32.548 45.954h.133v-45.954h1.334v47.621h-2.001l-32.548-45.954h-.133v45.954h-1.334v-47.621zm56.96 12.539c10.004 0 15.407 8.604 15.407 17.941 0 9.404-5.403 17.941-15.474 17.941-10.004 0-15.407-8.537-15.407-17.941.001-9.337 5.403-17.941 15.474-17.941zm0 34.549c9.138 0 14.073-7.938 14.073-16.607 0-8.537-4.936-16.607-14.073-16.607-9.271 0-14.139 8.07-14.139 16.607 0 8.669 4.869 16.607 14.139 16.607zm22.279.533h-1.334v-34.282h1.334v8.471h.133c1.267-5.068 5.269-9.537 13.473-9.271v1.334c-9.404-.467-13.606 6.869-13.606 14.34v19.408zm42.619-47.621h1.334v47.621h-1.334v-9.604h-.133c-1.734 6.003-6.736 10.405-13.739 10.405-9.071 0-14.606-7.537-14.606-17.875 0-9.604 5.135-18.008 14.606-18.008 7.27 0 12.139 4.202 13.739 10.404h.133v-22.943zm-13.873 13.873c-9.404 0-13.272 8.737-13.272 16.674 0 8.804 4.402 16.541 13.272 16.541 8.804 0 13.873-7.671 13.873-16.541 0-10.605-5.536-16.674-13.873-16.674z"/>
  <path fill="#2E3440" d="M486.351 412.83h-3.868v-6.536h-.133c-1.801 4.469-7.27 7.536-12.272 7.536-10.471 0-15.473-8.47-15.473-18.208 0-9.737 5.002-18.208 15.473-18.208 5.136 0 10.138 2.602 11.939 7.537h.133v-19.742h4.202v47.621zm-16.274-2.534c8.938 0 12.072-7.537 12.072-14.674 0-7.136-3.135-14.673-12.072-14.673-8.003 0-11.271 7.537-11.271 14.673 0 7.137 3.268 14.674 11.271 14.674zm24.346-45.087h4.202v6.736h-4.202v-6.736zm0 13.206h4.202v34.415h-4.202v-34.415zm12.272 0h3.869v8.07h.133c2.135-5.536 6.803-8.804 13.006-8.537v4.201c-7.604-.399-12.806 5.203-12.806 12.339v18.342h-4.202v-34.415zm44.088 10.805c-1.135-5.136-4.27-8.271-9.738-8.271-8.07 0-12.071 7.337-12.071 14.673 0 7.337 4.001 14.674 12.071 14.674 5.203 0 9.471-4.068 10.006-9.805h4.201c-1.135 8.271-6.537 13.339-14.207 13.339-10.537 0-16.273-8.337-16.273-18.208s5.736-18.208 16.273-18.208c7.338 0 13.006 3.936 13.939 11.806h-4.201zm41.153 6.402c0 9.871-5.736 18.208-16.273 18.208s-16.273-8.337-16.273-18.208 5.736-18.208 16.273-18.208 16.273 8.337 16.273 18.208zm-28.346 0c0 7.337 4.002 14.674 12.072 14.674s12.072-7.337 12.072-14.674c0-7.336-4.002-14.673-12.072-14.673s-12.072 7.337-12.072 14.673zm34.683-30.413h4.203v47.621h-4.203v-47.621zm43.086 30.413c0 9.871-5.736 18.208-16.273 18.208s-16.273-8.337-16.273-18.208 5.736-18.208 16.273-18.208 16.273 8.337 16.273 18.208zm-28.345 0c0 7.337 4.002 14.674 12.072 14.674s12.072-7.337 12.072-14.674c0-7.336-4.002-14.673-12.072-14.673s-12.072 7.337-12.072 14.673zm34.617-17.207h3.869v8.07h.133c2.135-5.536 6.803-8.804 13.006-8.537v4.201c-7.604-.399-12.805 5.203-12.805 12.339v18.342h-4.203v-34.415zm41.619 10.071c-.199-5.203-4.201-7.537-9.004-7.537-3.734 0-8.137 1.468-8.137 5.937 0 3.734 4.268 5.068 7.137 5.802l5.602 1.268c4.803.733 9.805 3.535 9.805 9.537 0 7.471-7.402 10.338-13.807 10.338-8.002 0-13.473-3.734-14.139-12.139h4.201c.334 5.67 4.535 8.604 10.139 8.604 3.936 0 9.404-1.734 9.404-6.536 0-4.002-3.736-5.336-7.537-6.27l-5.402-1.201c-5.469-1.467-9.604-3.334-9.604-9.204 0-7.003 6.869-9.671 12.938-9.671 6.871 0 12.34 3.602 12.605 11.072h-4.201z"/>
  <g fill="#2E3440">
    <path d="M533.157 339.23l-62.918-80.539v-22.345l69.733 90.146h37.473v-126.94h-63.024l-13.625-13.628h90.274V339.23z"/>
    <path d="M467.732 185.924l62.922 80.535v22.345l-69.734-90.143h-37.472V325.6h63.022l13.63 13.63h-90.28V185.924z"/>
  </g>
</svg>
