<svg xmlns="http://www.w3.org/2000/svg" viewBox="0 0 888 600">
  <path
    fill="#88C0D0"
    d="M277.583 365.923h1.957l31.841 44.955h.13v-44.955h1.305v46.586h-1.958l-31.84-44.955h-.131v44.955h-1.305v-46.586zm55.723 12.266c9.787 0 15.072 8.416 15.072 17.551 0 9.2-5.285 17.552-15.137 17.552-9.787 0-15.072-8.352-15.072-17.552-.001-9.135 5.284-17.551 15.137-17.551zm0 33.798c8.938 0 13.767-7.765 13.767-16.247 0-8.352-4.828-16.246-13.767-16.246-9.069 0-13.833 7.895-13.833 16.246 0 8.483 4.763 16.247 13.833 16.247zm21.794.522h-1.305v-33.537h1.305v8.287h.13c1.24-4.959 5.155-9.331 13.18-9.069v1.305c-9.2-.457-13.31 6.721-13.31 14.028v18.986zm41.692-46.586h1.306v46.586h-1.306v-9.396h-.13c-1.696 5.872-6.59 10.179-13.441 10.179-8.874 0-14.289-7.373-14.289-17.486 0-9.396 5.024-17.616 14.289-17.616 7.112 0 11.875 4.11 13.441 10.178h.13v-22.445zm-13.571 13.571c-9.2 0-12.984 8.547-12.984 16.312 0 8.612 4.306 16.182 12.984 16.182 8.613 0 13.571-7.504 13.571-16.182 0-10.374-5.415-16.312-13.571-16.312z"
  />
  <path
    fill="#2E3440"
    d="M424.98 365.923h32.166v3.784h-27.729v16.834h25.967v3.784h-25.967v18.399h28.055v3.784H424.98v-46.585zm37.911 12.919h3.783v5.676h.195c2.154-4.045 5.678-6.654 11.027-6.654 4.438 0 8.416 2.152 9.656 6.59 2.023-4.438 6.264-6.59 10.701-6.59 7.373 0 11.156 3.849 11.156 11.81v22.836H505.3v-22.641c0-5.546-2.088-8.547-7.961-8.547-7.111 0-9.135 5.872-9.135 12.136v19.052h-4.109v-22.836c.064-4.567-1.828-8.352-7.047-8.352-7.111 0-9.982 5.35-10.049 12.396v18.791h-4.109v-33.667zm53.961 10.308c.391-7.895 5.938-11.287 13.637-11.287 5.938 0 12.396 1.826 12.396 10.83v17.878c0 1.566.783 2.479 2.414 2.479a3.87 3.87 0 0 0 1.305-.261v3.458c-.914.195-1.566.261-2.676.261-4.176 0-4.828-2.349-4.828-5.872h-.131c-2.869 4.371-5.807 6.851-12.266 6.851-6.199 0-11.287-3.066-11.287-9.852 0-9.461 9.199-9.787 18.072-10.831 3.393-.392 5.285-.849 5.285-4.567 0-5.546-3.98-6.916-8.809-6.916-5.088 0-8.873 2.349-9.004 7.829h-4.108zm21.921 4.959h-.131c-.521.979-2.348 1.305-3.457 1.501-6.982 1.239-15.66 1.174-15.66 7.764 0 4.11 3.654 6.655 7.504 6.655 6.264 0 11.811-3.979 11.744-10.569v-5.351zm36.084-4.698c-1.109-5.023-4.176-8.09-9.527-8.09-7.895 0-11.809 7.177-11.809 14.354 0 7.178 3.914 14.354 11.809 14.354 5.09 0 9.266-3.979 9.787-9.591h4.111c-1.109 8.09-6.395 13.049-13.898 13.049-10.309 0-15.92-8.155-15.92-17.813 0-9.656 5.611-17.812 15.92-17.812 7.178 0 12.723 3.849 13.637 11.548h-4.11zm30.276-.718c-.197-5.089-4.111-7.372-8.809-7.372-3.654 0-7.961 1.436-7.961 5.807 0 3.653 4.176 4.959 6.982 5.677l5.48 1.239c4.697.718 9.592 3.458 9.592 9.33 0 7.308-7.244 10.113-13.508 10.113-7.828 0-13.18-3.653-13.832-11.875h4.111c.326 5.546 4.438 8.417 9.918 8.417 3.85 0 9.199-1.696 9.199-6.394 0-3.915-3.654-5.221-7.373-6.134l-5.285-1.175c-5.35-1.435-9.395-3.262-9.395-9.004 0-6.851 6.721-9.46 12.656-9.46 6.721 0 12.072 3.522 12.332 10.83h-4.107z"
  />
  <g fill="#2E3440">
    <path d="M476.031 339.82l-62.918-80.541v-22.347l69.733 90.149h37.472v-126.94h-63.023l-13.625-13.628h90.273V339.82z" />
    <path d="M410.606 186.513l62.921 80.534v22.345l-69.732-90.144h-37.473v126.941h63.022l13.63 13.631h-90.28V186.513z" />
  </g>
</svg>
