<svg viewBox="0 0 888 600" xmlns="http://www.w3.org/2000/svg">
  <path fill="none" d="M275.788 366.713h336.423v55.166H275.788z" />
  <path
    fill="#88C0D0"
    d="M279.114 366.959h2.25l36.599 51.674h.15v-51.674h1.5v53.549h-2.25l-36.599-51.674h-.15v51.674h-1.5v-53.549zm64.049 14.1c11.25 0 17.325 9.676 17.325 20.174 0 10.576-6.075 20.176-17.399 20.176-11.25 0-17.324-9.6-17.324-20.176-.001-10.499 6.074-20.174 17.398-20.174zm0 38.849c10.275 0 15.825-8.926 15.825-18.676 0-9.6-5.55-18.674-15.825-18.674-10.424 0-15.899 9.074-15.899 18.674 0 9.75 5.475 18.676 15.899 18.676zm25.051.6h-1.5v-38.549h1.5v9.525h.15c1.425-5.701 5.925-10.725 15.149-10.426v1.5c-10.575-.525-15.299 7.725-15.299 16.125v21.825zm47.922-53.549h1.5v53.549h-1.5v-10.801h-.15c-1.95 6.75-7.575 11.701-15.449 11.701-10.2 0-16.424-8.475-16.424-20.1 0-10.801 5.774-20.25 16.424-20.25 8.174 0 13.649 4.725 15.449 11.699h.15v-25.798zm-15.599 15.6c-10.575 0-14.925 9.824-14.925 18.75 0 9.898 4.95 18.6 14.925 18.6 9.899 0 15.599-8.625 15.599-18.6 0-11.926-6.224-18.75-15.599-18.75z"
  />
  <path
    fill="#2E3440"
    d="M448.536 366.959h18.524c16.125.375 24.6 9.225 24.6 26.775 0 17.549-8.475 26.398-24.6 26.773h-18.524v-53.548zm5.101 49.199h10.874c15.374.074 22.048-6.451 22.048-22.424 0-15.975-6.674-22.5-22.048-22.426h-10.874v44.85zm80.023-15c0 11.1-6.451 20.475-18.299 20.475-11.85 0-18.301-9.375-18.301-20.475s6.451-20.475 18.301-20.475c11.848.001 18.299 9.376 18.299 20.475zm-31.875 0c0 8.25 4.5 16.5 13.576 16.5 9.074 0 13.574-8.25 13.574-16.5s-4.5-16.5-13.574-16.5c-9.076 0-13.576 8.25-13.576 16.5zm66.225-7.199c-1.275-5.775-4.799-9.301-10.949-9.301-9.074 0-13.574 8.25-13.574 16.5s4.5 16.5 13.574 16.5c5.85 0 10.65-4.576 11.25-11.025h4.725c-1.275 9.299-7.35 15-15.975 15-11.85 0-18.299-9.375-18.299-20.475s6.449-20.475 18.299-20.475c8.25 0 14.625 4.426 15.674 13.275h-4.725zm34.801-.826c-.225-5.85-4.725-8.475-10.125-8.475-4.199 0-9.15 1.65-9.15 6.676 0 4.199 4.801 5.699 8.025 6.523l6.299 1.426c5.4.824 11.025 3.975 11.025 10.725 0 8.4-8.324 11.625-15.523 11.625-9 0-15.15-4.201-15.9-13.65h4.725c.375 6.375 5.1 9.676 11.4 9.676 4.424 0 10.574-1.951 10.574-7.35 0-4.5-4.199-6-8.475-7.051l-6.074-1.35c-6.15-1.65-10.801-3.75-10.801-10.35 0-7.875 7.725-10.875 14.551-10.875 7.725 0 13.873 4.051 14.174 12.449h-4.725z"
  />
  <g fill="#2E3440">
    <path d="M477.839 336.959l-65.087-83.316v-23.116l72.135 93.254h38.767V192.465h-65.198l-14.093-14.098h93.387v158.592z" />
    <path d="M410.158 178.367l65.091 83.311v23.115l-72.138-93.252h-38.763v131.318h65.195l14.1 14.1H350.25V178.367z" />
  </g>
</svg>
