<svg xmlns="http://www.w3.org/2000/svg" viewBox="0 0 888 600">
  <path fill="none" d="M293.324 365.979h301.352v47.422H293.324z"/>
  <path fill="#88C0D0" d="M296.847 365.98h1.957l31.841 44.955h.13V365.98h1.305v46.586h-1.958l-31.84-44.955h-.131v44.955h-1.305V365.98zm55.723 12.267c9.787 0 15.072 8.416 15.072 17.551 0 9.2-5.285 17.552-15.137 17.552-9.787 0-15.072-8.352-15.072-17.552-.001-9.135 5.284-17.551 15.137-17.551zm0 33.798c8.938 0 13.767-7.765 13.767-16.247 0-8.352-4.828-16.246-13.767-16.246-9.069 0-13.833 7.895-13.833 16.246 0 8.482 4.763 16.247 13.833 16.247zm21.794.521h-1.305v-33.537h1.305v8.287h.13c1.24-4.959 5.155-9.331 13.18-9.069v1.305c-9.2-.457-13.31 6.721-13.31 14.028v18.986zm41.692-46.586h1.305v46.586h-1.305v-9.396h-.13c-1.697 5.872-6.59 10.179-13.441 10.179-8.874 0-14.289-7.373-14.289-17.486 0-9.396 5.024-17.616 14.289-17.616 7.112 0 11.875 4.11 13.441 10.178h.13V365.98zm-13.571 13.572c-9.2 0-12.984 8.547-12.984 16.312 0 8.612 4.306 16.182 12.984 16.182 8.613 0 13.571-7.504 13.571-16.182 0-10.375-5.415-16.312-13.571-16.312z"/>
  <path fill="#2E3440" d="M446.332 397.233c-.195 9.591 6.721 12.527 15.203 12.527 4.895 0 12.332-2.675 12.332-9.461 0-5.285-5.285-7.373-9.592-8.417l-10.373-2.544c-5.482-1.37-10.505-3.98-10.505-11.223 0-4.567 2.935-13.114 16.05-13.114 9.199 0 17.291 4.958 17.225 14.484h-4.436c-.262-7.111-6.133-10.7-12.723-10.7-6.068 0-11.68 2.349-11.68 9.265 0 4.372 3.262 6.198 7.047 7.112l11.352 2.806c6.59 1.762 12.072 4.632 12.072 12.266 0 3.197-1.307 13.311-17.813 13.311-11.027 0-19.118-4.959-18.596-16.312h4.437zm38.303-31.253h4.109v46.586h-4.109V365.98zm11.613 23.228c.393-7.895 5.938-11.287 13.637-11.287 5.938 0 12.396 1.826 12.396 10.83v17.878c0 1.566.783 2.479 2.414 2.479a3.87 3.87 0 0 0 1.305-.261v3.458c-.912.195-1.564.261-2.674.261-4.176 0-4.828-2.349-4.828-5.872h-.131c-2.871 4.371-5.807 6.851-12.266 6.851-6.199 0-11.289-3.066-11.289-9.852 0-9.461 9.201-9.787 18.074-10.831 3.393-.392 5.285-.849 5.285-4.567 0-5.546-3.98-6.916-8.809-6.916-5.09 0-8.873 2.349-9.004 7.829h-4.11zm21.924 4.959h-.131c-.521.979-2.35 1.305-3.459 1.501-6.98 1.239-15.658 1.174-15.658 7.764 0 4.11 3.654 6.655 7.504 6.655 6.264 0 11.809-3.979 11.744-10.569v-5.351zm36.082-4.698c-1.109-5.023-4.176-8.09-9.525-8.09-7.895 0-11.811 7.177-11.811 14.354 0 7.178 3.916 14.354 11.811 14.354 5.088 0 9.264-3.979 9.787-9.591h4.109c-1.109 8.09-6.395 13.049-13.896 13.049-10.311 0-15.92-8.155-15.92-17.813 0-9.656 5.609-17.812 15.92-17.812 7.176 0 12.723 3.849 13.637 11.548h-4.112zm10.115-23.489h4.109v29.23l18.66-16.312h5.482l-14.355 12.462 15.334 21.205h-5.154l-13.311-18.334-6.656 5.546v12.788h-4.109V365.98z"/>
  <g fill="#2E3440">
    <path d="M476.712 339.904l-62.918-80.539V237.02l69.732 90.146h37.473V200.227h-63.022L444.352 186.6h90.272v153.304z"/>
    <path d="M411.289 186.6l62.919 80.533v22.346l-69.732-90.145h-37.473v126.941h63.023l13.63 13.629h-90.28V186.6z"/>
  </g>
</svg>
