<svg xmlns="http://www.w3.org/2000/svg" viewBox="0 0 24 24">
  <path d="M12 7a5 5 0 0 0-3 9v4a2 2 0 0 0 2 2h2a2 2 0 0 0 2-2v-4a5 5 0 0 0-3-9zm0-1a1 1 0 0 0 1-1V3a1 1 0 0 0-2 0v2a1 1 0 0 0 1 1zm9 5h-2a1 1 0 0 0 0 2h2a1 1 0 0 0 0-2zM5 11H3a1 1 0 0 0 0 2h2a1 1 0 0 0 0-2zm2.66-4.58L6.22 5a1 1 0 0 0-1.39 1.47l1.44 1.39a1 1 0 0 0 .73.28 1 1 0 0 0 .72-.31 1 1 0 0 0-.06-1.41zm11.53-1.37a1 1 0 0 0-1.41 0l-1.44 1.37a1 1 0 0 0 0 1.41 1 1 0 0 0 .72.31 1 1 0 0 0 .69-.28l1.44-1.39a1 1 0 0 0 0-1.42z"/>
</svg>
