<svg xmlns="http://www.w3.org/2000/svg" viewBox="0 0 888 600">
  <path fill="none" d="M191.647 365.979h504.706v47.422H191.647z"/>
  <path fill="#88C0D0" d="M195.171 365.98h1.957l31.841 44.955h.13V365.98h1.305v46.586h-1.958l-31.84-44.955h-.131v44.955h-1.305V365.98zm55.723 12.267c9.787 0 15.072 8.416 15.072 17.551 0 9.2-5.285 17.552-15.137 17.552-9.787 0-15.072-8.352-15.072-17.552-.001-9.135 5.284-17.551 15.137-17.551zm0 33.798c8.938 0 13.767-7.765 13.767-16.247 0-8.352-4.828-16.246-13.767-16.246-9.069 0-13.833 7.895-13.833 16.246 0 8.482 4.763 16.247 13.833 16.247zm21.794.521h-1.305v-33.537h1.305v8.287h.13c1.24-4.959 5.155-9.331 13.18-9.069v1.305c-9.2-.457-13.31 6.721-13.31 14.028v18.986zm41.692-46.586h1.305v46.586h-1.305v-9.396h-.13c-1.697 5.872-6.59 10.179-13.441 10.179-8.874 0-14.289-7.373-14.289-17.486 0-9.396 5.024-17.616 14.289-17.616 7.112 0 11.875 4.11 13.441 10.178h.13V365.98zm-13.571 13.572c-9.2 0-12.984 8.547-12.984 16.312 0 8.612 4.306 16.182 12.984 16.182 8.613 0 13.571-7.504 13.571-16.182 0-10.375-5.415-16.312-13.571-16.312z"/>
  <path fill="#2E3440" d="M344.656 397.233c-.195 9.591 6.721 12.527 15.203 12.527 4.894 0 12.331-2.675 12.331-9.461 0-5.285-5.284-7.373-9.591-8.417l-10.374-2.544c-5.481-1.37-10.505-3.98-10.505-11.223 0-4.567 2.936-13.114 16.051-13.114 9.199 0 17.29 4.958 17.225 14.484h-4.437c-.261-7.111-6.133-10.7-12.723-10.7-6.068 0-11.68 2.349-11.68 9.265 0 4.372 3.263 6.198 7.047 7.112l11.353 2.806c6.59 1.762 12.071 4.632 12.071 12.266 0 3.197-1.306 13.311-17.813 13.311-11.026 0-19.117-4.959-18.596-16.312h4.438zm65.509 15.333h-3.784v-6.068h-.13c-2.153 4.502-6.59 7.047-11.614 7.047-8.482 0-11.81-4.959-11.81-12.788V378.9h4.11v21.923c.196 6.067 2.479 9.265 9.004 9.265 7.047 0 10.113-6.655 10.113-13.506V378.9h4.11v33.666zm7.766-46.586h4.11v19.313h.131c1.762-4.828 6.654-7.372 11.679-7.372 10.244 0 15.138 8.286 15.138 17.812 0 9.526-4.894 17.813-15.138 17.813-5.415 0-10.113-2.806-12.005-7.373h-.131v6.395h-3.784V365.98zm15.92 15.399c-8.743 0-11.81 7.372-11.81 14.354s3.066 14.354 11.81 14.354c7.829 0 11.026-7.373 11.026-14.354s-3.197-14.354-11.026-14.354zm21.598-15.399h4.11v46.586h-4.11V365.98zm12.072 0h4.11v6.59h-4.11v-6.59zm0 12.919h4.11v33.667h-4.11v-33.667zm12.005 0h3.784v5.676h.195c2.153-4.045 5.677-6.654 11.027-6.654 4.437 0 8.416 2.152 9.656 6.59 2.022-4.438 6.264-6.59 10.7-6.59 7.373 0 11.157 3.849 11.157 11.81v22.836h-4.11v-22.641c0-5.546-2.088-8.547-7.96-8.547-7.112 0-9.135 5.872-9.135 12.136v19.052h-4.11V389.73c.065-4.567-1.827-8.352-7.047-8.352-7.112 0-9.982 5.35-10.048 12.396v18.791h-4.11v-33.666zm56.767 17.943c.065 6.003 3.197 13.245 11.092 13.245 6.003 0 9.265-3.523 10.57-8.612h4.11c-1.762 7.634-6.198 12.07-14.681 12.07-10.7 0-15.202-8.221-15.202-17.813 0-8.873 4.502-17.812 15.202-17.812 10.831 0 15.137 9.46 14.811 18.921h-25.902zm21.792-3.458c-.195-6.198-4.045-12.005-10.7-12.005-6.721 0-10.439 5.872-11.092 12.005h21.792zm23.557-27.404h36.93v3.784h-16.247v42.802h-4.437v-42.802h-16.246v-3.784zm35.692 30.862c.065 6.003 3.197 13.245 11.092 13.245 6.003 0 9.265-3.523 10.57-8.612h4.11c-1.762 7.634-6.198 12.07-14.681 12.07-10.7 0-15.202-8.221-15.202-17.813 0-8.873 4.502-17.812 15.202-17.812 10.831 0 15.137 9.46 14.811 18.921h-25.902zm21.792-3.458c-.195-6.198-4.045-12.005-10.7-12.005-6.721 0-10.439 5.872-11.092 12.005h21.792zm18.857 1.696l-12.07-16.181h5.154l9.592 12.788 9.396-12.788h5.154l-12.136 16.115 13.114 17.552h-5.22l-10.57-14.158-10.374 14.158h-5.089l13.049-17.486zm28.71-16.181h6.851v3.458h-6.851v22.706c0 2.675.392 4.24 3.327 4.437 1.175 0 2.35-.065 3.523-.196v3.523c-1.239 0-2.414.131-3.653.131-5.48 0-7.373-1.827-7.308-7.568v-23.032h-5.872V378.9h5.872v-10.113h4.11v10.112z"/>
  <g fill="#2E3440">
    <path d="M476.713 339.904l-62.918-80.539V237.02l69.731 90.146H521V200.227h-63.023L444.353 186.6h90.272v153.304z"/>
    <path d="M411.289 186.6l62.92 80.533v22.346l-69.732-90.145h-37.474v126.941h63.023l13.63 13.629h-90.28V186.6z"/>
  </g>
</svg>
