<svg xmlns="http://www.w3.org/2000/svg" viewBox="0 0 888 600">
  <g fill="#2E3440">
    <path d="M476.233 339.82l-62.918-80.54v-22.345l69.731 90.147h37.475V200.141h-63.026l-13.622-13.628h90.273V339.82z" />
    <path d="M410.808 186.513l62.921 80.534v22.345l-69.733-90.143h-37.472v126.94h63.021l13.63 13.631h-90.279V186.513z" />
  </g>
  <path
    fill="#88C0D0"
    d="M242.544 365.922h1.958l31.841 44.955h.131v-44.955h1.305v46.586h-1.958l-31.84-44.955h-.131v44.955h-1.306v-46.586zm55.724 12.266c9.786 0 15.071 8.418 15.071 17.553 0 9.199-5.285 17.551-15.138 17.551-9.786 0-15.072-8.352-15.072-17.551 0-9.136 5.287-17.553 15.139-17.553zm0 33.798c8.938 0 13.767-7.766 13.767-16.246 0-8.352-4.828-16.248-13.767-16.248-9.07 0-13.833 7.896-13.833 16.248 0 8.481 4.763 16.246 13.833 16.246zm21.794.522h-1.306v-33.537h1.306v8.287h.13c1.24-4.959 5.154-9.33 13.181-9.07v1.305c-9.2-.457-13.311 6.723-13.311 14.029v18.986zm41.692-46.586h1.305v46.586h-1.305v-9.395h-.131c-1.696 5.871-6.59 10.178-13.44 10.178-8.874 0-14.29-7.373-14.29-17.486 0-9.395 5.024-17.617 14.29-17.617 7.112 0 11.875 4.111 13.44 10.18h.131v-22.446zm-13.571 13.57c-9.2 0-12.985 8.549-12.985 16.313 0 8.611 4.308 16.182 12.985 16.182 8.612 0 13.571-7.504 13.571-16.182 0-10.373-5.416-16.313-13.571-16.313z"
  />
  <path
    fill="#2E3440"
    d="M408.733 365.922h4.438v33.602c0 9.461-3.523 13.963-13.572 13.963-10.7 0-13.049-7.83-12.983-15.92h4.437c.131 3.98-.261 12.137 8.938 12.137 6.917 0 8.743-3.525 8.743-12.072v-31.71zm15.466 30.861c.064 6.002 3.197 13.246 11.092 13.246 6.003 0 9.265-3.523 10.571-8.613h4.109c-1.762 7.635-6.198 12.07-14.68 12.07-10.701 0-15.203-8.221-15.203-17.813 0-8.873 4.502-17.813 15.203-17.813 10.831 0 15.138 9.461 14.813 18.922h-25.905zm21.791-3.459c-.195-6.197-4.044-12.004-10.7-12.004-6.721 0-10.439 5.871-11.092 12.004h21.792zm16.183-14.484h6.852v3.459h-6.852v22.705c0 2.676.391 4.242 3.328 4.438 1.176 0 2.348-.066 3.523-.195v3.521c-1.24 0-2.414.131-3.654.131-5.48 0-7.371-1.826-7.307-7.568V382.3h-5.873v-3.459h5.873v-10.113h4.109v10.112zm13.57-12.918h19.707c7.83 0 14.941 2.738 14.941 11.418 0 4.895-3.264 9.395-8.092 10.439v.131c6.004.781 9.854 5.285 9.854 11.352 0 4.438-1.566 13.246-16.703 13.246h-19.707v-46.586zm4.44 20.422h15.268c7.111 0 10.504-3.523 10.504-7.895 0-5.809-3.59-8.744-10.504-8.744h-15.268v16.639zm0 22.379h15.268c6.59.066 12.266-2.152 12.266-9.59 0-5.938-4.502-9.006-12.266-9.006h-15.268v18.596zm38.298-29.883h3.785v7.895h.129c2.09-5.414 6.656-8.611 12.725-8.352v4.111c-7.438-.391-12.525 5.09-12.525 12.072v17.941h-4.113V378.84zm20.163 10.308c.395-7.893 5.939-11.287 13.639-11.287 5.936 0 12.396 1.828 12.396 10.83v17.879c0 1.566.781 2.48 2.412 2.48.459 0 .98-.131 1.307-.262v3.459c-.912.195-1.566.26-2.674.26-4.178 0-4.828-2.35-4.828-5.873h-.131c-2.871 4.373-5.809 6.852-12.268 6.852-6.197 0-11.287-3.066-11.287-9.854 0-9.459 9.199-9.785 18.072-10.83 3.393-.391 5.283-.848 5.283-4.566 0-5.547-3.979-6.916-8.807-6.916-5.09 0-8.873 2.348-9.004 7.828h-4.11zm21.921 4.959h-.129c-.521.979-2.348 1.307-3.459 1.502-6.98 1.238-15.658 1.174-15.658 7.764 0 4.111 3.654 6.656 7.502 6.656 6.266 0 11.813-3.98 11.744-10.572v-5.35zm12.401-28.185h4.111v6.59h-4.111v-6.59zm0 12.918h4.111v33.668h-4.111V378.84zm11.941 0h4.109v5.809h.131c1.5-4.047 6.004-6.787 10.768-6.787 9.459 0 12.33 4.959 12.33 12.984v21.662h-4.111v-21.01c0-5.807-1.893-10.178-8.547-10.178-6.525 0-10.439 4.959-10.57 11.547v19.641h-4.109V378.84zm55.264 9.851c-.195-5.088-4.111-7.371-8.809-7.371-3.654 0-7.959 1.434-7.959 5.807 0 3.654 4.174 4.959 6.98 5.676l5.48 1.24c4.699.719 9.592 3.457 9.592 9.33 0 7.309-7.244 10.113-13.506 10.113-7.83 0-13.18-3.652-13.834-11.875h4.111c.326 5.547 4.438 8.418 9.918 8.418 3.85 0 9.199-1.697 9.199-6.396 0-3.912-3.654-5.219-7.373-6.133l-5.283-1.174c-5.35-1.436-9.396-3.262-9.396-9.004 0-6.85 6.719-9.461 12.658-9.461 6.721 0 12.07 3.523 12.33 10.83h-4.108z"
  />
</svg>
