<svg xmlns="http://www.w3.org/2000/svg" viewBox="0 0 888 600">
  <g fill="#2E3440">
    <path d="M478.083 339.917l-62.918-80.539v-22.346l69.731 90.147h37.474v-126.94h-63.023l-13.624-13.627h90.272v153.305z" />
    <path d="M412.659 186.612l62.92 80.534v22.345l-69.732-90.144h-37.473v126.941h63.022l13.63 13.629h-90.279V186.612z" />
  </g>
  <path
    fill="#88C0D0"
    d="M321.854 366.019h1.958l31.841 44.957h.131v-44.957h1.305v46.588h-1.958l-31.84-44.955h-.131v44.955h-1.306v-46.588zm55.724 12.265c9.786 0 15.071 8.418 15.071 17.553 0 9.199-5.285 17.551-15.138 17.551-9.786 0-15.072-8.352-15.072-17.551 0-9.135 5.287-17.553 15.139-17.553zm0 33.799c8.938 0 13.767-7.764 13.767-16.246 0-8.352-4.828-16.246-13.767-16.246-9.07 0-13.833 7.895-13.833 16.246 0 8.482 4.763 16.246 13.833 16.246zm21.794.523h-1.306v-33.537h1.306v8.287h.13c1.239-4.959 5.154-9.332 13.181-9.072v1.307c-9.2-.457-13.311 6.721-13.311 14.027v18.988zm41.692-46.587h1.306v46.588h-1.306v-9.396h-.131c-1.696 5.873-6.59 10.178-13.44 10.178-8.874 0-14.29-7.371-14.29-17.484 0-9.396 5.024-17.619 14.29-17.619 7.112 0 11.875 4.113 13.44 10.18h.131v-22.447zm-13.571 13.572c-9.2 0-12.985 8.547-12.985 16.313 0 8.611 4.308 16.18 12.985 16.18 8.612 0 13.571-7.502 13.571-16.18 0-10.376-5.416-16.313-13.571-16.313z"
  />
  <path
    fill="#2E3440"
    d="M464.097 366.019h4.764l15.138 41.693h.13l15.007-41.693h4.698l-17.289 46.588h-5.156l-17.292-46.588zm43.523 0h4.109v6.59h-4.109v-6.59zm0 12.919h4.109v33.668h-4.109v-33.668zm12.005 0h3.783v5.676h.195c2.154-4.045 5.677-6.654 11.028-6.654 4.437 0 8.417 2.152 9.655 6.59 2.023-4.438 6.265-6.59 10.701-6.59 7.373 0 11.157 3.848 11.157 11.809v22.838h-4.111v-22.643c0-5.545-2.087-8.547-7.959-8.547-7.113 0-9.135 5.873-9.135 12.135v19.055h-4.111v-22.838c.065-4.568-1.826-8.352-7.046-8.352-7.112 0-9.982 5.35-10.048 12.396v18.793h-4.11v-33.668z"
  />
</svg>
