<svg xmlns="http://www.w3.org/2000/svg" viewBox="0 0 888 400">
  <path
    fill="#2E3440"
    d="M565.192 60h22.133a6.515 6.515 0 0 1 6.515 6.513v210.131a6.515 6.515 0 0 1-6.515 6.513h-22.133a6.513 6.513 0 0 1-6.513-6.513V66.513A6.514 6.514 0 0 1 565.192 60z"
  />
  <path fill="#434C5E" d="M565.13 60h22.223c3.577 0 6.478 2.9 6.478 6.479v26.575h-35.194V66.489a6.478 6.478 0 0 1 6.47-6.489h.023z" />
  <g fill="#D8DEE9">
    <path d="M574.223 263.407h-5.781v-5.783h5.781v5.783zm-4.902-.883h4.02v-4.02h-4.02v4.02z" />
    <path d="M579.124 263.407h-5.783v-5.783h5.783v5.783zm-4.901-.883h4.02v-4.02h-4.02v4.02z" />
    <path
      d="M584.024 263.407h-5.782v-5.783h5.782v5.783zm-4.9-.883h4.02v-4.02h-4.02v4.02zm-4.901 5.784h-5.781v-5.783h5.781v5.783zm-4.902-.881h4.02v-4.02h-4.02v4.02z"
    />
    <path d="M579.124 268.308h-5.783v-5.783h5.783v5.783zm-4.901-.881h4.02v-4.02h-4.02v4.02z" />
    <path d="M584.024 268.308h-5.782v-5.783h5.782v5.783zm-4.9-.881h4.02v-4.02h-4.02v4.02z" />
  </g>
  <g fill="#D8DEE9">
    <path d="M583.909 239.337h-12.895v-12.885h12.895v12.896-.011zm-12.004-.881h11.133v-11.123h-11.141v11.132l.008-.009z" />
    <path d="M575.819 239.867h-4.151v-4.151h4.151v4.151zm.882-5.034h-5.917v5.917h5.917v-5.917z" />
    <path d="M574.522 238.421h-5.967v-5.967h5.967v5.967zm-5.085-.881h4.205v-4.205h-4.205v4.205z" />
    <path d="M568.997 232.895h5.086v5.086h-5.086v-5.086z" />
  </g>
  <path
    d="M581.329 202.857a5.122 5.122 0 1 1-5.122-5.122 5.122 5.122 0 0 1 5.122 5.122m-4.215 7.556a.44.44 0 1 1-.051-.881c.27-.035.536-.087.801-.15a.452.452 0 1 1 .213.881 8.073 8.073 0 0 1-.883.166h-.08v-.016zm-2.572-.15h-.107a7.783 7.783 0 0 1-.88-.273.443.443 0 0 1 .309-.829c.253.096.511.175.773.237a.442.442 0 0 1-.114.865h.019zm5.774-1.077a.44.44 0 0 1-.257-.802c.222-.153.432-.322.635-.501a.441.441 0 0 1 .61.635c-.009.011-.018.017-.028.025-.229.202-.472.39-.725.565a.425.425 0 0 1-.254.077h.019zm-8.815-.501a.429.429 0 0 1-.29-.107 7.076 7.076 0 0 1-.653-.643.44.44 0 1 1 .653-.59c.181.202.375.394.58.573.181.162.194.44.03.622a.445.445 0 0 1-.337.145h.017zm11.061-2.063a.456.456 0 0 1-.202-.055.439.439 0 0 1-.187-.593c0-.003 0-.003.004-.005.125-.241.237-.487.333-.742a.445.445 0 0 1 .569-.26c.229.088.344.34.26.569a7.663 7.663 0 0 1-.38.884.439.439 0 0 1-.397.202zm-13.036-.74a.444.444 0 0 1-.415-.281 7.895 7.895 0 0 1-.282-.884.438.438 0 0 1 .318-.536.432.432 0 0 1 .533.299l.005.019c.065.263.147.522.246.776a.437.437 0 0 1-.249.568c-.002.001-.006.001-.007.004a.446.446 0 0 1-.149.027v.008zm13.848-2.584a.439.439 0 0 1-.44-.44 7.061 7.061 0 0 0-.053-.81.444.444 0 1 1 .882-.106c.034.292.051.588.051.88a.44.44 0 0 1-.439.441v.035zm-14.279-.81h-.054a.438.438 0 0 1-.386-.484c.034-.298.087-.593.158-.882a.45.45 0 1 1 .881.201c-.063.266-.11.533-.143.802a.438.438 0 0 1-.457.353v.01zm13.451-2.513a.441.441 0 0 1-.389-.237 6.388 6.388 0 0 0-.423-.696.44.44 0 0 1 .724-.503c.173.251.333.514.476.785a.44.44 0 0 1-.387.644v.007zm-12.262-.695a.444.444 0 0 1-.362-.688c.173-.251.361-.494.564-.722a.44.44 0 1 1 .661.58c-.178.205-.342.42-.494.644a.435.435 0 0 1-.362.177l-.007.009zm9.987-1.862a.421.421 0 0 1-.246-.079 7.16 7.16 0 0 0-.696-.422.443.443 0 0 1 .406-.777c.271.143.533.302.782.477a.438.438 0 0 1 .07.62.44.44 0 0 1-.316.166v.015zm-7.439-.421a.441.441 0 1 1-.212-.829c.272-.144.552-.27.837-.379a.44.44 0 0 1 .38.797c-.021.008-.041.017-.062.022-.253.097-.5.209-.74.335a.42.42 0 0 1-.194.036l-.009.018zm4.231-.793h-.053a6.505 6.505 0 0 0-.813-.044.46.46 0 0 1-.467-.441.423.423 0 0 1 .404-.44h.099c.295 0 .59.018.88.052a.442.442 0 0 1 0 .865l-.05.008z"
    fill="#D8DEE9"
  />
  <g fill="#D8DEE9">
    <path d="M579.318 169.613a5.51 5.51 0 0 1-11.019 0 5.508 5.508 0 0 1 5.51-5.508 5.508 5.508 0 0 1 5.509 5.508" />
    <path
      d="M578.217 179.971a5.95 5.95 0 1 1 5.95-5.95 5.962 5.962 0 0 1-5.95 5.95zm0-11.02a5.07 5.07 0 0 0 0 10.137 5.067 5.067 0 0 0 5.067-5.067 5.078 5.078 0 0 0-5.051-5.105h-.017v.035z"
    />
  </g>
  <path
    fill="#D8DEE9"
    d="M575.299 132.931h1.869v1.869h.466c.776 0 1.403.627 1.403 1.402v3.272l-.41.412 1.534 2.656a5.583 5.583 0 0 0 1.682-4.002h1.87a7.473 7.473 0 0 1-2.589 5.667l2.936 5.086.121 2.075-1.75-1.14-2.869-4.983c-.992.496-2.133.776-3.329.776s-2.336-.28-3.329-.776l-2.868 4.983-1.749 1.14.119-2.075 5.434-9.407-.41-.412v-3.272c0-.775.629-1.402 1.402-1.402h.468v-1.869m-1.461 10.686c.73.346 1.543.533 2.394.533.853 0 1.665-.187 2.395-.533l-1.365-2.365h-.011a1.444 1.444 0 0 1-2.039 0h-.006l-1.368 2.365m2.393-6.947a.934.934 0 0 0-.934.936.934.934 0 1 0 1.87 0 .935.935 0 0 0-.936-.936zm-4.663-24.838v6.875c0 .395.319.715.714.715h5.614c.396 0 .714-.32.714-.715v-7.209l-.247-.713s.741-2.787 1.657-2.919c.547-.087 1.507-.299 2.186-.458a.713.713 0 0 0 .503-.952c-.378-.969-1.215-2.503-2.645-2.503a3.783 3.783 0 0 0-2.582.996.709.709 0 0 0-.055.997l.055.053c.468.423 1.05 1.031.881 1.366-.166.334-.82 2.239-1.109 3.138a.712.712 0 0 1-.697.493h-.581v-5.385a.716.716 0 0 1 .192-.494l.494-.564a.714.714 0 0 0 .195-.494v-1.587a.715.715 0 0 0-.715-.714h-2.088a.715.715 0 0 0-.716.714v1.587c0 .216.097.419.265.555l.352.283a.709.709 0 0 1 .266.555v3.128a.712.712 0 0 1-.705.722.711.711 0 0 1-.643-.385l-.389-.733a.713.713 0 0 1 0-.66 1.51 1.51 0 0 0-.15-1.843 5.317 5.317 0 0 1-.986-1.515.716.716 0 0 0-1.332.105c-.422 1.401-.635 3.306.882 4.329 1.956 1.338 1.313 2.3.882 2.643a.679.679 0 0 0-.211.512m-4.676-28.122l1.359.567v-9.16l-2.467 5.945a2.03 2.03 0 0 0 1.108 2.648m19.783-3.754l-5.031-12.125a2.031 2.031 0 0 0-1.838-1.268c-.262 0-.535.04-.801.152l-7.479 3.095a2.047 2.047 0 0 0-1.246 1.825c-.012.254.041.548.131.813l5.072 12.124c.295.792 1.045 1.259 1.838 1.269.265 0 .527-.051.781-.153l7.466-3.094a2.023 2.023 0 0 0 1.107-2.638m-14.356-7.306a1.013 1.013 0 0 1-1.014-1.015 1.014 1.014 0 1 1 2.029 0c0 .559-.456 1.015-1.015 1.015m-2.029 11.161c0 1.121.908 2.029 2.029 2.029h1.471l-3.5-8.461v6.432z"
  />
  <path
    fill="#2E3440"
    d="M537.442 331.703c0 4.563-2.98 8.297-6.623 8.297H300.783c-3.642 0-6.622-3.734-6.622-8.297V83.345c0-4.565 2.98-8.299 6.622-8.299H530.82c3.643 0 6.623 3.734 6.623 8.299v248.358z"
  />
  <path fill="#434C5E" d="M300.516 60h230.571a6.356 6.356 0 0 1 6.355 6.355v16.563H294.161V66.355A6.354 6.354 0 0 1 300.516 60z" />
  <path d="M523.497 68.208l3.42 3.419-3.42 3.419v-6.838zm-3.411 0l3.411 3.419-3.411 3.419v-6.838z" fill="#D8DEE9" />
  <path fill="#BF616A" d="M316.192 296.223h37.717v27.838h-37.717a3.526 3.526 0 0 1-3.526-3.526v-20.768a3.526 3.526 0 0 1 3.507-3.544h.019z" />
  <path fill="#D08770" d="M353.909 296.223h41.261v27.838h-41.261v-27.838z" />
  <path fill="#EBCB8B" d="M395.17 296.223h41.261v27.838H395.17v-27.838z" />
  <path fill="#A3BE8C" d="M436.431 296.223h41.26v27.838h-41.26v-27.838z" />
  <path fill="#B48EAD" d="M477.691 296.223h37.717a3.525 3.525 0 0 1 3.527 3.525v20.742a3.525 3.525 0 0 1-3.527 3.524h-37.717v-27.791z" />
  <path
    d="M312.71 289.034l2.509-5.485c.087-.194.22-.31.441-.31h.036c.211 0 .353.115.432.31l2.509 5.478c.027.06.044.123.044.177 0 .186-.15.334-.335.334-.168 0-.283-.114-.345-.255l-.645-1.424h-3.391l-.646 1.441c-.062.15-.176.237-.336.237a.315.315 0 0 1-.317-.317.422.422 0 0 1 .044-.186zm4.373-1.81l-1.422-3.164-1.422 3.164h2.844zm6.649 1.968a.338.338 0 0 1-.336.345.336.336 0 0 1-.335-.345v-.492c-.31.492-.777.89-1.563.89-1.104 0-1.749-.741-1.749-1.827v-2.535c0-.193.141-.344.335-.344.186 0 .345.15.345.344v2.366c0 .85.459 1.38 1.263 1.38.778 0 1.369-.574 1.369-1.433v-2.313c0-.193.142-.344.335-.344.187 0 .336.15.336.344v3.964zm1.527-3.964c0-.186.15-.344.336-.344.194 0 .344.15.344.344v.855c.335-.759.998-1.219 1.572-1.219.204 0 .336.15.336.347a.338.338 0 0 1-.3.343c-.884.105-1.608.769-1.608 2.086v1.553c0 .186-.141.345-.335.345s-.345-.148-.345-.345v-3.965zm3.099 2.003v-.016c0-1.291 1.007-2.387 2.385-2.387a2.349 2.349 0 0 1 2.376 2.367v.02a2.372 2.372 0 0 1-2.394 2.385c-1.368.001-2.367-1.078-2.367-2.369zm4.064 0v-.016c0-.982-.734-1.785-1.696-1.785-.99 0-1.67.803-1.67 1.766v.02c0 .979.725 1.774 1.688 1.774.988 0 1.678-.796 1.678-1.759zm1.924-2.003a.34.34 0 1 1 .68 0v.855c.335-.759.998-1.219 1.571-1.219.203 0 .336.15.336.347a.336.336 0 0 1-.301.343c-.883.105-1.606.769-1.606 2.086v1.553a.338.338 0 0 1-.336.345.339.339 0 0 1-.345-.345v-3.965zm3.011 2.94v-.017c0-.963.795-1.475 1.952-1.475.583 0 .998.077 1.404.192v-.159c0-.82-.503-1.244-1.36-1.244-.458 0-.848.106-1.183.257a.3.3 0 0 1-.424-.265c0-.143.097-.247.185-.284.451-.192.91-.31 1.493-.31.645 0 1.14.17 1.475.505.309.31.468.75.468 1.333v2.501a.321.321 0 0 1-.326.334.313.313 0 0 1-.328-.317v-.416c-.317.416-.848.786-1.652.786-.847.001-1.704-.485-1.704-1.421zm3.366-.352v-.442a4.74 4.74 0 0 0-1.342-.193c-.857 0-1.335.369-1.335.945v.017c0 .574.531.911 1.148.911.84 0 1.529-.515 1.529-1.238z"
    fill="#D8DEE9"
  />
  <path fill="none" d="M312.665 289.013h30.025v7.21h-30.025z" />
  <path fill="#8FBCBB" d="M316.192 234.524h37.717v27.836h-37.717a3.525 3.525 0 0 1-3.526-3.525v-20.759a3.526 3.526 0 0 1 3.499-3.552h.027z" />
  <path fill="#81A1C1" d="M395.101 234.524h41.262v27.836h-41.262v-27.836z" />
  <path fill="#5E81AC" d="M436.363 234.524h37.717a3.524 3.524 0 0 1 3.525 3.524v20.768a3.525 3.525 0 0 1-3.525 3.525h-37.717v-27.817z" />
  <path
    fill="#88C0D0"
    stroke="#2E3440"
    d="M348.924 230.491h51.231a4.989 4.989 0 0 1 4.988 4.989v25.923a4.989 4.989 0 0 1-4.988 4.99h-51.231a4.99 4.99 0 0 1-4.989-4.99V235.48a4.99 4.99 0 0 1 4.989-4.989z"
  />
  <path
    d="M312.667 221.966c0-.195.159-.354.345-.354h3.824c.176 0 .318.14.318.317s-.143.326-.318.326h-3.472v2.208h3.075a.317.317 0 0 1 0 .635h-3.075v2.384a.354.354 0 0 1-.353.355.352.352 0 0 1-.345-.355v-5.516zm5.677 1.561c0-.185.15-.343.335-.343.195 0 .345.15.345.343v.858c.336-.759.998-1.221 1.572-1.221.204 0 .336.15.336.346a.338.338 0 0 1-.301.344c-.883.107-1.607.769-1.607 2.084v1.556c0 .187-.141.345-.335.345s-.345-.15-.345-.345v-3.967zm3.1 2.007v-.02c0-1.288 1.007-2.385 2.386-2.385a2.348 2.348 0 0 1 2.375 2.368v.017a2.371 2.371 0 0 1-2.393 2.387c-1.37 0-2.368-1.079-2.368-2.367zm4.063 0v-.02c0-.979-.733-1.783-1.696-1.783-.99 0-1.67.805-1.67 1.767v.017c0 .981.725 1.777 1.688 1.777.989 0 1.678-.796 1.678-1.758zm1.678 1.774a.296.296 0 0 1 .176-.538c.062 0 .123.017.167.053.468.319.954.485 1.449.485.547 0 .945-.281.945-.722v-.019c0-.459-.539-.637-1.139-.805-.715-.204-1.511-.451-1.511-1.29v-.017c0-.787.654-1.307 1.555-1.307.486 0 1.016.15 1.458.389a.324.324 0 0 1 .168.281.298.298 0 0 1-.301.293.354.354 0 0 1-.149-.036c-.39-.222-.804-.353-1.193-.353-.539 0-.883.281-.883.662v.017c0 .435.566.601 1.175.786.707.211 1.466.485 1.466 1.308v.017c0 .867-.715 1.369-1.625 1.369a3.147 3.147 0 0 1-1.758-.573zm4.794-.722v-2.759h-.372c-.159 0-.3-.14-.3-.3 0-.167.141-.299.3-.299h.372v-1.077c0-.186.141-.345.335-.345a.35.35 0 0 1 .344.345v1.077h1.185a.31.31 0 0 1 .309.299c0 .169-.141.3-.309.3h-1.185v2.669c0 .558.311.761.769.761.239 0 .362-.063.416-.063.158 0 .291.134.291.29a.286.286 0 0 1-.194.268c-.194.08-.406.123-.671.123-.733-.001-1.29-.364-1.29-1.289z"
    fill="#D8DEE9"
  />
  <path fill="none" d="M312.665 227.291h23.107v7.8h-23.107z" />
  <path fill="#D8DEE9" d="M316.192 174.021h37.717v27.835h-37.717a3.526 3.526 0 0 1-3.526-3.526v-20.768a3.523 3.523 0 0 1 3.507-3.542l.019.001z" />
  <path fill="#E5E9F0" d="M353.909 174.021h41.261v27.835h-41.261v-27.835z" />
  <path fill="#ECEFF4" d="M395.17 174.021h37.717a3.524 3.524 0 0 1 3.526 3.524v20.74a3.527 3.527 0 0 1-3.526 3.527H395.17v-27.791z" />
  <path
    d="M312.799 166.547a.307.307 0 0 1-.132-.264c0-.194.15-.345.335-.345.089 0 .168.036.212.08.583.494 1.166.733 1.952.733.83 0 1.377-.441 1.377-1.05v-.018c0-.575-.308-.901-1.607-1.176-1.422-.309-2.076-.768-2.076-1.784v-.018c0-.972.856-1.686 2.032-1.686.813 0 1.404.202 1.97.608.07.054.149.15.149.283a.334.334 0 0 1-.335.335.328.328 0 0 1-.203-.062c-.521-.38-1.024-.539-1.599-.539-.804 0-1.316.442-1.316.998v.018c0 .583.318.91 1.679 1.202 1.377.3 2.013.804 2.013 1.749v.017c0 1.06-.882 1.749-2.11 1.749-.901.002-1.653-.281-2.341-.83zm5.757-3.523a.34.34 0 1 1 .68 0v.494c.301-.494.778-.891 1.564-.891 1.103 0 1.748.742 1.748 1.828v2.536c0 .195-.15.344-.336.344a.338.338 0 0 1-.344-.344v-2.368c0-.848-.458-1.378-1.263-1.378-.786 0-1.37.574-1.37 1.432v2.314a.331.331 0 0 1-.335.344.339.339 0 0 1-.345-.344v-3.967zm5.157 2.006v-.018c0-1.29 1.006-2.385 2.385-2.385a2.346 2.346 0 0 1 2.376 2.367v.018a2.372 2.372 0 0 1-2.394 2.385c-1.369 0-2.367-1.078-2.367-2.367zm4.064 0v-.018c0-.981-.734-1.785-1.697-1.785-.989 0-1.669.804-1.669 1.767v.018c0 .98.725 1.774 1.688 1.774.988.001 1.678-.794 1.678-1.756zm2.843 2.022l-1.387-3.861c-.018-.052-.044-.124-.044-.185 0-.167.141-.326.345-.326.176 0 .291.114.345.282l1.148 3.427 1.157-3.436c.053-.159.159-.273.335-.273h.035c.186 0 .301.114.354.273l1.148 3.436 1.165-3.445c.045-.14.142-.264.327-.264.195 0 .336.15.336.318 0 .062-.027.133-.044.185l-1.396 3.869c-.071.204-.212.309-.372.309h-.026c-.176 0-.309-.105-.37-.309l-1.139-3.33-1.148 3.33c-.063.204-.195.309-.372.309H331c-.169 0-.31-.105-.38-.309zm9.007-.505a.308.308 0 0 1-.133-.264c0-.194.15-.345.335-.345.089 0 .168.036.212.08.584.494 1.167.733 1.953.733.83 0 1.378-.441 1.378-1.05v-.018c0-.575-.31-.901-1.608-1.176-1.422-.309-2.075-.768-2.075-1.784v-.018c0-.972.856-1.686 2.032-1.686.812 0 1.404.202 1.97.608.07.054.149.15.149.283a.335.335 0 0 1-.336.335.328.328 0 0 1-.203-.062c-.521-.38-1.024-.539-1.599-.539-.804 0-1.316.442-1.316.998v.018c0 .583.318.91 1.679 1.202 1.377.3 2.014.804 2.014 1.749v.017c0 1.06-.883 1.749-2.111 1.749-.901.002-1.652-.281-2.341-.83zm5.952-.467v-2.756h-.372a.308.308 0 0 1-.299-.3c0-.168.141-.301.299-.301h.372v-1.078c0-.186.141-.344.335-.344a.35.35 0 0 1 .345.344v1.078h1.184c.168 0 .309.141.309.301 0 .167-.141.3-.309.3h-1.184v2.668c0 .555.31.759.769.759.239 0 .362-.062.416-.062.159 0 .292.133.292.291 0 .125-.08.222-.194.266a1.724 1.724 0 0 1-.671.124c-.736.001-1.292-.362-1.292-1.29zm2.914-1.05v-.018c0-1.29 1.007-2.385 2.385-2.385a2.347 2.347 0 0 1 2.376 2.367v.018a2.372 2.372 0 0 1-2.394 2.385c-1.368 0-2.367-1.078-2.367-2.367zm4.063 0v-.018c0-.981-.733-1.785-1.695-1.785-.99 0-1.669.804-1.669 1.767v.018c0 .98.725 1.774 1.687 1.774.988.001 1.677-.794 1.677-1.756zm1.925-2.006c0-.186.15-.344.335-.344.195 0 .344.15.344.344v.856c.336-.759.998-1.218 1.572-1.218.204 0 .336.15.336.344a.34.34 0 0 1-.301.345c-.883.106-1.608.769-1.608 2.085v1.554a.337.337 0 0 1-.335.344.338.338 0 0 1-.344-.344v-3.966zm3.576 0a.34.34 0 1 1 .68 0v.467c.3-.449.707-.865 1.475-.865.742 0 1.219.397 1.465.909.327-.503.813-.909 1.608-.909 1.051 0 1.695.707 1.695 1.837v2.526a.336.336 0 0 1-.335.344.34.34 0 0 1-.345-.344v-2.368c0-.883-.441-1.378-1.184-1.378-.689 0-1.253.513-1.253 1.414v2.332c0 .195-.15.344-.345.344a.336.336 0 0 1-.335-.344v-2.385c0-.856-.451-1.36-1.175-1.36s-1.271.601-1.271 1.439v2.306a.331.331 0 0 1-.335.344.338.338 0 0 1-.344-.344v-3.965z"
    fill="#D8DEE9"
  />
  <path fill="none" d="M312.665 165.631h56.811v8.388h-56.811z" />
  <path fill="#2E3440" d="M316.192 112.918h37.717v27.836h-37.717a3.526 3.526 0 0 1-3.526-3.526v-20.766a3.524 3.524 0 0 1 3.507-3.543l.019-.001z" />
  <path fill="#3B4252" d="M353.909 112.918h41.261v27.836h-41.261v-27.836z" />
  <path fill="#434C5E" d="M395.17 112.918h41.261v27.836H395.17v-27.836z" />
  <path fill="#4C566A" d="M436.431 112.918h37.718a3.524 3.524 0 0 1 3.524 3.524v20.741a3.525 3.525 0 0 1-3.524 3.527h-37.718v-27.792z" />
  <path
    d="M312.667 99.035c0-.194.159-.353.345-.353h1.969c1.395 0 2.314.741 2.314 1.959v.018c0 1.334-1.113 2.023-2.43 2.023h-1.501v1.873a.354.354 0 0 1-.353.353.353.353 0 0 1-.345-.353v-5.52zm2.225 3.011c1.024 0 1.695-.548 1.695-1.36v-.018c0-.883-.662-1.343-1.66-1.343h-1.564v2.721h1.529zm3.231.557v-.018c0-1.29 1.007-2.385 2.386-2.385a2.347 2.347 0 0 1 2.376 2.367v.018a2.372 2.372 0 0 1-2.395 2.385c-1.368.001-2.367-1.078-2.367-2.367zm4.065 0v-.018c0-.981-.734-1.784-1.697-1.784-.989 0-1.669.803-1.669 1.766v.018c0 .98.723 1.775 1.687 1.775.99.001 1.679-.795 1.679-1.757zm1.985-3.887c0-.185.15-.345.336-.345.194 0 .345.16.345.345v5.847a.332.332 0 0 1-.336.344.339.339 0 0 1-.344-.344v-5.847zm1.916 4.823v-.017c0-.964.795-1.476 1.951-1.476.583 0 .998.081 1.405.194v-.16c0-.821-.504-1.245-1.361-1.245-.458 0-.848.105-1.183.256a.301.301 0 0 1-.425-.265.31.31 0 0 1 .185-.282c.451-.194.91-.31 1.493-.31.645 0 1.139.167 1.475.504.31.309.468.75.468 1.333v2.5a.322.322 0 0 1-.326.335.313.313 0 0 1-.327-.318v-.414c-.318.414-.849.786-1.652.786-.846.001-1.703-.484-1.703-1.421zm3.366-.354v-.441a4.804 4.804 0 0 0-1.343-.194c-.857 0-1.334.371-1.334.945v.018c0 .574.531.91 1.148.91.839-.001 1.529-.514 1.529-1.238zm2.091-2.587a.34.34 0 1 1 .681 0v.857c.335-.76.998-1.219 1.572-1.219.202 0 .335.15.335.344a.34.34 0 0 1-.3.346c-.883.105-1.607.768-1.607 2.084v1.554a.337.337 0 0 1-.336.344.339.339 0 0 1-.344-.344v-3.966zm6.341-1.599a.35.35 0 0 1 .345-.344h.097c.159 0 .256.079.353.203l3.755 4.787v-4.664c0-.186.15-.344.344-.344.186 0 .336.159.336.344v5.583c0 .185-.132.327-.318.327h-.036c-.15 0-.255-.088-.362-.211l-3.833-4.902v4.787a.344.344 0 0 1-.344.344.343.343 0 0 1-.335-.344v-5.566zm6.861-.132c0-.222.177-.362.397-.362.23 0 .406.141.406.362v.114c0 .212-.176.362-.406.362-.22 0-.397-.15-.397-.362v-.114zm.062 1.731c0-.185.151-.345.336-.345.195 0 .344.15.344.345v3.966a.332.332 0 0 1-.335.344.34.34 0 0 1-.345-.344v-3.966zm2.375 5.157a.314.314 0 0 1-.176-.283c0-.149.15-.299.309-.299.062 0 .105.018.15.044a2.885 2.885 0 0 0 1.616.495c1.008 0 1.661-.556 1.661-1.625v-.538c-.397.529-.954.961-1.793.961-1.095 0-2.146-.822-2.146-2.137v-.018c0-1.334 1.06-2.155 2.146-2.155.857 0 1.414.424 1.784.918v-.521c0-.185.142-.345.335-.345.195 0 .345.16.345.345v3.471c0 .707-.212 1.245-.583 1.616-.407.407-1.016.61-1.74.61a3.561 3.561 0 0 1-1.908-.539zm3.578-3.391v-.017c0-.937-.813-1.546-1.679-1.546s-1.581.6-1.581 1.536v.018c0 .918.733 1.553 1.581 1.553.866.001 1.679-.625 1.679-1.544zm2.171-3.648c0-.185.15-.345.336-.345.193 0 .344.16.344.345v2.376c.3-.495.778-.892 1.564-.892 1.104 0 1.748.741 1.748 1.828v2.535a.339.339 0 1 1-.679 0v-2.368c0-.848-.459-1.377-1.263-1.377-.786 0-1.37.574-1.37 1.43v2.315c0 .194-.141.344-.335.344s-.345-.15-.345-.344v-5.847zm5.678 4.937v-2.755h-.371a.31.31 0 0 1-.301-.3c0-.168.142-.301.301-.301h.371v-1.078c0-.185.142-.345.336-.345.186 0 .345.16.345.345v1.078h1.183c.168 0 .31.142.31.301 0 .167-.142.3-.31.3h-1.183v2.667c0 .556.309.76.768.76.238 0 .362-.063.415-.063.159 0 .292.134.292.292 0 .124-.08.22-.194.264a1.693 1.693 0 0 1-.67.125c-.736.001-1.292-.361-1.292-1.29z"
    fill="#D8DEE9"
  />
  <path fill="none" d="M312.532 96.844h52.377v8.205h-52.377z" />
</svg>
