<svg xmlns="http://www.w3.org/2000/svg" viewBox="0 0 888 600">
  <path
    d="M357.193 359.197h2.82l45.869 64.762h.188v-64.762h1.88v67.111h-2.82l-45.869-64.762h-.188v64.762h-1.88v-67.111zm80.274 17.67c14.099 0 21.712 12.127 21.712 25.285 0 13.254-7.613 25.285-21.807 25.285-14.099 0-21.712-12.031-21.712-25.285.001-13.158 7.614-25.285 21.807-25.285zm0 48.69c12.877 0 19.833-11.186 19.833-23.404 0-12.031-6.955-23.404-19.833-23.404-13.065 0-19.927 11.373-19.927 23.404.001 12.218 6.862 23.404 19.927 23.404zm31.397.752h-1.88v-48.313h1.88v11.938h.188c1.786-7.145 7.426-13.441 18.987-13.066v1.881c-13.254-.658-19.175 9.682-19.175 20.209v27.351zm60.063-67.112h1.88v67.111h-1.88v-13.535h-.188c-2.443 8.459-9.493 14.664-19.362 14.664-12.783 0-20.585-10.621-20.585-25.191 0-13.535 7.237-25.379 20.585-25.379 10.245 0 17.106 5.922 19.362 14.664h.188v-32.334zm-19.551 19.551c-13.253 0-18.705 12.313-18.705 23.498 0 12.408 6.204 23.311 18.705 23.311 12.407 0 19.551-10.809 19.551-23.311 0-14.945-7.802-23.498-19.551-23.498z"
    fill="#88C0D0"
  />
  <g fill="#2E3440">
    <path d="M477.84 331.154l-65.088-83.316v-23.115l72.135 93.254h38.767V186.66h-65.197l-14.094-14.097h93.387v158.591z" />
    <path d="M410.158 172.563l65.092 83.31v23.115l-72.139-93.252h-38.763v131.319h65.195l14.1 14.099H350.25V172.563z" />
  </g>
</svg>
