<svg xmlns="http://www.w3.org/2000/svg" viewBox="0 0 888 800">
  <path fill="#ECEFF4" d="M395.002 650.608h-216v75h-72v-63.02l-.002.02v86c0 6.6 5.4 12 12 12h336c6.6 0 12-5.4 12-12v-23h-71.998v-75z"/>
  <path fill="none" d="M412.604 737.608h36.79v8h-36.79zm-72 0h36.791v8h-36.791zm-72 0h36.791v8h-36.791zm-69.998 0h36.791v8h-36.791zm-70.813 0h32.791v8h-32.791z"/>
  <path d="M413.373 744.882v-7.273h.838v2.686h.072a6.37 6.37 0 0 1 .256-.365c.111-.146.27-.279.477-.396s.488-.176.844-.176c.459 0 .863.113 1.215.344.35.23.623.555.82.977.195.422.295.918.295 1.492 0 .576-.1 1.076-.295 1.5a2.32 2.32 0 0 1-.818.98 2.13 2.13 0 0 1-1.203.346c-.35 0-.631-.059-.842-.176s-.373-.252-.486-.402a4.572 4.572 0 0 1-.262-.373h-.1v.838h-.811zm.824-2.729c0 .619.135 1.121.402 1.508.27.387.656.58 1.16.58.35 0 .643-.092.879-.277s.412-.438.533-.754c.119-.316.178-.668.178-1.057 0-.383-.059-.729-.176-1.037a1.63 1.63 0 0 0-.527-.736c-.236-.182-.531-.271-.887-.271-.512 0-.9.188-1.164.564-.265.377-.398.871-.398 1.48zm5.086 1.237v-.725l3.195-5.057h1.064v5h.994v.781h-.994v1.492h-.838v-1.492h-3.421zm3.422-.782v-3.877h-.057l-2.414 3.82v.057h2.471zm5.498 2.373c-.49 0-.922-.088-1.293-.262s-.662-.414-.869-.721a1.802 1.802 0 0 1-.311-1.049c-.002-.307.059-.59.182-.854.123-.262.291-.482.506-.658s.455-.289.719-.336v-.043a1.393 1.393 0 0 1-.83-.588 1.744 1.744 0 0 1-.305-1.031c-.004-.369.09-.699.279-.99s.451-.521.783-.689.713-.252 1.139-.252c.422 0 .797.084 1.129.252s.592.398.783.689c.189.291.287.621.289.99-.002.387-.107.73-.314 1.031a1.4 1.4 0 0 1-.822.588v.043c.262.047.496.16.709.336.211.176.381.396.506.658.125.264.189.547.191.854a1.835 1.835 0 0 1-.316 1.049c-.211.307-.5.547-.871.721s-.799.262-1.284.262zm0-.781c.492 0 .883-.119 1.17-.354.287-.236.432-.549.436-.939a1.33 1.33 0 0 0-.213-.729 1.447 1.447 0 0 0-.572-.496 1.81 1.81 0 0 0-.82-.182c-.313 0-.59.061-.832.182-.24.119-.432.285-.568.496a1.275 1.275 0 0 0-.205.729c-.002.391.139.703.426.939.286.235.678.354 1.178.354zm0-3.453c.391 0 .713-.113.965-.342.254-.229.381-.531.385-.908-.004-.369-.127-.664-.375-.887s-.572-.334-.975-.334c-.408 0-.734.111-.982.334s-.369.518-.367.887c-.002.377.123.68.375.908s.576.342.974.342zm6.137 4.248c-.527 0-.979-.117-1.359-.35-.379-.234-.672-.561-.877-.98s-.307-.91-.307-1.469.102-1.051.307-1.479.49-.762.859-1.002c.367-.24.799-.359 1.291-.359.283 0 .564.047.842.141.277.096.529.248.756.461.227.211.406.492.541.84s.203.775.203 1.285v.355h-3.957c.018.582.184 1.029.494 1.338.313.311.713.465 1.207.465.328 0 .611-.07.848-.213.236-.141.408-.354.516-.639l.807.227a1.817 1.817 0 0 1-.764.998c-.386.254-.854.381-1.407.381zm-1.701-3.281h3.107c0-.461-.137-.844-.406-1.148s-.631-.457-1.086-.457c-.32 0-.598.074-.832.225a1.607 1.607 0 0 0-.553.59 1.852 1.852 0 0 0-.23.79zm6.84 3.295c-.346 0-.658-.064-.941-.197a1.607 1.607 0 0 1-.67-.57c-.166-.25-.25-.553-.25-.908 0-.313.063-.566.186-.762s.287-.348.494-.459c.205-.111.434-.195.684-.252.25-.055.5-.1.754-.133.332-.043.602-.076.809-.104.207-.025.357-.066.453-.121.098-.057.145-.152.145-.287 0-.352-.094-.627-.283-.824-.189-.199-.479-.297-.867-.297-.4 0-.713.088-.941.262-.227.176-.387.363-.479.563l-.797-.285c.143-.33.332-.59.57-.775s.498-.316.781-.391.563-.111.836-.111c.176 0 .377.02.605.061.229.043.451.127.664.254.215.129.393.322.535.58s.213.604.213 1.037v3.594h-.838v-.738h-.043c-.057.117-.15.244-.283.379s-.309.25-.529.344c-.223.093-.49.14-.808.14zm.128-.752c.33 0 .611-.066.84-.195.229-.131.4-.299.518-.504.117-.207.176-.424.176-.65v-.768c-.035.043-.113.082-.232.115a3.636 3.636 0 0 1-.412.09c-.154.023-.305.045-.451.063l-.354.045c-.217.029-.42.074-.609.137-.188.063-.34.156-.453.281-.115.123-.172.293-.172.506 0 .291.107.51.324.658s.491.222.825.222zm7.657.625v-.838h-.1c-.063.1-.15.225-.264.373-.113.15-.275.285-.486.402s-.49.176-.842.176c-.455 0-.855-.115-1.203-.346a2.316 2.316 0 0 1-.816-.98c-.197-.424-.295-.924-.295-1.5 0-.574.098-1.07.295-1.492.195-.422.469-.746.82-.977.35-.23.754-.344 1.213-.344.355 0 .637.059.844.176s.367.25.477.396c.109.148.195.27.258.365h.07v-2.686h.838v7.273h-.809zm-.412-4.209c-.266-.377-.654-.564-1.166-.564-.354 0-.65.09-.885.271a1.63 1.63 0 0 0-.529.736 2.907 2.907 0 0 0-.176 1.037c0 .389.059.74.18 1.057.119.316.297.568.531.754.236.186.529.277.879.277.506 0 .891-.193 1.16-.58s.402-.889.402-1.508c0-.609-.133-1.103-.396-1.48zm-103.873 4.336c-.346 0-.66-.064-.941-.197a1.612 1.612 0 0 1-.672-.57c-.164-.25-.248-.553-.248-.908 0-.313.063-.566.186-.762s.287-.348.492-.459c.207-.111.436-.195.684-.252.25-.055.502-.1.756-.133.332-.043.6-.076.807-.104.209-.025.359-.066.455-.121.096-.057.145-.152.145-.287 0-.352-.096-.627-.285-.824-.189-.199-.477-.297-.865-.297-.4 0-.715.088-.941.262-.227.176-.387.363-.48.563l-.795-.285c.143-.33.332-.59.57-.775s.498-.316.781-.391.563-.111.836-.111c.176 0 .377.02.605.061.229.043.449.127.664.254.215.129.393.322.535.58s.213.604.213 1.037v3.594h-.838v-.738h-.043a1.533 1.533 0 0 1-.283.379c-.133.135-.311.25-.529.344-.224.093-.493.14-.809.14zm.126-.752c.332 0 .611-.066.84-.195.229-.131.402-.299.52-.504.117-.207.176-.424.176-.65v-.768c-.035.043-.113.082-.232.115a3.636 3.636 0 0 1-.412.09 20.99 20.99 0 0 1-.805.108c-.219.029-.42.074-.609.137-.188.063-.34.156-.455.281-.113.123-.172.293-.172.506 0 .291.109.51.326.658s.489.222.823.222zm6.35.724a3.1 3.1 0 0 1-1.252-.242 2.114 2.114 0 0 1-.869-.674 1.77 1.77 0 0 1-.35-1.002h.895c.025.35.188.627.484.83.297.205.656.307 1.078.307.467 0 .85-.119 1.152-.357s.453-.551.453-.936c0-.402-.148-.73-.445-.984-.299-.252-.723-.379-1.273-.379h-.582v-.781h.582c.43 0 .781-.115 1.055-.346.271-.229.408-.535.408-.92 0-.365-.119-.662-.359-.885-.238-.225-.559-.336-.961-.336-.252 0-.488.045-.709.137a1.331 1.331 0 0 0-.541.395 1.026 1.026 0 0 0-.229.619h-.852c.014-.381.129-.715.344-1.004.215-.287.498-.512.848-.672.35-.162.732-.242 1.152-.242.449 0 .836.092 1.158.271.32.182.568.42.742.717.172.295.258.615.258.959 0 .408-.107.758-.32 1.047a1.656 1.656 0 0 1-.873.6v.057c.459.076.818.271 1.076.584.258.314.387.701.387 1.164 0 .395-.105.75-.32 1.063a2.199 2.199 0 0 1-.875.74c-.369.181-.791.27-1.262.27zm3.92-.099v-7.273h.838v2.686h.072c.061-.096.146-.217.258-.365.109-.146.268-.279.475-.396s.488-.176.844-.176c.459 0 .863.113 1.215.344.35.23.623.555.82.977.195.422.295.918.295 1.492 0 .576-.1 1.076-.295 1.5a2.331 2.331 0 0 1-.816.98c-.348.23-.75.346-1.205.346-.35 0-.631-.059-.842-.176a1.564 1.564 0 0 1-.486-.402 4.572 4.572 0 0 1-.262-.373h-.1v.838h-.811zm.824-2.729c0 .619.135 1.121.404 1.508.268.387.654.58 1.158.58.352 0 .645-.092.879-.277.236-.186.414-.438.533-.754s.18-.668.18-1.057c0-.383-.059-.729-.176-1.037a1.633 1.633 0 0 0-.529-.736c-.236-.182-.531-.271-.887-.271-.512 0-.898.188-1.164.564s-.398.871-.398 1.48zm7.557 2.842c-.525 0-.979-.117-1.357-.35-.381-.234-.672-.561-.877-.98s-.309-.91-.309-1.469.104-1.051.309-1.479.49-.762.859-1.002c.367-.24.797-.359 1.291-.359.283 0 .564.047.842.141.275.096.527.248.756.461.227.211.408.492.543.84s.203.775.203 1.285v.355h-3.961c.02.582.186 1.029.496 1.338.311.311.713.465 1.205.465.33 0 .613-.07.85-.213.236-.141.408-.354.514-.639l.811.227a1.806 1.806 0 0 1-.768.998c-.384.254-.852.381-1.407.381zm-1.701-3.281h3.107c0-.461-.135-.844-.404-1.148s-.633-.457-1.086-.457c-.32 0-.598.074-.832.225a1.607 1.607 0 0 0-.553.59 1.855 1.855 0 0 0-.232.79zm7.554 3.267c-.49 0-.922-.088-1.293-.262a2.096 2.096 0 0 1-.871-.721 1.815 1.815 0 0 1-.309-1.049c-.002-.307.059-.59.182-.854.123-.262.291-.482.506-.658s.453-.289.719-.336v-.043a1.393 1.393 0 0 1-.83-.588 1.76 1.76 0 0 1-.307-1.031c-.002-.369.092-.699.281-.99s.451-.521.783-.689.711-.252 1.139-.252c.42 0 .797.084 1.129.252.33.168.592.398.783.689.189.291.287.621.289.99-.002.387-.107.73-.314 1.031a1.4 1.4 0 0 1-.822.588v.043c.26.047.496.16.709.336.211.176.381.396.506.658.125.264.189.547.191.854a1.822 1.822 0 0 1-.318 1.049c-.209.307-.498.547-.869.721s-.799.262-1.284.262zm0-.781c.492 0 .881-.119 1.17-.354.287-.236.432-.549.434-.939a1.298 1.298 0 0 0-.213-.729 1.427 1.427 0 0 0-.57-.496 1.81 1.81 0 0 0-.82-.182c-.313 0-.59.061-.832.182-.242.119-.432.285-.57.496s-.205.453-.203.729c-.002.391.139.703.426.939.286.235.678.354 1.178.354zm0-3.453c.391 0 .711-.113.965-.342s.381-.531.383-.908c-.002-.369-.127-.664-.373-.887-.248-.223-.572-.334-.975-.334-.408 0-.736.111-.982.334-.248.223-.371.518-.367.887-.004.377.121.68.373.908.254.229.578.342.976.342zm6.065 4.248c-.512 0-.951-.121-1.32-.363-.371-.24-.654-.572-.854-.996s-.299-.908-.299-1.453c0-.555.104-1.043.309-1.469a2.41 2.41 0 0 1 .859-.998c.367-.24.797-.359 1.291-.359.383 0 .729.07 1.037.213.307.141.559.34.756.596.195.256.318.555.365.895h-.838a1.315 1.315 0 0 0-.424-.662c-.219-.191-.514-.289-.883-.289-.49 0-.885.188-1.184.559-.301.373-.449.869-.449 1.486 0 .633.146 1.139.443 1.52.295.379.691.568 1.189.568.326 0 .605-.084.84-.252.232-.168.389-.4.467-.699h.838a1.943 1.943 0 0 1-.35.869 1.958 1.958 0 0 1-.734.609 2.375 2.375 0 0 1-1.059.225zm-102.014 0c-.525 0-.979-.117-1.357-.35a2.317 2.317 0 0 1-.879-.98c-.203-.42-.307-.91-.307-1.469s.104-1.051.307-1.479c.205-.428.492-.762.859-1.002.369-.24.799-.359 1.291-.359.285 0 .564.047.842.141.277.096.529.248.758.461.227.211.408.492.543.84s.201.775.201 1.285v.355h-3.959c.02.582.184 1.029.496 1.338.311.311.713.465 1.205.465.328 0 .611-.07.85-.213.236-.141.408-.354.514-.639l.811.227a1.824 1.824 0 0 1-.768.998c-.384.254-.853.381-1.407.381zm-1.702-3.281h3.107c0-.461-.135-.844-.404-1.148s-.633-.457-1.088-.457a1.5 1.5 0 0 0-.83.225c-.234.148-.42.346-.555.59a1.91 1.91 0 0 0-.23.79zm5.239 3.168v-7.273h.838v2.686h.07c.063-.096.148-.217.258-.365.109-.146.27-.279.477-.396s.488-.176.844-.176c.459 0 .863.113 1.213.344.352.23.625.555.821.977.197.422.295.918.295 1.492 0 .576-.098 1.076-.295 1.5a2.312 2.312 0 0 1-.817.98 2.13 2.13 0 0 1-1.203.346c-.352 0-.631-.059-.842-.176s-.373-.252-.486-.402a5.257 5.257 0 0 1-.264-.373h-.1v.838h-.809zm.824-2.729c0 .619.133 1.121.402 1.508s.654.58 1.16.58c.35 0 .643-.092.879-.277.234-.186.412-.438.531-.754.121-.316.18-.668.18-1.057 0-.383-.059-.729-.176-1.037a1.618 1.618 0 0 0-.529-.736c-.234-.182-.531-.271-.885-.271-.512 0-.9.188-1.166.564-.263.377-.396.871-.396 1.48zm7.485 2.842c-.51 0-.951-.121-1.32-.363a2.34 2.34 0 0 1-.852-.996c-.199-.424-.299-.908-.299-1.453 0-.555.102-1.043.307-1.469.205-.424.492-.758.859-.998.369-.24.799-.359 1.291-.359.383 0 .729.07 1.037.213.309.141.561.34.756.596.197.256.318.555.367.895h-.84a1.308 1.308 0 0 0-.424-.662c-.219-.191-.514-.289-.883-.289-.49 0-.885.188-1.184.559-.299.373-.449.869-.449 1.486 0 .633.148 1.139.443 1.52.297.379.693.568 1.189.568.328 0 .607-.084.84-.252a1.2 1.2 0 0 0 .467-.699h.84a1.946 1.946 0 0 1-1.086 1.478 2.375 2.375 0 0 1-1.059.225zm3.367-.113v-7.273h.838v2.686h.07c.063-.096.148-.217.258-.365.109-.146.27-.279.477-.396s.488-.176.844-.176c.459 0 .863.113 1.213.344.352.23.625.555.82.977.197.422.295.918.295 1.492 0 .576-.098 1.076-.295 1.5a2.317 2.317 0 0 1-.816.98 2.13 2.13 0 0 1-1.203.346c-.352 0-.631-.059-.842-.176s-.373-.252-.486-.402a5.257 5.257 0 0 1-.264-.373h-.1v.838h-.809zm.824-2.729c0 .619.133 1.121.402 1.508s.654.58 1.16.58c.35 0 .643-.092.879-.277.234-.186.412-.438.531-.754.121-.316.18-.668.18-1.057 0-.383-.059-.729-.176-1.037a1.618 1.618 0 0 0-.529-.736c-.234-.182-.531-.271-.885-.271-.512 0-.9.188-1.166.564-.263.377-.396.871-.396 1.48zm7.584 2.828c-.49 0-.92-.088-1.293-.262-.371-.174-.66-.414-.869-.721s-.311-.656-.309-1.049c-.002-.307.059-.59.182-.854.123-.262.291-.482.506-.658.213-.176.453-.289.719-.336v-.043a1.403 1.403 0 0 1-.832-.588 1.772 1.772 0 0 1-.305-1.031c-.002-.369.092-.699.281-.99s.449-.521.783-.689a2.484 2.484 0 0 1 1.137-.252c.422 0 .799.084 1.129.252.332.168.594.398.783.689a1.8 1.8 0 0 1 .291.99c-.004.387-.107.73-.314 1.031a1.405 1.405 0 0 1-.822.588v.043c.26.047.496.16.707.336.213.176.381.396.508.658.125.264.189.547.191.854-.002.393-.109.742-.318 1.049s-.5.547-.869.721c-.372.175-.799.262-1.286.262zm0-.781c.492 0 .883-.119 1.17-.354a1.16 1.16 0 0 0 .436-.939 1.298 1.298 0 0 0-.213-.729 1.42 1.42 0 0 0-.572-.496 1.799 1.799 0 0 0-.82-.182c-.313 0-.59.061-.83.182-.242.119-.432.285-.57.496s-.207.453-.205.729c-.002.391.141.703.428.939.284.235.678.354 1.176.354zm0-3.453c.391 0 .713-.113.967-.342s.381-.531.383-.908c-.002-.369-.127-.664-.375-.887-.246-.223-.572-.334-.975-.334-.406 0-.734.111-.98.334-.248.223-.371.518-.369.887-.002.377.123.68.375.908s.578.342.974.342zm3.85 4.135v-7.273h.838v2.686h.072a6.37 6.37 0 0 1 .256-.365c.111-.146.27-.279.477-.396s.488-.176.844-.176c.459 0 .863.113 1.215.344.35.23.623.555.82.977.195.422.295.918.295 1.492 0 .576-.1 1.076-.295 1.5a2.32 2.32 0 0 1-.818.98 2.13 2.13 0 0 1-1.203.346c-.35 0-.631-.059-.842-.176s-.373-.252-.486-.402a4.572 4.572 0 0 1-.262-.373h-.1v.838h-.811zm.824-2.729c0 .619.135 1.121.402 1.508.27.387.656.58 1.16.58.35 0 .643-.092.879-.277s.412-.438.533-.754c.119-.316.178-.668.178-1.057 0-.383-.059-.729-.176-1.037a1.63 1.63 0 0 0-.527-.736c-.236-.182-.531-.271-.887-.271-.512 0-.9.188-1.164.564-.265.377-.398.871-.398 1.48zm-96.83 2.729v-.838h-.1c-.061.1-.148.225-.262.373-.115.15-.277.285-.486.402-.211.117-.492.176-.842.176-.455 0-.857-.115-1.205-.346a2.33 2.33 0 0 1-.816-.98c-.197-.424-.295-.924-.295-1.5 0-.574.098-1.07.295-1.492s.471-.746.82-.977.756-.344 1.215-.344c.355 0 .637.059.844.176s.365.25.475.396c.111.148.197.27.258.365h.072v-2.686h.838v7.273h-.811zm-.413-4.209c-.266-.377-.652-.564-1.164-.564-.355 0-.65.09-.887.271a1.644 1.644 0 0 0-.529.736 2.907 2.907 0 0 0-.176 1.037c0 .389.061.74.18 1.057s.297.568.533.754c.234.186.527.277.879.277.504 0 .891-.193 1.158-.58.27-.387.404-.889.404-1.508.001-.609-.132-1.103-.398-1.48zm5.114 4.308c-.803 0-1.424-.326-1.865-.977-.441-.652-.662-1.572-.662-2.76 0-1.18.223-2.096.668-2.752s1.064-.984 1.859-.984c.797 0 1.416.328 1.861.984s.668 1.572.668 2.752c0 1.188-.221 2.107-.662 2.76-.442.651-1.065.977-1.867.977zm0-.781c.531 0 .943-.256 1.236-.768s.441-1.24.441-2.188c0-.945-.148-1.676-.445-2.193-.295-.518-.707-.775-1.232-.775s-.936.258-1.232.775c-.295.518-.443 1.248-.443 2.193 0 .947.148 1.676.443 2.188.292.512.704.768 1.232.768zm6.209.781c-.49 0-.922-.088-1.293-.262a2.096 2.096 0 0 1-.871-.721 1.815 1.815 0 0 1-.309-1.049c-.002-.307.059-.59.182-.854.123-.262.291-.482.506-.658s.453-.289.719-.336v-.043a1.393 1.393 0 0 1-.83-.588 1.76 1.76 0 0 1-.307-1.031c-.002-.369.092-.699.281-.99s.451-.521.783-.689.711-.252 1.139-.252c.42 0 .797.084 1.129.252.33.168.592.398.783.689.189.291.287.621.289.99-.002.387-.107.73-.314 1.031a1.4 1.4 0 0 1-.822.588v.043c.26.047.496.16.709.336.211.176.381.396.506.658.125.264.189.547.191.854a1.822 1.822 0 0 1-.318 1.049c-.209.307-.498.547-.869.721s-.8.262-1.284.262zm0-.781c.492 0 .881-.119 1.17-.354.287-.236.432-.549.434-.939a1.298 1.298 0 0 0-.213-.729 1.427 1.427 0 0 0-.57-.496 1.81 1.81 0 0 0-.82-.182c-.313 0-.59.061-.832.182-.242.119-.432.285-.57.496s-.205.453-.203.729c-.002.391.139.703.426.939.285.235.678.354 1.178.354zm0-3.453c.391 0 .711-.113.965-.342s.381-.531.383-.908c-.002-.369-.127-.664-.373-.887-.248-.223-.572-.334-.975-.334-.408 0-.736.111-.982.334-.248.223-.371.518-.367.887-.004.377.121.68.373.908.253.229.577.342.976.342zm4.06 4.135l3.254-6.436v-.057h-3.75v-.781h4.658v.824l-3.238 6.449h-.924zm5.91 0l3.252-6.436v-.057h-3.75v-.781h4.66v.824l-3.24 6.449h-.922zm7.698.099c-.803 0-1.424-.326-1.865-.977-.441-.652-.662-1.572-.662-2.76 0-1.18.223-2.096.668-2.752s1.064-.984 1.859-.984c.797 0 1.416.328 1.861.984s.668 1.572.668 2.752c0 1.188-.221 2.107-.662 2.76-.442.651-1.065.977-1.867.977zm0-.781c.531 0 .943-.256 1.236-.768s.441-1.24.441-2.188c0-.945-.148-1.676-.445-2.193-.295-.518-.707-.775-1.232-.775s-.936.258-1.232.775c-.295.518-.443 1.248-.443 2.193 0 .947.148 1.676.443 2.188.292.512.704.768 1.232.768zm-103.142.682v-7.273h.838v2.686h.071c.062-.096.147-.217.257-.365.11-.146.27-.279.477-.396s.488-.176.844-.176c.459 0 .863.113 1.214.344s.624.555.82.977.295.918.295 1.492c0 .576-.099 1.076-.295 1.5a2.319 2.319 0 0 1-.817.98 2.13 2.13 0 0 1-1.203.346c-.351 0-.631-.059-.842-.176s-.373-.252-.486-.402a4.892 4.892 0 0 1-.263-.373h-.1v.838h-.81zm.824-2.729c0 .619.134 1.121.402 1.508.27.387.655.58 1.16.58.35 0 .643-.092.879-.277.235-.186.412-.438.532-.754s.179-.668.179-1.057c0-.383-.059-.729-.176-1.037-.117-.311-.293-.555-.528-.736s-.531-.271-.886-.271c-.512 0-.9.188-1.165.564s-.397.871-.397 1.48zm7.698-2.726v.711h-1.222v4.744h-.838v-4.744h-.881v-.711h.881v-.752c0-.313.074-.574.221-.781.146-.209.337-.365.571-.469a1.79 1.79 0 0 1 .742-.156c.206 0 .374.016.505.049.129.033.227.064.291.092l-.242.725c-.043-.014-.102-.031-.176-.053s-.172-.031-.293-.031c-.277 0-.477.068-.598.209-.123.139-.184.344-.184.613v.555h1.223zm3.58 5.554a2.76 2.76 0 0 1-.895-.172 2.122 2.122 0 0 1-.816-.551c-.246-.26-.443-.611-.594-1.055-.148-.445-.223-1.002-.223-1.676 0-1.291.234-2.287.706-2.986.472-.697 1.116-1.047 1.936-1.047.61 0 1.118.178 1.521.535.403.359.649.824.737 1.396h-.867a1.611 1.611 0 0 0-.469-.826c-.231-.217-.539-.324-.923-.324-.563 0-1.007.246-1.33.736-.323.492-.485 1.184-.488 2.076h.058c.198-.301.453-.537.763-.709s.652-.258 1.026-.258c.416 0 .798.104 1.144.311.346.209.622.494.831.857.208.363.313.779.313 1.248 0 .449-.101.861-.302 1.234-.202.371-.483.668-.847.887s-.791.328-1.281.324zm0-.781c.299 0 .566-.076.805-.225s.426-.35.564-.6c.139-.252.208-.531.208-.838 0-.301-.067-.574-.2-.822a1.57 1.57 0 0 0-.551-.592 1.47 1.47 0 0 0-.797-.221c-.301 0-.572.078-.813.232a1.693 1.693 0 0 0-.575.605c-.143.248-.215.52-.217.811s.064.563.203.811c.137.25.324.453.561.605.235.156.507.234.812.234zm6.108-6.592v7.273h-.838v-5.994h-.057c-.036.066-.122.141-.258.225s-.313.158-.53.221a2.698 2.698 0 0 1-.746.094v-.738c.281 0 .525-.051.731-.152s.378-.223.517-.359.244-.262.316-.373l.126-.195h.739zm4.503 7.373a2.75 2.75 0 0 1-.895-.172 2.115 2.115 0 0 1-.816-.551c-.246-.26-.444-.611-.594-1.055-.148-.445-.224-1.002-.224-1.676 0-1.291.235-2.287.706-2.986.472-.697 1.117-1.047 1.936-1.047.611 0 1.119.178 1.521.535.404.359.65.824.737 1.396h-.866c-.08-.334-.236-.609-.469-.826s-.54-.324-.924-.324c-.563 0-1.006.246-1.33.736-.322.492-.485 1.184-.488 2.076h.058a2.15 2.15 0 0 1 .763-.709 2.083 2.083 0 0 1 1.027-.258c.416 0 .797.104 1.143.311.346.209.623.494.832.857.207.363.313.779.313 1.248 0 .449-.102.861-.303 1.234-.201.371-.483.668-.847.887s-.79.328-1.28.324zm0-.781c.299 0 .566-.076.805-.225s.426-.35.564-.6c.139-.252.207-.531.207-.838 0-.301-.066-.574-.2-.822s-.317-.445-.55-.592a1.475 1.475 0 0 0-.798-.221c-.3 0-.571.078-.813.232a1.682 1.682 0 0 0-.574.605c-.143.248-.215.52-.217.811a1.61 1.61 0 0 0 .202.811c.138.25.324.453.562.605.236.156.507.234.812.234zm5.44.809c-.346 0-.659-.064-.94-.197a1.606 1.606 0 0 1-.672-.57c-.166-.25-.248-.553-.248-.908 0-.313.061-.566.184-.762.124-.195.289-.348.494-.459a2.7 2.7 0 0 1 .684-.252c.25-.055.502-.1.755-.133.331-.043.601-.076.808-.104.207-.025.359-.066.455-.121.096-.057.144-.152.144-.287 0-.352-.095-.627-.284-.824-.189-.199-.479-.297-.867-.297-.399 0-.713.088-.94.262-.228.176-.388.363-.479.563l-.795-.285c.142-.33.332-.59.57-.775.237-.186.498-.316.781-.391.282-.074.561-.111.836-.111.175 0 .377.02.605.061.229.043.449.127.664.254.214.129.393.322.534.58s.213.604.213 1.037v3.594h-.838v-.738h-.042c-.058.117-.152.244-.285.379s-.309.25-.529.344c-.222.093-.49.14-.808.14zm.128-.752c.332 0 .611-.066.84-.195.229-.131.401-.299.519-.504.117-.207.176-.424.176-.65v-.768c-.036.043-.113.082-.233.115a3.568 3.568 0 0 1-.411.09c-.155.023-.306.045-.451.063l-.353.045a3.236 3.236 0 0 0-.609.137c-.188.063-.34.156-.455.281-.115.123-.172.293-.172.506 0 .291.107.51.324.658s.491.222.825.222z" fill="#4C566A"/>
  <path fill="#BF616A" d="M179.002 725.608v-75H119c-6.592 0-11.988 5.391-11.998 11.98v63.02h72z"/>
  <path fill="#D08770" d="M177.502 650.608h72.999v75h-72.999z"/>
  <path fill="#EBCB8B" d="M249.501 650.608h73v75h-73z"/>
  <path fill="#A3BE8C" d="M321.502 650.608h73v75h-73z"/>
  <path fill="#B48EAD" d="M454.834 650.608h-60.832v75H467v-63c0-6.599-5.477-12-12.166-12z"/>
  <path fill="none" d="M255.501 602.991h63v17.617h-63z"/>
  <path fill="#D8DEE9" d="M143 635.108h288v1H143z"/>
  <path d="M256.021 617.071a.38.38 0 0 1-.119-.279l.039-.221 4.961-12.939c.105-.293.32-.439.639-.439h1.281c.32 0 .533.146.639.439l4.961 12.939.039.221a.369.369 0 0 1-.129.279.423.423 0 0 1-.291.121h-.939a.49.49 0 0 1-.33-.111.521.521 0 0 1-.17-.229l-1.119-2.881h-6.621l-1.1 2.881c-.107.227-.273.34-.5.34h-.962a.385.385 0 0 1-.279-.121zm3.42-4.759h5.48l-2.74-7.18-2.74 7.18zm11.721 3.849c-.693-.82-1.041-1.91-1.041-3.27v-5.641c0-.133.045-.242.131-.33a.448.448 0 0 1 .33-.129h.92c.133 0 .242.043.33.129a.453.453 0 0 1 .131.33v5.541c0 2.027.879 3.039 2.639 3.039.854 0 1.531-.27 2.031-.809.5-.541.75-1.283.75-2.23v-5.541c0-.133.043-.242.129-.33a.448.448 0 0 1 .33-.129h.92c.133 0 .244.043.33.129a.453.453 0 0 1 .131.33v9.48a.45.45 0 0 1-.461.461h-.859a.44.44 0 0 1-.33-.131.442.442 0 0 1-.131-.33v-.9c-.387.521-.84.91-1.359 1.17s-1.18.391-1.98.391c-1.268.001-2.248-.41-2.941-1.23zm11.19.901a.448.448 0 0 1-.129-.33v-9.459c0-.135.043-.248.129-.34a.432.432 0 0 1 .33-.141h.84c.146 0 .264.043.35.129a.475.475 0 0 1 .131.352v.879c.547-.906 1.473-1.359 2.779-1.359h.781c.146 0 .26.039.34.119s.119.193.119.34v.74a.463.463 0 0 1-.119.33c-.08.088-.193.131-.34.131h-1.141c-.732 0-1.311.213-1.73.639-.42.428-.629 1.008-.629 1.74v5.9a.429.429 0 0 1-.141.33.478.478 0 0 1-.34.131h-.9a.452.452 0 0 1-.33-.131zm8.019-.911c-.793-.826-1.217-1.926-1.27-3.299l-.02-.861.02-.859c.053-1.373.482-2.473 1.291-3.301.807-.826 1.93-1.24 3.369-1.24s2.563.414 3.369 1.24c.807.828 1.238 1.928 1.291 3.301a9.361 9.361 0 0 1 0 1.72c-.053 1.373-.477 2.473-1.27 3.299-.795.828-1.924 1.24-3.391 1.24s-2.596-.412-3.389-1.24zm5.42-1.07c.5-.539.771-1.316.811-2.33.014-.133.02-.387.02-.76s-.006-.627-.02-.76c-.039-1.014-.311-1.789-.811-2.33-.5-.539-1.176-.811-2.029-.811s-1.529.271-2.029.811c-.5.541-.771 1.316-.811 2.33l-.02.76.02.76c.039 1.014.311 1.791.811 2.33.5.541 1.176.811 2.029.811s1.529-.27 2.029-.811zm5.32 1.981a.448.448 0 0 1-.129-.33v-9.459c0-.135.043-.248.129-.34a.432.432 0 0 1 .33-.141h.84c.146 0 .264.043.35.129a.475.475 0 0 1 .131.352v.879c.547-.906 1.473-1.359 2.779-1.359h.781c.146 0 .26.039.34.119s.119.193.119.34v.74a.463.463 0 0 1-.119.33c-.08.088-.193.131-.34.131h-1.141c-.732 0-1.311.213-1.73.639-.42.428-.629 1.008-.629 1.74v5.9a.429.429 0 0 1-.141.33.478.478 0 0 1-.34.131h-.9a.455.455 0 0 1-.33-.131zm8.301-.071a3.366 3.366 0 0 1-1.32-1.09 2.582 2.582 0 0 1-.49-1.529c0-.881.361-1.6 1.08-2.16.721-.561 1.701-.934 2.939-1.121l3-.42v-.58c0-1.373-.793-2.059-2.379-2.059-.613 0-1.107.123-1.48.369-.373.248-.646.537-.82.871-.053.133-.109.223-.17.27a.394.394 0 0 1-.25.07h-.779a.422.422 0 0 1-.311-.131.423.423 0 0 1-.129-.311c0-.307.143-.662.43-1.068.287-.408.73-.762 1.33-1.061.6-.301 1.332-.451 2.199-.451 1.494 0 2.563.348 3.211 1.041.646.693.969 1.561.969 2.6v6.5a.445.445 0 0 1-.459.461h-.881a.411.411 0 0 1-.32-.131.466.466 0 0 1-.119-.33v-.879c-.293.439-.721.807-1.279 1.1-.561.293-1.281.439-2.16.439a4.081 4.081 0 0 1-1.812-.4zm4.369-1.92c.561-.572.84-1.406.84-2.5v-.561l-2.34.342c-.959.133-1.686.359-2.18.68-.492.32-.74.719-.74 1.199 0 .547.225.967.67 1.26.447.293.977.441 1.59.441.881.001 1.602-.286 2.16-.861z" fill="#4C566A"/>
  <path fill="#ECEFF4" d="M691.001 462.991H510.999v75h-90v28.803c0 3.408 2.863 6.197 6.363 6.197H774.64c3.498 0 6.361-2.789 6.361-6.197v-28.803h-90v-75z"/>
  <path fill="none" d="M716.334 550.374h33.833v8h-33.833zm-86.611 0h30.555v8h-30.555zm-93.389 0h37.332v8h-37.332zm-87.252 0h33.834v8h-33.834z"/>
  <path d="M719.36 557.745c-.416 0-.791-.082-1.125-.248s-.602-.393-.803-.682-.311-.619-.33-.988h.852c.033.33.184.602.449.816.268.213.586.32.957.32.299 0 .564-.07.797-.209.234-.141.418-.332.551-.576.135-.242.201-.521.201-.834 0-.316-.07-.6-.207-.85a1.574 1.574 0 0 0-.57-.592 1.6 1.6 0 0 0-.828-.221c-.223-.002-.451.031-.686.102s-.428.16-.578.268l-.824-.1.439-3.578h3.779v.781h-3.039l-.256 2.145h.043c.148-.119.336-.217.561-.295s.459-.117.703-.117c.445 0 .842.105 1.191.318.35.211.623.502.824.869.199.369.299.787.299 1.256 0 .463-.104.877-.311 1.24s-.492.65-.854.859a2.383 2.383 0 0 1-1.235.316zm6.11.014c-.527 0-.979-.115-1.359-.35a2.305 2.305 0 0 1-.877-.979c-.205-.422-.307-.91-.307-1.469s.102-1.053.307-1.48c.205-.426.49-.76.859-1 .367-.24.799-.361 1.291-.361.283 0 .564.047.842.143.277.094.529.248.756.459.227.213.408.492.543.84.135.35.203.777.203 1.287v.354h-3.959c.018.584.184 1.029.494 1.34.313.311.713.465 1.207.465.328 0 .611-.07.848-.213s.408-.355.516-.639l.809.227a1.818 1.818 0 0 1-.766.998c-.386.253-.855.378-1.407.378zm-1.701-3.281h3.107c0-.461-.137-.844-.406-1.148-.27-.303-.631-.455-1.086-.455-.32 0-.598.074-.832.223-.234.15-.418.346-.553.592a1.832 1.832 0 0 0-.23.788zm7.552 3.267c-.49 0-.922-.086-1.293-.26a2.109 2.109 0 0 1-.869-.723 1.802 1.802 0 0 1-.311-1.049c-.002-.305.059-.59.182-.852.123-.264.291-.482.506-.658.215-.178.455-.289.719-.336v-.043a1.393 1.393 0 0 1-.83-.588 1.75 1.75 0 0 1-.305-1.031c-.004-.369.09-.699.279-.99.189-.293.451-.521.783-.689s.713-.252 1.139-.252c.422 0 .797.084 1.129.252s.592.396.783.689c.189.291.287.621.289.99-.002.385-.107.729-.314 1.031s-.48.498-.822.588v.043c.262.047.496.158.709.336.211.176.381.395.506.658.125.262.189.547.191.852a1.835 1.835 0 0 1-.316 1.049 2.14 2.14 0 0 1-.871.723c-.372.174-.799.26-1.284.26zm0-.781c.492 0 .883-.117 1.17-.354.287-.234.432-.549.436-.939a1.328 1.328 0 0 0-.213-.727 1.467 1.467 0 0 0-.572-.498 1.81 1.81 0 0 0-.82-.182c-.313 0-.59.061-.832.182-.24.121-.432.287-.568.498a1.273 1.273 0 0 0-.205.727c-.002.391.139.705.426.939.286.237.678.354 1.178.354zm0-3.451c.391 0 .713-.115.965-.344.254-.229.381-.529.385-.906-.004-.369-.127-.666-.375-.889s-.572-.334-.975-.334c-.408 0-.734.111-.982.334s-.369.52-.367.889c-.002.377.123.678.375.906s.576.344.974.344zm6.121-3.139v7.271h-.838v-5.994h-.057c-.035.066-.121.143-.258.227a2.146 2.146 0 0 1-.531.219 2.67 2.67 0 0 1-.744.096v-.74c.281 0 .525-.051.73-.152a1.99 1.99 0 0 0 .518-.357c.139-.139.244-.262.316-.373a8.21 8.21 0 0 1 .125-.195h.739zm3.707 7.4c-.346 0-.658-.066-.939-.197-.283-.131-.506-.322-.672-.572s-.248-.553-.248-.906c0-.313.061-.566.184-.762s.289-.35.494-.461.434-.195.684-.25c.25-.057.502-.1.754-.133l.809-.104c.207-.026.359-.066.455-.123.096-.055.143-.15.143-.285 0-.354-.094-.629-.283-.826s-.479-.297-.867-.297c-.4 0-.713.088-.941.264-.227.176-.387.361-.479.561l-.795-.283c.141-.332.332-.59.57-.777.236-.186.498-.314.781-.391a3.28 3.28 0 0 1 .836-.111c.174 0 .377.021.605.063s.449.127.664.254c.213.127.393.32.533.578.143.258.213.604.213 1.037v3.594h-.838v-.738h-.041c-.059.119-.152.246-.285.381s-.309.25-.529.344-.489.14-.808.14zm.129-.753c.332 0 .611-.064.84-.195a1.33 1.33 0 0 0 .694-1.154v-.766c-.035.041-.113.08-.232.115a3.793 3.793 0 0 1-.412.088c-.154.025-.305.047-.451.064l-.352.045a3.087 3.087 0 0 0-.609.137c-.189.063-.34.156-.455.279-.115.125-.172.293-.172.506 0 .291.107.512.324.66.216.146.491.221.825.221zm6.121.738c-.51 0-.951-.119-1.32-.361s-.654-.574-.852-.998c-.199-.424-.299-.908-.299-1.453 0-.553.102-1.043.307-1.467.205-.426.492-.758.859-.998.369-.24.799-.361 1.291-.361.383 0 .729.072 1.037.213.309.143.561.342.756.598.197.256.318.553.367.895h-.84c-.063-.248-.205-.469-.424-.662s-.514-.289-.883-.289c-.49 0-.885.186-1.184.559s-.449.869-.449 1.486c0 .633.148 1.139.443 1.518.297.381.693.57 1.189.57.328 0 .607-.084.84-.252.234-.168.389-.402.467-.699h.84a1.947 1.947 0 0 1-1.086 1.478c-.304.15-.656.223-1.059.223zm-114.593-.014c-.49 0-.92-.086-1.293-.26a2.109 2.109 0 0 1-.869-.723 1.786 1.786 0 0 1-.309-1.049 1.923 1.923 0 0 1 .686-1.51 1.53 1.53 0 0 1 .721-.336v-.043a1.397 1.397 0 0 1-.832-.588 1.779 1.779 0 0 1-.305-1.031c-.002-.369.09-.699.279-.99a1.96 1.96 0 0 1 .783-.689 2.498 2.498 0 0 1 1.139-.252c.422 0 .799.084 1.129.252.332.168.594.396.783.689.191.291.287.621.289.99-.002.385-.107.729-.314 1.031s-.48.498-.82.588v.043c.26.047.496.158.707.336a1.989 1.989 0 0 1 .699 1.51c-.004.393-.109.742-.318 1.049s-.5.547-.871.723c-.37.174-.798.26-1.284.26zm0-.781c.492 0 .883-.117 1.17-.354.287-.234.434-.549.436-.939a1.312 1.312 0 0 0-.213-.727c-.141-.211-.33-.377-.572-.498s-.516-.182-.82-.182c-.313 0-.59.061-.83.182-.242.121-.432.287-.57.498s-.207.453-.205.727c-.002.391.141.705.426.939.285.237.678.354 1.178.354zm0-3.451c.391 0 .713-.115.967-.344.252-.229.381-.529.383-.906-.002-.369-.127-.666-.375-.889s-.572-.334-.975-.334c-.406 0-.734.111-.982.334-.246.223-.369.52-.367.889-.002.377.123.678.375.906s.575.344.974.344zm6.121-3.139v7.271h-.838v-5.994h-.057c-.035.066-.121.143-.258.227a2.162 2.162 0 0 1-.529.219 2.695 2.695 0 0 1-.746.096v-.74c.281 0 .525-.051.73-.152a1.99 1.99 0 0 0 .518-.357c.139-.139.244-.262.316-.373l.125-.195h.739zm3.709 7.4c-.346 0-.66-.066-.941-.197s-.506-.322-.672-.572-.248-.553-.248-.906c0-.313.061-.566.184-.762.125-.195.289-.35.494-.461.207-.111.434-.195.684-.25.25-.057.502-.1.756-.133l.807-.104c.207-.026.359-.066.455-.123.096-.055.145-.15.145-.285 0-.354-.096-.629-.285-.826s-.479-.297-.867-.297c-.398 0-.713.088-.939.264-.229.176-.389.361-.48.561l-.795-.283c.143-.332.332-.59.57-.777.238-.186.498-.314.781-.391.283-.074.561-.111.836-.111.176 0 .377.021.605.063s.449.127.664.254.393.32.535.578c.141.258.213.604.213 1.037v3.594h-.838v-.738h-.043c-.057.119-.152.246-.285.381s-.309.25-.529.344c-.221.092-.491.14-.807.14zm.127-.753c.332 0 .611-.064.84-.195.229-.129.402-.297.52-.504.117-.205.176-.422.176-.65v-.766c-.037.041-.113.08-.234.115a3.854 3.854 0 0 1-.41.088 11.09 11.09 0 0 1-.451.064l-.354.045c-.219.027-.422.074-.609.137s-.34.156-.455.279c-.115.125-.172.293-.172.506 0 .291.107.512.324.66.215.146.491.221.825.221zm5.781-6.647v7.271h-.838v-5.994h-.057c-.035.066-.121.143-.258.227a2.146 2.146 0 0 1-.531.219 2.67 2.67 0 0 1-.744.096v-.74c.281 0 .525-.051.73-.152a1.99 1.99 0 0 0 .518-.357c.139-.139.244-.262.316-.373a8.21 8.21 0 0 1 .125-.195h.739zm4.318 7.385c-.512 0-.951-.119-1.32-.361s-.654-.574-.854-.998a3.41 3.41 0 0 1-.297-1.453c0-.553.102-1.043.307-1.467.205-.426.49-.758.859-.998.367-.24.799-.361 1.291-.361.383 0 .729.072 1.037.213.307.143.559.342.756.598s.318.553.365.895h-.838c-.063-.248-.205-.469-.424-.662s-.514-.289-.883-.289c-.49 0-.885.186-1.184.559-.301.373-.449.869-.449 1.486 0 .633.148 1.139.443 1.518.297.381.693.57 1.189.57a1.4 1.4 0 0 0 .84-.252c.234-.168.389-.402.467-.699h.838a1.947 1.947 0 0 1-1.084 1.478c-.304.15-.656.223-1.059.223zm5.639-7.385v7.271h-.838v-5.994h-.057c-.035.066-.121.143-.258.227a2.162 2.162 0 0 1-.529.219 2.695 2.695 0 0 1-.746.096v-.74c.281 0 .525-.051.73-.152a1.99 1.99 0 0 0 .518-.357c.139-.139.244-.262.316-.373l.125-.195h.739zm-119.084 7.373c-.49 0-.922-.088-1.293-.262s-.662-.414-.869-.721a1.802 1.802 0 0 1-.311-1.049c-.002-.307.059-.59.182-.854.123-.262.291-.482.506-.658s.455-.289.719-.336v-.043a1.393 1.393 0 0 1-.83-.588 1.744 1.744 0 0 1-.305-1.031c-.004-.369.09-.699.279-.99s.451-.521.783-.689.713-.252 1.139-.252c.42 0 .797.084 1.129.252.33.168.592.398.783.689.189.291.287.621.289.99-.002.387-.107.73-.314 1.031a1.4 1.4 0 0 1-.822.588v.043c.26.047.496.16.709.336.211.176.381.396.506.658.125.264.189.547.191.854a1.822 1.822 0 0 1-.318 1.049c-.209.307-.498.547-.869.721s-.8.262-1.284.262zm0-.781c.492 0 .881-.119 1.17-.354.287-.236.432-.549.434-.939a1.298 1.298 0 0 0-.213-.729 1.427 1.427 0 0 0-.57-.496 1.81 1.81 0 0 0-.82-.182c-.313 0-.59.061-.832.182-.24.119-.432.285-.568.496a1.275 1.275 0 0 0-.205.729c-.002.391.139.703.426.939.285.235.678.354 1.178.354zm0-3.453c.391 0 .711-.113.965-.342s.381-.531.383-.908c-.002-.369-.127-.664-.373-.887-.248-.223-.572-.334-.975-.334-.408 0-.734.111-.982.334s-.369.518-.367.887c-.002.377.123.68.375.908s.576.342.974.342zm6.164 4.234c-.49 0-.922-.088-1.293-.262s-.662-.414-.869-.721a1.802 1.802 0 0 1-.311-1.049c-.002-.307.059-.59.182-.854.123-.262.291-.482.506-.658s.455-.289.719-.336v-.043a1.393 1.393 0 0 1-.83-.588 1.744 1.744 0 0 1-.305-1.031c-.004-.369.09-.699.279-.99s.451-.521.783-.689.713-.252 1.139-.252c.422 0 .797.084 1.129.252s.592.398.783.689c.189.291.287.621.289.99-.002.387-.107.73-.314 1.031a1.4 1.4 0 0 1-.822.588v.043c.262.047.496.16.709.336.211.176.381.396.506.658.125.264.189.547.191.854a1.835 1.835 0 0 1-.316 1.049c-.211.307-.5.547-.871.721s-.8.262-1.284.262zm0-.781c.492 0 .883-.119 1.17-.354.287-.236.432-.549.436-.939a1.33 1.33 0 0 0-.213-.729 1.447 1.447 0 0 0-.572-.496 1.81 1.81 0 0 0-.82-.182c-.313 0-.59.061-.832.182-.24.119-.432.285-.568.496a1.275 1.275 0 0 0-.205.729c-.002.391.139.703.426.939.285.235.678.354 1.178.354zm0-3.453c.391 0 .713-.113.965-.342.254-.229.381-.531.385-.908-.004-.369-.127-.664-.375-.887s-.572-.334-.975-.334c-.408 0-.734.111-.982.334s-.369.518-.367.887c-.002.377.123.68.375.908s.576.342.974.342zm6.065 4.248c-.512 0-.951-.121-1.32-.363a2.359 2.359 0 0 1-.854-.996 3.41 3.41 0 0 1-.297-1.453c0-.555.102-1.043.307-1.469a2.41 2.41 0 0 1 .859-.998c.367-.24.799-.359 1.291-.359.383 0 .729.07 1.037.213.307.141.559.34.756.596s.318.555.365.895h-.838a1.308 1.308 0 0 0-.424-.662c-.219-.191-.514-.289-.883-.289-.49 0-.885.188-1.184.559-.301.373-.449.869-.449 1.486 0 .633.148 1.139.443 1.52.297.379.693.568 1.189.568a1.4 1.4 0 0 0 .84-.252 1.2 1.2 0 0 0 .467-.699h.838a1.943 1.943 0 0 1-.35.869c-.186.256-.43.461-.734.609a2.379 2.379 0 0 1-1.059.225zm5.724-.014c-.803 0-1.426-.326-1.867-.977-.441-.652-.662-1.572-.662-2.76 0-1.18.223-2.096.668-2.752s1.066-.984 1.861-.984 1.416.328 1.861.984c.443.656.666 1.572.666 2.752 0 1.188-.221 2.107-.662 2.76-.441.651-1.062.977-1.865.977zm0-.781c.529 0 .941-.256 1.236-.768.293-.512.439-1.24.439-2.188 0-.945-.148-1.676-.443-2.193-.297-.518-.707-.775-1.232-.775s-.938.258-1.232.775c-.297.518-.443 1.248-.443 2.193 0 .947.146 1.676.441 2.188s.707.768 1.234.768zm7.643.681v-.838h-.1c-.063.1-.15.225-.264.373-.113.15-.275.285-.486.402s-.49.176-.842.176c-.455 0-.855-.115-1.203-.346a2.316 2.316 0 0 1-.816-.98c-.197-.424-.295-.924-.295-1.5 0-.574.098-1.07.295-1.492.195-.422.469-.746.82-.977.35-.23.754-.344 1.213-.344.355 0 .637.059.844.176s.367.25.477.396c.109.148.195.27.258.365h.07v-2.686h.838v7.273h-.809zm-.412-4.209c-.266-.377-.654-.564-1.166-.564-.354 0-.65.09-.885.271a1.63 1.63 0 0 0-.529.736 2.907 2.907 0 0 0-.176 1.037c0 .389.059.74.18 1.057.119.316.297.568.531.754.236.186.529.277.879.277.506 0 .891-.193 1.16-.58s.402-.889.402-1.508c0-.608-.133-1.103-.396-1.48zm5.113 4.309c-.803 0-1.426-.326-1.867-.977-.441-.652-.662-1.572-.662-2.76 0-1.18.223-2.096.668-2.752s1.066-.984 1.861-.984 1.416.328 1.861.984c.443.656.666 1.572.666 2.752 0 1.188-.221 2.107-.662 2.76-.441.651-1.062.977-1.865.977zm0-.781c.529 0 .941-.256 1.236-.768.293-.512.439-1.24.439-2.188 0-.945-.148-1.676-.443-2.193-.297-.518-.707-.775-1.232-.775s-.938.258-1.232.775c-.297.518-.443 1.248-.443 2.193 0 .947.146 1.676.441 2.188s.707.768 1.234.768zm-117.549.779c-.49 0-.92-.086-1.293-.26-.371-.176-.66-.416-.869-.723s-.311-.656-.309-1.049c-.002-.305.059-.59.182-.852.123-.264.291-.482.506-.658.213-.178.453-.289.719-.336v-.043a1.403 1.403 0 0 1-.832-.588 1.779 1.779 0 0 1-.305-1.031 1.76 1.76 0 0 1 .281-.99c.189-.293.449-.521.783-.689a2.484 2.484 0 0 1 1.137-.252c.422 0 .799.084 1.129.252.332.168.594.396.783.689a1.8 1.8 0 0 1 .291.99c-.004.385-.107.729-.314 1.031s-.482.498-.822.588v.043c.26.047.496.158.707.336.213.176.381.395.508.658.125.262.189.547.191.852-.002.393-.109.742-.318 1.049s-.5.547-.869.723c-.372.174-.8.26-1.286.26zm0-.781c.492 0 .883-.117 1.17-.354.289-.234.434-.549.436-.939a1.296 1.296 0 0 0-.213-.727 1.44 1.44 0 0 0-.572-.498 1.799 1.799 0 0 0-.82-.182c-.313 0-.59.061-.83.182-.242.121-.432.287-.57.498s-.207.453-.205.727c-.002.391.141.705.428.939.283.237.678.354 1.176.354zm0-3.451c.391 0 .713-.115.967-.344s.381-.529.383-.906c-.002-.369-.127-.666-.375-.889-.246-.223-.572-.334-.975-.334-.406 0-.734.111-.98.334-.248.223-.371.52-.369.889-.002.377.123.678.375.906s.578.344.974.344zm6.279-1.321v.709h-1.223v4.744h-.838v-4.744h-.881v-.709h.881v-.754c0-.313.074-.572.221-.781s.338-.365.572-.469.48-.156.742-.156c.205 0 .373.018.504.051.129.033.227.063.291.092l-.242.725c-.043-.016-.102-.033-.176-.055a1.155 1.155 0 0 0-.293-.031c-.277 0-.477.07-.598.209-.123.141-.184.346-.184.615v.555h1.224zm1.178 5.454v-7.271h.838v2.684h.072a6.33 6.33 0 0 1 .258-.363c.109-.148.268-.281.475-.398s.488-.176.844-.176c.459 0 .863.115 1.215.346.35.229.623.555.82.977.195.42.295.918.295 1.49 0 .578-.1 1.078-.295 1.5-.197.424-.469.75-.816.98s-.75.346-1.205.346c-.35 0-.631-.059-.842-.176a1.56 1.56 0 0 1-.486-.4 4.922 4.922 0 0 1-.262-.375h-.1v.838h-.811zm.824-2.727c0 .617.135 1.121.404 1.508.268.387.654.58 1.158.58.352 0 .645-.094.879-.279.236-.186.414-.436.533-.752s.18-.668.18-1.057c0-.383-.059-.73-.176-1.039s-.295-.555-.529-.734c-.236-.182-.531-.271-.887-.271-.512 0-.898.188-1.164.564-.265.374-.398.869-.398 1.48zm7.487 2.84c-.512 0-.951-.119-1.32-.361-.371-.242-.654-.574-.854-.998s-.299-.908-.299-1.453c0-.553.104-1.043.309-1.467.205-.426.49-.758.859-.998.367-.24.797-.361 1.291-.361.383 0 .729.072 1.037.213.307.143.559.342.756.598.195.256.318.553.365.895h-.838c-.064-.248-.205-.469-.424-.662s-.514-.289-.883-.289c-.49 0-.885.186-1.184.559-.301.373-.449.869-.449 1.486 0 .633.146 1.139.443 1.518.295.381.691.57 1.189.57.326 0 .605-.084.84-.252.232-.168.389-.402.467-.699h.838a1.926 1.926 0 0 1-.35.867 1.963 1.963 0 0 1-.734.611 2.378 2.378 0 0 1-1.059.223zm3.365-.113v-7.271h.838v2.684h.072a6.33 6.33 0 0 1 .258-.363c.109-.148.268-.281.475-.398s.488-.176.844-.176c.459 0 .863.115 1.215.346.35.229.623.555.82.977.195.42.295.918.295 1.49 0 .578-.1 1.078-.295 1.5-.197.424-.469.75-.816.98s-.75.346-1.205.346c-.35 0-.631-.059-.842-.176a1.56 1.56 0 0 1-.486-.4 4.922 4.922 0 0 1-.262-.375h-.1v.838h-.811zm.824-2.727c0 .617.135 1.121.404 1.508.268.387.654.58 1.158.58.352 0 .645-.094.879-.279.236-.186.414-.436.533-.752s.18-.668.18-1.057c0-.383-.059-.73-.176-1.039s-.295-.555-.529-.734c-.236-.182-.531-.271-.887-.271-.512 0-.898.188-1.164.564-.265.374-.398.869-.398 1.48zm5.27 2.727v-7.271h.838v2.684h.072a6.33 6.33 0 0 1 .258-.363c.109-.148.268-.281.475-.398s.488-.176.844-.176c.459 0 .863.115 1.215.346.35.229.623.555.82.977.195.42.295.918.295 1.49 0 .578-.1 1.078-.295 1.5-.197.424-.469.75-.816.98s-.75.346-1.205.346c-.35 0-.631-.059-.842-.176a1.56 1.56 0 0 1-.486-.4 4.922 4.922 0 0 1-.262-.375h-.1v.838h-.811zm.824-2.727c0 .617.135 1.121.404 1.508.268.387.654.58 1.158.58.352 0 .645-.094.879-.279.236-.186.414-.436.533-.752s.18-.668.18-1.057c0-.383-.059-.73-.176-1.039s-.295-.555-.529-.734c-.236-.182-.531-.271-.887-.271-.512 0-.898.188-1.164.564-.265.374-.398.869-.398 1.48z" fill="#4C566A"/>
  <path fill="#8FBCBB" d="M510.999 462.991h-83.637c-3.5 0-6.363 2.789-6.363 6.197v68.803h90v-75z"/>
  <path fill="#88C0D0" d="M509.501 462.991h90.998v75h-90.998z"/>
  <path fill="#81A1C1" d="M599.499 462.991h91.002v75h-91.002z"/>
  <path fill="#5E81AC" d="M774.497 462.991h-85.496v75h92v-68.803c0-3.408-2.926-6.197-6.504-6.197z"/>
  <path fill="none" d="M575.609 415.374h50.779v17.617h-50.779z"/>
  <path fill="#D8DEE9" d="M456.999 446.991h288.002v1H456.999z"/>
  <path d="M577.491 429.444a.471.471 0 0 1-.121-.33v-13.061c0-.146.041-.264.121-.35s.186-.131.32-.131h8.119c.146 0 .264.045.35.131s.131.203.131.35v.74c0 .133-.045.244-.131.33s-.203.131-.35.131h-6.699v4.738h6.299c.146 0 .264.045.35.131a.442.442 0 0 1 .131.33v.76c0 .133-.047.244-.141.33s-.207.131-.34.131h-6.299v5.439a.432.432 0 0 1-.141.33.485.485 0 0 1-.34.129h-.939a.411.411 0 0 1-.32-.128zm11.129 0a.452.452 0 0 1-.129-.33v-9.461c0-.133.043-.246.129-.34a.437.437 0 0 1 .33-.139h.84c.146 0 .264.043.35.129a.47.47 0 0 1 .131.35v.881c.547-.906 1.473-1.359 2.779-1.359h.781c.146 0 .26.039.34.119s.119.193.119.34v.74c0 .133-.039.244-.119.33s-.193.129-.34.129h-1.141c-.732 0-1.311.215-1.73.641-.42.428-.629 1.008-.629 1.74v5.9a.432.432 0 0 1-.141.33.485.485 0 0 1-.34.129h-.9a.452.452 0 0 1-.33-.129zm8.022-.91c-.795-.826-1.217-1.928-1.271-3.301l-.02-.859.02-.859c.055-1.373.484-2.475 1.291-3.301s1.93-1.24 3.369-1.24c1.441 0 2.564.414 3.371 1.24s1.236 1.928 1.289 3.301c.027.293.041.58.041.859s-.014.566-.041.859c-.053 1.373-.477 2.475-1.27 3.301s-1.924 1.24-3.391 1.24-2.595-.414-3.388-1.24zm5.42-1.07c.5-.539.77-1.316.809-2.33.014-.133.021-.387.021-.76s-.008-.627-.021-.76c-.039-1.014-.309-1.791-.809-2.33-.5-.541-1.178-.811-2.031-.811s-1.529.27-2.029.811c-.5.539-.77 1.316-.811 2.33l-.02.76.02.76c.041 1.014.311 1.791.811 2.33.5.541 1.176.811 2.029.811s1.531-.27 2.031-.811zm6.417 1.859c-.633-.299-1.104-.643-1.41-1.029s-.459-.707-.459-.961c0-.133.047-.236.141-.309a.47.47 0 0 1 .299-.111h.84c.08 0 .145.014.191.041a.897.897 0 0 1 .189.18c.307.373.65.668 1.029.881.381.213.891.318 1.531.318.719 0 1.295-.133 1.729-.398.434-.268.65-.654.65-1.16 0-.334-.094-.6-.279-.801-.188-.199-.498-.379-.93-.539-.434-.16-1.078-.334-1.932-.521-1.158-.252-1.979-.619-2.459-1.1s-.721-1.1-.721-1.859c0-.494.146-.971.441-1.43.293-.461.729-.834 1.309-1.121.58-.285 1.271-.43 2.07-.43.84 0 1.557.141 2.15.42.594.281 1.039.607 1.34.98s.449.688.449.939a.393.393 0 0 1-.129.301.442.442 0 0 1-.311.119h-.76c-.188 0-.32-.072-.4-.219a8.07 8.07 0 0 0-.57-.59c-.152-.141-.377-.262-.67-.361s-.66-.15-1.1-.15c-.652 0-1.152.139-1.5.41a1.32 1.32 0 0 0-.52 1.09c0 .281.072.518.221.711.146.193.426.373.84.539.412.168 1.025.338 1.84.512 1.266.266 2.162.646 2.689 1.139.527.494.789 1.127.789 1.9 0 .574-.162 1.094-.488 1.561-.328.467-.814.832-1.461 1.1-.646.266-1.416.4-2.311.4-.916-.001-1.692-.151-2.327-.452zm9.811-3.25v-5.359h-1.58c-.133 0-.24-.039-.32-.119s-.119-.188-.119-.32v-.641a.47.47 0 0 1 .119-.33.418.418 0 0 1 .32-.129h1.58v-3.342c0-.133.041-.242.121-.328a.408.408 0 0 1 .318-.131h.881a.445.445 0 0 1 .461.459v3.342h2.479a.445.445 0 0 1 .461.459v.641c0 .133-.043.24-.131.32a.466.466 0 0 1-.33.119h-2.479v5.221c0 .68.109 1.193.328 1.539.221.348.598.52 1.131.52h1.221c.133 0 .24.045.32.131a.475.475 0 0 1 .119.33v.66a.479.479 0 0 1-.119.33.418.418 0 0 1-.32.129h-1.361c-2.067-.001-3.1-1.167-3.1-3.501z" fill="#4C566A"/>
  <path fill="#ECEFF4" d="M455 275.375H227v75.001H107v23c0 6.6 5.4 11.999 12 11.999h336c6.6 0 12-5.399 12-11.999v-86c0-6.601-5.4-12.001-12-12.001z"/>
  <path fill="none" d="M389.666 362.376h30.416v8h-30.416zm-121.332 0H303v8h-34.666zm-120 0h37.332v8h-37.332z"/>
  <path d="M392.721 369.761c-.525 0-.979-.115-1.357-.35a2.297 2.297 0 0 1-.879-.979c-.203-.422-.307-.91-.307-1.469s.104-1.053.307-1.48c.205-.426.492-.76.859-1 .369-.24.799-.361 1.291-.361.285 0 .564.047.842.143.277.094.529.248.758.459.227.213.408.492.543.84.135.35.201.777.201 1.287v.354h-3.959c.02.584.184 1.029.496 1.34.311.311.713.465 1.205.465.328 0 .611-.07.85-.213.236-.143.408-.355.514-.639l.811.227c-.129.412-.385.744-.768.998s-.853.378-1.407.378zm-1.701-3.282h3.107c0-.461-.135-.844-.404-1.148-.27-.303-.633-.455-1.088-.455-.318 0-.596.074-.83.223-.234.15-.42.346-.555.592a1.868 1.868 0 0 0-.23.788zm7.453 3.282c-.51 0-.951-.119-1.32-.361s-.654-.574-.852-.998c-.199-.424-.299-.908-.299-1.453 0-.553.102-1.043.307-1.467.205-.426.492-.758.859-.998.369-.24.799-.361 1.291-.361.383 0 .729.072 1.037.213.309.143.561.342.756.598.197.256.318.553.367.895h-.84c-.063-.248-.205-.469-.424-.662s-.514-.289-.883-.289c-.49 0-.885.186-1.184.559s-.449.869-.449 1.486c0 .633.148 1.139.443 1.518.297.381.693.57 1.189.57.328 0 .607-.084.84-.252.234-.168.389-.402.467-.699h.84a1.947 1.947 0 0 1-1.086 1.478c-.304.15-.657.223-1.059.223zm5.654 0c-.525 0-.979-.115-1.357-.35a2.297 2.297 0 0 1-.879-.979c-.203-.422-.307-.91-.307-1.469s.104-1.053.307-1.48c.205-.426.492-.76.859-1 .369-.24.799-.361 1.291-.361.285 0 .564.047.842.143.277.094.529.248.758.459.227.213.408.492.543.84.135.35.201.777.201 1.287v.354h-3.959c.02.584.184 1.029.496 1.34.311.311.713.465 1.205.465.328 0 .611-.07.85-.213.236-.143.408-.355.514-.639l.811.227c-.129.412-.385.744-.768.998s-.852.378-1.407.378zm-1.701-3.282h3.107c0-.461-.135-.844-.404-1.148-.27-.303-.633-.455-1.088-.455-.318 0-.596.074-.83.223-.234.15-.42.346-.555.592a1.868 1.868 0 0 0-.23.788zm7.666-2.285v.709h-1.221v4.744h-.838v-4.744h-.881v-.709h.881v-.754c0-.313.074-.572.221-.781s.336-.365.57-.469.482-.156.742-.156c.207 0 .375.018.506.051.129.033.227.063.291.092l-.242.725c-.043-.016-.102-.033-.176-.055a1.155 1.155 0 0 0-.293-.031c-.277 0-.477.07-.598.209-.123.141-.184.346-.184.615v.555h1.222zm3.609 0v.709h-1.223v4.744h-.838v-4.744h-.881v-.709h.881v-.754c0-.313.074-.572.221-.781s.338-.365.572-.469.48-.156.742-.156c.205 0 .373.018.504.051.129.033.227.063.291.092l-.242.725c-.043-.016-.102-.033-.176-.055a1.155 1.155 0 0 0-.293-.031c-.277 0-.477.07-.598.209-.123.141-.184.346-.184.615v.555h1.224zm.369 3.963v-.725l3.195-5.057h1.066v5h.994v.781h-.994v1.49h-.838v-1.49h-3.423zm3.424-.781v-3.879h-.059l-2.414 3.822v.057h2.473zm-146.105 2.385c-.527 0-.979-.115-1.359-.35a2.305 2.305 0 0 1-.877-.979c-.205-.422-.307-.91-.307-1.469s.102-1.053.307-1.48c.205-.426.49-.76.859-1 .367-.24.799-.361 1.291-.361.283 0 .564.047.842.143.277.094.529.248.756.459.227.213.408.492.543.84.135.35.203.777.203 1.287v.354h-3.959c.018.584.184 1.029.494 1.34.313.311.713.465 1.207.465.328 0 .611-.07.848-.213s.408-.355.516-.639l.809.227a1.818 1.818 0 0 1-.766.998c-.385.253-.854.378-1.407.378zm-1.701-3.282h3.107c0-.461-.137-.844-.406-1.148-.27-.303-.631-.455-1.086-.455-.32 0-.598.074-.832.223-.234.15-.418.346-.553.592a1.868 1.868 0 0 0-.23.788zm7.496 3.268c-.418 0-.793-.082-1.127-.248s-.602-.393-.803-.682-.311-.619-.33-.988h.854c.033.33.182.602.449.816.266.213.584.32.957.32.297 0 .563-.07.797-.209.232-.141.416-.332.551-.576.133-.242.199-.521.199-.834 0-.316-.068-.6-.207-.85a1.559 1.559 0 0 0-1.396-.813c-.223-.002-.451.031-.686.102s-.428.16-.58.268l-.822-.1.439-3.578h3.779v.781h-3.041l-.256 2.145h.043c.148-.119.336-.217.561-.295s.459-.117.703-.117a2.234 2.234 0 0 1 2.015 1.187c.201.369.301.787.301 1.256 0 .463-.104.877-.311 1.24-.207.363-.492.65-.855.859a2.382 2.382 0 0 1-1.234.316zm6.107.014c-.525 0-.979-.115-1.357-.35a2.297 2.297 0 0 1-.879-.979c-.203-.422-.307-.91-.307-1.469s.104-1.053.307-1.48c.205-.426.492-.76.859-1 .369-.24.799-.361 1.291-.361.285 0 .564.047.842.143.277.094.529.248.758.459.227.213.408.492.543.84.135.35.201.777.201 1.287v.354h-3.959c.02.584.184 1.029.496 1.34.311.311.713.465 1.205.465.328 0 .611-.07.85-.213.236-.143.408-.355.514-.639l.811.227c-.129.412-.385.744-.768.998s-.852.378-1.407.378zm-1.701-3.282h3.107c0-.461-.135-.844-.404-1.148-.27-.303-.633-.455-1.088-.455-.318 0-.596.074-.83.223-.234.15-.42.346-.555.592a1.883 1.883 0 0 0-.23.788zm7.539-4.218c.299.004.596.061.895.172s.57.295.816.553.445.609.594 1.053c.148.445.225 1.002.225 1.676 0 1.293-.236 2.287-.709 2.986-.473.697-1.117 1.047-1.934 1.047-.611 0-1.119-.178-1.523-.533-.404-.357-.65-.822-.736-1.398h.867c.078.334.234.609.467.826.234.217.541.324.926.324.561 0 1.004-.244 1.33-.734.324-.49.488-1.184.488-2.078h-.057a2.176 2.176 0 0 1-.762.707c-.311.172-.652.26-1.029.26-.416 0-.797-.104-1.145-.311s-.623-.492-.832-.857a2.475 2.475 0 0 1-.311-1.248c0-.449.102-.859.301-1.232.199-.371.482-.666.846-.887s.791-.33 1.283-.326zm0 .781c-.299 0-.566.076-.805.225s-.426.35-.564.6a1.704 1.704 0 0 0-.207.838c0 .305.066.578.199.826.135.248.318.443.551.59.234.145.5.219.797.219.299 0 .57-.078.813-.23.242-.154.436-.357.578-.607.145-.252.215-.521.215-.811a1.675 1.675 0 0 0-.766-1.416 1.443 1.443 0 0 0-.811-.234zm6.363 1.152v.709h-1.221v4.744h-.838v-4.744h-.881v-.709h.881v-.754c0-.313.072-.572.219-.781.148-.209.338-.365.572-.469s.482-.156.742-.156c.207 0 .375.018.504.051.131.033.229.063.291.092l-.24.725c-.043-.016-.102-.033-.176-.055a1.155 1.155 0 0 0-.293-.031c-.277 0-.477.07-.6.209-.121.141-.182.346-.182.615v.555h1.222zm3.537 5.553c-.803 0-1.424-.324-1.865-.977-.441-.65-.662-1.57-.662-2.76 0-1.178.223-2.096.666-2.752.445-.654 1.066-.982 1.861-.982s1.416.328 1.861.982c.445.656.668 1.574.668 2.752 0 1.189-.221 2.109-.662 2.76-.441.653-1.064.977-1.867.977zm0-.781c.531 0 .943-.256 1.236-.768.293-.51.439-1.24.439-2.188 0-.943-.146-1.674-.443-2.191-.295-.518-.707-.777-1.232-.777s-.936.26-1.232.777c-.295.518-.443 1.248-.443 2.191 0 .947.146 1.678.441 2.188.295.512.707.768 1.234.768zm-146.177.681v-.838h-.1c-.063.1-.15.225-.264.375s-.275.283-.486.4-.49.176-.842.176c-.455 0-.855-.115-1.203-.346s-.621-.557-.816-.98c-.197-.422-.295-.922-.295-1.5 0-.572.098-1.07.295-1.49a2.27 2.27 0 0 1 .82-.977c.35-.23.754-.346 1.213-.346.355 0 .637.059.844.176s.367.25.477.398.195.27.258.363h.07v-2.684h.838v7.271h-.809zm-.412-4.207c-.266-.377-.654-.564-1.166-.564-.354 0-.65.09-.885.271-.236.18-.412.426-.529.734s-.176.656-.176 1.039c0 .389.059.74.18 1.057.119.316.297.566.531.752.236.186.529.279.879.279.506 0 .891-.193 1.16-.58s.402-.891.402-1.508c0-.61-.132-1.105-.396-1.48zm5.07 4.307c-.49 0-.92-.086-1.293-.26a2.109 2.109 0 0 1-.869-.723 1.786 1.786 0 0 1-.309-1.049 1.923 1.923 0 0 1 .686-1.51 1.53 1.53 0 0 1 .721-.336v-.043a1.397 1.397 0 0 1-.832-.588 1.779 1.779 0 0 1-.305-1.031c-.002-.369.09-.699.279-.99a1.96 1.96 0 0 1 .783-.689 2.498 2.498 0 0 1 1.139-.252c.422 0 .799.084 1.129.252.332.168.594.396.783.689.191.291.287.621.289.99-.002.385-.107.729-.314 1.031s-.48.498-.82.588v.043c.26.047.496.158.707.336a1.989 1.989 0 0 1 .699 1.51c-.004.393-.109.742-.318 1.049s-.5.547-.871.723c-.37.174-.797.26-1.284.26zm0-.781c.492 0 .883-.117 1.17-.354.287-.234.434-.549.436-.939a1.312 1.312 0 0 0-.213-.727c-.141-.211-.33-.377-.572-.498s-.516-.182-.82-.182c-.313 0-.59.061-.83.182-.242.121-.432.287-.57.498s-.207.453-.205.727c-.002.391.141.705.426.939.286.237.678.354 1.178.354zm0-3.451c.391 0 .713-.115.967-.344.252-.229.381-.529.383-.906-.002-.369-.127-.666-.375-.889s-.572-.334-.975-.334c-.406 0-.734.111-.982.334-.246.223-.369.52-.367.889-.002.377.123.678.375.906s.576.344.974.344zm7.6 4.132v-.838h-.1c-.063.1-.148.225-.264.375-.113.15-.275.283-.486.4s-.49.176-.842.176c-.453 0-.855-.115-1.203-.346s-.621-.557-.816-.98c-.197-.422-.295-.922-.295-1.5 0-.572.098-1.07.295-1.49a2.27 2.27 0 0 1 .82-.977c.35-.23.756-.346 1.215-.346.354 0 .635.059.842.176.209.117.367.25.477.398s.195.27.258.363h.07v-2.684h.838v7.271h-.809zm-.412-4.207c-.266-.377-.654-.564-1.164-.564-.355 0-.65.09-.887.271-.236.18-.412.426-.529.734s-.176.656-.176 1.039c0 .389.061.74.18 1.057s.297.566.533.752c.234.186.527.279.879.279.504 0 .891-.193 1.158-.58.27-.387.404-.891.404-1.508 0-.61-.133-1.105-.398-1.48zm5.043 4.321c-.525 0-.979-.115-1.359-.35a2.305 2.305 0 0 1-.877-.979c-.205-.422-.307-.91-.307-1.469s.102-1.053.307-1.48c.205-.426.492-.76.859-1 .369-.24.799-.361 1.291-.361.285 0 .564.047.842.143.277.094.529.248.756.459.229.213.408.492.543.84.137.35.203.777.203 1.287v.354h-3.959c.02.584.184 1.029.494 1.34.313.311.715.465 1.207.465.328 0 .611-.07.848-.213a1.22 1.22 0 0 0 .516-.639l.809.227a1.818 1.818 0 0 1-.766.998c-.386.253-.855.378-1.407.378zm-1.701-3.282h3.107c0-.461-.135-.844-.406-1.148-.27-.303-.631-.455-1.086-.455-.32 0-.596.074-.83.223-.234.15-.42.346-.555.592a1.868 1.868 0 0 0-.23.788zm7.525 3.282c-.527 0-.979-.115-1.359-.35a2.305 2.305 0 0 1-.877-.979c-.205-.422-.307-.91-.307-1.469s.102-1.053.307-1.48c.205-.426.49-.76.859-1 .367-.24.799-.361 1.291-.361.283 0 .564.047.842.143.277.094.529.248.756.459.227.213.408.492.543.84.135.35.203.777.203 1.287v.354h-3.959c.018.584.184 1.029.494 1.34.313.311.713.465 1.207.465.328 0 .611-.07.848-.213s.408-.355.516-.639l.809.227a1.818 1.818 0 0 1-.766.998c-.386.253-.854.378-1.407.378zm-1.701-3.282h3.107c0-.461-.137-.844-.406-1.148-.27-.303-.631-.455-1.086-.455-.32 0-.598.074-.832.223-.234.15-.418.346-.553.592a1.84 1.84 0 0 0-.23.788zm7.539-4.218c.297.004.596.061.895.172.297.111.57.295.816.553s.443.609.594 1.053c.148.445.223 1.002.223 1.676 0 1.293-.236 2.287-.709 2.986-.471.697-1.115 1.047-1.934 1.047-.609 0-1.117-.178-1.523-.533-.404-.357-.648-.822-.734-1.398h.867c.078.334.232.609.467.826.232.217.541.324.924.324.563 0 1.006-.244 1.33-.734.326-.49.488-1.184.488-2.078h-.057c-.199.299-.453.535-.762.707s-.65.26-1.027.26c-.418 0-.799-.104-1.146-.311a2.3 2.3 0 0 1-.83-.857 2.475 2.475 0 0 1-.311-1.248c0-.449.1-.859.301-1.232.199-.371.48-.666.844-.887s.79-.33 1.284-.326zm0 .781c-.299 0-.566.076-.805.225s-.426.35-.564.6a1.705 1.705 0 0 0-.209.838c0 .305.066.578.201.826.133.248.316.443.551.59.232.145.498.219.797.219s.568-.078.811-.23a1.72 1.72 0 0 0 .58-.607c.143-.252.215-.521.215-.811s-.068-.559-.205-.809a1.606 1.606 0 0 0-.561-.607 1.448 1.448 0 0 0-.811-.234z" fill="#4C566A"/>
  <path fill="#D8DEE9" d="M227 275.375H119c-6.6 0-12 5.4-12 12v63h120v-75z"/>
  <path fill="#E5E9F0" d="M225.5 275.375h121v75.001h-121z"/>
  <path fill="none" d="M230 227.758h114v17.617H230z"/>
  <path fill="#D8DEE9" d="M143 259.875h288v1H143z"/>
  <path d="M233.37 241.637c-.807-.346-1.42-.803-1.84-1.369s-.643-1.178-.67-1.83c0-.107.039-.201.119-.279a.412.412 0 0 1 .301-.121h.98c.24 0 .406.133.5.4.119.561.463 1.043 1.029 1.449.566.408 1.377.611 2.43.611 1.133 0 1.98-.201 2.541-.602.559-.398.84-.953.84-1.66 0-.453-.137-.826-.41-1.119s-.68-.551-1.221-.77c-.539-.221-1.35-.49-2.43-.811-1.027-.293-1.844-.605-2.449-.939-.607-.334-1.064-.744-1.371-1.23s-.459-1.104-.459-1.85c0-.721.193-1.363.58-1.93s.945-1.014 1.68-1.34c.732-.328 1.6-.49 2.6-.49 1.041 0 1.93.184 2.67.549.74.367 1.303.828 1.689 1.381s.594 1.109.621 1.67a.412.412 0 0 1-.42.42h-1c-.107 0-.207-.033-.301-.1s-.16-.168-.199-.301c-.08-.572-.4-1.047-.961-1.42-.559-.373-1.26-.561-2.1-.561-.906 0-1.627.178-2.16.531s-.799.877-.799 1.57c0 .467.123.846.369 1.139.246.295.627.555 1.141.781.512.227 1.262.486 2.25.779 1.133.32 2.023.641 2.67.961.646.318 1.129.717 1.449 1.189s.48 1.084.48 1.83c0 1.254-.477 2.23-1.43 2.93s-2.244 1.051-3.871 1.051c-1.093.002-2.042-.172-2.848-.519zm10.66.191a.445.445 0 0 1-.131-.33v-9.48a.45.45 0 0 1 .461-.461h.859c.146 0 .26.041.34.121s.121.193.121.34v.879a4.27 4.27 0 0 1 1.389-1.139c.527-.268 1.184-.4 1.971-.4 1.279 0 2.273.41 2.98 1.23s1.061 1.902 1.061 3.25v5.66a.453.453 0 0 1-.131.33.452.452 0 0 1-.33.129h-.92a.448.448 0 0 1-.33-.129.453.453 0 0 1-.131-.33v-5.541c0-.959-.232-1.707-.699-2.24s-1.133-.799-2-.799c-.854 0-1.533.27-2.039.809-.508.541-.762 1.283-.762 2.23v5.541a.452.452 0 0 1-.129.33.452.452 0 0 1-.33.129h-.92a.448.448 0 0 1-.33-.129zm12.779-.91c-.793-.828-1.217-1.928-1.27-3.301l-.02-.859.02-.861c.053-1.373.482-2.473 1.289-3.299s1.93-1.24 3.371-1.24c1.439 0 2.563.414 3.369 1.24s1.236 1.926 1.291 3.299c.025.295.039.58.039.861 0 .279-.014.566-.039.859-.055 1.373-.477 2.473-1.271 3.301-.793.826-1.922 1.24-3.389 1.24s-2.597-.414-3.39-1.24zm5.42-1.07c.5-.541.77-1.316.811-2.33.014-.133.02-.387.02-.76s-.006-.627-.02-.76c-.041-1.014-.311-1.791-.811-2.33-.5-.541-1.176-.811-2.029-.811s-1.531.27-2.031.811c-.5.539-.77 1.316-.809 2.33l-.021.76.021.76c.039 1.014.309 1.789.809 2.33.5.539 1.178.811 2.031.811s1.529-.272 2.029-.811zm7.25 1.99c-.094-.08-.166-.207-.219-.381l-2.842-9.279-.039-.201a.412.412 0 0 1 .42-.42h.82c.133 0 .242.037.33.111.086.072.137.143.15.209l2.26 7.641 2.4-7.541a.575.575 0 0 1 .18-.289.535.535 0 0 1 .379-.131h.641c.16 0 .287.045.381.131a.611.611 0 0 1 .18.289l2.398 7.541 2.262-7.641c.012-.066.062-.137.148-.209a.493.493 0 0 1 .33-.111h.82a.409.409 0 0 1 .42.42l-.039.201-2.839 9.279c-.055.174-.127.301-.221.381s-.232.119-.42.119h-.721c-.346 0-.572-.166-.68-.5l-2.34-7.24-2.34 7.24c-.107.334-.334.5-.68.5h-.721c-.184 0-.324-.039-.418-.119zm19.99-.201c-.807-.346-1.42-.803-1.84-1.369s-.645-1.178-.67-1.83c0-.107.039-.201.119-.279.08-.08.18-.121.301-.121h.979c.24 0 .408.133.5.4.121.561.465 1.043 1.031 1.449.566.408 1.377.611 2.43.611 1.133 0 1.98-.201 2.539-.602.561-.398.842-.953.842-1.66 0-.453-.139-.826-.41-1.119-.273-.293-.682-.551-1.221-.77-.539-.221-1.35-.49-2.43-.811-1.027-.293-1.844-.605-2.451-.939-.605-.334-1.063-.744-1.369-1.23s-.461-1.104-.461-1.85c0-.721.193-1.363.58-1.93s.947-1.014 1.682-1.34c.732-.328 1.6-.49 2.6-.49 1.039 0 1.93.184 2.67.549.74.367 1.303.828 1.689 1.381s.594 1.109.621 1.67a.412.412 0 0 1-.42.42h-1c-.107 0-.207-.033-.301-.1s-.16-.168-.199-.301c-.08-.572-.4-1.047-.961-1.42s-1.26-.561-2.1-.561c-.908 0-1.627.178-2.16.531s-.801.877-.801 1.57c0 .467.123.846.371 1.139.246.295.627.555 1.139.781.514.227 1.264.486 2.25.779 1.135.32 2.023.641 2.67.961.646.318 1.131.717 1.451 1.189s.48 1.084.48 1.83c0 1.254-.479 2.23-1.432 2.93s-2.242 1.051-3.869 1.051c-1.093.002-2.043-.172-2.849-.519zm11.429-3.18v-5.359h-1.58c-.133 0-.24-.041-.32-.121s-.119-.186-.119-.318v-.641c0-.133.039-.244.119-.33s.188-.131.32-.131h1.58v-3.34a.47.47 0 0 1 .119-.33.418.418 0 0 1 .32-.129h.881c.133 0 .242.043.33.129a.452.452 0 0 1 .129.33v3.34h2.48a.45.45 0 0 1 .461.461v.641c0 .133-.045.238-.131.318s-.197.121-.33.121h-2.48v5.219c0 .682.111 1.193.33 1.541.221.348.598.52 1.131.52h1.219c.135 0 .24.043.32.131.08.086.121.197.121.33v.66a.471.471 0 0 1-.121.33.415.415 0 0 1-.32.129h-1.359c-2.066-.001-3.1-1.167-3.1-3.501zm7.69 2.461c-.793-.828-1.217-1.928-1.27-3.301l-.02-.859.02-.861c.053-1.373.482-2.473 1.289-3.299s1.93-1.24 3.371-1.24c1.439 0 2.563.414 3.369 1.24s1.236 1.926 1.291 3.299c.025.295.039.58.039.861 0 .279-.014.566-.039.859-.055 1.373-.477 2.473-1.271 3.301-.793.826-1.922 1.24-3.389 1.24s-2.597-.414-3.39-1.24zm5.42-1.07c.5-.541.77-1.316.811-2.33.014-.133.02-.387.02-.76s-.006-.627-.02-.76c-.041-1.014-.311-1.791-.811-2.33-.5-.541-1.176-.811-2.029-.811s-1.531.27-2.031.811c-.5.539-.77 1.316-.809 2.33l-.021.76.021.76c.039 1.014.309 1.789.809 2.33.5.539 1.178.811 2.031.811s1.529-.272 2.029-.811zm5.32 1.98a.452.452 0 0 1-.129-.33v-9.461c0-.133.043-.246.129-.34a.432.432 0 0 1 .33-.141h.84c.146 0 .264.045.352.131a.473.473 0 0 1 .129.35v.881c.547-.908 1.473-1.361 2.779-1.361h.781c.146 0 .26.041.34.121s.119.193.119.34v.74a.47.47 0 0 1-.119.33c-.08.086-.193.129-.34.129h-1.141c-.732 0-1.311.215-1.73.641s-.629 1.006-.629 1.74v5.9a.432.432 0 0 1-.141.33.485.485 0 0 1-.34.129h-.9a.452.452 0 0 1-.33-.129zm7.52 0a.452.452 0 0 1-.129-.33v-9.48c0-.133.043-.244.129-.33a.453.453 0 0 1 .33-.131h.84c.135 0 .24.045.32.131s.121.197.121.33v.68c.719-.893 1.693-1.34 2.92-1.34 1.467 0 2.506.613 3.119 1.84a3.528 3.528 0 0 1 1.371-1.34c.592-.334 1.256-.5 1.988-.5 1.094 0 1.988.373 2.682 1.119.691.748 1.039 1.828 1.039 3.24v5.781a.452.452 0 0 1-.129.33.452.452 0 0 1-.33.129h-.861a.452.452 0 0 1-.33-.129.452.452 0 0 1-.129-.33v-5.602c0-1.066-.221-1.83-.66-2.289-.439-.461-1.02-.689-1.74-.689-.641 0-1.189.236-1.65.709-.459.475-.689 1.23-.689 2.27v5.602a.445.445 0 0 1-.461.459h-.879a.445.445 0 0 1-.461-.459v-5.602c0-1.053-.23-1.813-.689-2.279-.461-.467-1.029-.699-1.711-.699a2.23 2.23 0 0 0-1.648.699c-.461.467-.691 1.221-.691 2.26v5.621a.452.452 0 0 1-.129.33.452.452 0 0 1-.33.129h-.881a.458.458 0 0 1-.332-.13z" fill="#4C566A"/>
  <path fill="#ECEFF4" d="M691 87.756H511v75.002h-90v28.803c0 3.408 2.861 6.197 6.361 6.197h347.275c3.5 0 6.363-2.789 6.363-6.197v-28.803h-90V87.756z"/>
  <path fill="none" d="M716.334 175.141h37.332v8h-37.332zm-90 0h37.332v8h-37.332zm-90 0h37.332v8h-37.332zm-89.002 0h37.334v8h-37.334z"/>
  <path d="M716.916 180.922v-.725l3.195-5.057h1.064v5h.994v.781h-.994v1.492h-.838v-1.492h-3.421zm3.422-.781v-3.877h-.057l-2.414 3.82v.057h2.471zm5.398 2.386c-.512 0-.951-.121-1.32-.363-.371-.24-.654-.572-.854-.996s-.299-.908-.299-1.453c0-.555.104-1.043.309-1.469a2.41 2.41 0 0 1 .859-.998c.367-.24.797-.359 1.291-.359.383 0 .729.07 1.037.213.307.141.559.34.756.596.195.256.318.555.365.895h-.838a1.315 1.315 0 0 0-.424-.662c-.219-.191-.514-.289-.883-.289-.49 0-.885.188-1.184.559-.301.373-.449.869-.449 1.486 0 .633.146 1.139.443 1.52.295.379.691.568 1.189.568.326 0 .605-.084.84-.252.232-.168.389-.4.467-.699h.838a1.943 1.943 0 0 1-.35.869 1.958 1.958 0 0 1-.734.609 2.372 2.372 0 0 1-1.059.225zm5.625-.013c-.416 0-.791-.084-1.125-.25-.334-.164-.602-.393-.803-.682s-.313-.617-.33-.986h.852c.033.328.184.6.449.814s.586.322.957.322a1.507 1.507 0 0 0 1.348-.785c.133-.244.201-.521.201-.834 0-.318-.07-.602-.209-.852s-.328-.447-.568-.592a1.6 1.6 0 0 0-.828-.219 2.284 2.284 0 0 0-.686.1c-.234.07-.428.16-.578.27l-.824-.1.439-3.58h3.779v.781h-3.041l-.254 2.145h.041c.15-.117.336-.217.563-.295a2.13 2.13 0 0 1 .703-.117c.443 0 .842.107 1.191.318.348.213.623.502.822.871.201.367.301.785.301 1.254 0 .465-.104.879-.311 1.242s-.492.648-.854.859c-.362.21-.774.316-1.235.316zm6.221 0a2.766 2.766 0 0 1-.895-.172 2.13 2.13 0 0 1-.816-.551c-.246-.26-.443-.611-.594-1.055-.148-.445-.223-1.002-.223-1.676 0-1.291.234-2.287.707-2.986.471-.697 1.115-1.047 1.936-1.047.609 0 1.117.178 1.521.535.402.359.648.824.736 1.396h-.867a1.611 1.611 0 0 0-.469-.826c-.23-.217-.539-.324-.922-.324-.564 0-1.008.246-1.33.736-.324.492-.486 1.184-.488 2.076h.057c.199-.301.453-.537.764-.709a2.075 2.075 0 0 1 1.025-.258c.416 0 .799.104 1.145.311.346.209.621.494.83.857s.313.779.313 1.248c0 .449-.1.861-.301 1.234-.203.371-.484.668-.848.887s-.791.328-1.281.324zm0-.782c.299 0 .566-.076.805-.225s.426-.35.564-.6c.139-.252.209-.531.209-.838a1.71 1.71 0 0 0-.201-.822 1.562 1.562 0 0 0-.551-.592 1.467 1.467 0 0 0-.797-.221c-.301 0-.572.078-.813.232a1.688 1.688 0 0 0-.576.605c-.143.248-.215.52-.217.811s.064.563.203.811c.137.25.324.453.561.605.237.156.508.234.813.234zm6.236.782a2.756 2.756 0 0 1-.895-.172 2.115 2.115 0 0 1-.816-.551c-.246-.26-.443-.611-.594-1.055-.148-.445-.223-1.002-.223-1.676 0-1.291.234-2.287.705-2.986.473-.697 1.117-1.047 1.936-1.047.611 0 1.119.178 1.521.535.404.359.65.824.738 1.396h-.867c-.08-.334-.236-.609-.469-.826s-.539-.324-.924-.324c-.563 0-1.006.246-1.33.736-.322.492-.484 1.184-.488 2.076h.059c.197-.301.453-.537.762-.709a2.083 2.083 0 0 1 1.027-.258c.416 0 .797.104 1.143.311.346.209.623.494.832.857.207.363.313.779.313 1.248 0 .449-.102.861-.303 1.234-.201.371-.482.668-.846.887s-.79.328-1.281.324zm0-.782c.299 0 .566-.076.805-.225s.426-.35.564-.6c.139-.252.207-.531.207-.838 0-.301-.066-.574-.199-.822-.135-.248-.318-.445-.551-.592s-.5-.221-.797-.221c-.301 0-.572.078-.814.232a1.7 1.7 0 0 0-.574.605c-.143.248-.215.52-.217.811s.064.563.203.811c.137.25.324.453.561.605.236.156.508.234.812.234zm5.442.809c-.346 0-.66-.064-.941-.197a1.612 1.612 0 0 1-.672-.57c-.166-.25-.248-.553-.248-.908 0-.313.061-.566.184-.762.125-.195.289-.348.494-.459.207-.111.434-.195.684-.252.25-.055.502-.1.756-.133.33-.043.6-.076.807-.104.207-.025.359-.066.455-.121.096-.057.145-.152.145-.287 0-.352-.096-.627-.285-.824-.189-.199-.479-.297-.867-.297-.398 0-.713.088-.939.262-.229.176-.389.363-.48.563l-.795-.285c.143-.33.332-.59.57-.775s.498-.316.781-.391.561-.111.836-.111c.176 0 .377.02.605.061.229.043.449.127.664.254.215.129.393.322.535.58.141.258.213.604.213 1.037v3.594h-.838v-.738h-.043c-.057.117-.152.244-.285.379s-.309.25-.529.344c-.221.093-.491.14-.807.14zm.127-.752c.332 0 .611-.066.84-.195.229-.131.402-.299.52-.504.117-.207.176-.424.176-.65v-.768c-.037.043-.113.082-.234.115a3.595 3.595 0 0 1-.41.09 20.99 20.99 0 0 1-.805.108c-.219.029-.422.074-.609.137s-.34.156-.455.281c-.115.123-.172.293-.172.506 0 .291.107.51.324.658s.491.222.825.222zm-122.471-.867v-.725l3.195-5.057h1.064v5h.994v.781h-.994v1.492h-.838v-1.492h-3.421zm3.422-.781v-3.877h-.057l-2.414 3.82v.057h2.471zm5.625 2.373a3.1 3.1 0 0 1-1.252-.242 2.114 2.114 0 0 1-.869-.674 1.77 1.77 0 0 1-.35-1.002h.895c.025.35.188.627.484.83.297.205.656.307 1.078.307.467 0 .85-.119 1.152-.357s.453-.551.453-.936c0-.402-.148-.73-.445-.984-.299-.252-.723-.379-1.273-.379h-.582v-.781h.582c.43 0 .781-.115 1.055-.346.271-.229.408-.535.408-.92 0-.365-.119-.662-.359-.885-.238-.225-.559-.336-.961-.336-.252 0-.488.045-.709.137a1.331 1.331 0 0 0-.541.395 1.026 1.026 0 0 0-.229.619h-.852c.014-.381.129-.715.344-1.004.215-.287.498-.512.848-.672.35-.162.732-.242 1.152-.242.449 0 .836.092 1.158.271.32.182.568.42.742.717.172.295.258.615.258.959 0 .408-.107.758-.32 1.047a1.656 1.656 0 0 1-.873.6v.057c.459.076.818.271 1.076.584.258.314.387.701.387 1.164 0 .395-.105.75-.32 1.063a2.199 2.199 0 0 1-.875.74c-.37.18-.791.27-1.262.27zm3.736-1.592v-.725l3.195-5.057h1.066v5h.994v.781h-.994v1.492h-.838v-1.492h-3.423zm3.424-.781v-3.877h-.057l-2.416 3.82v.057h2.473zm5.397 2.386c-.51 0-.951-.121-1.32-.363a2.34 2.34 0 0 1-.852-.996c-.199-.424-.299-.908-.299-1.453 0-.555.102-1.043.307-1.469.205-.424.492-.758.859-.998.369-.24.799-.359 1.291-.359.383 0 .729.07 1.037.213.309.141.561.34.756.596.197.256.318.555.367.895h-.84a1.308 1.308 0 0 0-.424-.662c-.219-.191-.514-.289-.883-.289-.49 0-.885.188-1.184.559-.299.373-.449.869-.449 1.486 0 .633.148 1.139.443 1.52.297.379.693.568 1.189.568.328 0 .607-.084.84-.252a1.2 1.2 0 0 0 .467-.699h.84a1.946 1.946 0 0 1-1.086 1.478 2.379 2.379 0 0 1-1.059.225zm5.625-.013c-.416 0-.791-.084-1.125-.25-.334-.164-.602-.393-.803-.682s-.311-.617-.33-.986h.852c.033.328.184.6.449.814.268.215.586.322.957.322a1.486 1.486 0 0 0 1.348-.785 1.69 1.69 0 0 0 .201-.834c0-.318-.068-.602-.207-.852s-.328-.447-.57-.592-.518-.217-.828-.219a2.284 2.284 0 0 0-.686.1c-.234.07-.426.16-.578.27l-.824-.1.441-3.58h3.777v.781h-3.039l-.256 2.145h.043a2.13 2.13 0 0 1 1.264-.412c.445 0 .842.107 1.191.318.35.213.623.502.824.871.199.367.301.785.301 1.254 0 .465-.104.879-.313 1.242a2.28 2.28 0 0 1-.854.859 2.41 2.41 0 0 1-1.235.316zm6.109.013c-.525 0-.979-.117-1.359-.35-.379-.234-.672-.561-.877-.98s-.307-.91-.307-1.469.102-1.051.307-1.479.492-.762.859-1.002c.369-.24.799-.359 1.291-.359.285 0 .564.047.842.141.277.096.529.248.756.461.229.211.408.492.543.84.137.348.203.775.203 1.285v.355h-3.959c.02.582.184 1.029.494 1.338.313.311.715.465 1.207.465.328 0 .611-.07.848-.213.238-.141.408-.354.516-.639l.809.227a1.812 1.812 0 0 1-.766.998c-.386.254-.854.381-1.407.381zm-1.701-3.281h3.107c0-.461-.135-.844-.406-1.148-.27-.305-.631-.457-1.086-.457-.32 0-.596.074-.83.225-.234.148-.42.346-.555.59a1.881 1.881 0 0 0-.23.79zm-119.008 3.268c-.469 0-.887-.082-1.252-.242a2.108 2.108 0 0 1-.871-.674 1.786 1.786 0 0 1-.35-1.002h.895c.027.35.188.627.484.83.299.205.656.307 1.078.307.467 0 .852-.119 1.152-.357.303-.238.453-.551.453-.936 0-.402-.148-.73-.445-.984-.297-.252-.723-.379-1.273-.379h-.582v-.781h.582c.432 0 .783-.115 1.055-.346.271-.229.408-.535.408-.92 0-.365-.119-.662-.357-.885-.24-.225-.561-.336-.963-.336-.252 0-.488.045-.709.137s-.402.223-.541.395a1.026 1.026 0 0 0-.229.619h-.852c.014-.381.129-.715.344-1.004.217-.287.498-.512.848-.672.35-.162.734-.242 1.152-.242.449 0 .836.092 1.158.271.322.182.568.42.742.717.172.295.26.615.26.959 0 .408-.107.758-.322 1.047s-.506.488-.871.6v.057c.459.076.816.271 1.076.584.258.314.387.701.387 1.164 0 .395-.107.75-.322 1.063a2.199 2.199 0 0 1-.875.74c-.369.18-.789.27-1.26.27zm3.92-.1v-7.273h.838v2.686h.07c.063-.096.148-.217.258-.365.109-.146.268-.279.477-.396.207-.117.488-.176.842-.176.459 0 .865.113 1.215.344.352.23.625.555.82.977.197.422.295.918.295 1.492 0 .576-.098 1.076-.295 1.5a2.317 2.317 0 0 1-.816.98c-.348.23-.75.346-1.203.346-.352 0-.631-.059-.842-.176s-.373-.252-.486-.402a4.672 4.672 0 0 1-.264-.373h-.1v.838h-.809zm.822-2.728c0 .619.135 1.121.404 1.508.268.387.654.58 1.158.58.352 0 .645-.092.879-.277.236-.186.414-.438.533-.754s.18-.668.18-1.057c0-.383-.059-.729-.176-1.037-.117-.311-.293-.555-.529-.736s-.531-.271-.887-.271c-.51 0-.898.188-1.164.564s-.398.87-.398 1.48zm5.086 1.236v-.725l3.195-5.057h1.066v5h.994v.781h-.994v1.492h-.838v-1.492h-3.423zm3.424-.781v-3.877h-.057l-2.416 3.82v.057h2.473zm3.168 2.273v-.641l2.4-2.627c.281-.309.514-.576.695-.805s.318-.443.406-.646c.09-.201.133-.414.133-.637 0-.383-.133-.688-.398-.912-.268-.225-.598-.338-.992-.338-.422 0-.758.125-1.006.379-.248.252-.373.584-.373.998h-.838c0-.426.098-.799.295-1.121s.465-.572.803-.754c.338-.18.721-.27 1.146-.27s.805.09 1.133.27c.33.182.588.424.775.729.186.305.279.645.279 1.02 0 .268-.047.529-.143.783a3.564 3.564 0 0 1-.498.848c-.236.313-.563.691-.979 1.139l-1.633 1.748v.057h3.381v.781h-4.586zm8.322.1c-.416 0-.791-.084-1.125-.25-.334-.164-.602-.393-.803-.682s-.311-.617-.33-.986h.852c.033.328.184.6.449.814.268.215.586.322.957.322a1.486 1.486 0 0 0 1.348-.785 1.69 1.69 0 0 0 .201-.834c0-.318-.068-.602-.207-.852s-.328-.447-.57-.592-.518-.217-.828-.219a2.284 2.284 0 0 0-.686.1c-.234.07-.426.16-.578.27l-.824-.1.441-3.58h3.777v.781h-3.039l-.256 2.145h.043a2.13 2.13 0 0 1 1.264-.412c.445 0 .842.107 1.191.318.35.213.623.502.824.871.199.367.301.785.301 1.254 0 .465-.104.879-.313 1.242a2.28 2.28 0 0 1-.854.859c-.36.21-.772.316-1.235.316zm3.809-.1v-.641l2.4-2.627c.281-.309.514-.576.695-.805s.318-.443.406-.646c.09-.201.133-.414.133-.637 0-.383-.133-.688-.398-.912-.268-.225-.598-.338-.992-.338-.422 0-.758.125-1.006.379-.248.252-.373.584-.373.998h-.838c0-.426.098-.799.295-1.121s.465-.572.803-.754c.338-.18.721-.27 1.146-.27s.805.09 1.133.27c.33.182.588.424.775.729.186.305.279.645.279 1.02 0 .268-.047.529-.143.783a3.564 3.564 0 0 1-.498.848c-.236.313-.563.691-.979 1.139l-1.633 1.748v.057h3.381v.781h-4.586zm-120.01 0v-.641l2.4-2.627c.281-.309.514-.576.695-.805.184-.229.318-.443.406-.646.09-.201.135-.414.135-.637 0-.383-.135-.688-.4-.912s-.598-.338-.992-.338c-.422 0-.756.125-1.006.379-.248.252-.373.584-.373.998h-.838c0-.426.1-.799.295-1.121.197-.322.465-.572.803-.754.34-.18.721-.27 1.146-.27.428 0 .805.09 1.133.27.33.182.588.424.775.729s.279.645.279 1.02c0 .268-.047.529-.143.783s-.262.537-.498.848c-.234.313-.561.691-.979 1.139l-1.633 1.748v.057h3.381v.781h-4.586zm8.352.113c-.525 0-.979-.117-1.357-.35a2.317 2.317 0 0 1-.879-.98c-.203-.42-.307-.91-.307-1.469s.104-1.051.307-1.479c.205-.428.492-.762.859-1.002.369-.24.799-.359 1.291-.359.285 0 .564.047.842.141.277.096.529.248.758.461.227.211.408.492.543.84s.201.775.201 1.285v.355h-3.959c.02.582.184 1.029.496 1.338.311.311.713.465 1.205.465.328 0 .611-.07.85-.213.236-.141.408-.354.514-.639l.811.227a1.824 1.824 0 0 1-.768.998c-.384.254-.853.381-1.407.381zm-1.702-3.281h3.107c0-.461-.135-.844-.404-1.148s-.633-.457-1.088-.457a1.5 1.5 0 0 0-.83.225c-.234.148-.42.346-.555.59a1.91 1.91 0 0 0-.23.79zm7.682 3.268c-.469 0-.887-.082-1.252-.242s-.656-.385-.871-.674a1.8 1.8 0 0 1-.35-1.002h.895c.027.35.189.627.486.83.297.205.656.307 1.076.307.467 0 .852-.119 1.152-.357.303-.238.453-.551.453-.936 0-.402-.148-.73-.445-.984-.297-.252-.721-.379-1.273-.379h-.582v-.781h.582c.432 0 .783-.115 1.055-.346.273-.229.408-.535.408-.92 0-.365-.119-.662-.357-.885-.24-.225-.561-.336-.963-.336-.25 0-.486.045-.709.137-.221.092-.4.223-.541.395a1.037 1.037 0 0 0-.227.619h-.854a1.75 1.75 0 0 1 .346-1.004 2.17 2.17 0 0 1 .846-.672c.35-.162.734-.242 1.152-.242.451 0 .836.092 1.158.271.322.182.57.42.742.717.174.295.26.615.26.959 0 .408-.107.758-.322 1.047a1.643 1.643 0 0 1-.871.6v.057c.459.076.818.271 1.076.584.258.314.387.701.387 1.164 0 .395-.107.75-.322 1.063a2.185 2.185 0 0 1-.875.74c-.369.18-.789.27-1.26.27zm3.736-1.592v-.725l3.195-5.057h1.064v5h.994v.781h-.994v1.492h-.838v-1.492h-3.421zm3.422-.781v-3.877h-.057l-2.414 3.82v.057h2.471zm2.998.781v-.725l3.195-5.057h1.066v5h.994v.781h-.994v1.492h-.838v-1.492h-3.423zm3.424-.781v-3.877h-.059l-2.414 3.82v.057h2.473zm5.539 2.373c-.803 0-1.426-.326-1.867-.977-.441-.652-.662-1.572-.662-2.76 0-1.18.223-2.096.668-2.752s1.066-.984 1.861-.984 1.416.328 1.861.984c.443.656.666 1.572.666 2.752 0 1.188-.221 2.107-.662 2.76-.441.651-1.062.977-1.865.977zm0-.782c.529 0 .941-.256 1.236-.768.293-.512.439-1.24.439-2.188 0-.945-.148-1.676-.443-2.193-.297-.518-.707-.775-1.232-.775s-.938.258-1.232.775c-.297.518-.443 1.248-.443 2.193 0 .947.146 1.676.441 2.188s.707.768 1.234.768z" fill="#4C566A"/>
  <path fill="#2E3440" d="M511 87.756h-83.639c-3.5 0-6.361 2.789-6.361 6.197v68.805h90V87.756z"/>
  <path fill="#3B4252" d="M509.5 87.756h91v75.002h-91z"/>
  <path fill="#434C5E" d="M599.5 87.756h91v75.002h-91z"/>
  <path fill="#4C566A" d="M774.496 87.756H689v75.002h92V93.953c0-3.408-2.928-6.197-6.504-6.197z"/>
  <path fill="none" d="M549 40.141h104v17.615H549z"/>
  <path fill="#D8DEE9" d="M457 71.756h288v1H457z"/>
  <path d="M550.879 54.211a.47.47 0 0 1-.119-.33V40.82c0-.146.039-.264.119-.35a.413.413 0 0 1 .32-.131h5.061c1.506 0 2.689.363 3.549 1.09.861.727 1.291 1.783 1.291 3.17s-.43 2.441-1.291 3.16c-.859.721-2.043 1.08-3.549 1.08h-3.6v5.041a.453.453 0 0 1-.131.33.448.448 0 0 1-.33.129h-1a.412.412 0 0 1-.32-.128zm5.281-6.99c2.012 0 3.02-.873 3.02-2.621 0-.854-.25-1.506-.75-1.959s-1.258-.68-2.27-.68h-3.5v5.26h3.5zm7.85 6.08c-.793-.828-1.217-1.928-1.27-3.301l-.021-.859.021-.861c.053-1.373.482-2.473 1.289-3.299s1.93-1.24 3.371-1.24c1.439 0 2.563.414 3.369 1.24s1.236 1.926 1.289 3.299c.027.295.041.58.041.861 0 .279-.014.566-.041.859-.053 1.373-.477 2.473-1.27 3.301-.793.826-1.924 1.24-3.389 1.24-1.467 0-2.596-.414-3.389-1.24zm5.42-1.071c.5-.541.77-1.316.811-2.33.012-.133.02-.387.02-.76s-.008-.627-.02-.76c-.041-1.014-.311-1.791-.811-2.33-.5-.541-1.178-.811-2.029-.811-.854 0-1.531.27-2.031.811-.5.539-.77 1.316-.811 2.33l-.02.76.02.76c.041 1.014.311 1.789.811 2.33.5.539 1.178.811 2.031.811.851 0 1.529-.271 2.029-.811zm5.34 1.981a.445.445 0 0 1-.131-.33V40.6c0-.146.043-.26.131-.34a.466.466 0 0 1 .33-.119h.879a.445.445 0 0 1 .461.459v13.281a.445.445 0 0 1-.461.459h-.879a.447.447 0 0 1-.33-.129zm5.74-.07a3.386 3.386 0 0 1-1.32-1.09 2.592 2.592 0 0 1-.49-1.531c0-.879.359-1.6 1.08-2.16.721-.559 1.699-.932 2.939-1.119l3-.42v-.58c0-1.373-.793-2.061-2.379-2.061-.613 0-1.107.123-1.48.371-.373.246-.646.537-.82.869-.053.133-.109.223-.17.27s-.143.07-.25.07h-.779a.424.424 0 0 1-.311-.129.423.423 0 0 1-.131-.311c0-.307.145-.664.432-1.07.285-.406.729-.76 1.33-1.061.6-.299 1.332-.449 2.199-.449 1.492 0 2.563.348 3.209 1.039.646.693.971 1.561.971 2.602v6.5a.452.452 0 0 1-.129.33.452.452 0 0 1-.33.129h-.881a.417.417 0 0 1-.32-.129.47.47 0 0 1-.119-.33V53c-.295.439-.721.807-1.281 1.1-.559.293-1.279.441-2.16.441a4.134 4.134 0 0 1-1.81-.4zm4.369-1.92c.561-.574.84-1.406.84-2.5v-.561l-2.34.34c-.959.133-1.688.359-2.18.68-.494.32-.74.721-.74 1.201 0 .547.223.967.67 1.26s.977.439 1.59.439c.881 0 1.599-.287 2.16-.859zm5.689 1.99a.452.452 0 0 1-.129-.33V44.42c0-.133.043-.246.129-.34a.432.432 0 0 1 .33-.141h.84c.146 0 .264.045.35.131a.467.467 0 0 1 .131.35v.881c.547-.908 1.473-1.361 2.779-1.361h.781c.146 0 .26.041.34.121s.119.193.119.34v.74a.47.47 0 0 1-.119.33c-.08.086-.193.129-.34.129h-1.141c-.732 0-1.311.215-1.73.641s-.629 1.006-.629 1.74v5.9a.432.432 0 0 1-.141.33.485.485 0 0 1-.34.129h-.9a.453.453 0 0 1-.33-.129zm12.231 0a.471.471 0 0 1-.121-.33V40.82c0-.146.041-.264.121-.35a.41.41 0 0 1 .32-.131h.879c.133 0 .234.027.301.08s.133.121.199.199l6.701 10.32V40.82c0-.146.043-.264.129-.35a.445.445 0 0 1 .33-.131h.9c.146 0 .264.043.35.131a.467.467 0 0 1 .131.35v13.039a.472.472 0 0 1-.131.34.429.429 0 0 1-.33.141h-.9c-.227 0-.387-.094-.479-.279l-6.701-10.221v10.041a.452.452 0 0 1-.129.33.452.452 0 0 1-.33.129h-.92a.414.414 0 0 1-.32-.129zm13.449-12.361a.445.445 0 0 1-.129-.33v-1.04c0-.133.043-.246.129-.34a.432.432 0 0 1 .33-.141h1.18c.135 0 .248.047.34.141a.463.463 0 0 1 .141.34v1.039a.426.426 0 0 1-.141.33.472.472 0 0 1-.34.131h-1.18a.445.445 0 0 1-.33-.13zm.16 12.361a.452.452 0 0 1-.129-.33V44.4c0-.133.043-.244.129-.33a.453.453 0 0 1 .33-.131h.881c.133 0 .242.045.33.131a.448.448 0 0 1 .129.33v9.48a.452.452 0 0 1-.129.33.452.452 0 0 1-.33.129h-.881a.447.447 0 0 1-.33-.128zm6.231 3.969c-.668-.373-1.137-.799-1.41-1.279s-.41-.895-.41-1.24c0-.119.047-.223.141-.311a.455.455 0 0 1 .32-.129h.879a.48.48 0 0 1 .301.09c.08.059.146.17.199.33.373 1.066 1.221 1.6 2.541 1.6 1 0 1.738-.213 2.219-.641.48-.426.721-1.18.721-2.26v-1.379c-.773.986-1.854 1.479-3.24 1.479-1.414 0-2.471-.453-3.17-1.359s-1.07-2.053-1.109-3.439l-.021-.561.021-.539c.039-1.375.41-2.518 1.109-3.432.699-.912 1.756-1.369 3.17-1.369 1.4 0 2.492.514 3.279 1.539v-.86c0-.133.043-.246.131-.34a.429.429 0 0 1 .33-.141h.859c.133 0 .244.047.33.141s.131.207.131.34v9.699c0 3.08-1.555 4.621-4.66 4.621-1.109 0-1.995-.187-2.661-.56zm4.73-6.209c.473-.607.729-1.338.77-2.191.014-.119.02-.352.02-.699 0-.334-.006-.561-.02-.68-.041-.854-.297-1.584-.77-2.189-.475-.607-1.178-.91-2.111-.91-.959 0-1.656.303-2.09.91-.434.605-.67 1.389-.709 2.35l-.021.52.021.539c.039.961.275 1.744.709 2.352.434.605 1.131.91 2.09.91.933-.002 1.637-.307 2.111-.912zm5.76 2.24a.445.445 0 0 1-.131-.33V40.6c0-.146.043-.26.131-.34a.463.463 0 0 1 .33-.119h.92c.146 0 .26.039.34.119s.119.193.119.34v4.66a3.971 3.971 0 0 1 1.371-1.129c.527-.262 1.176-.391 1.949-.391 1.281 0 2.277.41 2.99 1.23s1.07 1.902 1.07 3.25v5.66a.452.452 0 0 1-.129.33.452.452 0 0 1-.33.129h-.941a.452.452 0 0 1-.33-.129.452.452 0 0 1-.129-.33v-5.54c0-.959-.234-1.707-.701-2.24s-1.139-.799-2.02-.799c-.854 0-1.533.27-2.041.809-.506.541-.76 1.283-.76 2.23v5.541a.452.452 0 0 1-.129.33.452.452 0 0 1-.33.129h-.92a.445.445 0 0 1-.329-.129zm12.75-3.371v-5.36h-1.58c-.133 0-.24-.041-.32-.121s-.119-.186-.119-.318V44.4c0-.133.039-.244.119-.33s.188-.131.32-.131h1.58V40.6c0-.133.041-.242.119-.33a.418.418 0 0 1 .32-.129h.881c.133 0 .242.043.33.129a.452.452 0 0 1 .129.33v3.34h2.48a.45.45 0 0 1 .461.461v.641c0 .133-.045.238-.131.318s-.197.121-.33.121h-2.48V50.7c0 .682.111 1.193.33 1.541.221.348.598.52 1.131.52h1.221c.133 0 .238.043.318.131.08.086.121.197.121.33v.66a.471.471 0 0 1-.121.33.414.414 0 0 1-.318.129h-1.361c-2.067-.001-3.1-1.167-3.1-3.501z" fill="#4C566A"/>
</svg>
