<svg xmlns="http://www.w3.org/2000/svg" viewBox="0 0 888 100">
  <path fill="#81A1C1" d="M174.634 34.865l-.023.088-7.352.046-3 6.62 8.586 18.619 14.418 28.286 6.945-8.557 1.833-9.166 11.028-2.75 5.464-10.693 7.035-3.667 2.195-18.826z"/>
  <path fill="#5E81AC" d="M187.263 88.524L173.125 77.83l-3.36-15.278-12.528-9.167 1.236-18.52h16.161l-3.647 13.632 8.554 7.638v9.777l5.961 8.556z"/>
  <path fill="#88C0D0" d="M187.943 18.652l-11.001.967-5.703 6.214-8.556 2.071-4.21 6.961h16.161l10.273-2.811 9.971-4.049 4.271-6.672.745-9.862z"/>
  <path fill="#BDDEF6" d="M212.533 25.833l-23.467 9.032h-14.432l6.112-8.998 12.221-1.941 6.927-12.455 8.828 5.977z"/>
  <path fill="#88C0D0" d="M204.466 23.926l-3.813 4.45-7.229 1.221-4.358 5.268h18.003l8.417-2.95 2.511-4.79z"/>
  <path fill="#BDDEF6" d="M221.763 34.865h-14.694l10.928-7.74z"/>
  <path fill="#3B4252" d="M888 34.875c0-.821-.68-1.486-1.5-1.486H222.693l-3.359-6.904a1.52 1.52 0 0 0-.994-.796l-4.756-1.124-3.511-7.723a1.466 1.466 0 0 0-.52-.615l-8.828-5.977a1.517 1.517 0 0 0-1.598-.043l-11.657 7.005-10.659.937a1.487 1.487 0 0 0-.964.477l-5.398 5.88-8.117 1.964a1.488 1.488 0 0 0-.921.676l-3.777 6.244H1.5c-.821 0-1.5.665-1.5 1.486 0 .82.679 1.485 1.5 1.485h155.385l-1.131 16.936c-.034.508.194.997.605 1.298l12.075 8.835 3.24 14.729c.076.346.273.652.555.865l14.138 10.694a.02.02 0 0 0 .006.004c.613.454 1.561.343 2.043-.253l6.944-8.555c.152-.188.256-.409.303-.646l1.648-8.244 10.115-2.521a1.49 1.49 0 0 0 .964-.766l5.249-10.272 6.614-3.447c.437-.228.732-.656.789-1.146l2.042-17.513H886.5c.82.001 1.5-.664 1.5-1.484zm-695.776-1.487l1.994-2.41 6.682-1.127c.343-.058.655-.234.881-.498l3.226-3.764 9.448 2.233-7.858 5.565h-14.373v.001zm25.204-4.029l1.96 4.029h-7.65l5.69-4.029zm-7.501-5.66l-5.118-1.209a1.486 1.486 0 0 0-1.47.479l-3.464 4.043-6.697 1.13c-.352.06-.67.243-.897.518l-3.914 4.729H177.44l4.173-6.146 11.588-1.839a1.485 1.485 0 0 0 1.065-.746l6.138-11.037 7.137 4.832 2.386 5.246zm-46.293 5.512l7.954-1.925c.286-.07.546-.223.745-.439l5.314-5.789 10.425-.916c.225-.021.442-.092.635-.207l7.185-4.317-3.873 6.964-11.508 1.827a1.482 1.482 0 0 0-.996.633l-5.669 8.347h-12.739l2.527-4.178zm7.581 33.031a1.484 1.484 0 0 0-.574-.88l-11.868-8.684 1.089-16.318h12.836l-3.147 11.762a1.483 1.483 0 0 0 .446 1.492l8.059 7.196v9.112c0 .303.093.6.267.849l5.751 8.255 1.277 10.197-10.893-8.239-3.243-14.742zm40.632-6.193a1.486 1.486 0 0 0-.636.641l-5.157 10.093-10.372 2.586c-.557.14-.985.587-1.097 1.15l-1.762 8.807-4.518 5.566-1.328-10.6a1.497 1.497 0 0 0-.255-.665l-5.695-8.172v-9.312c0-.423-.181-.826-.496-1.108l-7.874-7.029 3.116-11.646h44.32l-1.911 16.387-6.335 3.302z"/>
</svg>
