<svg xmlns="http://www.w3.org/2000/svg" viewBox="0 0 888 500">
  <path fill="#2E3440" d="M710.732 313.498c11.773 0 21.32 9.549 21.32 21.32s-9.547 21.319-21.32 21.319-21.32-9.548-21.32-21.319 9.547-21.32 21.32-21.32z"/>
  <path fill="#88C0D0" d="M707.643 344.645c4.928.309 12.485-.171 12.67-2.394 0 0-.35.833-4.07 1.507-4.203.76-9.393.67-12.466.195-.001 0 .629.492 3.866.692"/>
  <path fill="#88C0D0" d="M718.58 340.909s.773.604-.855 1.081c-3.094.887-12.857 1.166-15.574.028-.973-.401.857-.967 1.436-1.088.595-.129.936-.096.936-.096-1.076-.747-7.009 1.437-3.01 2.051 10.914 1.697 19.902-.761 17.07-1.979m-2.526-3.192c5.129-2.548 2.758-5.002 1.107-4.671-.412.08-.587.143-.587.143s.141-.222.427-.318c3.283-1.109 5.794 3.26-1.049 4.975 0 0 .077-.059.097-.13m-8.916-4.777s-4.964 1.133-1.756 1.545c1.36.177 4.05.139 6.578-.059 2.054-.167 4.126-.532 4.126-.532s-.736.306-1.254.65c-5.043 1.267-14.794.673-11.991-.622 2.374-1.104 4.298-.979 4.298-.979"/>
  <path fill="#D08770" d="M711.503 331.049c1.317 1.459-.36 2.766-.36 2.766s3.357-1.66 1.816-3.729c-1.443-1.947-2.537-2.901 3.426-6.23 0 0-9.361 2.241-4.889 7.188"/>
  <path fill="#D08770" d="M712.959 318.512s2.838 2.719-2.699 6.917c-4.43 3.356-1.004 5.275 0 7.456-2.586-2.235-4.488-4.209-3.215-6.041 1.877-2.705 7.064-3.998 5.914-8.328"/>
  <path fill="#2E3440" d="M249.126 268.461c10.339 0 18.72 8.383 18.72 18.719 0 10.338-8.381 18.721-18.72 18.721s-18.72-8.383-18.72-18.721c0-10.336 8.381-18.719 18.72-18.719z"/>
  <path fill="#D8DEE9" d="M249.116 274.963h.003c6.743 0 12.208 5.469 12.208 12.207v.004c0 6.744-5.465 12.206-12.208 12.206h-.003c-6.743 0-12.208-5.462-12.208-12.206v-.004c0-6.738 5.465-12.207 12.208-12.207"/>
  <path fill="#88C0D0" d="M241.791 280.658v13.023h6.512v-2.438h-4.067v-8.14h4.067v-2.446m8.146.001v13.023h-6.518v-2.438h4.078v-8.14h-4.078v-2.446"/>
  <path fill="#2E3440" d="M189.359 236.491c11.484 0 20.799 9.313 20.799 20.799 0 11.487-9.314 20.802-20.799 20.802-11.488 0-20.801-9.314-20.801-20.802 0-11.485 9.313-20.799 20.801-20.799z"/>
  <path fill="#D8DEE9" d="M181.102 245.531a.785.785 0 0 0-.79.795v21.928c0 .444.347.795.79.795h16.507c.444 0 .79-.351.79-.795v-18.195l-4.521-4.521"/>
  <path fill="#ECEFF4" d="M193.877 245.531v4.523h4.521"/>
  <path fill-opacity=".2" d="M198.398 254.578v-4.523h-4.521"/>
  <path fill="#5E81AC" d="M182.119 266.332h14.471v-1.807h-14.471"/>
  <path fill="#4C566A" d="M182.119 261.814h9.045v-1.812h-9.045"/>
  <path fill="#81A1C1" d="M182.119 258.196h11.758v-1.812h-11.758"/>
  <path fill="#4C566A" d="M182.119 254.578h7.235v-1.812h-7.235"/>
  <path fill="#88C0D0" d="M182.119 250.961h9.95v-1.811h-9.95"/>
  <path fill="#2E3440" d="M650.691 288.938c10.339 0 18.722 8.383 18.722 18.719 0 10.338-8.383 18.721-18.722 18.721-10.336 0-18.719-8.383-18.719-18.721.001-10.337 8.383-18.719 18.719-18.719z"/>
  <path fill-rule="evenodd" clip-rule="evenodd" fill="#88C0D0" d="M650.668 316.779c-2.653 0-5.297-.004-7.947.002-.604.002-1.143-.098-1.422-.697a1.77 1.77 0 0 1-.163-.692c-.005-5.156-.007-10.313-.001-15.469.001-.874.512-1.387 1.373-1.387 5.451-.005 10.904-.005 16.355 0 .859 0 1.347.511 1.371 1.389.018.533.02 1.067.018 1.607-.003.468-.26.689-.721.694-.225 0-.448-.009-.672 0-.555.036-.963-.064-1.069-.744-.062-.39-.433-.561-.874-.556-2.526.017-5.056.008-7.583.008-1.623 0-3.254-.002-4.876.005-.639.002-.918.271-.918.892-.004 3.877-.004 7.755 0 11.633 0 .683.215.901.894.901 4.171 0 8.343 0 12.515.003.52.003.818-.19.888-.71.003-.022.002-.035.005-.055.141-.481.694-.659 1.725-.529.437.051.698.277.689.745-.007.589 0 1.177-.033 1.765-.033.648-.539 1.165-1.199 1.17-2.525.024-5.054.023-7.577.025h-.778zm-2.945-10.261c-.271.004-.635.041-.8.212-.429.466-.379 1.055-.175 1.605.173.481.611.579 1.053.579 3.769.005 7.537.005 11.307.002.855-.002 1.115-.332 1.139-1.28.013-.857-.201-1.141-1.116-1.13-1.88.016-3.768.001-5.648.001-1.924 0-3.838-.003-5.76.011z"/>
  <path fill="#2E3440" d="M90.528 262.123c11.775 0 21.322 9.546 21.322 21.321 0 11.772-9.547 21.319-21.322 21.319-11.772 0-21.318-9.547-21.318-21.319-.001-11.775 9.545-21.321 21.318-21.321z"/>
  <path d="M88.56 284.469l-5.193-2.745 3.766-9.335-11.125 10.028 4.888 3.306-3.464 8.776zm3.853 6.381h12.638v2.459H92.413z" fill="#88C0D0"/>
  <path fill="#2E3440" d="M243.211 194.352c11.201 0 20.279 9.078 20.279 20.279 0 11.203-9.078 20.281-20.279 20.281-11.2 0-20.28-9.08-20.28-20.281s9.08-20.279 20.28-20.279z"/>
  <path fill="#88C0D0" d="M254.895 217.308v2.06h-2.073v1.258h2.073v2.064h1.25v-2.064h2.063v-1.258h-2.063v-2.06h-1.25zm-6.407 0v2.06h-2.072v1.258h2.072v2.064h1.25v-2.064h2.063v-1.258h-2.063v-2.06h-1.25zm-3.521-3.959c1.957 0 .197 9.966-1.487 9.95-.935-.008-3.459-6.712-3.001-7.465-.799.821-1.862 2.656-2.815 4.647-1.23 2.575-2.343 5.27-3.161 4.921-.798-.488 1.254-3.652 3.074-6.563 1.529-2.449 2.225-4.75 3.441-4.75 1.309 0 1.4 4.344 2.949 7.208 1.024-1.632-.676-7.948 1-7.948z"/>
  <path fill="#D8DEE9" d="M243.998 207.209c-.506-.604-1.168-.596-1.927-.596-.821-.922-1.958-1.697-3.495-1.9-.084.559.152 1.09.409 1.617-3.228-3.051-7.172-1.175-8.681 1.214-2.404 3.813-1.252 11.371 3.672 16.294 1.588 1.586 5.072.236 5.072-2.223 0-1.962-.898-3.496-2.416-3.496-1.301 0-2.224.975-2.224 2.566-.023.404.13.765.342 1.066l.004-.002c.366.522.962.856 1.468.856.166 0 .319-.035.467-.084v.001l.003-.001c.356-.118.648-.353.856-.632.01-.014.022-.025.032-.041a1.9 1.9 0 0 0 .209-.38c.017-.039.025-.073.039-.112a1.49 1.49 0 0 0 .06-.3c.001-.02.012-.045.012-.065 0-.03-.011-.057-.014-.085a1.092 1.092 0 0 0-.034-.202c-.009-.021-.016-.045-.023-.063a1.143 1.143 0 0 0-.698-.676l-.008-.002a.832.832 0 0 0-.212-.043c-.024-.006-.044-.016-.067-.016-.1 0-.186.044-.262.107-.287.229-.414.781-.414.781l.01-.014a.09.09 0 0 0-.004.016s.201-.229.404-.364c.043-.026.084-.052.123-.069.009-.004.02-.01.028-.012.024-.01.046-.008.069-.01.017 0 .033-.004.05 0a.41.41 0 0 1 .179.125c.168.193.283.547.262.746-.004.012-.002.012-.004.02-.055.299-.755.639-1.052.646-.288.006-.544-.277-.701-.603a1.933 1.933 0 0 1-.123-.349 1.258 1.258 0 0 1-.04-.283c0-.79.421-1.545 1.221-1.545 1.075 0 1.555 1.229 1.555 2.333 0 .897-.988 2.054-2.18 2.054-.447 0-1.16-.391-1.383-.685-3.131-4.086-.629-6.499 1.727-8.958.063.517.297.907.82 1.078.369.25.779-.668 1.512-.756.6-.072 1.28.783 1.742.865.33-.311.701-.486.839-.707-.281-.987-.558-1.684-1.458-1.496-.436-.188-.823-.487-1.037-.885.924-.029 1.541.037 1.706-.561.849.089 1.571.197 2.179.159 3.123-.197 3.228-2.146 1.386-4.328z"/>
  <path fill="#E5E9F0" d="M242.385 208.15a1.257 1.257 0 1 1-2.514 0 1.255 1.255 0 0 1 1.256-1.258 1.26 1.26 0 0 1 1.258 1.258z"/>
  <path fill="#2E3440" d="M241.975 208.35a.518.518 0 1 1-1.035 0 .518.518 0 0 1 1.035 0zm-15.924 122.114c11.201 0 20.281 9.081 20.281 20.279 0 11.2-9.08 20.28-20.281 20.28-11.197 0-20.278-9.08-20.278-20.28-.001-11.198 9.081-20.279 20.278-20.279z"/>
  <path fill="#88C0D0" d="M214.61 340.602a.536.536 0 0 0-.469.526v9.534a.54.54 0 0 0 .523.524h4.766v1.759h-3.527v1.77h6.421v-3.505l-2.041-1.791h-3.992a.369.369 0 0 1-.357-.358v-6.338a.357.357 0 0 1 .274-.355h9.894c.184 0 .357.176.357.355v2.535h1.791v-4.13a.542.542 0 0 0-.523-.526"/>
  <path fill="#8FBCBB" d="M226.598 345.891l2.179 1.768h6.146c.187 0 .357.174.357.357v6.339a.375.375 0 0 1-.357.358h-9.81a.38.38 0 0 1-.356-.358v-.991l-1.783-1.57v4.159c0 .278.238.522.524.522h4.766v1.768h-3.527V360h10.583v-1.758h-3.527v-1.768h4.757c.278 0 .534-.244.534-.522v-9.536a.544.544 0 0 0-.534-.525"/>
  <path fill="#EBCB8B" d="M217.666 345.891l7.938 7.055v-4.403l6.172 2.645-8.817-7.057v3.308l-5.289-1.547"/>
  <path fill="#2E3440" d="M696.338 144.51c12.924 0 23.399 10.477 23.399 23.398 0 12.924-10.476 23.401-23.399 23.401s-23.4-10.478-23.4-23.401c0-12.922 10.476-23.398 23.4-23.398z"/>
  <path fill-opacity=".1" d="M685.382 158.283v21.252a1.33 1.33 0 0 0 1.329 1.328h9.867v-23.911h-9.867a1.33 1.33 0 0 0-1.329 1.331zm12.712 22.58h9.867a1.33 1.33 0 0 0 1.329-1.328v-11.16h-11.196v12.488zm9.867-23.911h-9.867v9.907h11.196v-8.576a1.33 1.33 0 0 0-1.329-1.331z"/>
  <path fill-opacity=".1" d="M686.711 180.863h21.25a1.33 1.33 0 0 0 1.329-1.328v-.771h-23.908v.771c0 .733.595 1.328 1.329 1.328z"/>
  <path fill="#3B4252" d="M684.387 157.283v21.253c0 .731.592 1.327 1.323 1.327h9.87v-23.904h-9.87c-.731 0-1.323.594-1.323 1.324z"/>
  <path fill="#4C566A" d="M697.094 179.863h9.871c.732 0 1.323-.596 1.323-1.327V167.38h-11.194v12.483z"/>
  <path fill="#434C5E" d="M706.965 155.959h-9.871v9.906h11.194v-8.582c0-.73-.591-1.324-1.323-1.324z"/>
  <path fill="#88C0D0" d="M685.71 179.863h21.255c.732 0 1.323-.596 1.323-1.327v-.772h-23.901v.772c0 .732.592 1.327 1.323 1.327z"/>
  <path fill="#2E3440" d="M644.037 182.029c11.197 0 20.278 9.08 20.278 20.279 0 11.2-9.081 20.28-20.278 20.28-11.2 0-20.281-9.08-20.281-20.28 0-11.199 9.081-20.279 20.281-20.279z"/>
  <path fill="#1D1D1B" fill-opacity=".1" d="M654.718 213.097a34.286 34.286 0 0 0-.282-1.463c-.068-.286-.133-.56-.202-.821l-.097-.356c-.027-.093-.06-.172-.084-.241-.26-.682-.63-1.215-1.1-1.59-.078-.064-.16-.117-.242-.17l.061-.024-.253-.659h.685c.282 0 .431-.142.431-.428v-4.024c0-.04-.012-.074-.021-.108l1.014.164.232-1.412c-.031-.005-.066-.008-.096-.017a1.332 1.332 0 0 1-.91-.563 1.36 1.36 0 0 1-.247-1.038c.063-.385.251-.685.563-.91.313-.23.661-.312 1.043-.246.029.004.059.01.093.014l.802-4.961c.07-.682-.15-1.334-.656-1.943-.015-.015-.021-.027-.031-.034a3.62 3.62 0 0 0-.314-.336 5.137 5.137 0 0 0-1.398-.947l-.03-.019a6.376 6.376 0 0 0-.733-.275c-.073-.019-.148-.045-.224-.063a7.255 7.255 0 0 0-.717-.152 7.875 7.875 0 0 0-.968-.094c-.077 0-.156-.002-.234 0a8.75 8.75 0 0 0-.542.031 5.204 5.204 0 0 0-2.032.662l-.037.021c-.688.419-1.107.959-1.266 1.623-.015.053-.022.111-.036.182-.011.045-.014.086-.02.126l-.354-.923c-.098-.271-.283-.352-.554-.25l-1.136.433c-.264.103-.345.29-.247.556l.114.293-2.141-.982c-.264-.117-.459-.027-.594.264l-.713 1.571-.356.783-3.706 8.124h-2.847c-.285 0-.426.148-.426.427v4.024c0 .286.141.428.426.428h.624l-1.215 2.671a.654.654 0 0 0-.068.247c.004.014 0 .036 0 .043 0 .012.004.018.004.023a.36.36 0 0 0 .068.167l.752 2.417.333 1.087 1.032-.454 2.392-1.053c.018-.007.038-.017.054-.021a.561.561 0 0 0 .219-.272l2.213-4.855h7.204l-.431 2.668c-.13.082-.254.25-.389.523a3.447 3.447 0 0 0-.324.955l.143 3.264c-.07.438.115.693.554.765l.72.116c.441.069.699-.11.768-.549l1.171-3.049c.058-.361.051-1.275-.208-1.631l.447-2.796.436 1.139.125-.048c-.023.09-.049.183-.066.289-.059.328-.055.676.008 1.038.047.286.125.578.242.872.26.688.627 1.219 1.094 1.592a.559.559 0 0 0 .092.066c.248.184.535.345.863.475l2.17.883c-.3-.147-.515-.567-.645-1.249zm-3.472-10.269l.406.064h-.42l.014-.064zm-4.256.065h-4.025l2.711-5.939.261-.568.274.717-.041.251-.054.364c.029.004.058.008.087.014.107.014.191.065.288.102l.728 1.895a1.352 1.352 0 0 1-1.461.762c-.035-.006-.061-.012-.092-.019l-.229 1.419 2.775.446.215.558h-1.437z"/>
  <path fill="#88C0D0" d="M646.127 201.971h-1.446v1.629h-.263v-1.629h-1.446v.922h-.26v-.922h-.608l-2.223 4.88h12.458c.284 0 .433-.141.433-.427v-4.02c0-.283-.148-.434-.433-.434h-.833v1.629h-.257v-1.629h-1.451v.948h-.254v-.948h-1.449v1.629h-.26v-1.629h-1.448v.948h-.26v-.947zm-11.948 0h-.706c-.283 0-.427.15-.427.434v4.02c0 .286.144.427.427.427h.625l1.793-3.932h-.006v-.948h-1.454v1.629h-.252v-1.63z"/>
  <path fill="#4C566A" d="M636.32 201.971h-.183v.395l.183-.395z"/>
  <path fill="#88C0D0" d="M650.094 208.207c-.022.092-.049.186-.065.293-.059.326-.054.678.005 1.037.045.285.124.577.239.871.267.688.632 1.221 1.1 1.593.028.028.058.048.089.071.251.178.539.338.865.474l2.172.878c-.301-.145-.512-.56-.643-1.246a33.258 33.258 0 0 0-.285-1.465 21.016 21.016 0 0 0-.201-.82l-.095-.355c-.028-.094-.061-.173-.083-.238-.262-.687-.63-1.219-1.1-1.59-.08-.07-.161-.121-.242-.174l-1.756.671z"/>
  <path fill="#4C566A" d="M643.963 191.365c-.267.107-.347.289-.248.554l.113.294 1.865.849c.262.118.322.327.188.617l-.713 1.571-.094.215 2.492 6.506h.268v1.629h.26v-1.629h1.449v.948h.254v-.948h-.01l-4.135-10.79c-.099-.267-.289-.351-.555-.25l-1.134.434zm.718 10.606h-.263v1.629h.263v-1.629zm1.706 0h-.26v.948h.26v-.948zm5.118.008h-.257v1.62h.257v-1.62zm-17.074-.008h-.252v1.629h.252v-1.629zm1.707 0h-.253v.948h.006l.247-.554v-.394zm6.834 0h-.26v.922h.26v-.922zm6.998 6.285l.124-.049 1.756-.672.056-.02-.249-.665h-2.219l.532 1.406z"/>
  <path fill="#88C0D0" d="M645.881 193.679c.135-.29.074-.499-.188-.617l-1.865-.849-2.145-.977c-.259-.118-.453-.033-.59.258l-.713 1.57 1.627.747 1.621.735 1.539.703.714-1.57zm-9.554 17.442a1.058 1.058 0 0 0-.302.182c-.019.02-.047.047-.064.07l-.007.008h-.002c.002-.004.002-.004.007-.006 0-.012 0-.02.002-.031a.867.867 0 0 0-.063-.396.861.861 0 0 0-.477-.514.902.902 0 0 0-.708-.025.927.927 0 0 0-.396.28l-.004.017-.002-.002-.002-.003.016-.037c.005-.022.007-.056.011-.075a.835.835 0 0 0-.063-.398.857.857 0 0 0-.479-.51.88.88 0 0 0-.7-.027 1.03 1.03 0 0 0-.285.162c0 .01.004.016.006.021.01.061.028.119.069.17l.751 2.418c.233.016.476.084.72.203.26.115.472.255.648.43l2.391-1.056c.016-.009.039-.016.053-.022a.523.523 0 0 0 .115-.104 1.073 1.073 0 0 0-.054-.213.893.893 0 0 0-.479-.51.894.894 0 0 0-.702-.032z"/>
  <path fill="#3B4252" d="M645.074 195.465l.094-.215-1.539-.703-.363.782 1.543.704.265-.568z"/>
  <path fill="#4C566A" d="M640.381 193.064l-.361.787 1.631.743.357-.783-1.627-.747z"/>
  <path fill="#434C5E" d="M642.008 193.812l-.357.783 1.615.734.363-.782-1.621-.735z"/>
  <path fill="#8FBCBB" d="M641.65 194.595l-1.631-.743-3.699 8.119-.183.395-.247.554-1.793 3.932-1.217 2.673a.7.7 0 0 0-.071.252c.004.008 0 .029 0 .039a1.03 1.03 0 0 1 .285-.162.88.88 0 0 1 .7.027.852.852 0 0 1 .479.51.85.85 0 0 1 .063.398c-.004.02-.006.053-.011.075l7.325-16.069z"/>
  <path fill="#81A1C1" d="M643.266 195.329l-1.615-.734-7.324 16.068-.016.037.002.003.002.002.004-.017a.927.927 0 0 1 .396-.28.902.902 0 0 1 .708.025.862.862 0 0 1 .477.514.884.884 0 0 1 .063.396c-.002.012-.002.02-.002.031-.005.002-.005.002-.007.006h.002l.007-.008 7.303-16.043z"/>
  <path fill="#5E81AC" d="M636.025 211.303c.088-.073.188-.139.302-.182a.898.898 0 0 1 .702.031.887.887 0 0 1 .479.51c.026.078.046.148.054.213a.631.631 0 0 0 .104-.168l2.214-4.856 2.223-4.88 2.705-5.938-1.543-.704-7.305 16.044c.019-.023.047-.051.065-.07z"/>
  <path fill="#4C566A" d="M635.004 213.057a2.149 2.149 0 0 0-.648-.43 1.931 1.931 0 0 0-.72-.203l.335 1.084 1.033-.451z"/>
  <path fill="#D8DEE9" d="M651.111 197.408c.076-.441-.111-.697-.549-.769l-1.118-.18c-.439-.073-.688.112-.761.553l-.747 4.601 2.144 2.145 1.031-6.35z"/>
  <path fill="#E5E9F0" d="M646.654 209.52c-.131.082-.26.256-.389.525a3.336 3.336 0 0 0-.325.957l.143 3.259c-.069.438.113.696.551.766l.724.116c.44.069.695-.11.768-.549l1.165-3.049c.063-.361.056-1.275-.206-1.632l.996-6.155-2.144-2.145-1.283 7.907z"/>
  <path fill="#81A1C1" d="M654.589 191.378c-.014-.013-.021-.022-.036-.032l-.824 5.105a.642.642 0 0 1-.27.432.636.636 0 0 1-.494.116l-.59-.098a.652.652 0 0 1-.552-.761l.987-6.094a5.97 5.97 0 0 0-.728-.275l-1.018 6.246a.632.632 0 0 1-.266.435.64.64 0 0 1-.493.116l-.593-.099a.624.624 0 0 1-.433-.265.607.607 0 0 1-.118-.495l1.012-6.252c-.078 0-.156-.002-.234 0a4.988 4.988 0 0 0-.543.036l-.99 6.094a.642.642 0 0 1-.271.432.65.65 0 0 1-.494.117l-.589-.098a.624.624 0 0 1-.436-.268.63.63 0 0 1-.115-.494l.826-5.104c-.688.42-1.107.959-1.266 1.623-.016.053-.024.113-.036.182a1.654 1.654 0 0 0-.026.182l-.691 4.273-.061.363.094.013c.379.058.686.25.912.563.221.313.305.658.246 1.037a1.356 1.356 0 0 1-.563.911 1.32 1.32 0 0 1-1.044.247.673.673 0 0 0-.09-.013l-.232 1.413 9.191 1.486.232-1.411c-.033-.007-.063-.011-.092-.018a1.31 1.31 0 0 1-.91-.561 1.36 1.36 0 0 1-.248-1.04c.063-.385.252-.685.564-.91a1.337 1.337 0 0 1 1.041-.246c.031.004.059.012.088.019l.809-4.965c.068-.68-.149-1.33-.656-1.942z"/>
  <path fill="#5E81AC" d="M654.553 191.346a3.582 3.582 0 0 0-.313-.338 5.168 5.168 0 0 0-1.431-.961l-.987 6.094a.65.65 0 0 0 .113.495.661.661 0 0 0 .439.266l.59.098a.638.638 0 0 0 .494-.116.647.647 0 0 0 .27-.432l.825-5.106zm-2.698-1.641a7.657 7.657 0 0 0-1.682-.247l-1.012 6.252a.607.607 0 0 0 .118.495.63.63 0 0 0 .433.265l.593.099a.643.643 0 0 0 .493-.116.637.637 0 0 0 .266-.435l1.018-6.246c-.074-.024-.149-.043-.227-.067zm-4.119.25c-.131.06-.256.129-.371.197-.015.008-.025.016-.037.021l-.826 5.104a.628.628 0 0 0 .115.494c.105.148.249.24.436.268l.589.098a.65.65 0 0 0 .494-.117.647.647 0 0 0 .271-.432l.99-6.094a5.121 5.121 0 0 0-1.661.461z"/>
  <path fill="#2E3440" d="M753.373 264.146c12.346 0 22.359 10.012 22.359 22.359 0 12.35-10.014 22.361-22.359 22.361-12.348 0-22.361-10.012-22.361-22.361 0-12.347 10.013-22.359 22.361-22.359z"/>
  <path d="M746.039 276.92l-7.894 7.218v3.614l7.894 7.215v-5.416l-3.949-3.602 3.949-3.613v-5.416zm13.538 0l7.896 7.218v3.614l-7.896 7.215v-5.416l3.95-3.602-3.95-3.613v-5.416zm-4.887 0h3.759l-7.521 18.047h-3.762l7.524-18.047z" fill="#88C0D0"/>
  <path fill="#2E3440" d="M159.013 278.03c15.509 0 28.081 12.571 28.081 28.079 0 15.51-12.572 28.081-28.081 28.081-15.505 0-28.078-12.571-28.078-28.081 0-15.507 12.572-28.079 28.078-28.079z"/>
  <path opacity=".1" d="M172.937 289.038a.62.62 0 0 0-.266.024l-25.95 8.238c-.258.08-.476.313-.593.586a.635.635 0 0 0-.091.326v8.477c0 .129.041.236.091.328.117.271.334.503.593.587l11.019 3.497-11.019 3.494c-.378.119-.684.556-.684.976v8.418c0 .412.306.653.684.531l25.95-8.235c.375-.113.684-.55.686-.968l.002-.015v-8.416c0-.418-.306-.854-.686-.972l-10.907-3.464 10.905-3.461c.375-.121.686-.556.686-.97V289.6c0-.307-.176-.522-.42-.562z"/>
  <path fill="#5E81AC" d="M171.987 305.533c0-.42-.306-.656-.682-.539l-25.95 8.236c-.377.121-.687.556-.687.97v8.419c0 .416.309.656.687.539l25.95-8.238c.375-.119.682-.553.682-.971v-8.416z"/>
  <path opacity=".1" d="M157.742 309.301l-2.833.898 15.636 4.965.758-.244c.378-.119.687-.553.687-.971v-.13l-14.248-4.518z"/>
  <path fill="#81A1C1" d="M144.668 305.263c0 .417.309.854.687.974l25.953 8.237c.377.114.687-.122.687-.54v-8.417c0-.418-.309-.852-.687-.97l-25.953-8.236c-.377-.122-.687.119-.687.534v8.418z"/>
  <path fill="#88C0D0" d="M171.987 288.234c0-.415-.306-.656-.682-.537l-25.95 8.236c-.377.118-.687.555-.687.973v8.414c0 .418.309.656.687.541l25.95-8.236c.375-.121.682-.556.682-.973v-8.418z"/>
  <path fill="#5E81AC" d="M795.01 229.099c-1.776.73-3.137 2.598-4.57 4.257-2.665 4.433.284 6.998 3.23 9.558.003 0 .003-.002.005-.002a25.852 25.852 0 0 0 2.3-2.826c.002-.003.002-.003 0-.005.348-.495.674-1.003.987-1.52v-.002c.315-.523.604-1.05.875-1.591a25.496 25.496 0 0 0 1.929-5.096c.153-.586.282-1.18.393-1.783h.002v-.002c-2.128-1.441-3.768-1.559-5.15-.988z"/>
  <path fill="#88C0D0" d="M761.407 240.806c-1.388.4-2.593 1.362-3.466 3.477a25.335 25.335 0 0 0 4.345 3.193v.005c.514.3 1.045.586 1.58.846a24.25 24.25 0 0 0 3.318 1.36l.003.001a25.43 25.43 0 0 0 1.729.498l.002.003a24.3 24.3 0 0 0 1.763.372v.002l.003.003c1.359-3.453 1.466-6.98-3.124-9.723l-.283-.04c-2.012-.1-4.084-.508-5.87.003z"/>
  <path fill="#81A1C1" d="M766.754 225.51c-3.272.777-4.018 4.83.699 15.504 1.021 3.128 2.18 6.399 3.256 9.545 1.462.268 2.919.412 4.406.422.437 0 .875-.015 1.314-.032l.002-.002a25.664 25.664 0 0 0 5.189-.824c.424-.11.838-.235 1.255-.364l.009-.002c.385-.13.767-.26 1.15-.401a25.516 25.516 0 0 0 9.64-6.444c.064-.066.123-.142.182-.212l-3.227-9.436c-5.93-1.281-18.416-9.057-23.875-7.754zm12.531-25.121v.005c-1.391 3.981-.317 7.261 3.32 9.804 4.15 1.195 8.237 2.239 9.811-3.35 0-.005.002-.007.005-.012a25.576 25.576 0 0 0-6.093-4.188 25.687 25.687 0 0 0-3.43-1.384 25.875 25.875 0 0 0-3.611-.875h-.002z"/>
  <path fill="#88C0D0" d="M756.418 208.23a23.23 23.23 0 0 0-1.21 1.41 25.176 25.176 0 0 0-2.955 4.675 25.418 25.418 0 0 0-2.248 7.02c.003.002.006.002.01.001l-.004.004c2.388-.14 2.888 1.9 9.703-3.323 1.068-3.64-.297-6.858-3.294-9.782l-.002-.005z"/>
  <path fill="#8FBCBB" d="M767.32 201.257c-.485.158-.96.33-1.43.513-.078.03-.155.066-.234.097-.435.17-.867.36-1.293.558a25.44 25.44 0 0 0-7.942 5.809c-.002-.001-.001-.004-.004-.006-.029.028-.047.057-.076.082l3.263 9.545c9.845 3.51 17.227.07 23.004-7.658l.11-.207-3.268-9.57c-.056-.011-.109-.026-.165-.033 0 .002 0 .007-.003.007a25.293 25.293 0 0 0-4.165-.373l-.003.003c-.063 0-.125.004-.183.004-.524.003-1.044.027-1.564.067a8.521 8.521 0 0 0-.502.042c-.515.047-1.026.104-1.538.18-.1.017-.2.028-.297.046-.514.083-1.02.185-1.52.301a27.244 27.244 0 0 0-2.075.558c-.034.012-.071.017-.112.032l-.004.003z"/>
  <path fill="#88C0D0" d="M782.716 209.99c-2.161 8.385-.214 16.321 7.913 23.274l9.53-3.172h.001v-.002c.143-.756.25-1.516.32-2.277 0 0-.002 0-.002-.003a24.6 24.6 0 0 0 .115-2.297 30.632 30.632 0 0 0-.035-1.33c-.027-.442-.06-.88-.106-1.318a25.96 25.96 0 0 0-1.091-5.151l-.004-.004a25.42 25.42 0 0 0-6.942-10.86c.002-.005.005-.01.004-.012-.043-.042-.092-.077-.136-.124l-9.567 3.275z"/>
  <path fill="#5E81AC" d="M750.053 221.115c-.014.079-.037.145-.047.221h.01l-.01.006a25.39 25.39 0 0 0-.371 4.107l-.002.047s.002 0 .002.002c0 .445.014.889.034 1.331l.003.002a25.5 25.5 0 0 0 .83 5.217v.003a25.712 25.712 0 0 0 1.87 4.898 25.229 25.229 0 0 0 2.042 3.367v.004a25.545 25.545 0 0 0 1.655 2.067l.001.001c.293.326.594.65.905.965v.003c.311.317.636.626.962.926h.008l9.506-3.265c.508-10.061-2.1-18.047-7.74-23.001l-.108-.16-9.55 3.26z"/>
  <path fill="#2E3440" d="M767.451 241.013l23.176-7.752-7.913-23.275-23.113 7.865 7.845 23.162h.005z"/>
  <path fill="#88C0D0" d="M775.355 234.154c-2.59 0-5.525-1.068-6.738-2.209 0 0-.08-.398.404-1.515.486-1.122.984-1.621.984-1.621 1.538 1.278 3.477 2.024 5.426 1.9 1.578-.095 2.191-.657 2.191-1.67v-.048c0-.962-.544-1.494-3.17-1.914-3.998-.637-5.802-1.941-5.802-5.362v-.049c0-3.124 2.628-5.244 6.121-5.244 2.492 0 4.796.362 6.53 1.765 0 0-.28.957-.629 1.687-.357.746-.873 1.432-.873 1.432-1.516-1.056-2.963-1.407-4.404-1.407-1.439 0-2.567.803-2.567 1.645v.049c0 1.133.655 1.679 3.845 2.093 3.557.466 5.236 2.078 5.236 5.079v.049c0 3.428-2.865 5.348-6.555 5.348"/>
  <path fill="#2E3440" d="M120.192 206.367c14.36 0 26 11.643 26 26 0 14.359-11.64 26-26 26s-26-11.641-26-26c0-14.357 11.64-26 26-26z"/>
  <path fill="#88C0D0" d="M128.827 216.828h-8.061c2.455.57 8.061 1.855 8.061 2.877 0 2.175-10.362-.573-12.663-.573-1.151 0-3.45.192-3.453 1.727-.009 4.026 5.412 7.479 9.209 9.783-2.645-.767-5.066-1.149-7.368-1.149-2.994 0-8.747 1.149-8.747 5.182 0 3.558 7.214 6.838 9.208 7.479 3.464 1.115 9.208 1.721 9.208 2.302 0 .579-4.603 1.15-10.362 1.15h-3.452c2.304 1.156 5.757 1.156 9.211 1.156l3.452-.003c2.302-.002 8.056-.086 8.056-2.072 0-1.732-6.905-3.202-10.359-3.915-4.815-.993-8.313-2.926-8.056-4.37.613-3.469 9.209-3.454 16.116-3.454-3.013-2.423-10.362-6.907-10.362-8.866 0-.835 1.153-1.031 2.302-1.033 4.605-.027 8.061.974 9.213.974 2.3 0 3.45-1.435 3.45-3.162 0-2.882-3.451-4.033-4.603-4.033z"/>
  <path fill="#2E3440" d="M179.83 162.239c13.209 0 23.92 10.711 23.92 23.919s-10.711 23.922-23.92 23.922c-13.21 0-23.921-10.714-23.921-23.922s10.711-23.919 23.921-23.919z"/>
  <path fill="#88C0D0" d="M181.904 173.16h.004c6.913 0 12.48 5.568 12.48 12.48v.004a12.454 12.454 0 0 1-12.48 12.477h-.004a12.451 12.451 0 0 1-12.476-12.477v-.004c0-6.911 5.568-12.48 12.476-12.48"/>
  <path fill="#81A1C1" d="M176.711 173.16a12.453 12.453 0 0 0-12.48 12.48c0 6.913 5.565 12.48 12.48 12.48.352 0 .689-.037 1.039-.068-6.419-.529-11.439-5.855-11.439-12.414 0-6.558 5.02-11.883 11.439-12.412-.35-.031-.688-.072-1.039-.072"/>
  <path fill="#D8DEE9" d="M170.563 180.439a12.71 12.71 0 0 0-.748 2.083h24.181a12.71 12.71 0 0 0-.748-2.083m-23.756 4.161c-.028.353-.068.689-.068 1.041 0 .355.038.689.068 1.042h24.828c.026-.353.065-.687.065-1.042 0-.352-.037-.688-.065-1.041m-24.505 4.16c.187.725.447 1.414.748 2.081h22.685c.305-.667.563-1.356.748-2.081"/>
  <path fill="#2E3440" d="M700.943 221.617c13.785 0 24.961 11.175 24.961 24.959 0 13.785-11.176 24.961-24.961 24.961-13.783 0-24.959-11.176-24.959-24.961 0-13.784 11.176-24.959 24.959-24.959z"/>
  <path fill="#88C0D0" d="M710.152 243.041v-2.831h-8.5v2.831"/>
  <path fill="#D8DEE9" d="M710.152 262.875v-2.833h-8.5v2.833m-8.968-.965l-2.365-2.405 5.32-4.211-5.32-4.206 2.365-2.398 7.979 6.6-7.979 6.611"/>
  <path fill="#88C0D0" d="M692.684 242.091l-2.365-2.409 5.32-4.204-5.32-4.208 2.365-2.409 7.979 6.61-7.979 6.609"/>
  <path fill="#2E3440" d="M115.757 119.6c18.955 0 34.321 15.363 34.321 34.318 0 18.957-15.366 34.32-34.321 34.32s-34.319-15.363-34.319-34.32c-.001-18.955 15.364-34.318 34.319-34.318z"/>
  <path fill="#88C0D0" d="M108.813 136.012c-.442-.014-.858.029-1.138.123-1.355.471-2.208 1.485-2.682 3.18-.405 1.475-.394 4.131.031 6.441.074.402.151.768.168.826.023.084-.123.132-.765.28-3.136.725-5.427 1.81-6.805 3.214-.617.625-.96 1.172-1.159 1.861-.14.48-.14 1.43 0 1.9.385 1.299 1.47 2.521 3.185 3.599 1.188.745 1.544.827 1.929.439.179-.183.22-.271.22-.491 0-.426-.128-.596-.688-.922-3.51-1.996-4.127-4.003-1.783-5.788 1.19-.904 2.854-1.618 5.09-2.171.982-.244 1.202-.275 1.202-.144 0 .177.722 2.515 1.096 3.526l.385 1.053-.508.993c-2.028 3.966-3.33 8.007-3.484 10.964-.128 2.277.277 3.906 1.27 4.917 1.084 1.098 2.61 1.332 4.574.696.742-.243 2.211-1 3.068-1.587.616-.419.756-.542.836-.762.083-.22.083-.292 0-.52-.123-.345-.38-.536-.728-.536-.226 0-.383.074-.968.473-1.32.91-2.565 1.479-3.595 1.656-1.427.244-2.342-.393-2.762-1.9-.183-.658-.171-2.758.029-3.842.302-1.729.833-3.521 1.592-5.411.448-1.122 1.304-2.998 1.421-3.118.057-.068.134.037.325.488.981 2.228 2.477 4.947 3.943 7.15 3.49 5.248 7.316 8.661 10.261 9.152l-.031.006c1.293.211 2.386-.112 3.23-.968.69-.708 1.142-1.706 1.401-3.09.157-.868.157-3.3 0-4.479-.477-3.536-1.752-7.581-3.658-11.619-.297-.632-.462-.79-.848-.79a.764.764 0 0 0-.779.758c0 .148.146.545.392 1.073 2.348 5.067 3.609 9.971 3.48 13.521-.077 2.111-.599 3.387-1.586 3.875-.517.26-1.173.252-2.035-.034-3.96-1.355-9.325-8.139-12.781-16.165l-.343-.803.503-.864c.564-.984 1.991-3.187 2.65-4.091l.442-.6h1.167c7.085 0 14.099 1.621 17.817 4.108.759.509 1.672 1.433 1.946 1.974.2.381.217.48.217.979 0 .491-.017.61-.18.911-.457.885-1.655 1.803-3.202 2.459-.716.307-.91.508-.91.926a.79.79 0 0 0 .573.756c.223.064.297.053.693-.106 2.494-.999 4.209-2.549 4.558-4.117.1-.425.094-1.222-.003-1.636-.188-.811-.856-1.846-1.618-2.545-3.407-3.092-10.629-5.087-19.198-5.293l-.61-.02.716-.812a38.448 38.448 0 0 1 1.541-1.694c2.437-2.507 4.7-4.148 6.677-4.831.631-.226.756-.251 1.41-.251.607 0 .756.018 1.019.154.356.172.756.591.961.986.402.809.536 2.227.345 3.736-.065.52-.117 1.119-.117 1.327 0 .349.011.403.208.573.162.154.273.191.485.191.339 0 .654-.18.745-.428.28-.73.425-3.321.246-4.415-.28-1.677-.99-2.808-2.124-3.356-1.997-.98-4.901-.021-8.292 2.728-1.77 1.439-4.106 3.882-5.712 5.968l-.157.186-.95.058c-.799.046-2.1.174-3.609.356l-.326.039-.142-.807c-.274-1.607-.297-1.851-.297-3.39 0-1.354.02-1.613.148-2.153.314-1.369.939-2.219 1.76-2.396 1.13-.241 2.534.331 4.506 1.81.631.479 1.398.07 1.301-.685-.037-.329-.339-.612-1.341-1.29-.839-.574-1.783-1.045-2.554-1.274a5.101 5.101 0 0 0-1.287-.192l-.007-.003zm1.507 11.613c0 .031-.265.447-.599.944-.334.49-.804 1.21-1.05 1.618a12.11 12.11 0 0 1-.519.808c-.063.069-.157-.12-.442-1.038-.408-1.268-.582-1.953-.531-2.01.089-.091 3.141-.412 3.141-.322zm6.187 4.799c-1.235 0-2.237 1-2.237 2.24a2.24 2.24 0 0 0 4.477 0 2.24 2.24 0 0 0-2.24-2.24z"/>
  <path fill="#2E3440" d="M38.703 218.8c17.23 0 31.2 13.968 31.2 31.198 0 17.234-13.97 31.201-31.2 31.201-17.232 0-31.2-13.967-31.2-31.201 0-17.23 13.968-31.198 31.2-31.198z"/>
  <path fill-opacity=".1" d="M21.717 236.404l-.679.681v1.356l.679.678h2.034v26.452l.678.677h2.036l29.842-27.807v-1.356l-.679-.681H43.419l-.678.681v1.356l.678.678h2.036v1.355l-14.921 13.567v-14.923h2.034l.678-.678v-1.356l-.678-.681H21.717zm20.883 16.28l-.961.68-.455 1.355.508.678h1.466l.962-.678.454-1.355-.506-.68m-4.987 4.07l-.41 1.357h1.222l-2.579 6.781h4.07l.501-1.357h-1.178l2.576-6.781m1.628 0l-.475 1.357h1.016l-2.576 6.781h3.459l.474-1.357h-.747l1.427-4.069h2.881l-1.935 5.427h3.393l.542-1.357h-.744l1.424-4.069h2.71l-1.899 5.427h3.557l.621-1.357h-.948l1.928-5.424-1.088-1.357h-1.626l-1.356 1.357h-1.151l-1.155-1.357h-1.289l-1.288 1.357h-1.358l-1.219-1.357"/>
  <path fill="#88C0D0" d="M20.389 235.076l-.68.68v1.357l.68.676h2.033v26.453l.679.678h2.036l29.843-27.807v-1.357l-.68-.68H42.092l-.678.68v1.357l.678.676h2.036v1.357l-14.921 13.566v-14.924h2.033l.679-.676v-1.357l-.679-.68H20.389zm20.883 16.28l-.962.68-.456 1.354.51.681h1.464l.963-.681.454-1.354-.506-.68m-4.987 4.07l-.408 1.358h1.221l-2.578 6.778h4.07l.5-1.354H39.38l2.575-6.782m1.628 0l-.476 1.358h1.018l-2.576 6.778h3.458l.475-1.354h-.748l1.427-4.072h2.883l-1.936 5.427h3.394l.542-1.354h-.746l1.426-4.072h2.711l-1.899 5.427h3.556l.623-1.354h-.949l1.927-5.424-1.087-1.358h-1.625l-1.357 1.358H52.47l-1.154-1.358h-1.29l-1.286 1.358h-1.36l-1.219-1.358"/>
  <path fill="#2E3440" d="M86.786 317.797c16.658 0 30.161 13.504 30.161 30.16 0 16.658-13.503 30.16-30.161 30.16-16.655 0-30.159-13.502-30.159-30.16 0-16.656 13.504-30.16 30.159-30.16z"/>
  <path d="M101.863 360.414v-5.244H86.128v5.244m-12.134-5.244l-3.596-3.813 8.092-6.677-8.092-6.676 3.596-3.813 12.14 10.489" fill="#88C0D0"/>
  <path fill="#2E3440" d="M780.41 119.898c17.808 0 32.24 14.434 32.24 32.238 0 17.808-14.433 32.241-32.24 32.241-17.807 0-32.239-14.434-32.239-32.241 0-17.804 14.432-32.238 32.239-32.238z"/>
  <path fill-opacity=".1" d="M799.623 138.996l-8.503-3.33-14.84 14.116-8.938-6.645-3.398 1.669-.003 17.426 3.383 1.658 8.929-6.639 14.878 14.104 8.495-3.316-.003-29.043zm-31.431 18.253l-.006-7.461 4.25 3.704-4.244 3.757zm13.591-3.758l8.492-6.201.002 12.452-8.494-6.251z"/>
  <path fill="#88C0D0" d="M798.25 137.623l-8.502-3.33-14.842 14.117-8.937-6.645-3.399 1.669-.002 17.426 3.383 1.659 8.93-6.641 14.877 14.104 8.496-3.316-.004-29.043zm-31.43 18.254l-.006-7.461 4.248 3.704-4.242 3.757zm13.59-3.76l8.492-6.199.003 12.451-8.495-6.252z"/>
  <path fill="#2E3440" d="M850.859 218.82c16.369 0 29.639 13.27 29.639 29.639 0 16.371-13.27 29.641-29.639 29.641-16.372 0-29.643-13.27-29.643-29.641.001-16.369 13.271-29.639 29.643-29.639z"/>
  <path fill="#3B4252" d="M834.513 231.062h33.508v33.509h-33.508v-33.509z"/>
  <path fill="#8FBCBB" d="M847.402 237.506v-2.577h-7.736v2.577h2.58v9.02h-2.58v2.58h7.736v-2.58h-2.58v-9.02m8.496 11.576c-1.559-.18-2.652-1.195-3.633-2.09l1.564-1.768c.512.533 1.287 1.174 2.09 1.28.804.105 1.839.017 2.461-.507.621-.529.621-1.244.621-2.096v-8.974h2.574l-.004 9.128c.004 1.814-.684 3.039-1.322 3.723-1.017 1.042-2.334 1.148-3.564 1.317"/>
  <path fill="#D8DEE9" d="M837.092 258.125h12.887v2.577h-12.887v-2.577z"/>
  <path fill="#2E3440" d="M806.412 297.258c16.945 0 30.68 13.734 30.68 30.681 0 16.943-13.734 30.679-30.68 30.679s-30.68-13.735-30.68-30.679c0-16.947 13.735-30.681 30.68-30.681z"/>
  <path fill="#3B4252" d="M813.539 308.347h-19.678a2.798 2.798 0 0 0-2.799 2.798v33.588a2.8 2.8 0 0 0 2.799 2.798h25.102a2.8 2.8 0 0 0 2.799-2.798V316.57l-8.223-8.223z"/>
  <path opacity=".1" d="M816.151 310.957h-19.677a2.8 2.8 0 0 0-2.799 2.801v33.586a2.8 2.8 0 0 0 2.799 2.798h25.101a2.8 2.8 0 0 0 2.798-2.798V319.18l-8.222-8.223z"/>
  <path fill="#88C0D0" d="M806.412 332.138c-2.318 0-4.199-1.882-4.199-4.199s1.881-4.199 4.199-4.199 4.199 1.882 4.199 4.199-1.881 4.199-4.199 4.199m7.127-18.368c0 1.547 1.252 2.8 2.798 2.8h5.425l-8.223-8.223v5.423z"/>
  <path fill="#2E3440" d="M622.487 119.012H263.271a7.392 7.392 0 0 0-7.391 7.392v28.382h373.997v-28.382a7.39 7.39 0 0 0-7.39-7.392z"/>
  <path fill="#ECEFF4" d="M622.487 316.406H263.271a7.39 7.39 0 0 1-7.391-7.391v-154.23h373.997v154.23a7.39 7.39 0 0 1-7.39 7.391z"/>
  <g fill="#D8DEE9">
    <circle cx="325.511" cy="136.899" r="6.194"/>
    <circle cx="305.755" cy="136.899" r="6.194"/>
    <circle cx="286.001" cy="136.899" r="6.194"/>
  </g>
  <path fill="#5E81AC" d="M388.633 182.627l-5.602 17.227a1.508 1.508 0 0 1-1.903.967l-48.817-15.859a1.519 1.519 0 0 1-.973-1.902l5.602-17.229a1.51 1.51 0 0 1 1.902-.967l48.817 15.86c.79.26 1.234 1.112.974 1.903z"/>
  <path fill="#D8DEE9" d="M343.59 223.545l.931-2.869-8.616-2.799-2.799 8.617 2.877.936-.937 2.865-2.87-.931-2.798 8.616 2.87.932-.936 2.87-2.87-.931-2.33 7.176a4.53 4.53 0 0 0 2.907 5.71 4.536 4.536 0 0 0 5.705-2.913l4.195-12.916-2.871-.936.932-2.871 2.875.936 2.799-8.616-2.871-.936.932-2.871 2.875.931z"/>
  <path fill="#81A1C1" d="M401.086 188.259l-10.052-3.267-5.132 15.793a4.532 4.532 0 0 1-5.71 2.907l-15.793-5.128-14.46 44.508a3.024 3.024 0 0 0 1.938 3.805 3.025 3.025 0 0 0 3.807-1.938l1.399-4.307 1.867-5.74 1.866-5.746 2.87.931-1.867 5.745 1.436.469a4.53 4.53 0 0 0 5.705-2.912l1.867-5.741c1.028-3.167 4.445-4.903 7.611-3.879a6.041 6.041 0 0 1 3.875 7.606l-8.861 27.285a3.024 3.024 0 0 0 1.939 3.807 3.027 3.027 0 0 0 3.802-1.939l22.858-70.356a1.51 1.51 0 0 0-.965-1.903z"/>
  <g fill="#2E3440">
    <path d="M402.022 185.388l-10.317-3.349c-.053-1.861-1.237-3.583-3.114-4.191l-48.818-15.859a4.537 4.537 0 0 0-5.704 2.906l-2.329 7.182-10.052-3.266c-3.958-1.285-8.222.889-9.506 4.847l-3.594 11.05a7.555 7.555 0 0 0 3.531 8.943l26.266 14.487a4.54 4.54 0 0 1 2.116 5.366l-.79 2.434-5.746-1.867-10.729 33.025c-1.283 3.958.89 8.227 4.847 9.517 3.958 1.284 8.227-.889 9.511-4.852l10.732-33.021-5.745-1.866.79-2.438a7.557 7.557 0 0 0-3.53-8.939l-26.267-14.492a4.528 4.528 0 0 1-2.115-5.361l3.588-11.051a4.531 4.531 0 0 1 5.709-2.906l10.047 3.26-2.33 7.182a4.536 4.536 0 0 0 2.906 5.705l30.156 9.802-14.467 44.507a6.051 6.051 0 0 0 3.879 7.613c3.167 1.023 6.584-.713 7.613-3.88l1.398-4.306.931-2.875 1.435.467c3.959 1.285 8.227-.889 9.517-4.846l1.862-5.74a3.019 3.019 0 0 1 3.807-1.939 3.016 3.016 0 0 1 1.934 3.801l-8.861 27.285a6.04 6.04 0 0 0 3.881 7.607 6.043 6.043 0 0 0 7.606-3.875l22.86-70.355c.767-2.379-.537-4.943-2.908-5.712zm-57.502 35.288l-.931 2.869-2.875-.931-.932 2.871 2.871.936-2.799 8.616-2.875-.936-.932 2.871 2.871.936-4.195 12.916a4.536 4.536 0 0 1-5.705 2.913 4.529 4.529 0 0 1-2.907-5.71l2.33-7.176 2.87.931.936-2.87-2.87-.932 2.798-8.616 2.87.931.937-2.865-2.877-.936 2.799-8.617 8.616 2.799zm-12.21-35.715a1.519 1.519 0 0 1-.973-1.902l5.602-17.229a1.51 1.51 0 0 1 1.902-.967l48.817 15.86a1.517 1.517 0 0 1 .974 1.903l-5.602 17.227a1.508 1.508 0 0 1-1.903.967l-48.817-15.859zm69.743 5.2l-22.858 70.356a3.027 3.027 0 0 1-3.802 1.939 3.023 3.023 0 0 1-1.939-3.807l8.861-27.285a6.041 6.041 0 0 0-3.875-7.606c-3.166-1.024-6.583.712-7.611 3.879l-1.867 5.741a4.529 4.529 0 0 1-5.705 2.912l-1.436-.469 1.867-5.745-2.87-.931-1.866 5.746-1.867 5.74-1.399 4.307a3.025 3.025 0 0 1-3.807 1.938 3.024 3.024 0 0 1-1.938-3.805l14.46-44.508 15.793 5.128a4.533 4.533 0 0 0 5.71-2.907l5.132-15.793 10.052 3.267a1.514 1.514 0 0 1 .965 1.903z"/>
    <path d="M394.986 202.152l-6.994 21.534-2.876-.93 7-21.539zm-63.601 49.177l-2.87-.931.93-2.875 2.871.936zm62.593-55.869l2.875.936-.935 2.87-2.875-.936z"/>
    <path d="M332.316 248.459l-.931 2.87-2.87-.931.93-2.875zm60.704-50.102l.932-2.87 2.876.933-.931 2.87z"/>
  </g>
  <path fill="#D8DEE9" d="M413.504 285.121l-74.239 36.207a4.712 4.712 0 0 0-2.166 6.293l23.21 47.589a4.714 4.714 0 0 0 6.291 2.167l74.238-36.212a4.708 4.708 0 0 0 2.167-6.29l-23.21-47.588a4.71 4.71 0 0 0-6.291-2.166zm-37.781 84.313c-6.563 3.201-14.501.467-17.698-6.092-3.2-6.56-.47-14.502 6.093-17.699a13.231 13.231 0 0 1 6.59-1.316 1.572 1.572 0 0 1 1.473 1.66.894.894 0 0 0-.011.104c1.05.207 2.073.56 3.026 1.042.02-.027.036-.057.055-.087a1.57 1.57 0 0 1 2.184-.402 13.243 13.243 0 0 1 4.385 5.094c3.196 6.558.461 14.498-6.097 17.696zm-12.982-26.612c-6.56 3.199-14.498.465-17.698-6.094-3.2-6.56-.467-14.5 6.096-17.699 6.56-3.199 14.498-.465 17.698 6.094 3.2 6.561.463 14.5-6.096 17.699zm39.603 13.628c-6.56 3.2-14.5.466-17.697-6.093-3.201-6.56-.467-14.501 6.092-17.698 6.56-3.2 14.502-.466 17.701 6.093 3.197 6.561.463 14.499-6.096 17.698zm-12.981-26.613c-6.558 3.2-14.498.466-17.699-6.093-3.2-6.559-.464-14.501 6.096-17.698 6.559-3.2 14.498-.466 17.699 6.094 3.199 6.559.466 14.499-6.096 17.697zm39.602 13.628c-6.559 3.201-14.498.467-17.698-6.092s-.466-14.502 6.094-17.701c6.562-3.199 14.5-.463 17.7 6.096 3.197 6.559.466 14.498-6.096 17.697zm-12.979-26.611c-6.561 3.199-14.501.466-17.701-6.094-3.197-6.559-.463-14.5 6.096-17.701 6.563-3.197 14.498-.463 17.698 6.096 3.2 6.56.47 14.497-6.093 17.699z"/>
  <path fill="#BF616A" d="M352.513 321.848c-5.007 2.441-7.091 8.5-4.65 13.504 2.44 5.008 8.497 7.094 13.505 4.65 5.007-2.44 7.091-8.498 4.65-13.504-2.444-5.006-8.501-7.092-13.505-4.65z"/>
  <path fill="#D08770" d="M379.135 308.865c-5.006 2.44-7.093 8.498-4.652 13.503 2.443 5.007 8.501 7.091 13.506 4.65 5.008-2.44 7.092-8.497 4.65-13.506-2.441-5.003-8.5-7.09-13.504-4.647z"/>
  <path fill="#EBCB8B" d="M405.755 295.879c-5.004 2.441-7.091 8.5-4.647 13.504 2.44 5.008 8.498 7.094 13.505 4.65 5.005-2.439 7.091-8.5 4.65-13.504-2.443-5.006-8.501-7.091-13.508-4.65z"/>
  <path fill="#5E81AC" d="M372.166 346.09a1.567 1.567 0 0 1-1.648 1.368 10.097 10.097 0 0 0-5.026 1.003c-5.004 2.441-7.091 8.499-4.65 13.504 2.443 5.008 8.501 7.094 13.508 4.65 5.005-2.439 7.089-8.497 4.648-13.506-.76-1.56-1.917-2.9-3.343-3.885a1.561 1.561 0 0 1-.455-2.091 11.771 11.771 0 0 0-3.034-1.043z"/>
  <path fill="#88C0D0" d="M392.113 335.478c-5.006 2.44-7.09 8.499-4.648 13.503 2.439 5.007 8.5 7.091 13.506 4.65 5.004-2.44 7.091-8.498 4.646-13.505-2.439-5.005-8.497-7.091-13.504-4.648z"/>
  <path fill="#8FBCBB" d="M418.736 322.49c-5.005 2.444-7.091 8.502-4.65 13.506 2.44 5.008 8.501 7.093 13.505 4.65 5.007-2.439 7.091-8.5 4.65-13.505s-8.501-7.09-13.505-4.651z"/>
  <g fill="#082947">
    <path d="M412.128 282.302l-74.239 36.208c-3.886 1.895-5.504 6.601-3.608 10.486l23.209 47.587c1.896 3.886 6.601 5.507 10.486 3.612l74.237-36.211c3.888-1.895 5.506-6.598 3.611-10.482l-23.213-47.589c-1.895-3.886-6.594-5.507-10.483-3.611zm30.877 52.573a4.708 4.708 0 0 1-2.167 6.29L366.6 377.377a4.714 4.714 0 0 1-6.291-2.167l-23.21-47.589a4.712 4.712 0 0 1 2.166-6.293l74.239-36.207a4.71 4.71 0 0 1 6.291 2.166l23.21 47.588z"/>
    <path d="M351.139 319.029c-6.563 3.199-9.296 11.14-6.096 17.699 3.2 6.559 11.139 9.293 17.698 6.094 6.559-3.199 9.296-11.139 6.096-17.699-3.2-6.558-11.139-9.293-17.698-6.094zm10.228 20.973c-5.008 2.443-11.064.357-13.505-4.65-2.44-5.004-.356-11.063 4.65-13.504 5.004-2.441 11.062-.355 13.505 4.65 2.441 5.006.357 11.064-4.65 13.504zm16.393-33.956c-6.56 3.197-9.296 11.14-6.096 17.698 3.201 6.559 11.142 9.293 17.699 6.093 6.562-3.198 9.295-11.138 6.096-17.697-3.201-6.56-11.141-9.294-17.699-6.094zm10.228 20.973c-5.005 2.44-11.063.356-13.506-4.65-2.44-5.005-.354-11.063 4.652-13.503 5.004-2.443 11.063-.356 13.504 4.647 2.442 5.009.358 11.065-4.65 13.506zm16.393-33.96c-6.559 3.201-9.293 11.143-6.096 17.701 3.2 6.56 11.141 9.293 17.701 6.094 6.563-3.201 9.293-11.139 6.093-17.699-3.2-6.559-11.136-9.294-17.698-6.096zm10.231 20.974c-5.007 2.443-11.064.357-13.505-4.65-2.443-5.004-.356-11.063 4.647-13.504 5.007-2.441 11.065-.355 13.508 4.65 2.441 5.004.355 11.065-4.65 13.504zm-23.874 18.626c-6.559 3.197-9.293 11.139-6.092 17.698 3.197 6.559 11.138 9.293 17.697 6.093 6.56-3.199 9.293-11.138 6.096-17.698-3.199-6.559-11.141-9.293-17.701-6.093zm10.233 20.972c-5.006 2.44-11.066.356-13.506-4.65-2.441-5.004-.357-11.063 4.648-13.503 5.007-2.442 11.064-.356 13.504 4.648 2.444 5.007.358 11.064-4.646 13.505zm16.389-33.959c-6.56 3.199-9.294 11.143-6.094 17.701s11.14 9.293 17.698 6.092c6.563-3.199 9.293-11.138 6.096-17.697-3.2-6.559-11.138-9.295-17.7-6.096zm10.231 20.975c-5.004 2.442-11.064.357-13.505-4.65-2.44-5.004-.354-11.062 4.65-13.506 5.004-2.439 11.064-.354 13.505 4.651s.357 11.065-4.65 13.505zm-52.341 6.398c-.019.03-.035.06-.055.087a1.568 1.568 0 0 0 .459 2.093 10.117 10.117 0 0 1 3.343 3.885c2.44 5.009.356 11.066-4.648 13.506-5.007 2.443-11.064.357-13.508-4.65-2.44-5.005-.354-11.063 4.65-13.504a10.11 10.11 0 0 1 5.026-1.003 1.566 1.566 0 0 0 1.648-1.368l.012-.104a1.57 1.57 0 0 0-1.471-1.66 13.231 13.231 0 0 0-6.59 1.316c-6.563 3.197-9.293 11.14-6.096 17.699 3.2 6.559 11.139 9.293 17.701 6.092 6.559-3.197 9.293-11.138 6.096-17.697a13.243 13.243 0 0 0-4.385-5.094 1.569 1.569 0 0 0-2.182.402z"/>
  </g>
  <path fill="#3B4252" d="M470.118 169.727h136.89c2.896 0 5.266 2.369 5.266 5.266v115.83c0 2.895-2.37 5.264-5.266 5.264h-136.89c-2.896 0-5.265-2.369-5.265-5.264v-115.83c0-2.897 2.369-5.266 5.265-5.266z"/>
  <path fill="#88C0D0" d="M585.947 267.129h-94.77a2.64 2.64 0 0 0-2.633 2.633v2.633a2.642 2.642 0 0 0 2.633 2.633h94.77a2.642 2.642 0 0 0 2.633-2.633v-2.633a2.642 2.642 0 0 0-2.633-2.633z"/>
  <path fill="#D8DEE9" d="M585.947 248.701h-15.795a2.642 2.642 0 0 0-2.633 2.633v2.633a2.642 2.642 0 0 0 2.633 2.633h15.795a2.642 2.642 0 0 0 2.633-2.633v-2.633a2.642 2.642 0 0 0-2.633-2.633z"/>
  <path fill="#8FBCBB" d="M554.357 248.701h-23.691a2.64 2.64 0 0 0-2.633 2.633v2.633a2.64 2.64 0 0 0 2.633 2.633h23.691a2.642 2.642 0 0 0 2.633-2.633v-2.633a2.64 2.64 0 0 0-2.633-2.633z"/>
  <path fill="#5E81AC" d="M514.871 248.701h-23.693a2.642 2.642 0 0 0-2.633 2.633v2.633a2.64 2.64 0 0 0 2.633 2.633h23.693a2.64 2.64 0 0 0 2.632-2.633v-2.633a2.64 2.64 0 0 0-2.632-2.633zm39.486-18.428h-63.18a2.642 2.642 0 0 0-2.633 2.633v2.633a2.64 2.64 0 0 0 2.633 2.633h63.18a2.642 2.642 0 0 0 2.633-2.633v-2.633a2.642 2.642 0 0 0-2.633-2.633z"/>
  <path fill="#88C0D0" d="M585.947 211.847h-47.385a2.64 2.64 0 0 0-2.632 2.632v2.633a2.64 2.64 0 0 0 2.632 2.633h47.385a2.64 2.64 0 0 0 2.633-2.633v-2.633a2.64 2.64 0 0 0-2.633-2.632z"/>
  <path fill="#81A1C1" d="M522.768 211.847h-31.59a2.64 2.64 0 0 0-2.633 2.632v2.633a2.64 2.64 0 0 0 2.633 2.633h31.59a2.64 2.64 0 0 0 2.633-2.633v-2.633a2.641 2.641 0 0 0-2.633-2.632z"/>
  <path fill="#D8DEE9" d="M491.178 193.419h76.343a2.64 2.64 0 0 1 2.632 2.633v2.632a2.64 2.64 0 0 1-2.632 2.633h-76.343a2.64 2.64 0 0 1-2.633-2.633v-2.632a2.64 2.64 0 0 1 2.633-2.633z"/>
  <path fill="#5E81AC" d="M592.051 244.886a1.524 1.524 0 1 0-.001-3.043 1.524 1.524 0 0 0 .001 3.043zm-3.046-9.14a1.524 1.524 0 1 0-.002-3.048 1.524 1.524 0 0 0 .002 3.048z"/>
  <path fill="#81A1C1" d="M595.097 226.606a1.525 1.525 0 0 0 .002-3.047 1.523 1.523 0 1 0-.002 3.047z"/>
  <path fill="#2E3440" d="M681.33 234.367c0 .837-.682 1.518-1.523 1.523a1.53 1.53 0 0 1-1.523-1.529 1.534 1.534 0 0 1 1.523-1.523 1.53 1.53 0 0 1 1.523 1.529zm-6.094.016c-.007.41-.172.785-.443 1.061-.28.275-.67.447-1.098.441l-11.584-.141a1.527 1.527 0 0 1-1.509-1.543 1.53 1.53 0 0 1 1.545-1.504l11.585.146a1.527 1.527 0 0 1 1.504 1.54z"/>
  <path fill="#2E3440" d="M678.283 225.219c-.193 0-.391.012-.6.027v-.006l-24.736 1.362-3.005.007a1.55 1.55 0 0 1-1.077-.449 1.504 1.504 0 0 1-.446-1.076v-6.099c0-4.196-3.417-7.612-7.618-7.612h-27.42c-.405 0-.79.16-1.082.446a1.535 1.535 0 0 0-.441 1.077l-.005 7.602c.005.011.005.021.005.031v35.023c0 .842.682 1.523 1.523 1.523h27.42a7.59 7.59 0 0 0 5.387-2.232 7.584 7.584 0 0 0 2.231-5.387v-6.095c0-.842.681-1.523 1.523-1.523h2.995l24.727 1.644h.01a9.072 9.072 0 0 0 7.066-2.657 9.072 9.072 0 0 0 2.684-6.465c0-5.038-4.098-9.134-9.141-9.141zm-42.054 28.808h-21.325l-.005-4.57h10.665c.422 0 .801-.172 1.076-.447a1.51 1.51 0 0 0 .448-1.076c0-.838-.682-1.523-1.524-1.523l-10.66.006v-6.101h10.66c.422 0 .801-.171 1.076-.446a1.522 1.522 0 0 0-1.076-2.6h-10.66v-6.089l10.66-.006c.422.006.801-.166 1.076-.441a1.522 1.522 0 0 0-1.076-2.6h-10.66v-6.096h10.66c.422-.005.807-.172 1.082-.447s.442-.66.442-1.076c0-.843-.682-1.523-1.524-1.523h-10.66l-.005-4.57h21.33v39.605zm15.232-15.235h-1.519a4.585 4.585 0 0 0-4.576 4.57v6.095a4.5 4.5 0 0 1-1.337 3.229 4.532 4.532 0 0 1-3.229 1.342h-1.523V214.42h1.523a4.573 4.573 0 0 1 4.57 4.565v6.099c0 1.217.473 2.367 1.336 3.23s2.014 1.336 3.235 1.342h1.519v9.136zm31.127-.12a6.023 6.023 0 0 1-4.305 1.783c-.131 0-.266 0-.417-.01l-23.354-1.555-.005-9.318 23.344-1.285h.01c.15-.015.291-.015.422-.02a6.108 6.108 0 0 1 6.094 6.1 6.051 6.051 0 0 1-1.789 4.305z"/>
  <path fill="#88C0D0" d="M636.229 214.42v39.607h-21.325l-.005-4.57h10.665c.422 0 .801-.172 1.076-.447a1.51 1.51 0 0 0 .448-1.076c0-.838-.682-1.523-1.524-1.523l-10.66.006v-6.101h10.66c.422 0 .801-.171 1.076-.446a1.522 1.522 0 0 0-1.076-2.6h-10.66v-6.089l10.66-.006c.422.006.801-.166 1.076-.441a1.522 1.522 0 0 0-1.076-2.6h-10.66v-6.096h10.66c.422-.005.807-.172 1.082-.447s.442-.66.442-1.076c0-.843-.682-1.523-1.524-1.523h-10.66l-.005-4.57h21.33z"/>
  <path fill="#D8DEE9" d="M678.283 228.268c-.131.005-.271.005-.422.02h-.01l-23.344 1.285.005 9.318 23.354 1.555c.151.01.286.01.417.01a6.024 6.024 0 0 0 4.305-1.783 6.051 6.051 0 0 0 1.789-4.305 6.107 6.107 0 0 0-6.094-6.1zm-3.49 7.175c-.28.275-.67.447-1.098.441l-11.584-.141a1.527 1.527 0 0 1-1.509-1.543 1.53 1.53 0 0 1 1.545-1.504l11.585.146a1.525 1.525 0 0 1 1.061 2.601zm5.014.448a1.53 1.53 0 0 1-1.523-1.529 1.534 1.534 0 0 1 1.523-1.523 1.53 1.53 0 0 1 1.523 1.529 1.53 1.53 0 0 1-1.523 1.523zm-28.346-6.235v9.136h-1.519a4.585 4.585 0 0 0-4.576 4.57v6.095a4.5 4.5 0 0 1-1.337 3.229 4.532 4.532 0 0 1-3.229 1.342h-1.523V214.42h1.523a4.573 4.573 0 0 1 4.57 4.565v6.099c0 1.217.473 2.367 1.336 3.23s2.014 1.336 3.235 1.342h1.52z"/>
  <path fill="#88C0D0" d="M601.192 226.606h6.093c.42.002.801-.17 1.076-.445a1.524 1.524 0 0 0-1.076-2.601h-6.093c-.84 0-1.523.684-1.523 1.523a1.521 1.521 0 0 0 1.523 1.523z"/>
  <path fill="#D8DEE9" d="M604.237 217.465l3.048.002c.42-.003.801-.174 1.078-.449a1.52 1.52 0 0 0-1.079-2.599l-3.047-.001a1.524 1.524 0 0 0 0 3.047z"/>
  <path fill="#81A1C1" d="M595.098 235.746l12.188-.001a1.52 1.52 0 0 0 1.523-1.523c0-.839-.684-1.523-1.522-1.522l-12.189.002a1.522 1.522 0 0 0 0 3.044z"/>
  <path fill="#D8DEE9" d="M598.146 244.889h9.139c.42-.003.803-.174 1.078-.449s.445-.656.445-1.074a1.528 1.528 0 0 0-1.524-1.525l-9.14-.001a1.524 1.524 0 0 0 .002 3.049z"/>
  <path fill="#88C0D0" d="M604.239 254.027h3.046c.42.002.801-.168 1.076-.445a1.524 1.524 0 0 0-1.076-2.601h-3.046c-.841 0-1.523.684-1.523 1.523a1.517 1.517 0 0 0 1.523 1.523z"/>
</svg>
