<svg xmlns="http://www.w3.org/2000/svg" viewBox="0 0 512 450">
  <path fill="#ECEFF4" d="M495.392 218.413L147.649 7.453l-72.766 119.71 347.742 210.956c8.98 5.447 20.682 2.591 26.135-6.376l53.018-87.227c5.452-8.968 2.593-20.655-6.386-26.103z"/>
  <path fill="#EBCB8B" d="M377.529 190.983l-33.623 55.31c-3.227 5.311-1.533 12.225 3.777 15.448l55.367 33.589c5.314 3.223 12.238 1.532 15.465-3.774l33.623-55.312c3.227-5.308 1.533-12.228-3.777-15.45l-55.367-33.588c-5.319-3.224-12.239-1.534-15.465 3.777z"/>
  <path fill="#A3BE8C" d="M298.296 231.779L242.93 198.19c-5.312-3.223-7.003-10.138-3.777-15.445l33.616-55.313c3.229-5.311 10.152-7.001 15.465-3.777l55.369 33.588c5.314 3.223 7.008 10.143 3.779 15.449l-33.621 55.313c-3.226 5.308-10.152 7.002-15.465 3.774z"/>
  <path fill="#B48EAD" d="M168.016 63.882l-33.621 55.313c-3.226 5.307-1.535 12.226 3.781 15.448l55.367 33.59c5.313 3.223 12.235 1.532 15.465-3.775l33.621-55.313c3.227-5.311 1.535-12.227-3.781-15.449l-55.367-33.588c-5.313-3.223-12.238-1.533-15.465 3.774z"/>
  <path fill="#ECEFF4" d="M336.939 367.22L147.649 7.453 23.555 72.616l189.293 359.767c4.886 9.286 16.386 12.862 25.687 7.977l90.414-47.478c9.301-4.881 12.881-16.374 7.99-25.662z"/>
  <path fill="#5E81AC" d="M250.055 283.057l-57.336 30.107c-5.504 2.888-7.617 9.689-4.727 15.188l30.141 57.278c2.89 5.498 9.695 7.61 15.199 4.723l57.335-30.106c5.504-2.893 7.621-9.691 4.729-15.188l-30.139-57.279c-2.892-5.5-9.698-7.615-15.202-4.723z"/>
  <path fill="#BF616A" d="M161.109 277.253l-30.137-57.278c-2.895-5.499-.777-12.296 4.727-15.188l57.336-30.107c5.5-2.887 12.309-.776 15.2 4.723l30.141 57.278c2.89 5.499.773 12.298-4.727 15.188l-57.34 30.108c-5.5 2.89-12.309.775-15.2-4.724z"/>
  <path fill="#D08770" d="M136.012 66.302L78.676 96.413c-5.504 2.887-7.621 9.689-4.727 15.184l30.137 57.283c2.895 5.494 9.699 7.609 15.203 4.723l57.336-30.111c5.504-2.889 7.617-9.689 4.727-15.185l-30.137-57.283c-2.895-5.496-9.699-7.611-15.203-4.722z"/>
  <path fill="#ECEFF4" d="M26.48 7.453c-10.507 0-19.023 8.507-19.023 19.005v387.435c0 10.494 8.516 19 19.023 19h102.145c10.504 0 19.024-8.506 19.024-19V7.453H26.48z"/>
  <path fill="#81A1C1" d="M109.938 299.01H45.164c-6.219 0-11.258 5.033-11.258 11.243v64.714c0 6.208 5.039 11.245 11.258 11.245h64.773c6.219 0 11.258-5.037 11.258-11.245v-64.714c0-6.21-5.039-11.243-11.257-11.243z"/>
  <path fill="#88C0D0" d="M33.906 252.528v-64.71c0-6.212 5.043-11.247 11.258-11.247h64.777c6.215 0 11.254 5.035 11.254 11.247v64.71c0 6.213-5.039 11.247-11.254 11.247H45.164c-6.215 0-11.258-5.034-11.258-11.247z"/>
  <path fill="#8FBCBB" d="M109.938 54.138H45.164c-6.219 0-11.258 5.035-11.258 11.246v64.711c0 6.212 5.039 11.246 11.258 11.246h64.773c6.219 0 11.258-5.034 11.258-11.246V65.384c0-6.211-5.039-11.246-11.257-11.246z"/>
  <path fill="#4C566A" d="M45.207 148.872h64.777c10.344 0 18.758-8.405 18.758-18.738V65.423c0-10.332-8.414-18.738-18.758-18.738H45.207c-10.339 0-18.757 8.406-18.757 18.738v64.711c0 10.333 8.418 18.738 18.757 18.738zm-3.753-83.449a3.755 3.755 0 0 1 3.753-3.749h64.777a3.755 3.755 0 0 1 3.754 3.749v64.711a3.76 3.76 0 0 1-3.754 3.754H45.207a3.76 3.76 0 0 1-3.753-3.754V65.423zM26.45 375.006c0 10.333 8.418 18.739 18.757 18.739h64.777c10.344 0 18.758-8.406 18.758-18.739v-64.71c0-10.334-8.414-18.74-18.758-18.74H45.207c-10.339 0-18.757 8.406-18.757 18.74v64.71zm15.004-64.71a3.76 3.76 0 0 1 3.753-3.754h64.777a3.76 3.76 0 0 1 3.754 3.754v64.71a3.756 3.756 0 0 1-3.754 3.75H45.207a3.755 3.755 0 0 1-3.753-3.75v-64.71zM26.45 252.571c0 10.329 8.418 18.739 18.757 18.739h64.777c10.344 0 18.758-8.41 18.758-18.739v-64.714c0-10.333-8.414-18.739-18.758-18.739H45.207c-10.339 0-18.757 8.406-18.757 18.739v64.714zm15.004-64.714a3.755 3.755 0 0 1 3.753-3.749h64.777a3.755 3.755 0 0 1 3.754 3.749v64.714a3.755 3.755 0 0 1-3.754 3.749H45.207a3.754 3.754 0 0 1-3.753-3.749v-64.714zm147.82 118.716c-9.153 4.804-12.688 16.158-7.875 25.303 0 0 30.122 57.248 30.137 57.283 4.742 9.011 16.309 12.605 25.332 7.867 0 0 57.31-30.091 57.341-30.106 9.033-4.746 12.623-16.278 7.873-25.308 0 0-30.121-57.248-30.141-57.279-4.746-9.022-16.3-12.613-25.327-7.871l-57.34 30.111zm66.055-17.277c1.102 0 2.554.528 3.331 2.01l30.143 57.28c.91 1.733.248 4.105-1.58 5.065 0 0-57.319 30.1-57.335 30.107-1.817.956-4.117.241-5.071-1.573l-30.141-57.28a3.76 3.76 0 0 1 1.578-5.068l57.336-30.106a3.678 3.678 0 0 1 1.739-.435zM371.16 187.132l-33.621 55.313c-5.371 8.831-2.543 20.378 6.297 25.744l55.367 33.589c8.758 5.314 20.457 2.442 25.77-6.291l33.621-55.313c5.367-8.831 2.543-20.383-6.297-25.745l-55.367-33.588c-8.763-5.315-20.46-2.446-25.77 6.291zm16.043 5.974c.689 0 1.342.184 1.938.547l55.367 33.587a3.751 3.751 0 0 1 1.262 5.151l-33.621 55.313c-1.063 1.749-3.408 2.322-5.16 1.261l-55.367-33.589a3.75 3.75 0 0 1-1.258-5.153l33.621-55.313a3.737 3.737 0 0 1 3.218-1.804z"/>
  <path fill="#4C566A" d="M511.218 228.432c-1.621-6.628-5.723-12.645-11.889-16.383L402.1 153.064a7.504 7.504 0 0 0-10.303 2.514 7.494 7.494 0 0 0 2.514 10.298s97.133 58.923 97.232 58.985c5.342 3.242 7.109 10.475 3.867 15.809 0 0-52.979 87.156-53.021 87.223-3.258 5.366-10.455 7.122-15.828 3.863L279.993 242.84l-10.342-19.652s24.793 15.04 24.797 15.04c8.762 5.318 20.461 2.442 25.77-6.291 0 0 33.605-55.29 33.621-55.31 5.309-8.736 2.426-20.451-6.297-25.744l-55.367-33.588c-8.762-5.314-20.465-2.439-25.77 6.291l-26.351 43.348-11-20.904 20.027-32.953c5.371-8.83 2.542-20.378-6.297-25.744l-55.367-33.588c-2.52-1.529-5.383-2.404-8.301-2.626l-12.204-23.195 201.814 122.435a7.513 7.513 0 0 0 10.307-2.518 7.494 7.494 0 0 0-2.518-10.295L151.586 1.089A7.57 7.57 0 0 0 147.691 0H26.523C11.899 0 0 11.886 0 26.497v119.766a7.499 7.499 0 0 0 7.5 7.496 7.498 7.498 0 0 0 7.503-7.496V26.497c0-6.346 5.168-11.508 11.52-11.508h113.668v398.942c0 6.345-5.168 11.509-11.523 11.509H26.523c-6.352 0-11.52-5.164-11.52-11.509V176.167a7.5 7.5 0 0 0-7.503-7.498 7.5 7.5 0 0 0-7.5 7.498v237.765c0 14.611 11.899 26.497 26.523 26.497h102.145c14.625 0 26.523-11.886 26.523-26.497v-75.063s51.047 97.014 51.059 97.041c6.714 12.756 23.047 17.83 35.82 11.125l90.416-47.479c12.943-6.798 17.939-22.849 11.137-35.782l-50.074-95.179s125.154 75.929 125.229 75.971c12.355 7.498 28.959 3.415 36.438-8.893l53.02-87.223c3.746-6.169 4.603-13.396 2.982-20.018zm-231.988-97.07c1.063-1.752 3.41-2.317 5.158-1.26l55.365 33.588c1.756 1.064 2.328 3.402 1.262 5.154 0 0-33.572 55.231-33.619 55.313-1.066 1.756-3.406 2.322-5.162 1.258l-46.132-27.984-7.902-15.021s30.925-50.88 31.03-51.048zm-124.039-36.71s19.543 37.144 19.567 37.183c.917 1.748.27 4.094-1.579 5.064l-17.988 9.444V94.652zm0 108.429s41.305-21.689 41.379-21.729c1.817-.953 4.113-.238 5.071 1.576l30.137 57.28c.957 1.821.234 4.112-1.578 5.064 0 0-57.325 30.104-57.336 30.107-1.813.952-4.117.238-5.071-1.573l-12.602-23.949v-46.776zM235 100.144a3.745 3.745 0 0 1 1.258 5.15l-15.348 25.253-30.102-57.214L235 100.144zm90.503 286.142l-90.413 47.481c-5.567 2.923-12.633.722-15.559-4.832l-64.34-122.28v-24.69a18.73 18.73 0 0 0 15.934 8.839c3.02 0 6.035-.746 8.719-2.154l57.336-30.108c9.047-4.748 12.633-16.264 7.879-25.307l-30.141-57.279c-4.746-9.026-16.296-12.612-25.328-7.867l-34.399 18.06v-22.871s24.953-13.101 24.969-13.112c9.031-4.741 12.625-16.276 7.875-25.304l-30.137-57.283a18.633 18.633 0 0 0-2.707-3.848V37.856l175.154 332.892c2.955 5.614.783 12.589-4.842 15.538z"/>
</svg>
