<!--
Copyright (c) 2016-present Sven Greb <development@svengreb.de>
This source code is licensed under the MIT license found in the license file.
-->
<svg viewBox="0 0 800 747.465" xmlns="http://www.w3.org/2000/svg">
  <path
    fill="#2E3440"
    d="M723.525 0h59.085C792.215 0 800 7.787 800 17.389v560.945c0 9.602-7.785 17.389-17.39 17.389h-59.085c-9.604 0-17.388-7.787-17.388-17.389V17.389C706.138 7.787 713.922 0 723.525 0z"
  />
  <path fill="#434C5E" d="M723.361 0h59.32c9.552 0 17.295 7.742 17.295 17.295V88.24H706.02V17.32C706.006 7.768 713.739.012 723.291 0h.07z" />
  <g fill="#D8DEE9">
    <path d="M747.634 542.998h-15.436v-15.436h15.436v15.436zm-13.083-2.353h10.729v-10.73h-10.729v10.73z" />
    <path d="M760.717 542.998h-15.436v-15.436h15.436v15.436zm-13.083-2.353h10.729v-10.73h-10.729v10.73z" />
    <path
      d="M773.799 542.998h-15.436v-15.436h15.436v15.436zm-13.082-2.353h10.729v-10.73h-10.729v10.73zm-13.083 15.437h-15.436v-15.438h15.436v15.438zm-13.083-2.353h10.729v-10.73h-10.729v10.73z"
    />
    <path d="M760.717 556.082h-15.436v-15.438h15.436v15.438zm-13.083-2.353h10.729v-10.73h-10.729v10.73z" />
    <path d="M773.799 556.082h-15.436v-15.438h15.436v15.438zm-13.082-2.353h10.729v-10.73h-10.729v10.73z" />
  </g>
  <g fill="#D8DEE9">
    <path d="M773.494 478.744h-34.426v-34.4h34.426v34.426-.026zm-32.05-2.351h29.72v-29.695h-29.742v29.721l.022-.026z" />
    <path d="M751.893 480.158H740.81v-11.082h11.083v11.082zm2.353-13.437h-15.79v15.791h15.79v-15.791z" />
    <path d="M748.434 476.297h-15.931v-15.928h15.931v15.928zm-13.577-2.352h11.224v-11.223h-11.224v11.223z" />
    <path d="M733.68 461.545h13.578v13.576H733.68v-13.576z" />
  </g>
  <path
    d="M766.602 381.361c0 7.551-6.12 13.672-13.672 13.672-7.55 0-13.67-6.121-13.67-13.672s6.12-13.672 13.67-13.672c7.551 0 13.672 6.122 13.672 13.672m-11.248 20.166a1.177 1.177 0 1 1-.142-2.351 19.186 19.186 0 0 0 2.142-.4 1.21 1.21 0 0 1 .564 2.352c-.776.193-1.561.344-2.353.447h-.212v-.048zm-6.871-.4h-.282a19.77 19.77 0 0 1-2.354-.729 1.18 1.18 0 0 1 .825-2.213 17.41 17.41 0 0 0 2.07.635c.624.182.982.836.802 1.461a1.178 1.178 0 0 1-1.107.846h.046zm15.413-2.871a1.177 1.177 0 0 1-.682-2.141 18.374 18.374 0 0 0 1.694-1.342 1.174 1.174 0 0 1 1.662.035 1.174 1.174 0 0 1-.032 1.662c-.025.025-.051.045-.078.068a20.99 20.99 0 0 1-1.93 1.506c-.2.141-.438.215-.681.211h.047zm-23.531-1.342a1.156 1.156 0 0 1-.776-.281 20.443 20.443 0 0 1-1.741-1.717 1.178 1.178 0 0 1-.017-1.664 1.173 1.173 0 0 1 1.758.088 17.485 17.485 0 0 0 1.553 1.527 1.177 1.177 0 0 1-.823 2.047h.046zm29.531-5.504a1.196 1.196 0 0 1-.541-.143 1.174 1.174 0 0 1-.493-1.6c.338-.641.637-1.299.893-1.977a1.18 1.18 0 0 1 2.213.823 20.41 20.41 0 0 1-1.012 2.355c-.23.359-.636.566-1.06.542zm-34.802-1.978a1.173 1.173 0 0 1-1.105-.752c-.3-.77-.551-1.555-.753-2.354a1.176 1.176 0 0 1 .844-1.434s.002 0 .003-.002a1.152 1.152 0 0 1 1.423.799c.005.016.01.031.013.049.179.703.398 1.395.66 2.07a1.18 1.18 0 0 1-.668 1.525l-.016.004a1.11 1.11 0 0 1-.4.072v.023zm36.967-6.895a1.175 1.175 0 0 1-1.176-1.176 18.66 18.66 0 0 0-.142-2.164 1.184 1.184 0 0 1 2.353-.283c.093.783.139 1.568.141 2.354 0 .65-.527 1.176-1.177 1.176v.093zm-38.12-2.164h-.141a1.173 1.173 0 0 1-1.035-1.293c.094-.793.235-1.578.424-2.354a1.207 1.207 0 0 1 2.352.541c-.171.705-.296 1.42-.378 2.141a1.173 1.173 0 0 1-1.223.941v.024zm35.908-6.707a1.17 1.17 0 0 1-1.035-.635 17.857 17.857 0 0 0-1.129-1.858 1.176 1.176 0 0 1 1.929-1.342c.466.672.889 1.372 1.271 2.095a1.176 1.176 0 0 1-1.036 1.717v.023zm-32.73-1.857a1.178 1.178 0 0 1-.966-1.835c.464-.673.966-1.317 1.507-1.929a1.175 1.175 0 1 1 1.832 1.474c-.021.025-.044.053-.067.076a17.658 17.658 0 0 0-1.318 1.718 1.177 1.177 0 0 1-.965.472l-.023.024zm26.658-4.966c-.235 0-.465-.073-.658-.212a18.493 18.493 0 0 0-1.858-1.128 1.18 1.18 0 0 1-.307-1.638 1.183 1.183 0 0 1 1.39-.435c.723.382 1.423.806 2.094 1.271a1.176 1.176 0 0 1-.66 2.095v.047zm-19.859-1.128a1.178 1.178 0 0 1-.565-2.213 20.484 20.484 0 0 1 2.235-1.013 1.177 1.177 0 1 1 1.01 2.128c-.054.022-.107.045-.164.062a18.46 18.46 0 0 0-1.977.894c-.162.07-.339.104-.517.094l-.022.048zm11.296-2.118h-.142a18.021 18.021 0 0 0-2.165-.118 1.223 1.223 0 0 1-1.248-1.176 1.13 1.13 0 0 1 1.082-1.176H753c.786 0 1.573.045 2.354.14a1.177 1.177 0 0 1 0 2.308l-.14.022z"
    fill="#D8DEE9"
  />
  <g fill="#D8DEE9">
    <path d="M761.232 292.614c0 8.122-6.584 14.706-14.706 14.706s-14.706-6.584-14.706-14.706 6.584-14.706 14.706-14.706 14.706 6.584 14.706 14.706" />
    <path
      d="M758.292 320.264c-8.772 0-15.883-7.111-15.883-15.885 0-8.771 7.11-15.883 15.883-15.883s15.884 7.111 15.884 15.883c-.014 8.766-7.117 15.87-15.884 15.885zm0-29.416c-7.472 0-13.53 6.058-13.53 13.531 0 7.473 6.059 13.529 13.53 13.529 7.473 0 13.53-6.057 13.53-13.529.038-7.484-5.998-13.586-13.483-13.625h-.047v.094z"
    />
  </g>
  <path
    fill="#D8DEE9"
    d="M750.501 194.689h4.993v4.991h1.247a3.744 3.744 0 0 1 3.744 3.743v8.736l-1.096 1.099 4.093 7.091c2.771-2.721 4.493-6.49 4.493-10.685h4.992a19.938 19.938 0 0 1-6.914 15.128l7.838 13.578.323 5.539-4.669-3.044-7.66-13.304c-2.649 1.323-5.694 2.071-8.888 2.071s-6.239-.748-8.888-2.071l-7.66 13.304-4.669 3.044.323-5.539 14.502-25.112-1.097-1.099v-8.736a3.745 3.745 0 0 1 3.745-3.743h1.246v-4.991m-3.893 28.529c1.949.923 4.12 1.423 6.392 1.423s4.442-.5 6.392-1.423l-3.646-6.315h-.024c-1.547 1.5-3.895 1.5-5.442 0h-.023l-3.649 6.315m6.392-18.544a2.496 2.496 0 1 0 0 4.991 2.495 2.495 0 1 0 0-4.991zm-12.451-66.307v18.354c0 1.054.854 1.906 1.906 1.906h14.989a1.906 1.906 0 0 0 1.906-1.906v-19.246l-.66-1.906s1.977-7.437 4.424-7.791c1.46-.234 4.024-.799 5.836-1.223a1.907 1.907 0 0 0 1.341-2.541c-1.012-2.588-3.247-6.684-7.06-6.684a10.108 10.108 0 0 0-6.894 2.659 1.883 1.883 0 0 0-.142 2.659c.044.051.093.096.142.143 1.247 1.128 2.801 2.751 2.353 3.646-.447.893-2.188 5.977-2.965 8.377a1.904 1.904 0 0 1-1.858 1.317h-1.554v-14.377c-.003-.49.184-.962.519-1.319l1.317-1.506c.335-.356.521-.826.519-1.316v-4.236a1.907 1.907 0 0 0-1.906-1.906h-5.577a1.906 1.906 0 0 0-1.906 1.906v4.236a1.9 1.9 0 0 0 .706 1.482l.941.753c.446.361.707.907.705 1.482v8.353a1.903 1.903 0 0 1-1.884 1.927 1.904 1.904 0 0 1-1.715-1.031l-1.036-1.954a1.903 1.903 0 0 1 0-1.764 4.024 4.024 0 0 0-.4-4.918 14.16 14.16 0 0 1-2.635-4.047 1.907 1.907 0 0 0-3.554.281c-1.129 3.74-1.694 8.824 2.353 11.555 5.224 3.574 3.506 6.139 2.354 7.058a1.833 1.833 0 0 0-.565 1.365m-12.484-75.066l3.633 1.515V40.148l-6.586 15.871c-1.111 2.762.163 5.932 2.953 7.07m52.816-10.021l-13.432-32.369c-.84-2.086-2.82-3.331-4.904-3.387-.703 0-1.434.108-2.138.406L740.44 25.98c-2.031.838-3.274 2.844-3.33 4.873-.028.68.109 1.465.352 2.17l13.544 32.367c.783 2.113 2.786 3.359 4.903 3.385.704 0 1.409-.134 2.086-.408l19.932-8.26c2.764-1.136 4.092-4.304 2.952-7.039m-38.324-19.504a2.71 2.71 0 0 1 0-5.418 2.718 2.718 0 0 1 2.708 2.707 2.716 2.716 0 0 1-2.708 2.711m-5.417 29.794a5.416 5.416 0 0 0 5.417 5.417h3.928l-9.345-22.589v17.172z"
  />
  <path
    fill="#2E3440"
    d="M649.442 725.314c0 12.184-7.956 22.15-17.68 22.15H17.681C7.956 747.465 0 737.498 0 725.314V62.318c0-12.184 7.956-22.152 17.681-22.152h614.082c9.724 0 17.68 9.969 17.68 22.152v662.996z"
  />
  <path fill="#434C5E" d="M16.966 0h615.511c9.37 0 16.966 7.596 16.966 16.965v44.216H0V16.965C0 7.596 7.596 0 16.966 0z" />
  <path d="M612.218 21.908l9.129 9.128-9.129 9.13V21.908zm-9.108 0l9.107 9.128-9.107 9.13V21.908z" fill="#D8DEE9" />
  <path fill="#BF616A" d="M58.814 630.602h100.687v74.311H58.814c-5.198 0-9.413-4.215-9.413-9.412v-55.438c-.026-5.199 4.167-9.436 9.365-9.461h.048z" />
  <path fill="#D08770" d="M159.501 630.602h110.147v74.311H159.501v-74.311z" />
  <path fill="#EBCB8B" d="M269.648 630.602h110.146v74.311H269.648v-74.311z" />
  <path fill="#A3BE8C" d="M379.794 630.602H489.94v74.311H379.794v-74.311z" />
  <path fill="#B48EAD" d="M489.94 630.602h100.688a9.411 9.411 0 0 1 9.412 9.412v55.367c0 5.197-4.214 9.412-9.412 9.412H489.94v-74.191z" />
  <path
    d="M49.52 611.412l6.697-14.645c.236-.518.589-.824 1.179-.824h.095c.565 0 .942.307 1.155.824l6.696 14.621c.072.162.119.328.119.471a.896.896 0 0 1-.896.896c-.448 0-.754-.307-.92-.684l-1.721-3.797H52.87l-1.721 3.842c-.166.402-.472.639-.896.639a.845.845 0 0 1-.849-.85 1.033 1.033 0 0 1 .116-.493zm11.671-4.836l-3.796-8.441-3.796 8.441h7.592zm17.751 5.258c0 .496-.378.922-.896.922a.902.902 0 0 1-.897-.922v-1.318c-.825 1.318-2.074 2.381-4.173 2.381-2.948 0-4.668-1.98-4.668-4.881v-6.768c0-.52.377-.92.896-.92.495 0 .919.4.919.92v6.318c0 2.266 1.226 3.68 3.372 3.68 2.076 0 3.655-1.531 3.655-3.82v-6.178c0-.52.377-.92.897-.92a.9.9 0 0 1 .896.92v10.586zm4.078-10.586c0-.496.4-.92.896-.92.519 0 .919.4.919.92v2.287c.896-2.027 2.665-3.254 4.197-3.254.542 0 .897.402.897.92 0 .494-.331.85-.802.918-2.357.283-4.292 2.053-4.292 5.566v4.148c0 .496-.377.922-.896.922a.905.905 0 0 1-.919-.922v-10.585zm8.273 5.352v-.045c0-3.443 2.688-6.369 6.366-6.369 3.655 0 6.343 2.879 6.343 6.32v.049c0 3.443-2.711 6.367-6.39 6.367-3.654 0-6.319-2.879-6.319-6.322zm10.847 0v-.045c0-2.619-1.957-4.764-4.527-4.764-2.641 0-4.457 2.145-4.457 4.715v.049c0 2.617 1.934 4.738 4.504 4.738 2.64 0 4.48-2.121 4.48-4.693zm5.137-5.352c0-.496.4-.92.896-.92.519 0 .919.4.919.92v2.287c.896-2.027 2.665-3.254 4.197-3.254.542 0 .897.402.897.92 0 .494-.331.85-.802.918-2.357.283-4.292 2.053-4.292 5.566v4.148c0 .496-.377.922-.896.922a.905.905 0 0 1-.919-.922v-10.585zm8.038 7.852v-.045c0-2.572 2.122-3.939 5.211-3.939 1.557 0 2.665.211 3.749.518v-.424c0-2.191-1.344-3.324-3.631-3.324a7.614 7.614 0 0 0-3.16.684.935.935 0 0 1-.33.072c-.424 0-.802-.355-.802-.779a.83.83 0 0 1 .495-.754 9.596 9.596 0 0 1 3.985-.826c1.721 0 3.042.447 3.938 1.344.825.826 1.25 2.006 1.25 3.561v6.674c0 .52-.377.896-.873.896-.519 0-.873-.377-.873-.85v-1.107c-.849 1.107-2.264 2.098-4.41 2.098-2.261-.003-4.549-1.299-4.549-3.799zm8.983-.942v-1.182a12.77 12.77 0 0 0-3.583-.518c-2.287 0-3.561.99-3.561 2.523v.049c0 1.531 1.415 2.428 3.065 2.428 2.241.001 4.079-1.368 4.079-3.3z"
    fill="#D8DEE9"
  />
  <path fill="none" d="M49.401 611.352h80.152v19.25H49.401z" />
  <path fill="#8FBCBB" d="M58.814 465.895h100.687v74.309H58.814c-5.198 0-9.413-4.213-9.413-9.41v-55.416a9.41 9.41 0 0 1 9.341-9.482l.072-.001z" />
  <path fill="#81A1C1" d="M269.464 465.895H379.61v74.309H269.464v-74.309z" />
  <path fill="#5E81AC" d="M379.611 465.895h100.687c5.198 0 9.413 4.213 9.413 9.41v55.439c0 5.197-4.215 9.412-9.413 9.412H379.611v-74.261z" />
  <path
    fill="#88C0D0"
    stroke="#2E3440"
    d="M146.195 455.129h136.76c7.355 0 13.318 5.963 13.318 13.318v69.203c0 7.355-5.963 13.318-13.318 13.318h-136.76c-7.355 0-13.318-5.963-13.318-13.318v-69.203c0-7.355 5.963-13.318 13.318-13.318z"
  />
  <path
    d="M49.402 432.367c0-.518.425-.943.92-.943h10.21c.471 0 .849.377.849.85s-.378.873-.849.873h-9.267v5.895h8.206c.471 0 .848.377.848.848 0 .473-.377.85-.848.85h-8.206v6.365a.945.945 0 0 1-.943.943c-.495 0-.92-.422-.92-.943v-14.738zm15.159 4.174a.907.907 0 1 1 1.816 0v2.287c.896-2.025 2.665-3.254 4.197-3.254.542 0 .896.4.896.92 0 .496-.33.848-.802.92-2.357.283-4.291 2.051-4.291 5.564v4.15c0 .496-.378.918-.896.918-.52 0-.92-.4-.92-.918v-10.587zm8.273 5.354v-.049c0-3.441 2.688-6.365 6.367-6.365 3.655 0 6.342 2.877 6.342 6.318v.047c0 3.443-2.71 6.367-6.39 6.367-3.653 0-6.319-2.877-6.319-6.318zm10.847 0v-.049c0-2.615-1.957-4.764-4.527-4.764-2.641 0-4.457 2.148-4.457 4.717v.047c0 2.617 1.934 4.74 4.504 4.74 2.641 0 4.48-2.123 4.48-4.691zm4.477 4.74a.828.828 0 0 1-.331-.662c0-.426.354-.777.803-.777.165 0 .33.047.448.141 1.25.85 2.546 1.299 3.866 1.299 1.462 0 2.523-.756 2.523-1.934v-.049c0-1.225-1.438-1.697-3.042-2.146-1.91-.541-4.032-1.201-4.032-3.441v-.049c0-2.096 1.745-3.488 4.15-3.488 1.297 0 2.712.402 3.891 1.037.236.143.448.4.448.756a.79.79 0 0 1-.801.777.934.934 0 0 1-.4-.094c-1.039-.59-2.146-.943-3.184-.943-1.438 0-2.357.754-2.357 1.768v.049c0 1.154 1.509 1.602 3.136 2.096 1.886.566 3.915 1.299 3.915 3.49v.049c0 2.309-1.911 3.654-4.339 3.654-1.605-.002-3.374-.592-4.694-1.533zm12.801-1.934v-7.359h-.991a.826.826 0 0 1-.801-.801c0-.449.377-.801.801-.801h.991v-2.877c0-.496.376-.92.896-.92.495 0 .919.424.919.92v2.877h3.16c.448 0 .826.377.826.801 0 .449-.377.801-.826.801h-3.16v7.121c0 1.488.826 2.029 2.051 2.029.637 0 .967-.166 1.108-.166.425 0 .778.354.778.777 0 .332-.212.59-.519.709-.518.213-1.084.33-1.792.33-1.956.001-3.441-.966-3.441-3.441z"
    fill="#D8DEE9"
  />
  <path fill="none" d="M49.401 446.586h61.686v20.822H49.401z" />
  <path fill="#D8DEE9" d="M58.814 304.379h100.687v74.307H58.814c-5.198 0-9.413-4.213-9.413-9.41v-55.438c-.026-5.198 4.167-9.435 9.365-9.459h.048z" />
  <path fill="#E5E9F0" d="M159.501 304.379h110.147v74.307H159.501v-74.307z" />
  <path fill="#ECEFF4" d="M269.648 304.379h100.687c5.198 0 9.413 4.213 9.413 9.41v55.367a9.412 9.412 0 0 1-9.413 9.412H269.648v-74.189z" />
  <path
    d="M49.755 284.432a.833.833 0 0 1-.354-.706.9.9 0 0 1 .896-.919.83.83 0 0 1 .566.212c1.556 1.319 3.113 1.957 5.211 1.957 2.216 0 3.678-1.179 3.678-2.806v-.047c0-1.533-.825-2.406-4.291-3.138-3.796-.824-5.542-2.052-5.542-4.763v-.047c0-2.594 2.287-4.502 5.424-4.502 2.169 0 3.749.541 5.258 1.625.189.143.4.4.4.755 0 .495-.4.896-.896.896a.876.876 0 0 1-.542-.164c-1.391-1.015-2.735-1.438-4.267-1.438-2.146 0-3.515 1.179-3.515 2.663v.049c0 1.557.85 2.429 4.481 3.207 3.678.801 5.375 2.146 5.375 4.669v.046c0 2.83-2.357 4.669-5.636 4.669-2.402-.001-4.406-.755-6.246-2.218zm15.371-9.407c0-.494.4-.92.896-.92.519 0 .919.4.919.92v1.319c.801-1.319 2.076-2.38 4.174-2.38 2.947 0 4.669 1.979 4.669 4.88v6.767c0 .52-.402.92-.897.92a.906.906 0 0 1-.919-.92v-6.32c0-2.263-1.226-3.676-3.372-3.676-2.099 0-3.655 1.531-3.655 3.818v6.178c0 .52-.377.92-.896.92a.905.905 0 0 1-.919-.92v-10.586zm13.767 5.354v-.049c0-3.441 2.688-6.365 6.367-6.365 3.655 0 6.342 2.875 6.342 6.318v.047c0 3.441-2.71 6.367-6.39 6.367-3.654 0-6.319-2.877-6.319-6.318zm10.846 0v-.049c0-2.617-1.957-4.764-4.527-4.764-2.641 0-4.457 2.146-4.457 4.717v.047c0 2.617 1.934 4.74 4.504 4.74 2.641 0 4.48-2.123 4.48-4.691zm7.591 5.398l-3.702-10.305c-.047-.141-.118-.33-.118-.495 0-.446.377-.872.919-.872.472 0 .778.306.92.754l3.065 9.149 3.088-9.172c.142-.426.425-.731.897-.731h.094c.495 0 .801.306.943.731l3.065 9.172 3.112-9.197c.118-.375.377-.706.873-.706.519 0 .896.4.896.849 0 .166-.07.354-.117.495l-3.726 10.328c-.188.543-.565.826-.99.826h-.07c-.472 0-.826-.283-.991-.826l-3.041-8.889-3.065 8.889c-.166.543-.519.826-.991.826h-.046c-.45.001-.827-.283-1.015-.826zm24.045-1.345a.833.833 0 0 1-.354-.706.9.9 0 0 1 .896-.919.83.83 0 0 1 .566.212c1.556 1.319 3.112 1.957 5.211 1.957 2.216 0 3.678-1.179 3.678-2.806v-.047c0-1.533-.825-2.406-4.292-3.138-3.796-.824-5.541-2.052-5.541-4.763v-.047c0-2.594 2.287-4.502 5.424-4.502 2.168 0 3.749.541 5.258 1.625.188.143.4.4.4.755 0 .495-.4.896-.896.896a.876.876 0 0 1-.542-.164c-1.391-1.015-2.735-1.438-4.267-1.438-2.146 0-3.513 1.179-3.513 2.663v.049c0 1.557.848 2.429 4.48 3.207 3.678.801 5.375 2.146 5.375 4.669v.046c0 2.83-2.357 4.669-5.636 4.669-2.404-.001-4.408-.755-6.247-2.218zm15.888-1.25v-7.355h-.991a.826.826 0 0 1-.801-.801.81.81 0 0 1 .801-.803h.991v-2.876c0-.495.376-.921.896-.921.495 0 .92.426.92.921v2.876h3.16c.448 0 .825.377.825.803 0 .447-.377.801-.825.801h-3.16v7.121c0 1.484.825 2.028 2.051 2.028.636 0 .967-.165 1.108-.165.425 0 .778.354.778.777 0 .332-.211.59-.519.707-.518.214-1.084.332-1.792.332-1.957 0-3.442-.968-3.442-3.445zm7.779-2.803v-.049c0-3.441 2.688-6.365 6.367-6.365 3.655 0 6.343 2.875 6.343 6.318v.047c0 3.441-2.711 6.367-6.39 6.367-3.655 0-6.32-2.877-6.32-6.318zm10.846 0v-.049c0-2.617-1.957-4.764-4.527-4.764-2.641 0-4.457 2.146-4.457 4.717v.047c0 2.617 1.934 4.74 4.504 4.74 2.641 0 4.48-2.123 4.48-4.691zm5.137-5.354c0-.494.401-.92.896-.92.519 0 .919.4.919.92v2.286c.896-2.028 2.665-3.253 4.197-3.253.542 0 .897.4.897.919 0 .495-.331.849-.802.921-2.357.283-4.292 2.051-4.292 5.564v4.148c0 .494-.377.92-.896.92s-.92-.4-.92-.92v-10.585zm9.548 0c0-.494.4-.92.896-.92.519 0 .919.4.919.92v1.248c.801-1.201 1.887-2.309 3.938-2.309 1.981 0 3.254 1.061 3.914 2.428.873-1.344 2.17-2.428 4.292-2.428 2.806 0 4.527 1.885 4.527 4.903v6.743a.9.9 0 0 1-.896.92.905.905 0 0 1-.919-.92v-6.32c0-2.357-1.179-3.676-3.16-3.676-1.839 0-3.349 1.367-3.349 3.771v6.226c0 .52-.4.92-.918.92a.9.9 0 0 1-.897-.92v-6.365c0-2.287-1.203-3.631-3.135-3.631-1.934 0-3.396 1.602-3.396 3.842v6.154c0 .52-.377.92-.896.92a.905.905 0 0 1-.919-.92v-10.586z"
    fill="#D8DEE9"
  />
  <path fill="none" d="M49.401 281.982h151.66v22.395H49.401z" />
  <path fill="#2E3440" d="M58.814 141.266h100.687v74.309H58.814c-5.198 0-9.413-4.215-9.413-9.413v-55.437c-.026-5.197 4.167-9.434 9.365-9.459h.048z" />
  <path fill="#3B4252" d="M159.501 141.266h110.147v74.309H159.501v-74.309z" />
  <path fill="#434C5E" d="M269.648 141.266h110.146v74.309H269.648v-74.309z" />
  <path fill="#4C566A" d="M379.794 141.266h100.688c5.198 0 9.412 4.213 9.412 9.411v55.367c0 5.198-4.214 9.413-9.412 9.413H379.794v-74.191z" />
  <path
    d="M49.402 104.203c0-.52.424-.943.92-.943h5.258c3.726 0 6.178 1.979 6.178 5.234v.047c0 3.561-2.972 5.4-6.485 5.4h-4.008v4.998a.946.946 0 0 1-.943.943c-.496 0-.92-.426-.92-.943v-14.736zm5.942 8.039c2.735 0 4.527-1.462 4.527-3.631v-.045c0-2.36-1.769-3.585-4.433-3.585h-4.174v7.261h4.08zm8.626 1.487v-.048c0-3.442 2.689-6.365 6.368-6.365 3.653 0 6.342 2.875 6.342 6.318v.047c0 3.441-2.712 6.367-6.391 6.367-3.653.001-6.319-2.876-6.319-6.319zm10.848 0v-.048c0-2.618-1.957-4.764-4.528-4.764-2.641 0-4.456 2.146-4.456 4.717v.047c0 2.617 1.933 4.74 4.504 4.74 2.641.001 4.48-2.122 4.48-4.692zm5.302-10.375c0-.494.401-.918.896-.918.518 0 .92.424.92.918v15.609c0 .52-.377.92-.897.92a.905.905 0 0 1-.918-.92v-15.609zm5.115 12.874v-.046c0-2.572 2.121-3.939 5.209-3.939 1.556 0 2.665.215 3.75.521v-.426c0-2.192-1.345-3.325-3.633-3.325a7.594 7.594 0 0 0-3.159.685.91.91 0 0 1-.331.071c-.425 0-.802-.354-.802-.778 0-.378.26-.661.495-.755a9.631 9.631 0 0 1 3.985-.824c1.722 0 3.042.447 3.939 1.344.824.824 1.249 2.004 1.249 3.561v6.674c0 .518-.376.895-.871.895-.521 0-.873-.377-.873-.85v-1.107c-.85 1.107-2.264 2.098-4.411 2.098-2.261-.004-4.547-1.299-4.547-3.799zm8.983-.943v-1.18c-.896-.258-2.1-.519-3.584-.519-2.287 0-3.561.989-3.561 2.522v.049c0 1.531 1.415 2.429 3.065 2.429 2.241.001 4.08-1.369 4.08-3.301zm5.585-6.908a.907.907 0 1 1 1.817 0v2.286c.896-2.028 2.664-3.253 4.197-3.253.542 0 .896.4.896.918 0 .496-.329.85-.801.922-2.358.283-4.291 2.051-4.291 5.564v4.148c0 .494-.377.92-.897.92a.905.905 0 0 1-.919-.92v-10.585zm16.926-4.268c0-.496.425-.922.921-.922h.258c.426 0 .684.215.944.544l10.021 12.779v-12.45c0-.495.4-.918.919-.918.495 0 .896.423.896.918v14.902c0 .494-.354.872-.849.872h-.094c-.401 0-.684-.235-.967-.563l-10.233-13.088v12.779c0 .494-.4.92-.919.92-.496 0-.897-.426-.897-.92v-14.853zm18.317-.355c0-.589.472-.967 1.061-.967.614 0 1.084.378 1.084.967v.307c0 .566-.471.967-1.084.967-.589 0-1.061-.4-1.061-.967v-.307zm.164 4.623c0-.495.402-.921.896-.921.519 0 .92.401.92.921v10.586c0 .52-.377.92-.896.92a.907.907 0 0 1-.921-.92v-10.586zm6.343 13.769a.84.84 0 0 1-.472-.756c0-.4.4-.801.824-.801.166 0 .283.049.401.117a7.69 7.69 0 0 0 4.315 1.322c2.688 0 4.432-1.485 4.432-4.34v-1.437c-1.06 1.413-2.546 2.569-4.786 2.569-2.924 0-5.73-2.194-5.73-5.707v-.047c0-3.561 2.829-5.752 5.73-5.752 2.289 0 3.773 1.13 4.763 2.451v-1.391c0-.495.377-.921.896-.921s.921.426.921.921v9.266c0 1.887-.566 3.324-1.556 4.314-1.085 1.085-2.712 1.628-4.646 1.628a9.508 9.508 0 0 1-5.092-1.436zm9.549-9.054v-.046c0-2.5-2.169-4.128-4.48-4.128-2.311 0-4.221 1.604-4.221 4.103v.048c0 2.452 1.957 4.148 4.221 4.148 2.311 0 4.48-1.674 4.48-4.125zm5.797-9.738c0-.494.401-.918.896-.918.518 0 .92.424.92.918v6.343c.802-1.319 2.075-2.38 4.172-2.38 2.948 0 4.669 1.979 4.669 4.88v6.767a.9.9 0 0 1-.896.92.905.905 0 0 1-.918-.92v-6.32c0-2.263-1.227-3.676-3.373-3.676-2.099 0-3.655 1.531-3.655 3.818v6.178c0 .52-.377.92-.897.92a.905.905 0 0 1-.918-.92v-15.61zm15.158 13.179v-7.355h-.99a.825.825 0 0 1-.801-.801.81.81 0 0 1 .801-.803h.99v-2.876c0-.495.377-.921.896-.921.496 0 .921.426.921.921v2.876h3.158c.449 0 .827.377.827.803 0 .447-.377.801-.827.801h-3.158v7.121c0 1.484.824 2.028 2.051 2.028.636 0 .967-.166 1.107-.166.425 0 .778.354.778.778 0 .332-.212.59-.518.707-.519.214-1.084.331-1.792.331-1.958.001-3.443-.966-3.443-3.444z"
    fill="#D8DEE9"
  />
  <path fill="none" d="M49.047 98.352h139.824v21.906H49.047z" />
</svg>
