<svg xmlns="http://www.w3.org/2000/svg" viewBox="0 0 512 510">
  <path fill="#ECEFF4" d="M220.79 501.756c22.181 2.788 42.421-12.938 45.207-35.125a40.473 40.473 0 0 0-4.101-23.438 280.585 280.585 0 0 0-5.867-10.888c-50.34-88.118 19.474-132.125 106.107-76.495 70.509 45.237 142.012-32.213 142.012-99.743-.031-137.065-111.14-248.153-248.173-248.123C118.943 7.974 7.88 119.111 7.91 256.175c.027 123.29 90.536 227.868 212.522 245.557l.358.024z"/>
  <ellipse fill="#5E81AC" cx="391.734" cy="226.688" rx="51.08" ry="51.094"/>
  <ellipse fill="#81A1C1" cx="289.127" cy="106.633" rx="45.252" ry="45.262"/>
  <ellipse fill="#88C0D0" cx="152.717" cy="151.694" rx="41.917" ry="41.926"/>
  <ellipse fill="#8FBCBB" cx="107.057" cy="273.196" rx="38.18" ry="38.189"/>
  <ellipse fill="#D8DEE9" cx="156.901" cy="386.175" rx="32.199" ry="32.207"/>
  <path fill="#4C566A" d="M429.888 261.546a7.845 7.845 0 0 0 10.894-2.169c18.05-27.089 10.726-63.687-16.358-81.741-27.085-18.054-63.673-10.729-81.723 16.361-18.05 27.091-10.726 63.688 16.357 81.742a58.917 58.917 0 0 0 32.652 9.895 7.853 7.853 0 0 0 7.852-7.853 7.853 7.853 0 0 0-7.852-7.854c-23.871-.003-43.222-19.362-43.219-43.238.003-23.877 19.356-43.232 43.228-43.229 23.872.002 43.221 19.361 43.218 43.237a43.252 43.252 0 0 1-7.246 23.959 7.862 7.862 0 0 0 2.197 10.89zM289.127 53.523c-29.328 0-53.104 23.78-53.104 53.116 0 29.335 23.776 53.116 53.104 53.116 29.327 0 53.104-23.781 53.104-53.116-.032-29.323-23.789-53.085-53.104-53.116zm0 90.519c-20.656 0-37.401-16.748-37.401-37.409 0-20.66 16.745-37.41 37.401-37.41 20.655 0 37.4 16.75 37.4 37.41-.024 20.65-16.756 37.384-37.4 37.409zm-136.41-42.128c-27.486 0-49.768 22.288-49.768 49.78s22.282 49.78 49.768 49.78 49.768-22.287 49.768-49.78c-.03-27.48-22.294-49.749-49.768-49.78zm0 83.859c-18.813 0-34.064-15.255-34.064-34.072s15.251-34.073 34.064-34.073c18.814 0 34.064 15.255 34.064 34.073-.023 18.807-15.26 34.048-34.064 34.072zm.371 87.422c0-25.429-20.609-46.042-46.031-46.042-25.422 0-46.03 20.613-46.03 46.042s20.608 46.043 46.03 46.043c25.411-.03 46.003-20.625 46.031-46.043zm-46.031 30.335c-16.749 0-30.327-13.581-30.327-30.335s13.578-30.334 30.327-30.334c16.75 0 30.328 13.58 30.328 30.334-.018 16.746-13.585 30.316-30.328 30.335zm49.85 122.706c22.123 0 40.058-17.938 40.058-40.067 0-22.128-17.935-40.066-40.058-40.066s-40.057 17.938-40.057 40.066v.007c.028 22.115 17.947 40.034 40.057 40.06zm0-64.414c13.45 0 24.354 10.907 24.354 24.359 0 13.454-10.903 24.359-24.354 24.359-13.45 0-24.353-10.905-24.353-24.359.014-13.446 10.909-24.345 24.353-24.359z"/>
  <path fill="#4C566A" d="M430.655 68.859c-87.063-81.382-218.803-91.775-317.542-25.05-3.623 2.384-4.627 7.255-2.243 10.878s7.253 4.628 10.875 2.243l.161-.109C214.583-5.802 338.229 3.957 419.938 80.344a241.23 241.23 0 0 1 76.357 175.723c-1.052 39.649-22.384 75.98-56.49 96.212-23 13.305-51.621 12.105-73.431-3.079-47.261-30.333-94.084-34.469-119.278-10.537-21.759 20.671-20.967 57.138 2.117 97.545a218.224 218.224 0 0 1 5.652 10.536 32.445 32.445 0 0 1-2.619 33.979 31.718 31.718 0 0 1-30.722 13.193C90.3 474.998-.747 353.257 18.167 222A240.146 240.146 0 0 1 82.314 90.258a7.855 7.855 0 0 0-.248-11.105 7.851 7.851 0 0 0-11.103.249c-97.654 102.089-94.078 264.033 7.987 361.71a255.753 255.753 0 0 0 140.784 68.429c2.219.304 4.456.457 6.696.458a46.996 46.996 0 0 0 38.638-20.168 48.54 48.54 0 0 0 3.838-50.183 253.96 253.96 0 0 0-6.062-11.227c-19.253-33.722-21.1-63.019-4.931-78.375 16.168-15.356 53.393-17.535 99.982 12.371 26.667 18.224 61.389 19.638 89.448 3.646 39.016-23.118 63.43-64.656 64.655-109.997a256.991 256.991 0 0 0-81.343-187.207z"/>
</svg>
