<svg xmlns="http://www.w3.org/2000/svg" viewBox="0 0 437.316 512">
  <path fill="#8FBCBB" d="M88.383 445.422c-8.913 8.913-23.419 8.913-32.34 0-8.913-8.921-8.913-23.427 0-32.34 4.461-4.461 10.313-6.691 16.174-6.691 5.853 0 11.714 2.23 16.166 6.691 8.921 8.913 8.921 23.419 0 32.34z"/>
  <path fill="#88C0D0" d="M203.567 452.878v45.74h45.73v-45.74h-45.73zm26.558 29.557h-7.387c-3.693 0-6.69-2.997-6.69-6.691s2.997-6.691 6.69-6.691h7.387c3.703 0 6.691 2.997 6.691 6.691s-2.988 6.691-6.691 6.691z"/>
  <path fill="#8FBCBB" d="M390.451 90.005c-4.461 4.46-10.313 6.682-16.174 6.682-5.852 0-11.715-2.222-16.166-6.682h-.01c-4.461-4.461-6.682-10.313-6.682-16.174 0-5.852 2.221-11.714 6.682-16.166 4.461-4.461 10.313-6.691 16.176-6.691 5.852 0 11.713 2.23 16.174 6.691 8.912 8.913 8.912 23.428 0 32.34z"/>
  <path fill="#5E81AC" d="M198.469 13.382v45.739h45.732V13.382h-45.732zm26.558 29.556h-7.387a6.688 6.688 0 0 1-6.691-6.691 6.694 6.694 0 0 1 6.691-6.691h7.387a6.694 6.694 0 0 1 6.691 6.691 6.687 6.687 0 0 1-6.691 6.691z"/>
  <path fill="#88C0D0" d="M90.918 73.236c0 6.111-2.373 11.856-6.691 16.174-8.921 8.913-23.427 8.913-32.349 0-4.317-4.318-6.691-10.063-6.691-16.174 0-6.103 2.374-11.848 6.691-16.166 4.46-4.46 10.322-6.691 16.174-6.691 5.853 0 11.713 2.23 16.174 6.691 4.319 4.318 6.692 10.063 6.692 16.166z"/>
  <path fill="#4C566A" d="M231.719 36.247a6.688 6.688 0 0 1-6.691 6.691h-7.387a6.688 6.688 0 0 1-6.691-6.691 6.694 6.694 0 0 1 6.691-6.691h7.387a6.694 6.694 0 0 1 6.691 6.691zm5.097 439.496a6.687 6.687 0 0 1-6.691 6.691h-7.387c-3.693 0-6.69-2.997-6.69-6.691s2.997-6.691 6.69-6.691h7.387a6.687 6.687 0 0 1 6.691 6.691z"/>
  <path fill="#5E81AC" d="M378.195 228.461v45.731h45.738v-45.731h-45.738zm29.565 26.56a6.693 6.693 0 0 1-6.691 6.691 6.688 6.688 0 0 1-6.691-6.691v-7.387a6.683 6.683 0 0 1 6.691-6.691 6.688 6.688 0 0 1 6.691 6.691v7.387z"/>
  <path fill="#4C566A" d="M407.76 247.633v7.387a6.693 6.693 0 0 1-6.691 6.691 6.688 6.688 0 0 1-6.691-6.691v-7.387a6.683 6.683 0 0 1 6.691-6.691 6.688 6.688 0 0 1 6.691 6.691z"/>
  <path fill="#4C566A" d="M430.625 215.079h-59.121a6.688 6.688 0 0 0-6.691 6.691v22.866H306.32v13.382h58.492v22.866a6.688 6.688 0 0 0 6.691 6.69h59.121a6.688 6.688 0 0 0 6.691-6.69V221.77a6.687 6.687 0 0 0-6.69-6.691zm-6.691 59.113h-45.738v-45.731h45.738v45.731zm-96.545-162.93h8.416v10.507l18.016-18.016a36.232 36.232 0 0 0 20.457 6.316c9.287 0 18.564-3.533 25.631-10.599v-.009c14.131-14.131 14.131-37.122 0-51.262-14.133-14.131-37.131-14.131-51.262 0-12.518 12.517-13.945 31.983-4.293 46.088l-16.965 16.975zm30.713-53.597c4.461-4.461 10.313-6.691 16.176-6.691 5.852 0 11.713 2.23 16.174 6.691 8.912 8.913 8.912 23.428 0 32.34-4.461 4.46-10.313 6.682-16.174 6.682-5.852 0-11.715-2.222-16.166-6.682h-.01c-4.461-4.461-6.682-10.313-6.682-16.174 0-5.852 2.221-11.714 6.682-16.166z"/>
  <path fill="#81A1C1" d="M13.382 229.651v45.73h45.74v-45.73h-45.74zm29.566 26.558a6.693 6.693 0 0 1-6.691 6.691 6.688 6.688 0 0 1-6.691-6.691v-7.395a6.68 6.68 0 0 1 3.498-5.88 6.634 6.634 0 0 1 3.193-.811 6.63 6.63 0 0 1 3.185.811 6.523 6.523 0 0 1 1.543 1.151 6.65 6.65 0 0 1 1.963 4.729v7.395z"/>
  <path fill="#4C566A" d="M42.948 248.814v7.395a6.693 6.693 0 0 1-6.691 6.691 6.688 6.688 0 0 1-6.691-6.691v-7.395a6.68 6.68 0 0 1 3.498-5.88 6.634 6.634 0 0 1 3.193-.811 6.63 6.63 0 0 1 3.185.811 6.523 6.523 0 0 1 1.543 1.151 6.65 6.65 0 0 1 1.963 4.729z"/>
  <path fill="#4C566A" d="M72.504 282.072v-22.865h58.938v-13.382H72.504V222.96a6.688 6.688 0 0 0-6.691-6.691H6.691A6.688 6.688 0 0 0 0 222.96v59.112a6.687 6.687 0 0 0 6.691 6.69h59.122a6.687 6.687 0 0 0 6.691-6.69zm-13.382-29.573v22.882h-45.74v-45.73h45.74v22.848zM191.778 72.503h22.865v57.451h13.382V72.503h22.865a6.687 6.687 0 0 0 6.691-6.691V6.691A6.687 6.687 0 0 0 250.89 0h-59.113a6.693 6.693 0 0 0-6.691 6.691v59.121a6.694 6.694 0 0 0 6.692 6.691zm6.691-59.121h45.73v45.739h-45.732V13.382zm57.519 426.114h-22.865v-59.384h-13.381v59.384h-22.867a6.693 6.693 0 0 0-6.691 6.691v59.121a6.695 6.695 0 0 0 6.691 6.691h59.113a6.688 6.688 0 0 0 6.691-6.691v-59.121a6.686 6.686 0 0 0-6.691-6.691zm-6.691 59.122h-45.73v-45.74h45.73v45.74zm-128.25-108.735h-9.912v-9.019l-18.461 18.461c-14.105-9.653-33.571-8.226-46.088 4.29-7.065 7.067-10.607 16.345-10.607 25.632s3.542 18.565 10.607 25.632c7.066 7.066 16.344 10.607 25.631 10.607 9.278 0 18.565-3.541 25.631-10.607 12.517-12.517 13.944-31.983 4.292-46.088l18.907-18.908zm-32.664 55.539c-8.913 8.913-23.419 8.913-32.34 0-8.913-8.921-8.913-23.427 0-32.34 4.461-4.461 10.313-6.691 16.174-6.691 5.853 0 11.714 2.23 16.166 6.691 8.921 8.913 8.921 23.419 0 32.34zm-20.33-335.948a36.197 36.197 0 0 0 20.457-6.316l18.461 18.461v-10.952h7.978L97.976 93.701c4.113-5.977 6.334-13.052 6.334-20.465 0-9.68-3.774-18.779-10.626-25.631-14.131-14.131-37.13-14.131-51.262 0-6.843 6.852-10.617 15.951-10.617 25.631 0 9.688 3.774 18.789 10.617 25.64 7.066 7.065 16.353 10.598 25.631 10.598zM51.879 57.07c4.46-4.46 10.322-6.691 16.174-6.691 5.853 0 11.713 2.23 16.174 6.691 4.318 4.318 6.691 10.063 6.691 16.166 0 6.111-2.373 11.856-6.691 16.174-8.921 8.913-23.427 8.913-32.349 0-4.317-4.318-6.691-10.063-6.691-16.174.001-6.103 2.375-11.848 6.692-16.166z"/>
  <path fill="#81A1C1" d="M383.559 445.253a22.723 22.723 0 0 1-16.166 6.699 22.732 22.732 0 0 1-16.174-6.699c-4.461-4.461-6.682-10.313-6.682-16.175 0-5.853 2.221-11.714 6.682-16.165a22.723 22.723 0 0 1 16.174-6.7c6.104 0 11.85 2.381 16.166 6.7 8.921 8.912 8.921 23.418 0 32.34z"/>
  <path fill="#4C566A" d="M367.393 392.831c-7.412 0-14.488 2.212-20.465 6.325l-18.006-18.016v8.572h-10.359l18.908 18.908c-9.654 14.114-8.225 33.572 4.291 46.088 6.844 6.852 15.943 10.616 25.631 10.616 9.68 0 18.779-3.765 25.633-10.616 14.131-14.131 14.131-37.13 0-51.263-6.854-6.849-15.954-10.614-25.633-10.614zm16.166 52.422a22.723 22.723 0 0 1-16.166 6.699 22.732 22.732 0 0 1-16.174-6.699c-4.461-4.461-6.682-10.313-6.682-16.175 0-5.853 2.221-11.714 6.682-16.165a22.723 22.723 0 0 1 16.174-6.7c6.104 0 11.85 2.381 16.166 6.7 8.921 8.912 8.921 23.418 0 32.34z"/>
  <path fill="#88C0D0" d="M324.074 401.906h-199.79c-9.256 0-16.761-7.505-16.761-16.762V121.757c0-9.257 7.503-16.761 16.761-16.761h199.792c9.256 0 16.762 7.503 16.762 16.761v263.389c-.002 9.255-7.506 16.76-16.764 16.76z"/>
  <path fill="#81A1C1" d="M324.074 104.996h-30.461c9.258 0 16.762 7.503 16.762 16.76v263.389c0 9.257-7.504 16.761-16.762 16.761h30.461c9.256 0 16.762-7.504 16.762-16.761V121.756c0-9.257-7.504-16.76-16.762-16.76z"/>
  <circle fill="#E5E9F0" cx="139.723" cy="137.525" r="12.181"/>
  <circle fill="#E5E9F0" cx="308.635" cy="137.525" r="12.181"/>
  <circle fill="#E5E9F0" cx="139.723" cy="369.378" r="12.182"/>
  <circle fill="#E5E9F0" cx="308.635" cy="369.378" r="12.182"/>
  <path fill="#ECEFF4" d="M286.395 336.175H161.963a7.308 7.308 0 0 1-7.309-7.31v-150.83a7.308 7.308 0 0 1 7.309-7.308h124.431a7.308 7.308 0 0 1 7.311 7.308v150.83a7.31 7.31 0 0 1-7.31 7.31z"/>
  <path fill="#E5E9F0" d="M286.395 170.727h-31.387a7.309 7.309 0 0 1 7.309 7.308v150.83a7.31 7.31 0 0 1-7.309 7.31h31.387a7.309 7.309 0 0 0 7.311-7.31v-150.83a7.31 7.31 0 0 0-7.311-7.308z"/>
  <path d="M127.543 137.524c0 6.728 5.454 12.181 12.181 12.181v-24.363c-6.726.001-12.181 5.454-12.181 12.182zm168.91 0c0 6.728 5.453 12.181 12.182 12.181v-24.363c-6.729.001-12.182 5.454-12.182 12.182zm0 231.852c0 6.729 5.453 12.182 12.182 12.182v-24.363c-6.729 0-12.182 5.454-12.182 12.181zm-168.91 0c0 6.729 5.454 12.182 12.181 12.182v-24.363c-6.726 0-12.181 5.454-12.181 12.181z" fill="#FFF"/>
  <path fill="#4C566A" d="M188.4 265.186c-6.325 0-7.999-4.381-10.542-4.381-1.923 0-3.535 2.39-3.535 3.982 0 3.3 6.201 7.055 14.326 7.055 8.558 0 14.758-4.211 14.758-12.346 0-14.732-19.906-12.288-19.906-19.341 0-2.729 2.543-4.379 7.007-4.379 5.208 0 6.635 2.161 8.558 2.161 2.231 0 3.225-2.616 3.225-3.926 0-3.753-8.124-4.55-11.783-4.55-7.132 0-15.068 2.901-15.068 11.378 0 13.482 19.906 10.865 19.906 19.398 0 3.412-3.225 4.949-6.946 4.949zm32.37 0c-6.325 0-7.999-4.381-10.542-4.381-1.922 0-3.534 2.39-3.534 3.982 0 3.3 6.201 7.055 14.325 7.055 8.557 0 14.758-4.211 14.758-12.346 0-14.732-19.906-12.288-19.906-19.341 0-2.729 2.542-4.379 7.008-4.379 5.207 0 6.635 2.161 8.557 2.161 2.232 0 3.225-2.616 3.225-3.926 0-3.753-8.123-4.55-11.781-4.55-7.131 0-15.069 2.901-15.069 11.378 0 13.482 19.905 10.865 19.905 19.398-.001 3.412-3.226 4.949-6.946 4.949zm24.06 6.143h10.975c8.186 0 14.574-3.527 14.574-13.027v-15.531c0-9.5-6.389-13.027-14.574-13.027H244.83c-2.109 0-3.537 1.081-3.537 2.276v37.034c.002 1.193 1.428 2.275 3.537 2.275zm4.525-35.1h6.449c4.094 0 6.512 2.104 6.512 6.542v15.531c0 4.438-2.418 6.543-6.512 6.543h-6.449v-28.616z"/>
  <path fill="#4C566A" d="M340.836 191.492a4.48 4.48 0 0 0-4.482 4.481v189.172c0 6.771-5.508 12.279-12.277 12.279H124.284c-6.771 0-12.279-5.509-12.279-12.279v-59.704a4.482 4.482 0 0 0-8.963 0v59.704c0 11.713 9.53 21.243 21.243 21.243h199.792c11.711 0 21.242-9.53 21.242-21.243V195.974a4.484 4.484 0 0 0-4.483-4.482zm-16.76-90.978H124.284c-11.713 0-21.243 9.53-21.243 21.242v179.783a4.482 4.482 0 0 0 8.963 0V121.756c0-6.771 5.509-12.28 12.281-12.28h199.791c6.77 0 12.279 5.509 12.279 12.28v50.315a4.481 4.481 0 1 0 8.962 0v-50.315c.001-11.713-9.53-21.242-21.241-21.242z"/>
  <path fill="#4C566A" d="M172.221 148.647a4.481 4.481 0 0 0-4.482 4.482v13.116h-5.776c-6.501 0-11.791 5.289-11.791 11.791v150.831c0 6.502 5.29 11.79 11.791 11.79h5.776v13.117a4.483 4.483 0 0 0 8.964 0v-13.117h17.015v13.117a4.482 4.482 0 0 0 8.963 0v-13.117h17.016v13.117a4.482 4.482 0 0 0 8.964 0v-13.117h17.016v13.117a4.482 4.482 0 0 0 8.964 0v-13.117h17.016v13.117a4.48 4.48 0 0 0 8.962 0v-13.117h5.777c6.5 0 11.789-5.288 11.789-11.79V178.035c0-6.501-5.289-11.79-11.789-11.79h-5.777v-13.116a4.48 4.48 0 1 0-8.962 0v13.116h-17.016v-13.116c0-2.476-2.006-4.482-4.482-4.482s-4.482 2.006-4.482 4.482v13.116h-17.016v-13.116a4.482 4.482 0 1 0-8.964 0v13.116h-17.016v-13.116a4.48 4.48 0 1 0-8.963 0v13.116h-17.015v-13.116a4.484 4.484 0 0 0-4.482-4.482zm114.174 26.561a2.83 2.83 0 0 1 2.828 2.827v150.83a2.83 2.83 0 0 1-2.828 2.828H161.963a2.83 2.83 0 0 1-2.827-2.828v-150.83a2.83 2.83 0 0 1 2.827-2.827h124.432zm-146.67-54.346c-9.188 0-16.663 7.475-16.663 16.663s7.475 16.663 16.663 16.663c9.189 0 16.664-7.475 16.664-16.663s-7.477-16.663-16.664-16.663zm0 24.362c-4.246 0-7.699-3.454-7.699-7.699 0-4.245 3.455-7.699 7.699-7.699 4.247 0 7.7 3.454 7.7 7.699 0 4.245-3.455 7.699-7.7 7.699zm168.91-24.362c-9.188 0-16.664 7.475-16.664 16.663s7.477 16.663 16.664 16.663 16.664-7.475 16.664-16.663-7.477-16.663-16.664-16.663zm0 24.362c-4.246 0-7.699-3.454-7.699-7.699 0-4.245 3.453-7.699 7.699-7.699s7.699 3.454 7.699 7.699c0 4.245-3.453 7.699-7.699 7.699zm-168.91 240.815c9.189 0 16.664-7.475 16.664-16.663s-7.475-16.662-16.664-16.662c-9.188 0-16.663 7.475-16.663 16.662 0 9.188 7.475 16.663 16.663 16.663zm0-24.362c4.247 0 7.7 3.454 7.7 7.699 0 4.247-3.454 7.699-7.7 7.699s-7.699-3.453-7.699-7.699c-.001-4.245 3.453-7.699 7.699-7.699zm168.91-8.963c-9.188 0-16.664 7.475-16.664 16.662 0 9.188 7.477 16.663 16.664 16.663s16.664-7.475 16.664-16.663-7.477-16.662-16.664-16.662zm0 24.363c-4.246 0-7.699-3.454-7.699-7.699 0-4.247 3.453-7.701 7.699-7.701s7.699 3.455 7.699 7.701c0 4.245-3.453 7.699-7.699 7.699z"/>
</svg>
