<svg xmlns="http://www.w3.org/2000/svg" viewBox="0 0 1678.836 503.798">
  <path fill="#2E3440" d="M208.18 1.128c36.453 0 66.002 29.547 66.002 65.999 0 36.454-29.55 66.001-66.002 66.001-36.451 0-65.998-29.547-65.998-66.001.001-36.452 29.547-65.999 65.998-65.999z"/>
  <path fill="#88C0D0" d="M194.829 32.69c-.851-.024-1.651.056-2.189.237-2.606.904-4.247 2.856-5.158 6.115-.779 2.836-.756 7.943.061 12.386.143.773.291 1.477.324 1.591.044.159-.236.253-1.47.538-6.031 1.394-10.438 3.479-13.087 6.181-1.186 1.201-1.847 2.252-2.229 3.58-.268.923-.268 2.749 0 3.654.741 2.497 2.826 4.847 6.125 6.92 2.283 1.433 2.969 1.591 3.709.845.345-.351.422-.521.422-.943 0-.818-.247-1.147-1.322-1.772-6.75-3.841-7.938-7.699-3.43-11.132 2.288-1.739 5.487-3.111 9.789-4.176 1.888-.468 2.311-.528 2.311-.275 0 .341 1.388 4.836 2.107 6.781l.74 2.025-.977 1.909c-3.901 7.628-6.404 15.397-6.7 21.083-.247 4.381.532 7.514 2.442 9.457 2.085 2.111 5.021 2.562 8.796 1.338 1.427-.467 4.253-1.921 5.899-3.051 1.186-.807 1.454-1.043 1.607-1.465.16-.423.16-.561 0-.999-.235-.664-.729-1.031-1.398-1.031-.434 0-.736.143-1.861.91-2.54 1.75-4.933 2.843-6.914 3.184-2.744.471-4.505-.753-5.312-3.655-.351-1.264-.329-5.302.055-7.387.582-3.325 1.603-6.771 3.062-10.406.861-2.156 2.507-5.766 2.732-5.996.11-.133.258.07.626.938 1.887 4.284 4.763 9.516 7.583 13.752 6.711 10.092 14.07 16.655 19.732 17.599l-.06.012c2.486.405 4.588-.215 6.212-1.86 1.328-1.361 2.195-3.282 2.694-5.942.302-1.67.302-6.345 0-8.612-.917-6.799-3.37-14.58-7.035-22.345-.571-1.216-.889-1.518-1.63-1.518-.829-.005-1.498.64-1.498 1.457 0 .285.28 1.047.752 2.063 4.516 9.746 6.941 19.175 6.694 26.001-.148 4.062-1.152 6.515-3.051 7.453-.994.499-2.255.482-3.913-.066-7.617-2.606-17.933-15.651-24.579-31.088l-.659-1.542.966-1.663c1.086-1.893 3.83-6.127 5.098-7.867l.851-1.152h2.244c13.625 0 27.114 3.117 34.264 7.9 1.459.978 3.215 2.755 3.742 3.797.384.73.417.923.417 1.883 0 .944-.033 1.175-.346 1.751-.878 1.701-3.183 3.467-6.157 4.729-1.377.59-1.75.979-1.75 1.78 0 .681.445 1.25 1.103 1.454.428.126.571.104 1.333-.204 4.796-1.92 8.094-4.901 8.764-7.918.192-.817.181-2.349-.006-3.146-.362-1.558-1.646-3.55-3.111-4.895-6.552-5.946-20.44-9.782-36.919-10.177l-1.175-.039 1.377-1.561a75.423 75.423 0 0 1 2.963-3.257c4.686-4.822 9.038-7.98 12.84-9.292 1.213-.433 1.454-.481 2.711-.481 1.169 0 1.455.032 1.959.296.686.329 1.454 1.136 1.849 1.896.773 1.556 1.031 4.284.664 7.188-.126.997-.225 2.15-.225 2.551 0 .67.021.774.4 1.103.313.297.526.369.933.369.653 0 1.257-.347 1.432-.824.538-1.404.818-6.387.472-8.49-.538-3.224-1.904-5.399-4.083-6.453-3.841-1.886-9.427-.043-15.946 5.244-3.403 2.769-7.896 7.466-10.986 11.478l-.302.356-1.827.11c-1.537.087-4.039.334-6.941.686l-.626.076-.274-1.553c-.527-3.092-.571-3.559-.571-6.519 0-2.603.038-3.103.285-4.142.604-2.632 1.806-4.267 3.386-4.606 2.173-.464 4.873.637 8.665 3.481 1.213.92 2.689.135 2.502-1.317-.071-.633-.652-1.179-2.579-2.481-1.613-1.104-3.43-2.01-4.911-2.45-.73-.224-1.625-.344-2.475-.371l-.012-.018zm2.897 22.333c0 .061-.51.861-1.152 1.816a82.992 82.992 0 0 0-2.02 3.111c-.46.758-.905 1.45-.999 1.554-.121.135-.301-.23-.851-1.997-.784-2.438-1.119-3.755-1.021-3.864.172-.175 6.043-.79 6.043-.62zm11.898 9.229a4.303 4.303 0 0 0-4.302 4.308 4.303 4.303 0 0 0 4.302 4.302 4.307 4.307 0 0 0 4.307-4.302 4.308 4.308 0 0 0-4.307-4.308z"/>
  <path fill="#2E3440" d="M60.001 191.898c33.134 0 59.999 26.862 59.999 59.998 0 33.141-26.865 60.002-59.999 60.002C26.862 311.898 0 285.037 0 251.896c0-33.135 26.862-59.998 60.001-59.998z"/>
  <path fill-opacity=".1" d="M27.334 225.755l-1.306 1.308v2.609l1.306 1.303h3.913v50.869l1.303 1.302h3.916l57.388-53.474v-2.609l-1.306-1.308H69.07l-1.303 1.308v2.609l1.303 1.303h3.916v2.606l-28.694 26.091v-28.697h3.911l1.305-1.303v-2.609l-1.305-1.308H27.334zm40.16 31.306l-1.848 1.307-.875 2.606.977 1.303h2.819l1.851-1.303.873-2.606-.973-1.307m-9.59 7.827l-.788 2.609h2.35l-4.958 13.043h7.827l.963-2.611h-2.266l4.954-13.041m3.128 0l-.913 2.609h1.955l-4.953 13.043h6.651l.912-2.611h-1.437l2.745-7.826h5.541l-3.72 10.438h6.524l1.043-2.611h-1.431l2.738-7.826h5.213l-3.652 10.438h6.84l1.195-2.611h-1.825l3.707-10.432-2.091-2.609h-3.127l-2.608 2.609H89.03l-2.221-2.609H84.33l-2.476 2.609h-2.613l-2.345-2.609"/>
  <path fill="#88C0D0" d="M24.781 223.2l-1.308 1.308v2.609l1.308 1.3h3.91v50.872l1.305 1.304h3.914l57.39-53.476v-2.609l-1.308-1.308H66.517l-1.303 1.308v2.609l1.303 1.3h3.916v2.61l-28.694 26.088v-28.698h3.91l1.305-1.3v-2.609l-1.305-1.308H24.781zm40.159 31.306l-1.85 1.308-.875 2.602.979 1.31h2.817l1.852-1.31.873-2.602-.973-1.308m-9.591 7.828l-.785 2.611h2.349l-4.958 13.036h7.828l.962-2.605h-2.264l4.952-13.042m3.129 0l-.915 2.611h1.957l-4.953 13.036h6.649l.913-2.605H71.6l2.743-7.831h5.543l-3.723 10.437h6.526l1.043-2.605h-1.434l2.741-7.831h5.213L86.6 277.983h6.839l1.198-2.605h-1.826l3.706-10.431-2.091-2.611H91.3l-2.61 2.611h-2.215l-2.219-2.611h-2.481l-2.472 2.611h-2.616l-2.345-2.611"/>
  <path fill="#2E3440" d="M152.467 382.277c32.034 0 58.002 25.971 58.002 58 0 32.035-25.969 58-58.002 58-32.029 0-57.998-25.965-57.998-58 0-32.029 25.969-58 57.998-58z"/>
  <path d="M181.463 464.235v-10.086h-30.26v10.086m-23.335-10.086l-6.915-7.334 15.563-12.839-15.563-12.839 6.915-7.334 23.345 20.173" fill="#88C0D0"/>
  <path fill="#2E3440" d="M1486.361 1.703c34.244 0 62 27.757 62 61.997 0 34.246-27.756 62.003-62 62.003-34.245 0-62-27.757-62-62.003 0-34.24 27.755-61.997 62-61.997z"/>
  <path fill-opacity=".1" d="M1523.308 38.431l-16.352-6.403-28.538 27.146-17.188-12.778-6.535 3.21-.006 33.512 6.505 3.189 17.171-12.769 28.611 27.122 16.337-6.378-.005-55.851zm-60.444 35.101l-.011-14.349 8.173 7.125-8.162 7.224zM1489 66.306l16.331-11.926.005 23.945L1489 66.306z"/>
  <path fill="#88C0D0" d="M1520.669 35.79l-16.353-6.403-28.54 27.147-17.187-12.778-6.536 3.21-.006 33.511 6.508 3.19 17.171-12.769 28.611 27.122 16.337-6.379-.005-55.851zm-60.443 35.104l-.011-14.349 8.17 7.124-8.159 7.225zm26.135-7.231l16.331-11.922.005 23.945-16.336-12.023z"/>
  <path fill="#2E3440" d="M1621.839 191.938c31.479 0 56.997 25.519 56.997 56.997 0 31.483-25.519 57.003-56.997 57.003-31.484 0-57.003-25.52-57.003-57.003 0-31.479 25.518-56.997 57.003-56.997z"/>
  <path fill="#3B4252" d="M1590.403 215.479h64.438v64.438h-64.438v-64.438z"/>
  <path fill="#8FBCBB" d="M1615.19 227.871v-4.955h-14.876v4.955h4.961v17.347h-4.961v4.96h14.876v-4.96h-4.96v-17.347m16.338 22.262c-2.996-.346-5.101-2.297-6.987-4.019l3.01-3.397c.985 1.024 2.476 2.257 4.02 2.461 1.545.203 3.535.033 4.732-.976 1.193-1.016 1.193-2.391 1.193-4.03v-17.256h4.951l-.007 17.554c.007 3.489-1.315 5.846-2.544 7.158-1.955 2.005-4.488 2.208-6.855 2.534"/>
  <path fill="#D8DEE9" d="M1595.364 267.523h24.781v4.957h-24.781v-4.957z"/>
  <path fill="#2E3440" d="M1536.364 342.778c32.587 0 59 26.414 59 59.003 0 32.583-26.413 58.997-59 58.997s-59-26.414-59-58.997c0-32.589 26.413-59.003 59-59.003z"/>
  <path fill="#3B4252" d="M1550.07 364.104h-37.842a5.38 5.38 0 0 0-5.383 5.38v64.593a5.383 5.383 0 0 0 5.383 5.38h48.272a5.383 5.383 0 0 0 5.382-5.38v-54.16l-15.812-15.813z"/>
  <path opacity=".1" d="M1555.094 369.125h-37.841a5.382 5.382 0 0 0-5.381 5.387v64.587a5.384 5.384 0 0 0 5.381 5.381h48.271a5.383 5.383 0 0 0 5.38-5.381v-54.16l-15.81-15.814z"/>
  <path fill="#88C0D0" d="M1536.364 409.856a8.078 8.078 0 0 1-8.075-8.075 8.078 8.078 0 0 1 8.075-8.076 8.079 8.079 0 0 1 8.075 8.076 8.078 8.078 0 0 1-8.075 8.075m13.706-35.324a5.38 5.38 0 0 0 5.38 5.385h10.433l-15.813-15.813v10.428z"/>
  <path fill="#2E3440" d="M291.365 305.804c29.824 0 54.003 24.177 54.003 53.998 0 29.825-24.179 54.002-54.003 54.002-29.818 0-53.997-24.177-53.997-54.002 0-29.822 24.179-53.998 53.997-53.998z"/>
  <path opacity=".1" d="M318.142 326.973a1.132 1.132 0 0 0-.511.048l-49.904 15.843c-.497.153-.914.6-1.14 1.125a1.232 1.232 0 0 0-.176.628v16.3c0 .25.078.456.176.633.226.521.643.967 1.14 1.128l21.19 6.725-21.19 6.72c-.727.23-1.315 1.069-1.315 1.877v16.188c0 .792.589 1.257 1.315 1.021l49.904-15.837c.722-.219 1.315-1.058 1.319-1.861 0-.01.005-.02.005-.029v-16.183c0-.804-.589-1.644-1.319-1.87l-20.976-6.66 20.971-6.655c.722-.235 1.319-1.069 1.319-1.866v-16.189c0-.597-.338-1.009-.808-1.086z"/>
  <path fill="#5E81AC" d="M316.315 358.694c0-.807-.589-1.264-1.311-1.037L265.1 373.495c-.727.235-1.32 1.069-1.32 1.866v16.189c0 .801.594 1.262 1.32 1.036l49.904-15.843c.722-.228 1.311-1.063 1.311-1.865v-16.184z"/>
  <path opacity=".1" d="M288.922 365.94l-5.448 1.726 30.068 9.549 1.458-.471c.727-.228 1.32-1.063 1.32-1.865v-.25l-27.398-8.689z"/>
  <path fill="#81A1C1" d="M263.78 358.174c0 .803.594 1.642 1.32 1.872l49.909 15.841c.727.22 1.32-.233 1.32-1.037v-16.188c0-.804-.594-1.638-1.32-1.864L265.1 340.959c-.727-.235-1.32.229-1.32 1.026v16.189z"/>
  <path fill="#88C0D0" d="M316.315 325.426c0-.797-.589-1.262-1.311-1.031L265.1 340.233c-.727.228-1.32 1.066-1.32 1.87v16.183c0 .804.594 1.262 1.32 1.039l49.904-15.838c.722-.234 1.311-1.069 1.311-1.871v-16.19z"/>
  <path fill="#5E81AC" d="M1514.436 211.704c-3.416 1.402-6.031 4.997-8.789 8.186-5.125 8.527.544 13.459 6.208 18.383.005 0 .006-.005.01-.005a49.768 49.768 0 0 0 4.424-5.435c.004-.004.004-.004.004-.008a53.32 53.32 0 0 0 1.897-2.922v-.004a45.696 45.696 0 0 0 1.68-3.059 49.058 49.058 0 0 0 3.708-9.799c.296-1.127.544-2.272.757-3.43h.005v-.006c-4.09-2.769-7.245-2.998-9.904-1.901z"/>
  <path fill="#88C0D0" d="M1449.817 234.218c-2.668.77-4.988 2.619-6.666 6.688a48.879 48.879 0 0 0 8.356 6.141v.005c.99.578 2.01 1.13 3.037 1.63a46.793 46.793 0 0 0 6.383 2.61c.004 0 .004 0 .004.006a49.8 49.8 0 0 0 3.326.956l.002.006c1.123.28 2.247.516 3.392.715l.001.005.006.006c2.614-6.64 2.818-13.426-6.008-18.7l-.546-.077c-3.87-.19-7.853-.975-11.287.01z"/>
  <path fill="#81A1C1" d="M1460.099 204.803c-6.294 1.496-7.728 9.29 1.344 29.817 1.963 6.013 4.19 12.306 6.261 18.355 2.812.515 5.614.791 8.473.81.842 0 1.684-.028 2.53-.062l.004-.004a49.327 49.327 0 0 0 9.978-1.587c.815-.21 1.613-.45 2.415-.697.004 0 .008-.006.017-.005.739-.248 1.476-.5 2.208-.771a49.038 49.038 0 0 0 18.538-12.395c.125-.125.236-.272.352-.406l-6.206-18.149c-11.403-2.463-35.415-17.413-45.913-14.91l-.001.004zm24.099-48.309v.008c-2.677 7.656-.61 13.963 6.383 18.854 7.98 2.298 15.841 4.307 18.87-6.441 0-.01.004-.014.009-.024a49.2 49.2 0 0 0-11.718-8.05 49.433 49.433 0 0 0-6.594-2.664 49.514 49.514 0 0 0-6.947-1.683h-.003z"/>
  <path fill="#88C0D0" d="M1440.22 171.572a45.588 45.588 0 0 0-2.324 2.715 47.19 47.19 0 0 0-2.116 2.863c-1.337 1.95-2.53 4-3.567 6.126a49.799 49.799 0 0 0-1.442 3.233 48.985 48.985 0 0 0-2.882 10.268h.02l-.01.005c4.595-.27 5.556 3.656 18.663-6.391 2.054-6.999-.572-13.188-6.334-18.809l-.007-.01z"/>
  <path fill="#8FBCBB" d="M1461.186 158.163c-.932.303-1.845.635-2.753.985-.147.057-.297.129-.446.187a41.47 41.47 0 0 0-2.485 1.075c-.059.02-.125.052-.183.083a48.893 48.893 0 0 0-15.09 11.089c-.005-.005-.004-.01-.009-.014-.053.054-.09.11-.143.159l6.272 18.355c18.934 6.752 33.131.137 44.24-14.727l.209-.4-6.284-18.405c-.107-.018-.21-.049-.317-.062 0 .006 0 .013-.006.013a49.08 49.08 0 0 0-8.011-.718l-.005.004c-.122 0-.24.01-.352.01a43.543 43.543 0 0 0-3.006.13c-.323.016-.64.043-.967.08-.99.09-1.973.2-2.958.346-.19.032-.383.054-.568.089-.99.16-1.962.355-2.923.58-.353.074-.686.154-1.033.244a48.84 48.84 0 0 0-2.959.83c-.065.022-.137.034-.215.062l-.008.005z"/>
  <path fill="#88C0D0" d="M1490.794 174.954c-4.156 16.128-.41 31.39 15.218 44.758l18.324-6.097h.005v-.004a47.21 47.21 0 0 0 .615-4.38s-.004.001-.004-.004a47.46 47.46 0 0 0 .223-4.419 60.121 60.121 0 0 0-.067-2.559 60.82 60.82 0 0 0-.205-2.533 49.903 49.903 0 0 0-2.097-9.903c-.004-.005-.005-.006-.009-.007a48.86 48.86 0 0 0-13.349-20.887c.004-.01.008-.018.008-.024-.084-.08-.178-.144-.262-.236l-18.4 6.295z"/>
  <path fill="#5E81AC" d="M1427.98 196.353c-.026.148-.07.276-.09.425.005-.005.01 0 .02 0l-.02.01a48.63 48.63 0 0 0-.71 7.9c0 .032-.004.053-.004.089 0 0 .004 0 .003.005 0 .855.028 1.71.066 2.561l.005.004a49.025 49.025 0 0 0 1.596 10.032v.005a49.249 49.249 0 0 0 3.597 9.418 48.233 48.233 0 0 0 3.928 6.476v.006a49.626 49.626 0 0 0 3.18 3.976l.004.004c.562.627 1.14 1.252 1.738 1.857v.005c.6.61 1.223 1.204 1.85 1.783h.015l18.283-6.282c.976-19.348-4.04-34.705-14.884-44.233l-.21-.309-18.367 6.268z"/>
  <path fill="#2E3440" d="M1461.438 234.62l44.57-14.911-15.219-44.758-44.447 15.126 15.086 44.542h.01z"/>
  <path fill="#88C0D0" d="M1476.64 221.428c-4.979 0-10.627-2.057-12.957-4.25 0 0-.155-.766.776-2.912.936-2.158 1.893-3.117 1.893-3.117 2.958 2.457 6.687 3.893 10.436 3.654 3.034-.182 4.213-1.263 4.213-3.211v-.093c0-1.85-1.046-2.874-6.097-3.681-7.688-1.225-11.156-3.733-11.156-10.312v-.094c0-6.009 5.055-10.085 11.771-10.085 4.793 0 9.222.696 12.56 3.395 0 0-.54 1.84-1.212 3.242-.687 1.435-1.678 2.753-1.678 2.753-2.914-2.03-5.698-2.707-8.469-2.707-2.77 0-4.938 1.544-4.938 3.163v.094c0 2.178 1.261 3.229 7.393 4.025 6.841.895 10.072 3.996 10.072 9.768v.094c0 6.591-5.511 10.283-12.606 10.283"/>
  <path fill="#2E3440" d="M216.711 167.99c27.615 0 50 22.391 50 49.999 0 27.616-22.385 50.001-50 50.001s-50-22.385-50-50.001c0-27.608 22.385-49.999 50-49.999z"/>
  <path fill="#88C0D0" d="M233.315 188.106h-15.5c4.722 1.098 15.5 3.568 15.5 5.534 0 4.182-19.927-1.104-24.352-1.104-2.213 0-6.635.37-6.64 3.32-.019 7.742 10.407 14.384 17.708 18.814-5.085-1.475-9.742-2.212-14.169-2.212-5.757 0-16.822 2.212-16.822 9.966 0 6.842 13.873 13.15 17.708 14.382 6.662 2.145 17.708 3.308 17.708 4.427 0 1.113-8.852 2.212-19.927 2.212h-6.639c4.431 2.224 11.07 2.224 17.714 2.224l6.639-.005c4.426-.005 15.491-.165 15.491-3.986 0-3.331-13.278-6.157-19.922-7.528-9.261-1.91-15.986-5.627-15.491-8.403 1.178-6.671 17.708-6.644 30.992-6.644-5.793-4.659-19.927-13.283-19.927-17.051 0-1.605 2.218-1.981 4.426-1.987 8.857-.051 15.5 1.873 17.717 1.873 4.422 0 6.636-2.76 6.636-6.081.002-5.539-6.633-7.751-8.85-7.751z"/>
  <path fill="#2E3440" d="M331.399 83.129c25.4 0 45.998 20.598 45.998 45.998 0 25.399-20.597 46.002-45.998 46.002-25.406 0-46.002-20.603-46.002-46.002 0-25.4 20.597-45.998 46.002-45.998z"/>
  <path fill="#88C0D0" d="M335.387 104.131h.009a23.952 23.952 0 0 1 24.001 24.001v.008c0 13.286-10.707 23.992-24.001 23.992h-.009a23.945 23.945 0 0 1-23.992-23.992v-.008c0-13.294 10.707-24.001 23.992-24.001"/>
  <path fill="#81A1C1" d="M325.399 104.131c-13.296 0-24 10.707-24 24.001s10.703 24 24 24c.677 0 1.326-.07 1.999-.131-12.345-1.018-21.998-11.26-21.998-23.874 0-12.61 9.653-22.852 21.998-23.869-.673-.061-1.322-.14-1.999-.14"/>
  <path fill="#D8DEE9" d="M313.578 118.127a24.322 24.322 0 0 0-1.438 4.007h46.5a24.322 24.322 0 0 0-1.438-4.007m-45.685 8.001c-.054.68-.13 1.328-.13 2.004 0 .684.072 1.324.13 2.003h47.746c.052-.679.125-1.319.125-2.003 0-.676-.071-1.324-.125-2.004m-47.123 8.002c.359 1.394.86 2.718 1.438 4.002h43.624c.585-1.284 1.082-2.608 1.438-4.002"/>
  <path fill="#2E3440" d="M1333.54 197.316c26.509 0 48.001 21.49 48.001 47.998 0 26.512-21.492 48.002-48.001 48.002-26.507 0-47.999-21.49-47.999-48.002 0-26.507 21.492-47.998 47.999-47.998z"/>
  <path fill="#88C0D0" d="M1351.248 238.518v-5.445h-16.344v5.445"/>
  <path fill="#D8DEE9" d="M1351.248 276.66v-5.449h-16.344v5.449m-17.25-1.856l-4.547-4.626 10.229-8.098-10.229-8.089 4.547-4.611L1333 262.071l-15.346 12.712"/>
  <path fill="#88C0D0" d="M1317.654 236.689l-4.547-4.634 10.229-8.084-10.229-8.092 4.547-4.634L1333 223.959l-15.346 12.709"/>
  <path fill="#2E3440" d="M1352.364 374.01c22.642 0 41 18.365 41 41.003 0 22.636-18.358 40.997-41 40.997-22.64 0-41-18.361-41-40.997 0-22.638 18.361-41.003 41-41.003z"/>
  <path fill="#88C0D0" d="M1346.422 433.908c9.478.592 24.011-.329 24.367-4.604 0 0-.675 1.603-7.83 2.899-8.081 1.461-18.062 1.287-23.972.373 0 .001 1.213.948 7.435 1.332"/>
  <path fill="#88C0D0" d="M1367.456 426.725s1.488 1.162-1.644 2.078c-5.952 1.707-24.729 2.243-29.953.056-1.868-.773 1.651-1.859 2.761-2.093 1.145-.248 1.8-.184 1.8-.184-2.069-1.438-13.478 2.762-5.788 3.943 20.988 3.265 38.273-1.463 32.828-3.805m-4.857-6.14c9.865-4.899 5.306-9.619 2.131-8.983-.793.155-1.129.274-1.129.274s.271-.426.82-.613c6.314-2.132 11.143 6.27-2.016 9.569 0 0 .147-.114.185-.251m-17.146-9.186s-9.545 2.18-3.377 2.972c2.616.34 7.788.268 12.65-.113 3.948-.32 7.934-1.022 7.934-1.022s-1.414.587-2.411 1.251c-9.697 2.436-28.449 1.293-23.06-1.195 4.566-2.124 8.266-1.882 8.266-1.882"/>
  <path fill="#D08770" d="M1353.847 407.762c2.533 2.806-.694 5.318-.694 5.318s6.458-3.191 3.495-7.171c-2.776-3.745-4.881-5.581 6.587-11.982 0 0-18.002 4.311-9.401 13.823"/>
  <path fill="#D08770" d="M1356.646 383.652s5.459 5.229-5.19 13.302c-8.518 6.456-1.931 10.146 0 14.34-4.972-4.3-8.632-8.094-6.181-11.618 3.609-5.203 13.583-7.689 11.371-16.016"/>
  <path fill="#2E3440" d="M464.66 287.4c19.882 0 36 16.12 36 35.998 0 19.882-16.118 36.002-36 36.002s-36-16.12-36-36.002c0-19.877 16.118-35.998 36-35.998z"/>
  <path fill="#D8DEE9" d="M464.641 299.904h.005c12.968 0 23.478 10.517 23.478 23.476v.007c0 12.969-10.51 23.474-23.478 23.474h-.005c-12.967 0-23.477-10.505-23.477-23.474v-.007c0-12.959 10.51-23.476 23.477-23.476"/>
  <path fill="#88C0D0" d="M450.555 310.858v25.044h12.521v-4.688h-7.821v-15.652h7.821v-4.703m15.668-.001v25.044h-12.536v-4.688h7.843v-15.652h-7.843v-4.703"/>
  <path fill="#2E3440" d="M349.724 225.921c22.087 0 39.998 17.91 39.998 39.998 0 22.092-17.911 40.002-39.998 40.002-22.092 0-40.002-17.91-40.002-40.002 0-22.088 17.91-39.998 40.002-39.998z"/>
  <path fill="#D8DEE9" d="M333.844 243.306c-.854 0-1.52.674-1.52 1.528v42.17c0 .854.666 1.528 1.52 1.528h31.744a1.51 1.51 0 0 0 1.52-1.528v-34.991l-8.696-8.695"/>
  <path fill="#ECEFF4" d="M358.411 243.306v8.699h8.696"/>
  <path fill-opacity=".2" d="M367.107 260.703v-8.698h-8.696"/>
  <path fill="#5E81AC" d="M335.8 283.308h27.828v-3.475H335.8"/>
  <path fill="#4C566A" d="M335.8 274.618h17.394v-3.482H335.8"/>
  <path fill="#81A1C1" d="M335.8 267.661h22.611v-3.482H335.8"/>
  <path fill="#4C566A" d="M335.8 260.703h13.915v-3.483H335.8"/>
  <path fill="#88C0D0" d="M335.8 253.748h19.135v-3.483H335.8"/>
  <path fill="#2E3440" d="M1236.902 326.778c19.881 0 36.002 16.12 36.002 35.998 0 19.882-16.121 36.002-36.002 36.002-19.877 0-35.998-16.12-35.998-36.002 0-19.878 16.121-35.998 35.998-35.998z"/>
  <path fill-rule="evenodd" clip-rule="evenodd" fill="#88C0D0" d="M1236.855 380.32c-5.102 0-10.187-.006-15.281.004-1.162.003-2.197-.188-2.734-1.34-.187-.414-.313-.886-.315-1.332-.01-9.916-.013-19.833-.002-29.748.002-1.681.984-2.666 2.641-2.666 10.483-.009 20.97-.009 31.452 0 1.652 0 2.591.982 2.638 2.67.034 1.025.037 2.053.034 3.092-.006.9-.499 1.325-1.388 1.335-.432 0-.86-.017-1.291.001-1.067.068-1.851-.124-2.056-1.432-.118-.75-.831-1.077-1.682-1.069-4.858.033-9.722.016-14.582.016-3.121 0-6.258-.004-9.377.008-1.228.004-1.765.521-1.765 1.716-.008 7.456-.008 14.914 0 22.371 0 1.313.411 1.733 1.718 1.733 8.021.001 16.045 0 24.067.006.999.004 1.573-.366 1.706-1.366.006-.043.004-.068.011-.105.271-.925 1.334-1.267 3.316-1.017.838.097 1.342.532 1.324 1.433-.013 1.132 0 2.264-.063 3.394-.064 1.247-1.036 2.24-2.306 2.251-4.857.046-9.72.045-14.573.047-.495-.002-.994-.002-1.492-.002zm-5.664-19.734c-.52.008-1.221.08-1.537.408-.825.896-.729 2.028-.338 3.088.334.927 1.176 1.112 2.026 1.112 7.247.011 14.495.011 21.742.004 1.646-.004 2.146-.639 2.189-2.461.025-1.649-.386-2.193-2.146-2.173-3.615.029-7.245.002-10.862.002-3.696 0-7.376-.005-11.074.02z"/>
  <path fill="#2E3440" d="M159.664 275.213c22.644 0 41.003 18.357 41.003 41.002 0 22.641-18.359 40.998-41.003 40.998-22.64 0-40.997-18.357-40.997-40.998-.001-22.645 18.357-41.002 40.997-41.002z"/>
  <path d="M155.878 318.187l-9.986-5.281 7.243-17.953-21.395 19.286 9.402 6.358-6.663 16.878zm7.412 12.269h24.304v4.729H163.29z" fill="#88C0D0"/>
  <path fill="#2E3440" d="M453.285 144.884c21.542 0 39 17.458 39 38.998 0 21.544-17.458 39.002-39 39.002-21.539 0-39-17.461-39-39.002 0-21.54 17.461-38.998 39-38.998z"/>
  <path fill="#88C0D0" d="M475.753 189.029v3.961h-3.987v2.419h3.987v3.97h2.403v-3.97h3.966v-2.419h-3.966v-3.961h-2.403zm-12.32 0v3.961h-3.984v2.419h3.984v3.97h2.405v-3.97h3.968v-2.419h-3.968v-3.961h-2.405zm-6.773-7.613c3.765 0 .38 19.166-2.859 19.136-1.795-.017-6.652-12.908-5.772-14.355-1.535 1.578-3.58 5.107-5.413 8.937-2.366 4.951-4.504 10.134-6.079 9.463-1.535-.938 2.411-7.024 5.912-12.621 2.939-4.708 4.278-9.135 6.619-9.135 2.515 0 2.693 8.354 5.672 13.863 1.968-3.141-1.302-15.288 1.92-15.288z"/>
  <path fill="#D8DEE9" d="M454.798 169.608c-.973-1.159-2.247-1.146-3.705-1.146-1.579-1.772-3.764-3.265-6.722-3.654-.162 1.073.295 2.096.788 3.111-6.207-5.869-13.792-2.261-16.693 2.333-4.625 7.334-2.409 21.867 7.061 31.334 3.052 3.05 9.754.454 9.754-4.274 0-3.772-1.727-6.724-4.646-6.724-2.501 0-4.276 1.875-4.276 4.938-.044.776.251 1.47.658 2.049l.007-.004c.705 1.006 1.849 1.648 2.822 1.648.32 0 .615-.068.899-.162v.002l.005-.002a3.419 3.419 0 0 0 1.647-1.214c.018-.028.042-.049.061-.08.167-.235.303-.483.402-.73.033-.075.048-.142.075-.217.06-.201.098-.391.113-.575.003-.038.024-.087.024-.126 0-.059-.021-.109-.027-.164a2.22 2.22 0 0 0-.065-.39c-.017-.04-.03-.084-.045-.12a2.203 2.203 0 0 0-1.343-1.298c-.006 0-.01-.004-.014-.004a1.634 1.634 0 0 0-.409-.083c-.046-.012-.085-.031-.13-.031-.19 0-.356.086-.503.207-.552.442-.794 1.504-.794 1.504s.011-.019.017-.026c-.003.008-.005.029-.005.029s.386-.44.776-.7c.083-.051.162-.1.236-.134.019-.007.039-.019.056-.021.046-.02.089-.016.134-.02.032 0 .065-.008.095 0 .12.034.237.124.343.24.324.373.545 1.053.504 1.436-.007.021-.004.021-.009.038-.104.572-1.451 1.228-2.022 1.241-.553.012-1.046-.532-1.349-1.158a3.724 3.724 0 0 1-.211-.568l-.025-.103a2.36 2.36 0 0 1-.078-.543c0-1.521.81-2.971 2.347-2.971 2.069 0 2.991 2.361 2.991 4.485 0 1.727-1.901 3.95-4.193 3.95-.858 0-2.229-.753-2.66-1.317-6.021-7.857-1.208-12.497 3.322-17.227.12.993.571 1.744 1.577 2.074.71.479 1.5-1.286 2.906-1.454 1.154-.139 2.463 1.507 3.351 1.664.637-.597 1.35-.935 1.614-1.361-.541-1.897-1.073-3.237-2.802-2.877-.84-.36-1.584-.937-1.997-1.7 1.777-.057 2.964.071 3.281-1.078 1.632.171 3.022.38 4.189.306 6.01-.389 6.209-4.136 2.668-8.333z"/>
  <path fill="#E5E9F0" d="M451.697 171.419a2.424 2.424 0 0 1-2.421 2.421 2.418 2.418 0 0 1-2.414-2.421 2.414 2.414 0 0 1 2.414-2.42 2.42 2.42 0 0 1 2.421 2.42z"/>
  <path fill="#2E3440" d="M450.908 171.802a.996.996 0 1 1-1.991-.001.996.996 0 0 1 1.991.001zm-30.622 234.836c21.539 0 39.002 17.463 39.002 38.998 0 21.539-17.463 39.002-39.002 39.002-21.535 0-38.998-17.463-38.998-39.002 0-21.535 17.463-38.998 38.998-38.998z"/>
  <path fill="#88C0D0" d="M398.284 426.133c-.496.05-.907.508-.902 1.013v18.334c0 .535.476 1.009 1.007 1.009h9.165v3.384h-6.783v3.401h12.347v-6.739l-3.924-3.444h-7.678a.712.712 0 0 1-.688-.689v-12.188a.689.689 0 0 1 .527-.683h19.026c.353 0 .687.336.687.683v4.876h3.445v-7.942c0-.531-.474-1.013-1.007-1.013"/>
  <path fill="#8FBCBB" d="M421.337 436.306l4.189 3.397h11.818c.359 0 .688.336.688.688v12.19c0 .352-.329.688-.688.688h-18.865c-.347 0-.686-.337-.686-.688v-1.907l-3.428-3.018v7.997c0 .536.458 1.004 1.007 1.004h9.165v3.401h-6.784v3.38h20.352v-3.38h-6.783v-3.401h9.148c.535 0 1.027-.468 1.027-1.004v-18.339c0-.531-.474-1.009-1.027-1.009"/>
  <path fill="#EBCB8B" d="M404.161 436.306l15.265 13.566v-8.469l11.87 5.085-16.957-13.57v6.361l-10.17-2.974"/>
  <path fill="#2E3440" d="M1324.682 49.033c24.854 0 45 20.148 45 44.998 0 24.854-20.146 45.002-45 45.002-24.852 0-45-20.148-45-45.002 0-24.849 20.148-44.998 45-44.998z"/>
  <path fill-opacity=".1" d="M1303.613 75.521v40.867a2.558 2.558 0 0 0 2.557 2.557h18.976V72.961h-18.976a2.558 2.558 0 0 0-2.557 2.56zm24.446 43.424h18.976a2.559 2.559 0 0 0 2.557-2.557v-21.46h-21.532v24.017zm18.975-45.984h-18.976v19.054h21.532V75.521a2.557 2.557 0 0 0-2.556-2.56z"/>
  <path fill-opacity=".1" d="M1306.17 118.945h40.864a2.559 2.559 0 0 0 2.557-2.557v-1.481h-45.978v1.481a2.557 2.557 0 0 0 2.557 2.557z"/>
  <path fill="#3B4252" d="M1301.699 73.599v40.87a2.549 2.549 0 0 0 2.545 2.551h18.981V71.051h-18.981a2.546 2.546 0 0 0-2.545 2.548z"/>
  <path fill="#4C566A" d="M1326.137 117.02h18.982a2.548 2.548 0 0 0 2.545-2.551V93.015h-21.527v24.005z"/>
  <path fill="#434C5E" d="M1345.119 71.051h-18.982v19.051h21.527V73.599a2.545 2.545 0 0 0-2.545-2.548z"/>
  <path fill="#88C0D0" d="M1304.244 117.02h40.875a2.548 2.548 0 0 0 2.545-2.551v-1.486h-45.965v1.486a2.549 2.549 0 0 0 2.545 2.551z"/>
  <path fill="#2E3440" d="M1224.104 121.186c21.534 0 38.998 17.462 38.998 38.998 0 21.54-17.464 39.002-38.998 39.002-21.538 0-39.002-17.462-39.002-39.002 0-21.537 17.463-38.998 39.002-38.998z"/>
  <path fill="#1D1D1B" fill-opacity=".1" d="M1244.645 180.932c-.239-1.331-.416-2.271-.544-2.813a59.374 59.374 0 0 0-.388-1.58c-.069-.253-.135-.484-.188-.685-.052-.179-.113-.331-.16-.465-.501-1.312-1.211-2.335-2.113-3.056a4.431 4.431 0 0 0-.466-.327l.115-.048-.486-1.269h1.315c.544 0 .829-.271.829-.82v-7.74c0-.078-.022-.143-.038-.209l1.949.315.446-2.714c-.062-.011-.128-.018-.184-.033a2.565 2.565 0 0 1-1.751-1.082 2.62 2.62 0 0 1-.476-1.996 2.597 2.597 0 0 1 1.085-1.751 2.532 2.532 0 0 1 2.006-.472c.054.007.11.017.177.025l1.542-9.539c.136-1.312-.289-2.565-1.262-3.739-.028-.027-.042-.053-.061-.064a6.593 6.593 0 0 0-.605-.646 9.834 9.834 0 0 0-2.688-1.821c-.023-.016-.045-.026-.059-.037a12.492 12.492 0 0 0-1.411-.528c-.141-.036-.284-.086-.43-.119a13.806 13.806 0 0 0-1.379-.294 15.112 15.112 0 0 0-1.859-.182c-.149 0-.302-.004-.451 0-.326.004-.655.026-.98.052-.026.005-.04.008-.063.011a9.993 9.993 0 0 0-3.189.893 5.943 5.943 0 0 0-.789.421c-1.323.806-2.13 1.844-2.435 3.122-.028.101-.044.212-.07.35-.02.086-.026.163-.037.241l-.681-1.776c-.188-.519-.546-.674-1.066-.479l-2.183.832c-.509.198-.664.559-.477 1.067l.22.565-4.115-1.889c-.509-.227-.884-.053-1.144.506l-1.371 3.021-.685 1.506-7.127 15.622h-5.474c-.548 0-.818.287-.818.822v7.74c0 .549.271.82.818.82h1.199l-2.336 5.138a1.232 1.232 0 0 0-.13.476c.007.026 0 .068 0 .083 0 .021.007.033.007.045a.682.682 0 0 0 .13.32l1.446 4.647.642 2.091 1.984-.872 4.6-2.024c.034-.015.074-.033.104-.044.083-.048.15-.115.229-.197.069-.085.134-.186.192-.324l4.255-9.338h13.854l-.829 5.131c-.249.159-.488.482-.746 1.008a6.612 6.612 0 0 0-.625 1.836l.275 6.275c-.135.845.223 1.334 1.064 1.472l1.385.224c.848.134 1.343-.212 1.477-1.056l2.251-5.862c.109-.695.098-2.454-.4-3.138l.861-5.376.837 2.189.239-.093c-.044.174-.093.353-.126.557-.113.633-.105 1.3.015 1.997a8.1 8.1 0 0 0 .464 1.677c.502 1.324 1.206 2.345 2.104 3.063.054.048.119.094.178.127a7.21 7.21 0 0 0 1.659.911l4.173 1.699c-.569-.281-.982-1.088-1.231-2.4zm-6.676-19.747l.78.122h-.808l.028-.122zm-8.187.122h-7.739l5.213-11.421.501-1.094.527 1.38-.078.482-.104.7c.057.007.111.015.168.026.206.025.368.126.554.196l1.397 3.644c-.19.379-.439.729-.808.988a2.61 2.61 0 0 1-2.177.44l-.44 2.729 5.338.858.413 1.071h-2.765z"/>
  <path fill="#88C0D0" d="M1228.124 159.536h-2.782v3.131h-.504v-3.131h-2.782v1.771h-.5v-1.771h-1.17l-4.274 9.384h23.958c.546 0 .831-.271.831-.822v-7.728c0-.547-.285-.834-.831-.834h-1.603v3.131h-.493v-3.131h-2.791v1.822h-.488v-1.822h-2.787v3.131h-.499v-3.131h-2.785v1.822h-.499v-1.822zm-22.978 0h-1.357c-.546 0-.82.287-.82.834v7.728c0 .552.274.822.82.822h1.201l3.449-7.562h-.011v-1.822h-2.797v3.131h-.485v-3.131z"/>
  <path fill="#4C566A" d="M1209.265 159.536h-.352v.759l.352-.759z"/>
  <path fill="#88C0D0" d="M1235.753 171.529c-.044.176-.095.354-.127.562a5.893 5.893 0 0 0 .011 1.995c.085.549.237 1.11.459 1.676.514 1.322 1.215 2.346 2.114 3.063.056.056.111.092.171.137a8.448 8.448 0 0 0 1.665.911l4.176 1.688c-.578-.278-.984-1.075-1.235-2.396-.242-1.332-.416-2.262-.55-2.815a35.778 35.778 0 0 0-.387-1.577c-.067-.255-.13-.485-.182-.685-.055-.18-.116-.332-.159-.457-.505-1.321-1.212-2.344-2.116-3.058-.152-.135-.309-.234-.465-.335l-3.375 1.291z"/>
  <path fill="#4C566A" d="M1223.963 139.139c-.514.208-.668.558-.478 1.066l.216.565 3.587 1.632c.505.227.621.628.363 1.187l-1.371 3.021-.181.413 4.792 12.513h.516v3.131h.499v-3.131h2.787v1.822h.488v-1.822h-.019l-7.953-20.751c-.189-.514-.556-.673-1.067-.48l-2.179.834zm1.379 20.397h-.504v3.131h.504v-3.131zm3.281 0h-.499v1.822h.499v-1.822zm9.843.016h-.493v3.115h.493v-3.115zm-32.835-.016h-.485v3.131h.485v-3.131zm3.282 0h-.485v1.822h.011l.475-1.063v-.759zm13.143 0h-.5v1.771h.5v-1.771zm13.458 12.087l.239-.094 3.375-1.293.107-.037-.479-1.279h-4.267l1.025 2.703z"/>
  <path fill="#88C0D0" d="M1227.651 143.589c.258-.559.142-.96-.363-1.187l-3.587-1.632-4.122-1.878c-.498-.228-.873-.063-1.136.494l-1.371 3.022 3.13 1.436 3.116 1.413 2.962 1.353 1.371-3.021zm-18.374 33.544a1.995 1.995 0 0 0-.58.35c-.036.037-.089.089-.125.133l-.012.016h-.004c.004-.008.004-.008.012-.012 0-.022 0-.036.004-.059a1.675 1.675 0 0 0-.12-.763 1.649 1.649 0 0 0-.916-.988c-.447-.2-.9-.22-1.361-.048a1.775 1.775 0 0 0-.564.333c-.063.06-.132.124-.195.205-.003.012-.003.022-.008.033l-.004-.004-.005-.007.032-.071c.008-.044.012-.106.02-.145a1.623 1.623 0 0 0-.12-.766 1.652 1.652 0 0 0-.922-.981 1.698 1.698 0 0 0-1.347-.052 2.01 2.01 0 0 0-.549.311c0 .02.008.03.012.042.019.118.056.23.132.327l1.445 4.651c.448.029.914.159 1.385.389a4.14 4.14 0 0 1 1.245.826l4.599-2.029c.03-.016.075-.03.101-.044.082-.049.147-.116.223-.198a2.014 2.014 0 0 0-.104-.409 1.708 1.708 0 0 0-.921-.98 1.723 1.723 0 0 0-1.353-.06z"/>
  <path fill="#3B4252" d="M1226.1 147.023l.181-.413-2.962-1.353-.696 1.505 2.966 1.354.511-1.093z"/>
  <path fill="#4C566A" d="M1217.072 142.409l-.694 1.513 3.137 1.429.688-1.506-3.131-1.436z"/>
  <path fill="#434C5E" d="M1220.202 143.845l-.688 1.506 3.107 1.412.696-1.505-3.115-1.413z"/>
  <path fill="#8FBCBB" d="M1219.515 145.351l-3.137-1.429-7.113 15.614-.352.759-.475 1.063-3.449 7.562-2.339 5.139c-.081.178-.13.336-.138.484.008.018 0 .059 0 .075.16-.129.339-.229.549-.311.45-.168.901-.152 1.347.052.453.196.755.531.922.981.104.256.143.505.12.766-.008.038-.012.101-.02.145l14.085-30.9z"/>
  <path fill="#81A1C1" d="M1222.622 146.763l-3.107-1.412-14.084 30.9-.032.071.005.007.004.004c.005-.011.005-.021.008-.033a1.76 1.76 0 0 1 .195-.205c.165-.141.352-.258.564-.333a1.73 1.73 0 0 1 1.361.048c.448.2.753.531.916.988.101.256.142.502.12.763-.004.022-.004.036-.004.059-.008.004-.008.004-.012.012h.004l.012-.016 14.05-30.853z"/>
  <path fill="#5E81AC" d="M1208.697 177.482c.168-.142.362-.268.58-.35.45-.157.905-.152 1.352.06.44.199.746.527.921.98.052.149.089.286.104.409.067-.078.142-.186.201-.322l4.257-9.34 4.274-9.384 5.202-11.42-2.966-1.354-14.05 30.853c.036-.043.089-.094.125-.132z"/>
  <path fill="#4C566A" d="M1206.731 180.854a4.122 4.122 0 0 0-1.245-.826 3.75 3.75 0 0 0-1.385-.389l.645 2.082 1.985-.867z"/>
  <path fill="#D8DEE9" d="M1237.708 150.76c.146-.848-.213-1.339-1.056-1.477l-2.149-.346c-.845-.141-1.325.216-1.464 1.063l-1.436 8.848 4.122 4.123 1.983-12.211z"/>
  <path fill="#E5E9F0" d="M1229.137 174.051c-.251.16-.498.492-.747 1.011a6.486 6.486 0 0 0-.625 1.842l.274 6.267c-.134.844.218 1.338 1.059 1.473l1.391.223c.849.134 1.34-.212 1.478-1.056l2.24-5.863c.12-.694.108-2.453-.396-3.138l1.915-11.837-4.122-4.123-2.467 15.201z"/>
  <path fill="#81A1C1" d="M1244.396 139.164c-.026-.025-.042-.042-.068-.063l-1.587 9.818a1.236 1.236 0 0 1-.517.832 1.243 1.243 0 0 1-.951.223l-1.134-.188a1.253 1.253 0 0 1-.845-.511 1.24 1.24 0 0 1-.22-.951l1.899-11.719a11.468 11.468 0 0 0-1.399-.53l-1.956 12.011c-.056.35-.222.632-.513.837a1.241 1.241 0 0 1-.947.224l-1.139-.19a1.197 1.197 0 0 1-.833-.51 1.179 1.179 0 0 1-.229-.951l1.946-12.022c-.148 0-.301-.004-.449 0-.34.003-.659.025-.98.06a.324.324 0 0 1-.064.011l-1.903 11.718a1.24 1.24 0 0 1-.521.829 1.25 1.25 0 0 1-.95.228l-1.134-.189a1.202 1.202 0 0 1-.836-.514 1.218 1.218 0 0 1-.223-.95l1.591-9.816c-1.325.808-2.13 1.845-2.435 3.123-.031.101-.048.218-.07.35-.024.126-.043.25-.051.35l-1.329 8.216-.117.699c.063.007.124.015.18.025.73.111 1.32.48 1.755 1.082.426.603.586 1.268.473 1.996a2.61 2.61 0 0 1-1.083 1.752 2.533 2.533 0 0 1-2.007.476c-.061-.011-.111-.021-.172-.025l-.447 2.717 17.674 2.859.449-2.714c-.065-.012-.123-.02-.178-.034a2.525 2.525 0 0 1-1.75-1.077 2.626 2.626 0 0 1-.478-2.001 2.594 2.594 0 0 1 1.087-1.751c.602-.437 1.263-.589 2.002-.472.058.008.111.021.167.035l1.556-9.548c.13-1.318-.29-2.568-1.264-3.745z"/>
  <path fill="#5E81AC" d="M1244.328 139.102a6.993 6.993 0 0 0-.602-.647 9.924 9.924 0 0 0-2.684-1.822.168.168 0 0 0-.068-.026l-1.899 11.719c-.06.346.019.666.22.951.216.283.486.458.845.511l1.134.188c.35.053.674-.018.951-.223a1.24 1.24 0 0 0 .517-.832l1.586-9.819zm-5.187-3.154a15.887 15.887 0 0 0-1.377-.294 15.04 15.04 0 0 0-1.858-.182l-1.946 12.022c-.062.35.014.666.229.951.201.283.476.457.833.51l1.139.19c.344.055.664-.02.947-.224.291-.205.457-.487.513-.837l1.956-12.011c-.144-.044-.289-.08-.436-.125zm-7.922.481a7.512 7.512 0 0 0-.715.379c-.027.015-.047.029-.069.04l-1.591 9.816c-.063.349.021.668.223.95.203.286.479.461.836.514l1.134.189c.345.055.665-.023.95-.228.295-.207.457-.483.521-.829l1.903-11.718a9.769 9.769 0 0 0-3.192.887z"/>
  <path fill="#2E3440" d="M1434.366 279.104c23.742 0 42.998 19.253 42.998 42.998 0 23.749-19.256 43.002-42.998 43.002-23.747 0-43.002-19.253-43.002-43.002 0-23.745 19.255-42.998 43.002-42.998z"/>
  <path d="M1420.263 303.669l-15.181 13.88v6.95l15.181 13.876v-10.416l-7.595-6.926 7.595-6.948v-10.416zm26.034 0l15.185 13.88v6.95l-15.185 13.876v-10.416l7.598-6.926-7.598-6.948v-10.416zm-9.398 0h7.229l-14.464 34.706h-7.234l14.469-34.706z" fill="#88C0D0"/>
  <path fill="#2E3440" d="M1182.662 0h-690.8c-7.85 0-14.213 6.363-14.213 14.213v54.582h719.226V14.213c0-7.85-6.363-14.213-14.213-14.213z"/>
  <path fill="#ECEFF4" d="M1182.662 379.604h-690.8c-7.85 0-14.213-6.363-14.213-14.213V68.795h719.226v296.596c0 7.849-6.363 14.213-14.213 14.213z"/>
  <g fill="#D8DEE9">
    <circle cx="611.553" cy="34.398" r="11.912"/>
    <circle cx="573.563" cy="34.398" r="11.912"/>
    <circle cx="535.573" cy="34.398" r="11.912"/>
  </g>
  <path fill="#5E81AC" d="M732.941 122.336l-10.771 33.129a2.902 2.902 0 0 1-3.66 1.859l-93.879-30.5a2.921 2.921 0 0 1-1.871-3.658l10.771-33.131a2.902 2.902 0 0 1 3.66-1.859l93.879 30.5c1.52.5 2.371 2.138 1.871 3.66z"/>
  <path fill="#D8DEE9" d="M646.32 201.025l1.791-5.52-16.57-5.381-5.381 16.57 5.531 1.799-1.801 5.512-5.52-1.791-5.381 16.57 5.52 1.791-1.799 5.52-5.52-1.791-4.48 13.801c-1.49 4.57 1.01 9.49 5.59 10.98 4.57 1.479 9.48-1.031 10.971-5.602l8.068-24.84-5.52-1.799 1.791-5.52 5.529 1.799 5.381-16.57-5.52-1.797 1.791-5.521 5.529 1.79z"/>
  <path fill="#81A1C1" d="M756.891 133.166l-19.33-6.281-9.869 30.371c-1.48 4.568-6.41 7.08-10.98 5.59l-30.371-9.861-27.809 85.592a5.816 5.816 0 0 0 3.729 7.318c3.041.99 6.33-.68 7.32-3.729l2.691-8.281 3.59-11.039 3.59-11.051 5.52 1.791-3.59 11.049 2.76.9c4.57 1.49 9.49-1.029 10.971-5.6l3.59-11.041c1.979-6.09 8.549-9.43 14.639-7.459 6.09 1.98 9.432 8.539 7.451 14.629l-17.041 52.471a5.815 5.815 0 0 0 3.73 7.32 5.821 5.821 0 0 0 7.311-3.73l43.959-135.301c.498-1.519-.342-3.158-1.861-3.658z"/>
  <g fill="#2E3440">
    <path d="M758.691 127.645l-19.842-6.439c-.1-3.58-2.379-6.891-5.988-8.061l-93.881-30.5c-4.561-1.479-9.48 1.031-10.971 5.59l-4.479 13.811-19.33-6.279c-7.611-2.471-15.811 1.709-18.281 9.32l-6.91 21.25c-2.148 6.609.701 13.84 6.791 17.199l50.51 27.859a8.732 8.732 0 0 1 4.07 10.32l-1.52 4.68-11.051-3.59-20.631 63.51c-2.469 7.611 1.711 15.82 9.32 18.301 7.611 2.471 15.82-1.709 18.291-9.33l20.639-63.5-11.049-3.59 1.52-4.689c2.15-6.602-.709-13.83-6.789-17.191l-50.51-27.871a8.708 8.708 0 0 1-4.068-10.311l6.898-21.25c1.49-4.57 6.41-7.08 10.98-5.59l19.32 6.27-4.48 13.811c-1.479 4.57 1.031 9.49 5.59 10.971l57.99 18.85-27.82 85.59c-1.979 6.09 1.371 12.66 7.461 14.641 6.09 1.969 12.66-1.371 14.641-7.461l2.689-8.279 1.789-5.529 2.76.898c7.611 2.471 15.82-1.709 18.301-9.32l3.58-11.039c1-3.051 4.27-4.73 7.32-3.73a5.803 5.803 0 0 1 3.721 7.311l-17.041 52.471c-1.98 6.09 1.359 12.648 7.461 14.629 6.08 1.98 12.648-1.359 14.629-7.449l43.961-135.301c1.478-4.573-1.032-9.503-5.591-10.983zm-110.58 67.861l-1.791 5.52-5.529-1.791-1.791 5.521 5.521 1.799-5.381 16.57-5.529-1.799-1.791 5.52 5.52 1.799-8.068 24.84c-1.49 4.57-6.4 7.08-10.971 5.602-4.58-1.49-7.08-6.41-5.59-10.98l4.48-13.801 5.52 1.791 1.799-5.52-5.52-1.791 5.381-16.57 5.52 1.791 1.801-5.512-5.531-1.799 5.381-16.57 16.569 5.38zm-23.48-68.682a2.921 2.921 0 0 1-1.871-3.658l10.771-33.131a2.902 2.902 0 0 1 3.66-1.859l93.879 30.5c1.52.5 2.371 2.139 1.871 3.66l-10.771 33.129a2.902 2.902 0 0 1-3.66 1.859l-93.879-30.5zm134.119 10l-43.959 135.301a5.82 5.82 0 0 1-7.311 3.73 5.814 5.814 0 0 1-3.73-7.32l17.041-52.471c1.98-6.09-1.361-12.648-7.451-14.629-6.09-1.971-12.66 1.369-14.639 7.459l-3.59 11.041c-1.48 4.57-6.4 7.09-10.971 5.6l-2.76-.9 3.59-11.049-5.52-1.791-3.59 11.051-3.59 11.039-2.691 8.281a5.815 5.815 0 0 1-7.32 3.729 5.818 5.818 0 0 1-3.729-7.318l27.809-85.592 30.371 9.861c4.57 1.49 9.5-1.021 10.98-5.59l9.869-30.371 19.33 6.281c1.521.5 2.361 2.139 1.861 3.658z"/>
    <path d="M745.16 159.885l-13.449 41.41-5.531-1.789 13.461-41.42zm-122.31 94.57l-5.52-1.789 1.791-5.531 5.52 1.801zm124.111-100.09l-5.531-1.801 1.8-5.519 5.52 1.801z"/>
    <path d="M624.641 248.936l-1.791 5.519-5.52-1.789 1.791-5.531zm124.109-100.09l-1.789 5.519-5.531-1.801 1.8-5.519z"/>
  </g>
  <path fill="#D8DEE9" d="M780.771 319.439l-142.768 69.629c-4.482 2.189-6.354 7.615-4.166 12.104l44.635 91.516c2.189 4.482 7.615 6.348 12.098 4.166l142.768-69.637c4.482-2.184 6.354-7.615 4.166-12.098l-44.635-91.514c-2.187-4.482-7.615-6.355-12.098-4.166zM708.115 481.58c-12.619 6.154-27.887.896-34.035-11.717-6.154-12.613-.902-27.887 11.717-34.037a25.452 25.452 0 0 1 12.672-2.529 3.018 3.018 0 0 1 2.832 3.191c-.01.068-.016.131-.02.199a22.59 22.59 0 0 1 5.82 2.004c.037-.053.068-.109.105-.168a3.021 3.021 0 0 1 4.199-.773 25.48 25.48 0 0 1 8.432 9.797c6.149 12.613.892 27.883-11.722 34.033zm-24.965-51.178c-12.613 6.154-27.881.896-34.035-11.717-6.154-12.615-.896-27.887 11.723-34.039 12.615-6.15 27.881-.893 34.035 11.721 6.154 12.615.891 27.883-11.723 34.035zm76.159 26.209c-12.613 6.154-27.885.896-34.033-11.717-6.154-12.615-.896-27.887 11.717-34.035 12.613-6.154 27.887-.896 34.039 11.717 6.15 12.615.892 27.883-11.723 34.035zm-24.963-51.179c-12.609 6.154-27.881.896-34.035-11.717s-.893-27.887 11.723-34.035c12.613-6.154 27.881-.896 34.035 11.719 6.154 12.613.896 27.882-11.723 34.033zm76.158 26.209c-12.613 6.154-27.881.896-34.035-11.717s-.896-27.887 11.719-34.039c12.619-6.152 27.885-.893 34.039 11.723 6.148 12.613.896 27.88-11.723 34.033zm-24.959-51.178c-12.615 6.154-27.887.896-34.041-11.717-6.148-12.615-.891-27.887 11.723-34.041 12.621-6.15 27.881-.891 34.035 11.723 6.154 12.615.902 27.881-11.717 34.035z"/>
  <path fill="#BF616A" d="M663.48 390.068c-9.629 4.695-13.637 16.346-8.943 25.969 4.693 9.629 16.342 13.643 25.971 8.943 9.629-4.693 13.637-16.342 8.943-25.971-4.697-9.624-16.347-13.636-25.971-8.941z"/>
  <path fill="#D08770" d="M714.676 365.102c-9.625 4.693-13.639 16.342-8.945 25.967 4.699 9.629 16.348 13.637 25.973 8.943 9.629-4.693 13.637-16.342 8.943-25.973-4.694-9.623-16.348-13.637-25.971-8.937z"/>
  <path fill="#EBCB8B" d="M765.869 340.127c-9.623 4.697-13.637 16.348-8.938 25.971 4.693 9.629 16.342 13.641 25.971 8.943 9.625-4.693 13.637-16.348 8.943-25.971-4.697-9.625-16.347-13.636-25.976-8.943z"/>
  <path fill="#5E81AC" d="M701.275 436.688a3.014 3.014 0 0 1-3.17 2.631 19.44 19.44 0 0 0-9.666 1.93c-9.623 4.695-13.637 16.344-8.943 25.969 4.699 9.629 16.348 13.643 25.977 8.943 9.625-4.693 13.633-16.342 8.939-25.973a19.447 19.447 0 0 0-6.43-7.471 3.005 3.005 0 0 1-.875-4.021 22.52 22.52 0 0 0-5.832-2.008z"/>
  <path fill="#88C0D0" d="M739.635 416.279c-9.625 4.693-13.633 16.344-8.939 25.967 4.693 9.629 16.348 13.637 25.973 8.943 9.623-4.693 13.637-16.342 8.938-25.971-4.695-9.624-16.343-13.636-25.972-8.939z"/>
  <path fill="#8FBCBB" d="M790.834 391.305c-9.625 4.699-13.637 16.348-8.943 25.973 4.693 9.629 16.348 13.639 25.971 8.943 9.629-4.693 13.637-16.348 8.943-25.973-4.694-9.623-16.348-13.637-25.971-8.943z"/>
  <g fill="#082947">
    <path d="M778.125 314.018l-142.768 69.631c-7.473 3.645-10.584 12.693-6.939 20.166l44.633 91.514c3.645 7.473 12.693 10.59 20.166 6.945l142.764-69.635c7.477-3.645 10.588-12.688 6.945-20.16l-44.641-91.516c-3.644-7.473-12.681-10.59-20.16-6.945zm59.379 101.101c2.188 4.482.316 9.914-4.166 12.098L690.57 496.854c-4.482 2.182-9.908.316-12.098-4.166l-44.635-91.516c-2.188-4.488-.316-9.914 4.166-12.104l142.768-69.629c4.482-2.189 9.91-.316 12.098 4.166l44.635 91.514z"/>
    <path d="M660.838 384.646c-12.619 6.152-17.877 21.424-11.723 34.039 6.154 12.613 21.422 17.871 34.035 11.717 12.613-6.152 17.877-21.42 11.723-34.035-6.154-12.613-21.42-17.871-34.035-11.721zm19.67 40.334c-9.629 4.699-21.277.686-25.971-8.943-4.693-9.623-.686-21.273 8.943-25.969 9.623-4.695 21.273-.684 25.971 8.941 4.694 9.63.686 21.278-8.943 25.971zm31.525-65.3c-12.615 6.148-17.877 21.422-11.723 34.035s21.426 17.871 34.035 11.717c12.619-6.15 17.877-21.42 11.723-34.033-6.154-12.616-21.422-17.874-34.035-11.719zm19.67 40.332c-9.625 4.693-21.273.686-25.973-8.943-4.693-9.625-.68-21.273 8.945-25.967 9.623-4.699 21.277-.686 25.971 8.938 4.694 9.63.686 21.278-8.943 25.972zm31.524-65.307c-12.613 6.154-17.871 21.426-11.723 34.041 6.154 12.613 21.426 17.871 34.041 11.717 12.619-6.154 17.871-21.42 11.717-34.035-6.155-12.614-21.414-17.873-34.035-11.723zm19.675 40.336c-9.629 4.697-21.277.686-25.971-8.943-4.699-9.623-.686-21.273 8.938-25.971 9.629-4.693 21.279-.682 25.977 8.943 4.693 9.623.681 21.278-8.944 25.971zm-45.91 35.818c-12.613 6.148-17.871 21.42-11.717 34.035 6.148 12.613 21.42 17.871 34.033 11.717 12.615-6.152 17.873-21.42 11.723-34.035-6.152-12.613-21.426-17.871-34.039-11.717zm19.676 40.33c-9.625 4.693-21.279.686-25.973-8.943-4.693-9.623-.686-21.273 8.939-25.967 9.629-4.697 21.277-.686 25.971 8.939 4.7 9.63.686 21.278-8.937 25.971zm31.52-65.304c-12.615 6.152-17.873 21.426-11.719 34.039s21.422 17.871 34.035 11.717c12.619-6.152 17.871-21.42 11.723-34.033-6.155-12.616-21.42-17.876-34.039-11.723zm19.673 40.336c-9.623 4.695-21.277.686-25.971-8.943-4.693-9.625-.682-21.273 8.943-25.973 9.623-4.693 21.277-.68 25.971 8.943 4.694 9.625.686 21.279-8.943 25.973zm-100.654 12.302c-.037.059-.068.115-.105.168a3.017 3.017 0 0 0 .881 4.025 19.461 19.461 0 0 1 6.43 7.471c4.693 9.631.686 21.279-8.939 25.973-9.629 4.699-21.277.686-25.977-8.943-4.693-9.625-.68-21.273 8.943-25.969a19.44 19.44 0 0 1 9.666-1.93 3.011 3.011 0 0 0 3.17-2.631 3.016 3.016 0 0 0-2.807-3.39 25.455 25.455 0 0 0-12.672 2.529c-12.619 6.15-17.871 21.424-11.723 34.037 6.154 12.613 21.422 17.871 34.041 11.717 12.613-6.15 17.871-21.42 11.723-34.033a25.48 25.48 0 0 0-8.432-9.797 3.022 3.022 0 0 0-4.199.773z"/>
  </g>
  <path fill="#3B4252" d="M889.645 97.527h263.25c5.568 0 10.125 4.557 10.125 10.125v222.75c0 5.568-4.557 10.125-10.125 10.125h-263.25c-5.57 0-10.125-4.557-10.125-10.125v-222.75c0-5.568 4.554-10.125 10.125-10.125z"/>
  <path fill="#88C0D0" d="M1112.393 284.84H930.145a5.077 5.077 0 0 0-5.063 5.063v5.063a5.077 5.077 0 0 0 5.063 5.063h182.248a5.077 5.077 0 0 0 5.063-5.063v-5.063c-.001-2.786-2.278-5.063-5.063-5.063z"/>
  <path fill="#D8DEE9" d="M1112.393 249.402h-30.375c-2.783 0-5.063 2.279-5.063 5.063v5.063c0 2.785 2.279 5.063 5.063 5.063h30.375a5.077 5.077 0 0 0 5.063-5.063v-5.063c-.001-2.785-2.278-5.063-5.063-5.063z"/>
  <path fill="#8FBCBB" d="M1051.645 249.402h-45.563c-2.785 0-5.063 2.279-5.063 5.063v5.063a5.077 5.077 0 0 0 5.063 5.063h45.563c2.783 0 5.063-2.277 5.063-5.063v-5.063c-.001-2.785-2.28-5.063-5.063-5.063z"/>
  <path fill="#5E81AC" d="M975.707 249.402h-45.563c-2.785 0-5.063 2.279-5.063 5.063v5.063a5.077 5.077 0 0 0 5.063 5.063h45.563c2.783 0 5.063-2.277 5.063-5.063v-5.063c0-2.785-2.28-5.063-5.063-5.063zm75.938-35.437h-121.5a5.077 5.077 0 0 0-5.063 5.063v5.063a5.077 5.077 0 0 0 5.063 5.063h121.5c2.783 0 5.063-2.277 5.063-5.063v-5.063c-.001-2.786-2.28-5.063-5.063-5.063z"/>
  <path fill="#88C0D0" d="M1112.393 178.527h-91.123c-2.785 0-5.063 2.279-5.063 5.063v5.063a5.077 5.077 0 0 0 5.063 5.063h91.125c2.783 0 5.063-2.277 5.063-5.063v-5.063c-.003-2.785-2.28-5.063-5.065-5.063z"/>
  <path fill="#81A1C1" d="M990.895 178.527h-60.75c-2.785 0-5.063 2.279-5.063 5.063v5.063a5.077 5.077 0 0 0 5.063 5.063h60.75c2.783 0 5.063-2.277 5.063-5.063v-5.063c-.001-2.785-2.28-5.063-5.063-5.063z"/>
  <path fill="#D8DEE9" d="M930.145 143.09h146.813c2.783 0 5.063 2.277 5.063 5.063v5.063c0 2.785-2.279 5.063-5.063 5.063H930.145a5.077 5.077 0 0 1-5.063-5.063v-5.063a5.076 5.076 0 0 1 5.063-5.063z"/>
  <path fill="#5E81AC" d="M1124.131 242.064c1.617 0 2.93-1.314 2.93-2.93s-1.313-2.928-2.93-2.928a2.93 2.93 0 0 0-2.928 2.928 2.92 2.92 0 0 0 2.928 2.93zm-5.858-17.576a2.933 2.933 0 0 0 2.93-2.93 2.938 2.938 0 0 0-2.932-2.932 2.936 2.936 0 0 0-2.93 2.93 2.936 2.936 0 0 0 2.932 2.932z"/>
  <path fill="#81A1C1" d="M1129.988 206.91a2.933 2.933 0 0 0 2.934-2.934 2.934 2.934 0 0 0-2.93-2.928 2.938 2.938 0 0 0-2.934 2.934 2.931 2.931 0 0 0 2.93 2.928z"/>
  <path fill="#2E3440" d="M1295.82 221.836a2.94 2.94 0 0 1-2.93 2.93 2.943 2.943 0 0 1-2.93-2.939 2.956 2.956 0 0 1 2.93-2.932 2.942 2.942 0 0 1 2.93 2.941zm-11.718.029a2.963 2.963 0 0 1-.852 2.041 2.965 2.965 0 0 1-2.109.85l-22.279-.271a2.936 2.936 0 0 1-2.9-2.969 2.943 2.943 0 0 1 2.971-2.891l22.279.281a2.934 2.934 0 0 1 2.89 2.959z"/>
  <path fill="#2E3440" d="M1289.961 204.244c-.371 0-.75.021-1.15.051v-.01l-47.57 2.619-5.779.012a2.975 2.975 0 0 1-2.07-.861 2.892 2.892 0 0 1-.859-2.07v-11.729c0-8.07-6.57-14.641-14.65-14.641h-52.73c-.779 0-1.52.311-2.08.859a2.944 2.944 0 0 0-.85 2.07l-.01 14.621c.01.02.01.039.01.059v67.352a2.929 2.929 0 0 0 2.93 2.93h52.73c3.91 0 7.59-1.531 10.359-4.291a14.594 14.594 0 0 0 4.291-10.359v-11.721a2.928 2.928 0 0 1 2.93-2.93h5.76l47.551 3.16h.02a17.453 17.453 0 0 0 13.59-5.109c3.33-3.32 5.16-7.74 5.16-12.43-.003-9.691-7.884-17.57-17.583-17.582zm-80.871 55.401h-41.01l-.01-8.789h20.51c.811 0 1.541-.33 2.07-.859a2.92 2.92 0 0 0 .861-2.07 2.935 2.935 0 0 0-2.932-2.93l-20.5.01v-11.73h20.5c.811 0 1.541-.33 2.07-.859a2.928 2.928 0 0 0-2.071-5h-20.5v-11.711l20.5-.01c.811.01 1.541-.32 2.07-.85a2.927 2.927 0 0 0-2.071-5h-20.5v-11.721h20.5a2.983 2.983 0 0 0 2.08-.859 2.927 2.927 0 0 0 .852-2.07 2.928 2.928 0 0 0-2.932-2.93h-20.5l-.01-8.791h41.02v76.169zm29.291-29.299h-2.92c-4.85 0-8.791 3.949-8.801 8.789v11.721a8.649 8.649 0 0 1-2.57 6.209 8.716 8.716 0 0 1-6.209 2.58h-2.93v-76.17h2.93c4.85 0 8.789 3.941 8.789 8.781v11.729c0 2.34.91 4.551 2.57 6.211s3.871 2.57 6.221 2.58h2.92v17.57zm59.859-.231c-2.209 2.221-5.15 3.43-8.279 3.43-.25 0-.51 0-.801-.02l-44.91-2.99-.01-17.92 44.891-2.471h.02c.291-.029.561-.029.811-.039 6.459.01 11.721 5.26 11.721 11.73a11.639 11.639 0 0 1-3.443 8.28z"/>
  <path fill="#88C0D0" d="M1209.09 183.475v76.17h-41.01l-.01-8.789h20.51c.811 0 1.541-.33 2.07-.859a2.92 2.92 0 0 0 .861-2.07 2.935 2.935 0 0 0-2.932-2.93l-20.5.01v-11.73h20.5c.811 0 1.541-.33 2.07-.859a2.928 2.928 0 0 0-2.071-5h-20.5v-11.711l20.5-.01c.811.01 1.541-.32 2.07-.85a2.927 2.927 0 0 0-2.071-5h-20.5v-11.721h20.5a2.983 2.983 0 0 0 2.08-.859 2.927 2.927 0 0 0 .852-2.07 2.928 2.928 0 0 0-2.932-2.93h-20.5l-.01-8.791h41.023z"/>
  <path fill="#D8DEE9" d="M1289.961 210.105c-.25.01-.52.01-.811.039h-.02l-44.891 2.471.01 17.92 44.91 2.99c.291.02.551.02.801.02 3.129 0 6.07-1.209 8.279-3.43a11.634 11.634 0 0 0 3.441-8.279c.002-6.471-5.26-11.721-11.719-11.731zm-6.711 13.801a2.965 2.965 0 0 1-2.109.85l-22.279-.271a2.936 2.936 0 0 1-2.9-2.969 2.943 2.943 0 0 1 2.971-2.891l22.279.281a2.934 2.934 0 0 1 2.891 2.959 2.973 2.973 0 0 1-.853 2.041zm9.641.86a2.943 2.943 0 0 1-2.93-2.939 2.956 2.956 0 0 1 2.93-2.932 2.944 2.944 0 0 1 2.93 2.941 2.941 2.941 0 0 1-2.93 2.93zm-54.51-11.991v17.57h-2.92c-4.85 0-8.791 3.949-8.801 8.789v11.721a8.649 8.649 0 0 1-2.57 6.209 8.716 8.716 0 0 1-6.209 2.58h-2.93v-76.17h2.93c4.85 0 8.789 3.941 8.789 8.781v11.729c0 2.34.91 4.551 2.57 6.211s3.871 2.57 6.221 2.58h2.92z"/>
  <path fill="#88C0D0" d="M1141.711 206.91h11.717a2.9 2.9 0 0 0 2.07-.855 2.932 2.932 0 0 0-2.071-5.004h-11.717a2.933 2.933 0 0 0-2.93 2.93 2.925 2.925 0 0 0 2.931 2.929z"/>
  <path fill="#D8DEE9" d="M1147.566 189.332l5.861.002a2.932 2.932 0 0 0 2.929-2.929 2.926 2.926 0 0 0-2.932-2.932l-5.859-.002a2.933 2.933 0 0 0-2.93 2.93 2.936 2.936 0 0 0 2.931 2.931z"/>
  <path fill="#81A1C1" d="M1129.99 224.488l23.439-.002a2.907 2.907 0 0 0 2.07-.855 2.931 2.931 0 0 0-2.069-5.002l-23.441.002a2.933 2.933 0 0 0-2.93 2.93 2.934 2.934 0 0 0 2.931 2.927z"/>
  <path fill="#D8DEE9" d="M1135.854 242.068h17.574a2.944 2.944 0 0 0 2.072-.861 2.918 2.918 0 0 0 .857-2.068 2.937 2.937 0 0 0-2.932-2.932l-17.576-.002a2.93 2.93 0 0 0-2.928 2.934 2.936 2.936 0 0 0 2.933 2.929z"/>
  <path fill="#88C0D0" d="M1147.57 259.645h5.857a2.892 2.892 0 0 0 2.07-.855 2.933 2.933 0 0 0-2.071-5.004h-5.857a2.932 2.932 0 0 0-2.93 2.93 2.924 2.924 0 0 0 2.931 2.929z"/>
</svg>
