<svg xmlns="http://www.w3.org/2000/svg" viewBox="0 0 474 512">
  <path fill="#88C0D0" d="M253.239 41.3v311.594c0 19.61 15.914 35.509 35.541 35.509 19.629 0 35.541-15.898 35.541-35.509v-50.73c0-19.609 15.913-35.508 35.546-35.508 19.628 0 35.541 15.898 35.541 35.508v166.829c0 19.608 15.912 35.507 35.541 35.507 19.631 0 35.54-15.898 35.54-35.507V41.3c0-5.523-4.48-10-10.009-10H263.249c-5.529 0-10.01 4.476-10.01 10z"/>
  <path fill="#81A1C1" d="M456.48 31.3c5.528 0 10.009 4.477 10.009 10v427.688c0 9.813-3.976 18.679-10.411 25.108-6.425 6.422-15.315 10.402-25.125 10.402-3.692 0-7.257-.562-10.602-1.608a35.558 35.558 0 0 0 14.537-8.794c6.436-6.43 10.408-15.296 10.408-25.108V31.3h11.184z"/>
  <path fill="#5E81AC" d="M175.281 255.933l12.753-12.738-29.148-29.121-12.75 12.738c-25.465 25.441-54.426 47.055-85.548 65.363-8.062 4.742-16.144 10.965-23.698 18.508C9.501 338.046-.516 372.41 14.518 387.43c15.033 15.02 49.424 5.012 76.817-22.353 7.55-7.547 13.778-15.62 18.525-23.675 18.326-31.097 39.955-60.027 65.421-85.469z"/>
  <path fill="#81A1C1" d="M188.034 243.194l-12.753 12.738c-25.465 25.442-47.095 54.372-65.42 85.474-4.747 8.051-10.972 16.12-18.529 23.671-27.385 27.36-61.78 37.372-76.813 22.349-2.421-2.419-4.184-5.329-5.333-8.629 17.266 6.031 45.19-4.72 68.173-27.681 7.558-7.539 13.782-15.62 18.528-23.671 18.326-31.102 39.959-60.031 65.421-85.474l12.753-12.738 13.973 13.961z"/>
  <path fill="#88C0D0" d="M285.714 265.976l-149.63-149.492 105.344-105.25c5.001-4.992 13.106-4.992 18.106 0L391.06 142.64c5 4.992 5 13.094 0 18.086l-105.346 105.25z"/>
  <path fill="#81A1C1" d="M391.056 160.733L285.714 265.976l-14.864-14.852 105.351-105.242c4.947-4.949 4.993-12.922.149-17.93l14.706 14.688c5.004 4.992 5.004 13.093 0 18.093z"/>
  <path fill="#D8DEE9" d="M235.712 311.77L90.249 166.44c-5.001-4.996-5.001-13.094 0-18.09l39.83-39.793c5-4.996 13.105-4.996 18.106 0l145.464 145.328c5 4.996 5 13.094 0 18.09l-39.83 39.794c-5.001 4.997-13.107 4.997-18.107.001z"/>
  <path fill="#4C566A" d="M456.48 23.8h-58.43a7.5 7.5 0 1 0 0 15h58.43a2.504 2.504 0 0 1 2.502 2.5v293.859c0 4.142 3.361 7.5 7.507 7.5 4.148 0 7.508-3.358 7.508-7.5V41.3c0-9.653-7.856-17.5-17.517-17.5z"/>
  <path fill="#4C566A" d="M466.489 360.32a7.501 7.501 0 0 0-7.507 7.5v101.168c0 15.445-12.575 28.012-28.033 28.012-15.46 0-28.034-12.566-28.034-28.012V302.163c0-23.714-19.314-43.008-43.053-43.008-23.737 0-43.048 19.294-43.048 43.008v50.73c0 15.446-12.578 28.008-28.034 28.008-15.458 0-28.037-12.562-28.037-28.008v-37.437l38.212-38.18c5.215-5.208 6.972-12.563 5.32-19.239l92.094-92.008c7.917-7.91 7.917-20.785 0-28.695L297.738 38.8h67.617a7.5 7.5 0 1 0 0-15h-82.631L264.845 5.933c-7.923-7.91-20.806-7.91-28.724 0l-92.085 91.996a20.48 20.48 0 0 0-4.907-.617 20.19 20.19 0 0 0-14.361 5.941l-39.83 39.797c-7.917 7.91-7.917 20.781 0 28.691l52.822 52.777c-23.193 22.633-50.41 43.211-80.981 61.191-8.892 5.23-17.368 11.848-25.2 19.669-14.122 14.113-24.42 30.522-28.996 46.21-5.024 17.242-2.674 31.856 6.624 41.145 6.201 6.195 14.712 9.227 24.542 9.227 14.388-.004 31.591-6.503 48.455-19.078 3.32-2.479 4.004-7.18 1.525-10.495a7.508 7.508 0 0 0-10.506-1.524c-21.461 16-43.916 20.738-53.401 11.266-5.169-5.168-6.197-14.765-2.823-26.343 3.878-13.305 12.828-27.438 25.199-39.798 6.932-6.926 14.4-12.766 22.196-17.348 31.671-18.629 59.896-39.988 83.981-63.512l18.584 18.563c-23.549 24.066-44.925 52.266-63.571 83.906-2.331 3.953-5.071 7.934-8.153 11.829a7.495 7.495 0 0 0 1.24 10.534 7.482 7.482 0 0 0 4.649 1.613 7.494 7.494 0 0 0 5.896-2.852c3.503-4.429 6.635-8.977 9.305-13.516 18.001-30.547 38.599-57.737 61.252-80.909l52.822 52.772a20.171 20.171 0 0 0 14.361 5.945c.324 0 .646-.031.965-.047v29.926c0 23.715 19.315 43.008 43.052 43.008 23.738 0 43.048-19.293 43.048-43.008v-50.73c0-15.441 12.579-28.008 28.039-28.008 15.455 0 28.034 12.563 28.034 28.008v166.825c0 23.718 19.31 43.012 43.048 43.012 23.74 0 43.052-19.294 43.052-43.012V367.82a7.503 7.503 0 0 0-7.509-7.5zM246.737 16.538a5.302 5.302 0 0 1 7.487 0L385.75 147.944a5.288 5.288 0 0 1 0 7.477l-90.021 89.938-35.115-35.082 15.211-15.195a7.497 7.497 0 0 0 0-10.609c-2.933-2.926-7.688-2.926-10.616 0l-15.214 15.195-53.166-53.117 15.214-15.195a7.493 7.493 0 0 0 0-10.605c-2.933-2.926-7.687-2.93-10.616 0l-15.213 15.195-8.089-8.082 59.868-59.813a7.496 7.496 0 0 0 0-10.609c-2.932-2.93-7.687-2.93-10.615 0l-59.873 59.813-10.787-10.777 90.019-89.94zm-5.716 289.927L95.554 161.136a5.292 5.292 0 0 1 0-7.48l39.834-39.793a5.262 5.262 0 0 1 3.742-1.551c1.415 0 2.745.551 3.746 1.551L288.339 259.19a5.292 5.292 0 0 1 0 7.48l-39.83 39.794c-1.001 1-2.331 1.55-3.746 1.55s-2.741-.549-3.742-1.549z"/>
  <path fill="#4C566A" d="M147.911 174.819a7.513 7.513 0 0 0-10.619 0 7.493 7.493 0 0 0 0 10.605l79.417 79.345a7.503 7.503 0 0 0 5.31 2.194 7.499 7.499 0 0 0 5.306-12.804l-79.414-79.34zm276.003 7.457h-.078c-4.147 0-7.468 3.355-7.468 7.5s3.397 7.5 7.546 7.5a7.5 7.5 0 1 0 0-15zm6.186 20.5c-4.148.055-7.425 3.453-7.374 7.594.05 4.109 3.44 7.406 7.541 7.406h.098c4.146-.055 7.464-3.453 7.414-7.594-.051-4.109-3.402-7.406-7.508-7.406h-.171zm-46.595 23.106c-4.148 0-7.468 3.355-7.468 7.5 0 4.141 3.398 7.5 7.547 7.5 4.146 0 7.507-3.359 7.507-7.5 0-4.145-3.36-7.5-7.507-7.5h-.079z"/>
</svg>
