<svg xmlns="http://www.w3.org/2000/svg" viewBox="0 0 512.004 512.004">
  <path d="M179.953 273.774l-23.287-23.287 61.491-61.491c6.434-6.434 16.862-6.434 23.287 0 6.434 6.434 6.434 16.862 0 23.287l-61.491 61.491zm82.671 80.358l-23.287-23.287 60.339-60.339c6.434-6.434 16.862-6.434 23.287 0 6.434 6.434 6.434 16.862 0 23.287l-60.339 60.339z" fill="#e5e9f0"/>
  <path fill="#d8dee9" d="M426.639 108.543l-23.29-23.29 76.798-76.8 23.29 23.291z"/>
  <path d="M418.135 152.046l-58.231-58.231 20.864-20.864c6.665-6.665 17.468-6.665 24.132 0l34.099 34.099c6.665 6.665 6.665 17.468 0 24.132l-20.864 20.864z" fill="#eceff4"/>
  <path d="M381.195 282.154l-151.398-151.39 50.936-50.935c23.322-23.322 61.133-23.322 84.454 0l66.935 66.935c23.322 23.322 23.322 61.133 0 84.454l-50.927 50.936z" fill="#88c0d0"/>
  <path fill="#d8dee9" d="M86.5 402.155l23.29 23.29-77.951 77.952-23.29-23.29z"/>
  <path d="M93.869 359.858L152.1 418.09l-20.864 20.864c-6.665 6.665-17.468 6.665-24.132 0l-34.099-34.099c-6.665-6.665-6.665-17.468 0-24.132l20.864-20.865z" fill="#eceff4"/>
  <path d="M142.458 218.102l151.39 151.39-62.583 62.583c-23.322 23.322-61.133 23.322-84.454 0L79.874 365.14c-23.322-23.322-23.322-61.133 0-84.454l62.584-62.584z" fill="#88c0d0"/>
  <path fill="#81a1c1" d="M200.701 416.059L95.893 311.25l46.581-46.581 104.809 104.808z"/>
  <g fill="#4C566A">
    <path d="M433.598 110.181a8.513 8.513 0 0 1-6.033-2.5l-23.287-23.287a8.523 8.523 0 0 1 0-12.066l69.871-69.871c3.2-3.2 8.866-3.2 12.066 0l23.287 23.287a8.523 8.523 0 0 1 0 12.066l-69.871 69.871a8.526 8.526 0 0 1-6.033 2.5zm-11.221-31.82l11.221 11.221 57.805-57.805-11.221-11.221-57.805 57.805z"/>
    <path d="M427.77 150.945a8.513 8.513 0 0 1-6.033-2.5l-58.231-58.231a8.526 8.526 0 0 1-2.5-6.033c0-2.27.896-4.437 2.5-6.033l11.23-11.221c9.984-9.984 26.214-9.984 36.198 0l34.099 34.099c9.984 9.984 9.984 26.214 0 36.198l-11.221 11.221a8.569 8.569 0 0 1-6.042 2.5zm-46.157-66.773l46.157 46.165 5.188-5.188c3.328-3.328 3.328-8.738 0-12.066l-34.091-34.099c-3.328-3.328-8.738-3.311-12.066 0l-5.188 5.188z"/>
    <path d="M381.186 290.687a8.509 8.509 0 0 1-6.033-2.5l-151.39-151.398c-1.604-1.604-2.5-3.763-2.5-6.033s.896-4.437 2.5-6.033l50.935-50.935c12.894-12.894 30.029-19.994 48.256-19.994 18.236 0 35.371 7.1 48.265 19.994l66.935 66.935c26.607 26.607 26.607 69.914 0 96.529l-50.935 50.935a8.509 8.509 0 0 1-6.033 2.5zM241.862 130.755l139.324 139.332 44.902-44.902c19.951-19.959 19.951-52.437 0-72.388l-66.935-66.935c-9.668-9.668-22.519-14.993-36.198-14.993-13.67 0-26.522 5.325-36.19 14.993l-44.903 44.893z"/>
    <path d="M363.727 133.477a8.509 8.509 0 0 1-6.033-2.5l-23.296-23.305c-6.298-6.298-16.546-6.298-22.852 0l-23.296 23.305c-3.328 3.337-8.73 3.337-12.066 0a8.523 8.523 0 0 1 0-12.066l23.296-23.305c12.954-12.954 34.022-12.954 46.985 0l23.296 23.305a8.523 8.523 0 0 1 0 12.066 8.543 8.543 0 0 1-6.034 2.5zM31.823 511.948a8.513 8.513 0 0 1-6.033-2.5L2.502 486.16a8.523 8.523 0 0 1 0-12.066l69.871-69.871a8.526 8.526 0 0 1 6.033-2.5c2.261 0 4.437.896 6.033 2.5l23.287 23.287a8.523 8.523 0 0 1 0 12.066l-69.871 69.871a8.49 8.49 0 0 1-6.032 2.501zm-11.221-31.821l11.221 11.221 57.805-57.805-11.221-11.221-57.805 57.805z"/>
    <path d="M119.162 452.47c-6.554 0-13.107-2.492-18.099-7.484l-34.099-34.099c-9.984-9.984-9.984-26.214 0-36.198l11.221-11.221a8.526 8.526 0 0 1 6.033-2.5c2.261 0 4.437.896 6.033 2.5l58.231 58.231a8.526 8.526 0 0 1 2.5 6.033c0 2.27-.896 4.437-2.5 6.033l-11.23 11.221c-4.983 4.993-11.537 7.484-18.09 7.484zm-34.927-70.912l-5.188 5.188c-3.328 3.328-3.328 8.738 0 12.066l34.099 34.099c3.328 3.328 8.738 3.311 12.066 0l5.188-5.188-46.165-46.165z"/>
    <path d="M189.041 458.102c-18.236 0-35.371-7.1-48.265-19.994l-66.935-66.935c-26.607-26.607-26.607-69.914 0-96.529l62.583-62.583c3.2-3.2 8.866-3.2 12.066 0l151.39 151.39a8.523 8.523 0 0 1 0 12.066L237.306 438.1c-12.894 12.903-30.029 20.002-48.265 20.002zm-46.583-227.933l-56.55 56.55c-19.951 19.959-19.951 52.437 0 72.388l66.935 66.935c9.668 9.668 22.519 14.993 36.198 14.993 13.67 0 26.522-5.325 36.19-14.993l56.542-56.55-139.315-139.323z"/>
    <path d="M189.041 273.219a8.509 8.509 0 0 1-6.033-2.5l-23.287-23.287a8.51 8.51 0 0 1-2.5-6.033c0-2.27.896-4.437 2.5-6.033l52.412-52.403c9.438-9.455 25.907-9.446 35.362 0 4.719 4.719 7.322 10.991 7.322 17.673s-2.603 12.962-7.322 17.681l-52.403 52.403a8.584 8.584 0 0 1-6.051 2.499zm-11.23-31.829l11.221 11.221 46.37-46.37a7.872 7.872 0 0 0 2.321-5.615 7.87 7.87 0 0 0-2.321-5.598c-3.004-3.012-8.226-3.012-11.221-.009l-46.37 46.371zm92.749 113.34a8.509 8.509 0 0 1-6.033-2.5l-23.287-23.287c-1.604-1.604-2.5-3.763-2.5-6.033s.896-4.437 2.5-6.033l52.403-52.403c9.754-9.762 25.609-9.754 35.362 0 9.745 9.754 9.745 25.609 0 35.362l-52.412 52.403a8.503 8.503 0 0 1-6.033 2.491zm-11.221-31.821l11.221 11.221 46.37-46.37c3.089-3.089 3.089-8.132 0-11.221-2.995-3.004-8.218-3.004-11.221 0l-46.37 46.37zm-58.65 101.7a8.509 8.509 0 0 1-6.033-2.5L89.841 317.302a8.523 8.523 0 0 1 0-12.066l46.583-46.583a8.523 8.523 0 0 1 12.066 0l104.806 104.806a8.523 8.523 0 0 1 0 12.066l-46.583 46.583a8.499 8.499 0 0 1-6.024 2.501zm-92.749-113.34l92.74 92.74 34.517-34.517-92.74-92.74-34.517 34.517z"/>
    <path d="M189.041 366.386a8.509 8.509 0 0 1-6.033-2.5l-34.935-34.944a8.523 8.523 0 0 1 0-12.066 8.523 8.523 0 0 1 12.066 0l34.935 34.944a8.523 8.523 0 0 1 0 12.066 8.509 8.509 0 0 1-6.033 2.5z"/>
  </g>
</svg>
