<!--
Copyright (c) 2016-present Sven Greb <development@svengreb.de>
This source code is licensed under the MIT license found in the license file.
-->
<svg viewBox="0 0 512 512" xmlns="http://www.w3.org/2000/svg">
  <path d="M501.333 96v362.667c0 23.564-19.103 42.667-42.667 42.667H53.333c-23.564 0-42.667-19.103-42.667-42.667V96h490.667z" fill="#81a1c1" />
  <path d="M501.333 53.333V96H10.667V53.333c0-23.564 19.103-42.667 42.667-42.667h405.333c23.564.001 42.666 19.103 42.666 42.667z" fill="#d8dee9" />
  <circle cx="384" cy="384" r="32" fill="#81a1c1" />
  <path
    d="M501.333 362.667v42.667H466.56a88.37 88.37 0 0 1-9.067 21.973l24.533 24.533-30.187 30.187-24.533-24.533a88.385 88.385 0 0 1-21.973 9.067v34.773h-42.667V466.56a88.37 88.37 0 0 1-21.973-9.067l-24.533 24.533-30.187-30.187 24.533-24.533a88.385 88.385 0 0 1-9.067-21.973h-34.773v-42.667h34.773a88.37 88.37 0 0 1 9.067-21.973l-24.533-24.533 30.187-30.187 24.533 24.533a88.385 88.385 0 0 1 21.973-9.067v-34.773h42.667v34.773a88.37 88.37 0 0 1 21.973 9.067l24.533-24.533 30.187 30.187-24.533 24.533a88.385 88.385 0 0 1 9.067 21.973h34.773zM416 384c0-17.673-14.327-32-32-32s-32 14.327-32 32 14.327 32 32 32 32-14.327 32-32z"
    fill="#88c0d0"
  />
  <path
    d="M245.333 170.667h192c5.891 0 10.667 4.776 10.667 10.667v21.333c0 5.891-4.776 10.667-10.667 10.667h-192c-5.891 0-10.667-4.776-10.667-10.667v-21.333c.001-5.892 4.776-10.667 10.667-10.667z"
    fill="#d8dee9"
  />
  <g fill="#4c566a">
    <path
      d="M458.667 0H53.333C23.893.035.035 23.893 0 53.333v405.333C.035 488.107 23.893 511.965 53.333 512H288v-21.333H53.333c-17.673 0-32-14.327-32-32V53.333c0-17.673 14.327-32 32-32h405.333c17.673 0 32 14.327 32 32V256H512V53.333C511.965 23.893 488.107.035 458.667 0z"
    />
    <path
      d="M42.667 85.333h426.667v21.333H42.667V85.333zm10.666-42.666h21.333V64H53.333V42.667zm42.667 0h21.333V64H96V42.667zm341.333 0h21.333V64h-21.333V42.667zM170.667 128H192v341.333h-21.333V128zm330.666 224h-26.901c-1.12-3.2-2.411-6.261-3.851-9.312l18.987-18.987c4.164-4.165 4.164-10.917 0-15.083l-30.187-30.187c-4.165-4.164-10.917-4.164-15.083 0l-18.997 18.987a100.781 100.781 0 0 0-9.301-3.851v-26.901c0-5.891-4.776-10.667-10.667-10.667h-42.667c-5.891 0-10.667 4.776-10.667 10.667v26.901a100.116 100.116 0 0 0-9.301 3.851L323.701 278.4c-4.165-4.164-10.917-4.164-15.083 0l-30.187 30.187c-4.164 4.165-4.164 10.917 0 15.083l18.987 18.987a101.89 101.89 0 0 0-3.851 9.312h-26.901c-5.891 0-10.667 4.776-10.667 10.667v42.667c0 5.891 4.776 10.667 10.667 10.667h26.901c1.12 3.2 2.411 6.261 3.851 9.312l-18.987 18.987c-4.164 4.165-4.164 10.917 0 15.083l30.187 30.187c4.165 4.164 10.917 4.164 15.083 0l18.997-18.987a100.667 100.667 0 0 0 9.301 3.851v26.933c0 5.891 4.776 10.667 10.667 10.667h42.667c5.891 0 10.667-4.776 10.667-10.667v-26.901a100.116 100.116 0 0 0 9.301-3.851l18.997 18.987c4.165 4.164 10.917 4.164 15.083 0l30.187-30.187c4.164-4.165 4.164-10.917 0-15.083l-18.987-18.987a101.89 101.89 0 0 0 3.851-9.312h26.901c5.891 0 10.667-4.776 10.667-10.667v-42.667c0-5.892-4.776-10.668-10.667-10.668zm-10.666 42.667H466.56a10.667 10.667 0 0 0-10.325 7.979 78.394 78.394 0 0 1-7.979 19.328 10.668 10.668 0 0 0 1.696 12.875l16.992 16.992-15.104 15.104-16.992-16.992a10.668 10.668 0 0 0-12.875-1.696 77.91 77.91 0 0 1-19.328 7.979 10.667 10.667 0 0 0-7.979 10.325v24.107h-21.333V466.56a10.667 10.667 0 0 0-7.979-10.325 77.873 77.873 0 0 1-19.328-7.979 10.668 10.668 0 0 0-12.875 1.696l-16.992 16.992-15.104-15.104 16.992-16.992a10.666 10.666 0 0 0 1.696-12.875 78.394 78.394 0 0 1-7.979-19.328 10.667 10.667 0 0 0-10.325-7.979h-24.107v-21.333h24.107a10.667 10.667 0 0 0 10.325-7.979 78.356 78.356 0 0 1 7.979-19.328 10.668 10.668 0 0 0-1.696-12.875l-16.992-16.992 15.104-15.104 16.992 16.992a10.668 10.668 0 0 0 12.875 1.696 77.91 77.91 0 0 1 19.328-7.979 10.667 10.667 0 0 0 7.979-10.325v-24.107h21.333v24.107a10.667 10.667 0 0 0 7.979 10.325 77.835 77.835 0 0 1 19.328 7.979 10.668 10.668 0 0 0 12.875-1.696l16.992-16.992 15.104 15.104-16.992 16.992a10.668 10.668 0 0 0-1.696 12.875 78.394 78.394 0 0 1 7.979 19.328 10.667 10.667 0 0 0 10.325 7.979h24.107v21.334z"
    />
    <path
      d="M384 341.333c-23.564 0-42.667 19.102-42.667 42.667s19.103 42.667 42.667 42.667 42.667-19.102 42.667-42.667-19.103-42.667-42.667-42.667zm0 64c-11.782 0-21.333-9.551-21.333-21.333s9.551-21.333 21.333-21.333c11.782 0 21.333 9.551 21.333 21.333s-9.551 21.333-21.333 21.333zM437.333 224c11.782 0 21.333-9.551 21.333-21.333v-21.333c0-11.782-9.551-21.333-21.333-21.333h-192C233.551 160 224 169.551 224 181.333v21.333c0 11.782 9.551 21.333 21.333 21.333h192zm-192-42.667h192v21.333h-192v-21.333zm-21.333 64h21.333v21.333H224v-21.333zM224 288h21.333v21.333H224V288zm42.667-42.667H288v21.333h-21.333v-21.333zM64 181.333h53.333v21.333H64v-21.333zm0 53.334h53.333V256H64v-21.333zM64 288h53.333v21.333H64V288zm0 53.333h53.333v21.333H64v-21.333zm0 53.334h53.333V416H64v-21.333z"
    />
  </g>
</svg>
