<!--
Copyright (c) 2016-present Sven Greb <development@svengreb.de>
This source code is licensed under the MIT license found in the license file.
-->
<svg viewBox="0 -59 512 512" xmlns="http://www.w3.org/2000/svg">
  <path d="M489.883 290.797H84.539V39.262h419.344v237.535c0 7.73-6.266 14-14 14zm0 0" fill="#2e3440" />
  <path d="M447.148 39.262v208.215c0 5.52-4.476 10-10 10H84.54v33.32h405.066c7.887 0 14.278-6.395 14.278-14.281V39.262zm0 0" fill="#3b4252" />
  <path d="M412.844 387.14H21.5c-7.73 0-14-6.269-14-14V135.606h419.344v237.536c0 7.73-6.266 14-14 14zm0 0" fill="#2e3440" />
  <path
    d="M370.11 135.605v208.211c0 5.524-4.477 10-10 10H7.5v19.043c0 7.887 6.395 14.282 14.281 14.282h390.785c7.887 0 14.282-6.395 14.282-14.282V135.605zm0 0"
    fill="#3b4252"
  />
  <path
    d="M426.844 171.066H7.5v-53.222c0-7.735 6.27-14 14-14h391.344c7.734 0 14 6.265 14 14zm77.039-96.343H84.539V21.5c0-7.73 6.27-14 14-14h391.344c7.734 0 14 6.27 14 14zm0 0"
    fill="#eceff4"
  />
  <path
    d="M426.844 171.066h-56.735v-67.222h42.735c7.734 0 14 6.265 14 14zm77.039-96.343h-56.735V7.5h42.457c7.887 0 14.278 6.395 14.278 14.281zm0 0"
    fill="#d8dee9"
  />
  <path
    d="M136.938 40.89c0 8.008-6.493 14.5-14.5 14.5-8.004 0-14.497-6.492-14.497-14.5 0-8.003 6.493-14.495 14.496-14.495 8.008 0 14.5 6.492 14.5 14.496zm0 0"
    fill="#bf616a"
  />
  <path
    d="M189.734 40.89c0 8.008-6.492 14.5-14.5 14.5-8.004 0-14.496-6.492-14.496-14.5 0-8.003 6.492-14.495 14.496-14.495 8.008 0 14.5 6.492 14.5 14.496zm0 0"
    fill="#ebcb8b"
  />
  <path
    d="M242.531 40.89c0 8.008-6.492 14.5-14.5 14.5-8.004 0-14.496-6.492-14.496-14.5 0-8.003 6.492-14.495 14.496-14.495 8.008 0 14.5 6.492 14.5 14.496zm0 0"
    fill="#a3be8c"
  />
  <path
    d="M59.898 137.234c0 8.008-6.492 14.496-14.5 14.496-8.003 0-14.496-6.488-14.496-14.496s6.493-14.496 14.496-14.496c8.008 0 14.5 6.489 14.5 14.496zm0 0"
    fill="#bf616a"
  />
  <path
    d="M112.695 137.234c0 8.008-6.492 14.496-14.5 14.496-8.004 0-14.496-6.488-14.496-14.496s6.492-14.496 14.496-14.496c8.008 0 14.5 6.489 14.5 14.496zm0 0"
    fill="#ebcb8b"
  />
  <path
    d="M165.492 137.234c0 8.008-6.492 14.496-14.5 14.496-8.004 0-14.496-6.488-14.496-14.496s6.492-14.496 14.496-14.496c8.008 0 14.5 6.489 14.5 14.496zm0 0"
    fill="#a3be8c"
  />
  <path
    d="M122.438 62.89c-12.13 0-21.997-9.87-21.997-22s9.868-21.995 21.996-21.995 22 9.867 22 21.996-9.87 22-22 22zm0-28.995c-3.856 0-6.997 3.136-6.997 6.996s3.141 6.996 6.996 6.996c3.86 0 7-3.137 7-6.996s-3.14-6.996-7-6.996zm52.796 28.995c-12.129 0-21.996-9.87-21.996-22s9.867-21.995 21.996-21.995 22 9.867 22 21.996-9.87 22-22 22zm0-28.995c-3.855 0-6.996 3.136-6.996 6.996s3.14 6.996 6.996 6.996c3.86 0 7-3.137 7-6.996s-3.14-6.996-7-6.996zm52.797 28.995c-12.129 0-21.996-9.87-21.996-22s9.867-21.995 21.996-21.995 22 9.867 22 21.996-9.867 22-22 22zm0-28.995c-3.855 0-6.996 3.136-6.996 6.996s3.14 6.996 6.996 6.996c3.86 0 7-3.137 7-6.996s-3.14-6.996-7-6.996zM45.398 159.23c-12.128 0-21.996-9.867-21.996-21.996s9.868-21.996 21.996-21.996c12.13 0 22 9.867 22 21.996s-9.87 21.996-22 21.996zm0-28.992c-3.859 0-6.996 3.137-6.996 6.996s3.137 6.996 6.996 6.996c3.86 0 7-3.136 7-6.996s-3.14-6.996-7-6.996zm52.797 28.992c-12.129 0-21.996-9.867-21.996-21.996s9.867-21.996 21.996-21.996c12.13 0 22 9.867 22 21.996s-9.87 21.996-22 21.996zm0-28.992c-3.855 0-6.996 3.137-6.996 6.996s3.14 6.996 6.996 6.996c3.86 0 7-3.136 7-6.996s-3.14-6.996-7-6.996zm52.797 28.992c-12.129 0-21.996-9.867-21.996-21.996s9.867-21.996 21.996-21.996c12.133 0 22 9.867 22 21.996s-9.87 21.996-22 21.996zm0-28.992c-3.855 0-6.996 3.137-6.996 6.996s3.14 6.996 6.996 6.996c3.86 0 7-3.136 7-6.996s-3.14-6.996-7-6.996zm22.148 86.11c0-4.145-3.355-7.5-7.5-7.5H59.028a7.5 7.5 0 1 0 0 15h106.614a7.502 7.502 0 0 0 7.5-7.5zm228.727 7.496a7.5 7.5 0 1 0 0-15h-71.18a7.5 7.5 0 1 0 0 15zm-143.031 0c4.144 0 7.5-3.356 7.5-7.5a7.5 7.5 0 0 0-7.5-7.5h-56.082a7.5 7.5 0 1 0 0 15zm106.793 45.996c0-4.145-3.356-7.5-7.5-7.5H251.516a7.5 7.5 0 1 0 0 15h106.613a7.5 7.5 0 0 0 7.5-7.5zm-143.027 0a7.5 7.5 0 0 0-7.5-7.5H159.02a7.497 7.497 0 0 0-7.5 7.5 7.5 7.5 0 0 0 7.5 7.5h56.082c4.14 0 7.5-3.36 7.5-7.5zm-39.782 62.652h106.614a7.5 7.5 0 1 0 0-15H182.82a7.5 7.5 0 1 0 0 15zm-123.886 0h56.082a7.5 7.5 0 0 0 7.5-7.5c0-4.144-3.356-7.5-7.5-7.5H58.934a7.5 7.5 0 1 0 0 15zm445.566-15h-19.297a7.5 7.5 0 1 0 0 15H504.5a7.5 7.5 0 1 0 0-15zm0 0"
    fill="#4c566a"
  />
  <path
    d="M450.355 317.492h-16.011v-19.195h55.261c12.008 0 21.782-9.77 21.782-21.777V21.78c0-12.01-9.774-21.78-21.782-21.78H98.82C86.81 0 77.04 9.77 77.04 21.781v74.563H21.5c-11.855 0-21.5 9.644-21.5 21.5V373.14c0 11.855 9.645 21.5 21.5 21.5h391.344c11.855 0 21.5-9.649 21.5-21.5v-13a7.5 7.5 0 1 0-15 0v13c0 3.582-2.914 6.5-6.5 6.5H21.5a6.508 6.508 0 0 1-6.5-6.5V178.566h404.344v138.926h-52.766a7.497 7.497 0 0 0-7.5 7.5 7.5 7.5 0 0 0 7.5 7.5h83.777a7.5 7.5 0 1 0 0-15zM92.04 21.782A6.785 6.785 0 0 1 98.82 15h390.785a6.788 6.788 0 0 1 6.782 6.781v45.442H120.07a7.5 7.5 0 1 0 0 15h376.317V276.52c0 3.738-3.043 6.777-6.782 6.777h-55.261V117.844c0-11.856-9.645-21.5-21.496-21.5H92.039zM15 163.565v-45.722c0-3.586 2.914-6.5 6.5-6.5h391.348c3.582 0 6.5 2.914 6.5 6.5v45.722zm0 0"
    fill="#4c566a"
  />
  <path
    d="M78.688 247.488a7.497 7.497 0 0 0-10.606 0l-17.047 17.047a7.497 7.497 0 0 0 0 10.606l17.047 17.046a7.475 7.475 0 0 0 5.3 2.2c1.923 0 3.84-.735 5.305-2.2a7.497 7.497 0 0 0 0-10.605L66.942 269.84l11.746-11.746a7.497 7.497 0 0 0 0-10.606zm47.687 17.047l-17.047-17.047a7.497 7.497 0 0 0-10.605 0 7.497 7.497 0 0 0 0 10.606l11.742 11.746-11.742 11.742a7.497 7.497 0 0 0 0 10.605 7.477 7.477 0 0 0 5.304 2.2 7.475 7.475 0 0 0 5.301-2.2l17.047-17.046a7.497 7.497 0 0 0 0-10.606zm39.098 38.105a7.497 7.497 0 0 0-10.606 0l-17.047 17.048a7.497 7.497 0 0 0 0 10.605l17.047 17.047a7.477 7.477 0 0 0 5.305 2.2 7.475 7.475 0 0 0 5.3-2.2 7.497 7.497 0 0 0 0-10.606l-11.742-11.742 11.743-11.746a7.497 7.497 0 0 0 0-10.605zm142.867 44.7a7.475 7.475 0 0 0 5.3 2.2c1.923 0 3.84-.735 5.305-2.2l17.047-17.047a7.497 7.497 0 0 0 0-10.605l-17.047-17.047a7.497 7.497 0 0 0-10.605 0 7.497 7.497 0 0 0 0 10.605l11.742 11.746-11.742 11.742a7.497 7.497 0 0 0 0 10.606zm-20.895-112.387l22.91-22.906a7.497 7.497 0 0 0 0-10.606 7.497 7.497 0 0 0-10.605 0l-22.91 22.907a7.497 7.497 0 0 0 0 10.605 7.477 7.477 0 0 0 5.305 2.2 7.475 7.475 0 0 0 5.3-2.2zm0 0"
    fill="#88c0d0"
  />
</svg>
