<svg xmlns="http://www.w3.org/2000/svg" viewBox="0 0 1000 600">
  <path fill="none" d="M274.149 357.745h451.702v63.793H274.149z" />
  <path
    fill="#88C0D0"
    d="M277.75 357.747h2.001l32.548 45.954h.133v-45.954h1.334v47.621h-2.001l-32.548-45.954h-.133v45.954h-1.334v-47.621zm56.961 12.539c10.004 0 15.407 8.604 15.407 17.941 0 9.404-5.403 17.941-15.474 17.941-10.004 0-15.407-8.537-15.407-17.941.001-9.337 5.403-17.941 15.474-17.941zm0 34.549c9.138 0 14.073-7.938 14.073-16.607 0-8.537-4.936-16.607-14.073-16.607-9.271 0-14.14 8.07-14.14 16.607 0 8.669 4.869 16.607 14.14 16.607zm22.279.533h-1.334v-34.282h1.334v8.471h.133c1.267-5.068 5.269-9.537 13.473-9.271v1.334c-9.404-.467-13.606 6.869-13.606 14.34v19.408zm42.618-47.621h1.334v47.621h-1.334v-9.604h-.133c-1.734 6.003-6.736 10.405-13.739 10.405-9.071 0-14.606-7.537-14.606-17.875 0-9.604 5.135-18.008 14.606-18.008 7.27 0 12.139 4.202 13.739 10.404h.133v-22.943zm-13.872 13.873c-9.404 0-13.273 8.737-13.273 16.674 0 8.804 4.402 16.541 13.273 16.541 8.804 0 13.873-7.671 13.873-16.541-.001-10.605-5.536-16.674-13.873-16.674z"
  />
  <path
    fill="#2E3440"
    d="M427.556 357.747h4.202v19.142h.134c1.534-4.135 6.136-6.937 11.005-6.937 9.671 0 12.605 5.069 12.605 13.272v22.144H451.3v-21.477c0-5.936-1.934-10.404-8.737-10.404-6.67 0-10.671 5.069-10.805 11.806v20.075h-4.202v-47.621zm35.95 0h4.202v6.736h-4.202v-6.736zm0 13.206h4.202v34.415h-4.202v-34.415zm41.352 31.614c-.066 10.271-4.001 16.54-15.273 16.54-6.87 0-13.673-3.068-14.273-10.404h4.202c.934 5.068 5.402 6.869 10.071 6.869 7.736 0 11.071-4.602 11.071-13.005v-4.669h-.133c-1.934 4.201-6.003 7.069-10.938 7.069-11.005 0-15.541-7.87-15.541-17.674 0-9.472 5.603-17.342 15.541-17.342 5.002 0 9.271 3.135 10.938 6.937h.133v-5.936h4.202v31.615zm-4.201-14.806c0-6.736-3.135-14.273-11.071-14.273-8.004 0-11.338 7.137-11.338 14.273 0 6.937 3.602 13.672 11.338 13.672 7.269 0 11.071-6.669 11.071-13.672zm12.14-30.014h4.202v19.142h.134c1.534-4.135 6.136-6.937 11.005-6.937 9.671 0 12.605 5.069 12.605 13.272v22.144h-4.202v-21.477c0-5.936-1.934-10.404-8.737-10.404-6.669 0-10.671 5.069-10.805 11.806v20.075h-4.202v-47.621zm35.951 0h4.202v47.621h-4.202v-47.621zm12.339 0h4.202v6.736h-4.202v-6.736zm0 13.206h4.202v34.415h-4.202v-34.415zm41.351 31.614c-.066 10.271-4.002 16.54-15.273 16.54-6.869 0-13.673-3.068-14.272-10.404h4.201c.935 5.068 5.402 6.869 10.071 6.869 7.737 0 11.072-4.602 11.072-13.005v-4.669h-.134c-1.935 4.201-6.003 7.069-10.938 7.069-11.005 0-15.54-7.87-15.54-17.674 0-9.472 5.603-17.342 15.54-17.342 5.003 0 9.271 3.135 10.938 6.937h.134v-5.936h4.201v31.615zm-4.201-14.806c0-6.736-3.135-14.273-11.072-14.273-8.003 0-11.338 7.137-11.338 14.273 0 6.937 3.602 13.672 11.338 13.672 7.271 0 11.072-6.669 11.072-13.672zm12.141-30.014h4.201v19.142h.134c1.534-4.135 6.136-6.937 11.005-6.937 9.671 0 12.605 5.069 12.605 13.272v22.144h-4.202v-21.477c0-5.936-1.934-10.404-8.737-10.404-6.669 0-10.671 5.069-10.805 11.806v20.075h-4.201v-47.621zm42.554 13.206h7.003v3.535h-7.003v23.21c0 2.734.399 4.335 3.401 4.535 1.2 0 2.4-.066 3.602-.2v3.602c-1.268 0-2.468.134-3.735.134-5.603 0-7.537-1.868-7.47-7.737v-23.543h-6.003v-3.535h6.003v-10.338h4.202v10.337zm15.54 34.415v-7.069h5.603v7.069h-5.603zm16.141-34.415h4.202v37.616c0 5.136-1.4 9.538-7.337 9.538-1 0-1.934-.134-2.935-.134v-3.468c.667.066 1.601.133 2.268.066 3.269 0 3.802-2.135 3.802-5.002v-38.616zm0-13.206h4.202v6.736h-4.202v-6.736zm32.882 23.277c-.2-5.203-4.202-7.537-9.005-7.537-3.734 0-8.137 1.468-8.137 5.937 0 3.734 4.269 5.068 7.137 5.802l5.603 1.268c4.802.733 9.805 3.535 9.805 9.537 0 7.471-7.403 10.338-13.807 10.338-8.003 0-13.473-3.734-14.14-12.139h4.202c.333 5.67 4.535 8.604 10.138 8.604 3.936 0 9.404-1.734 9.404-6.536 0-4.002-3.735-5.336-7.537-6.27l-5.402-1.201c-5.469-1.467-9.604-3.334-9.604-9.204 0-7.003 6.869-9.671 12.938-9.671 6.87 0 12.339 3.602 12.605 11.072h-4.2z"
  />
  <g fill="#2E3440">
    <path d="M532.712 331.769l-62.919-80.54v-22.345l69.733 90.146h37.473V192.091h-63.023l-13.625-13.629h90.273v153.307z" />
    <path d="M467.287 178.462l62.921 80.535v22.346l-69.734-90.145h-37.472v126.94h63.022l13.629 13.631h-90.278V178.462z" />
  </g>
</svg>
